<svg width="1299" height="289" viewBox="0 0 1299 289" fill="none" xmlns="http://www.w3.org/2000/svg">
<path d="M417.5 13.5L261.5 28.5H124.173C59.3025 28.5 6.02828 79.7646 3.53511 144.587L0.812781 215.368C-0.654141 253.508 32.6898 283.715 70.5 278.5V278.5M386.5 288.5L415.999 275.436C441.55 264.121 470.896 265.252 495.5 278.5V278.5M807.5 257.5V257.5C836.409 277.415 871.819 285.573 906.528 280.314L918.5 278.5M1225.5 288.5V288.5C1270.54 277.528 1301.1 235.663 1297.81 189.421L1295.89 162.411C1292.84 119.439 1268.23 80.9378 1230.51 60.1267L1184.88 34.9497C1159.21 20.7889 1131 11.8276 1101.87 8.57859L1059.23 3.82285C1027.5 0.284863 995.489 0.221632 963.751 3.63428L872 13.5" stroke="#ECE6E1" stroke-linecap="round" stroke-linejoin="round"/>
</svg>
