<svg width="72" height="79" viewBox="0 0 72 79" fill="none" xmlns="http://www.w3.org/2000/svg">
<g filter="url(#filter0_d)">
<circle cx="36.0002" cy="32.0001" r="31.1467" fill="#FFA722"/>
<path d="M62.0265 28.3734C62.0265 44.5148 56.408 56.32 40.2665 56.32C24.1251 56.32 10.1865 47.7148 10.1865 31.5734C10.1865 15.4319 20.9251 6.40002 37.0665 6.40002C53.208 6.40002 62.0265 12.2319 62.0265 28.3734Z" fill="#FFB422"/>
<path d="M41.3616 19.8434C41.0229 19.3016 41.1584 18.6018 41.7002 18.2406C44.8607 16.1637 51.272 15.2832 55.6741 16.2765C56.3062 16.412 56.6899 17.0441 56.5545 17.6536C56.4191 18.2857 55.7869 18.6695 55.1774 18.534C51.3397 17.6762 45.6508 18.4437 42.9644 20.182C42.7612 20.3175 42.558 20.3626 42.3323 20.3626C41.9711 20.3626 41.5873 20.182 41.3616 19.8434ZM22.7146 36.8875C22.4437 37.1132 22.1728 37.2713 21.8342 37.4067C21.5182 37.5422 21.1795 37.6099 20.8409 37.6099L20.254 38.8515C20.1862 39.0095 20.1185 39.1224 20.0508 39.1901C19.9831 39.2579 19.9153 39.2804 19.825 39.2804C19.7347 39.2804 19.667 39.2579 19.5993 39.1901C19.5316 39.145 19.509 39.0547 19.509 38.9644C19.509 38.8967 19.5541 38.7838 19.6219 38.6258L20.2314 37.339C20.1185 37.3841 20.0056 37.4293 19.8928 37.4744C19.6444 37.5647 19.3961 37.5873 19.1478 37.5873C18.8769 37.5873 18.6511 37.5196 18.4931 37.4067C18.3351 37.2713 18.2448 37.1132 18.2448 36.8875C18.2448 36.6843 18.3351 36.5037 18.4931 36.3005C18.6286 36.1651 18.8317 35.9619 19.1026 35.7136C19.2832 35.533 19.4187 35.4427 19.4413 35.3975C19.5993 35.2169 19.4864 35.0363 19.0575 35.2621C18.8769 35.3524 18.7189 35.4427 18.5383 35.5556L18.3125 35.691C18.2222 35.7587 18.1319 35.7813 18.0416 35.7813C17.9965 35.7813 17.9513 35.7587 17.9062 35.7362C17.861 35.7136 17.8159 35.6684 17.7933 35.6233C17.7707 35.5781 17.7481 35.533 17.7481 35.4878C17.7481 35.3975 17.7933 35.3072 17.8836 35.2169C17.9739 35.1266 18.1319 35.0138 18.3802 34.8783C18.8995 34.5848 19.3058 34.4268 19.5993 34.4268C20.1862 34.4268 20.4571 35.0815 20.1411 35.5556C20.0508 35.691 19.8702 35.8716 19.6444 36.0974L19.3058 36.3908C19.1252 36.5489 19.0575 36.6617 19.0575 36.752C19.0575 36.7972 19.0801 36.8423 19.1252 36.8875C19.1704 36.9101 19.2155 36.9326 19.2832 36.9326C19.4187 36.9326 19.5993 36.8875 19.8476 36.7746C20.0959 36.6617 20.3443 36.5489 20.57 36.3908C20.6152 36.3683 20.6603 36.3457 20.6829 36.3231L21.3827 34.8557C21.4504 34.6977 21.5182 34.5848 21.5859 34.5171C21.6536 34.4494 21.7213 34.4268 21.8116 34.4268C21.9019 34.4268 21.9922 34.4494 22.0374 34.5171C22.1051 34.5623 22.1277 34.6526 22.1277 34.7203V34.7429C22.534 34.3365 23.1887 34.2688 23.4596 34.8332C23.5273 34.9686 23.5499 35.1041 23.5499 35.2847C23.5499 35.5556 23.4822 35.8265 23.3242 36.0974C23.1887 36.436 22.9855 36.6843 22.7146 36.8875ZM22.6018 36.0296C22.7598 35.8265 22.8275 35.6233 22.8275 35.4427C22.8275 35.3524 22.8049 35.2847 22.7598 35.2395C22.7146 35.1944 22.6469 35.1492 22.5792 35.1492C22.4889 35.1492 22.3534 35.1944 22.218 35.2621C22.0825 35.3524 21.9245 35.4427 21.8116 35.5556L21.7213 35.7362L21.1795 36.8875H21.2021C21.473 36.8423 21.7213 36.7295 21.9697 36.5714C22.2406 36.4134 22.4437 36.2328 22.6018 36.0296ZM36.4176 36.3683C36.4854 36.4134 36.5079 36.4811 36.5079 36.5489C36.5079 36.7295 36.3273 36.9326 35.9887 37.1584C35.7178 37.339 35.5146 37.4519 35.334 37.5196C35.176 37.5873 34.9954 37.6325 34.8374 37.6325C34.5665 37.6325 34.4085 37.5196 34.3633 37.2713C34.1827 37.4067 34.0247 37.5196 33.9118 37.5647C33.7989 37.6099 33.6635 37.6325 33.5055 37.6325C33.2571 37.6325 33.0765 37.5647 32.9185 37.4067C32.8734 37.339 32.8282 37.2713 32.7831 37.2035C32.3767 37.497 32.0155 37.6325 31.722 37.6325C31.5189 37.6325 31.3834 37.5647 31.248 37.4519C31.1351 37.339 31.0674 37.181 31.0674 36.9778C31.0674 36.8875 31.0899 36.752 31.1577 36.5714C31.2028 36.436 31.3383 36.1651 31.5414 35.7362C31.6769 35.4878 31.722 35.3298 31.722 35.2847C31.722 35.2169 31.6769 35.1718 31.6092 35.1718C31.5414 35.1718 31.406 35.2169 31.2705 35.3072C31.1125 35.3975 30.9771 35.5104 30.819 35.6233L30.0966 37.181C30.0063 37.3616 29.9386 37.4744 29.8935 37.5196C29.8483 37.5647 29.758 37.6099 29.6677 37.6099C29.5774 37.6099 29.5097 37.5873 29.442 37.5196C29.4194 37.497 29.3968 37.4519 29.3743 37.4067C29.1259 37.5422 28.9002 37.6099 28.697 37.6099C28.4938 37.6099 28.3358 37.5422 28.2229 37.4293C28.1101 37.3164 28.0423 37.1584 28.0423 36.9552C28.0423 36.8649 28.0649 36.7295 28.1326 36.5489C28.1778 36.4134 28.3132 36.1425 28.5164 35.7136C28.6519 35.4653 28.697 35.3072 28.697 35.2621C28.697 35.1944 28.6519 35.1492 28.5841 35.1492C28.5164 35.1492 28.381 35.1944 28.2455 35.2847C28.0875 35.375 27.952 35.4878 27.794 35.6007L27.0716 37.1584C26.9813 37.339 26.9136 37.4519 26.8684 37.497C26.8233 37.5422 26.733 37.5873 26.6427 37.5873C26.5524 37.5873 26.4847 37.5647 26.4169 37.497C26.3492 37.4293 26.3266 37.3616 26.3266 37.2713C26.3266 37.2487 26.3266 37.2261 26.3492 37.2035C26.2815 37.2261 26.146 37.2487 25.9429 37.2713C25.8074 37.2713 25.672 37.2938 25.5365 37.3164L25.0173 38.5129C24.927 38.7161 24.7915 38.9192 24.6335 39.0998C24.4755 39.2804 24.2949 39.4159 24.0917 39.5062C23.8885 39.5965 23.6854 39.6642 23.4822 39.6642C23.2564 39.6642 23.0533 39.5965 22.8952 39.4384C22.7372 39.303 22.6695 39.0998 22.6695 38.8967C22.6695 38.6935 22.7146 38.4903 22.8275 38.2871C22.9404 38.084 23.0984 37.8808 23.279 37.6776C23.4145 37.5422 23.5725 37.4519 23.7305 37.339C23.5048 37.1132 23.437 36.7069 23.6628 36.1877C23.6854 36.1651 24.34 34.7429 24.34 34.7429C24.4303 34.5397 24.5658 34.4494 24.7012 34.4494C24.7915 34.4494 24.8593 34.472 24.927 34.5397C24.9947 34.5848 25.0173 34.6751 25.0173 34.7429C25.0173 34.8106 24.9721 34.9235 24.9044 35.0815L24.3852 36.1651C24.2497 36.4586 24.2497 36.6843 24.34 36.7972C24.3852 36.8423 24.4303 36.8649 24.4981 36.8649C24.6787 36.8649 24.8818 36.7069 25.1527 36.4134L25.1753 36.3908L25.8977 34.8332C25.988 34.6526 26.0557 34.5397 26.1009 34.4945C26.1686 34.4494 26.2363 34.4042 26.3266 34.4042C26.4169 34.4042 26.5072 34.4268 26.5524 34.4945C26.6201 34.5397 26.6427 34.63 26.6427 34.7203C26.6427 34.788 26.5975 34.9009 26.5298 35.0589L25.8074 36.594C25.8751 36.594 25.9429 36.594 26.0106 36.594C26.2589 36.594 26.4169 36.6617 26.4621 36.7972L27.3651 34.8557C27.4328 34.6977 27.5005 34.5848 27.5683 34.5171C27.636 34.4494 27.7037 34.4268 27.794 34.4268C27.8843 34.4268 27.9746 34.4494 28.0198 34.5171C28.0875 34.5623 28.1101 34.6526 28.1101 34.7203V34.7429C28.2004 34.6526 28.3132 34.5848 28.4713 34.5171C28.6293 34.4494 28.7647 34.4268 28.8776 34.4268C29.0582 34.4268 29.1937 34.472 29.3065 34.5848C29.4194 34.6751 29.4646 34.8106 29.4646 34.9912C29.4646 35.1944 29.3968 35.4653 29.2388 35.7587L29.0582 36.1425L28.8776 36.4811C28.8099 36.6166 28.7873 36.7069 28.7873 36.752C28.7873 36.8423 28.8325 36.8875 28.9228 36.8875C28.9679 36.8875 29.0131 36.8875 29.0582 36.8423C29.1034 36.8198 29.1711 36.7746 29.2614 36.7295C29.3291 36.6843 29.442 36.594 29.6 36.4811C29.6452 36.436 29.6903 36.4134 29.7129 36.3908L30.4353 34.8557C30.503 34.6977 30.5707 34.5848 30.6384 34.5171C30.7062 34.4494 30.7739 34.4268 30.8642 34.4268C30.9545 34.4268 31.0448 34.4494 31.0899 34.5171C31.1577 34.5623 31.1802 34.6526 31.1802 34.7203V34.7429C31.2705 34.6526 31.3834 34.5848 31.5414 34.5171C31.6995 34.4494 31.8349 34.4268 31.9478 34.4268C32.1284 34.4268 32.2638 34.472 32.3767 34.5848C32.4896 34.6751 32.5347 34.8106 32.5347 34.9912C32.5347 35.1944 32.467 35.4653 32.309 35.7587L32.1284 36.1425L31.9478 36.4811C31.8801 36.6166 31.8575 36.7069 31.8575 36.752C31.8575 36.8423 31.9026 36.8875 31.9929 36.8875C32.0381 36.8875 32.0832 36.8875 32.1284 36.8423C32.1735 36.8198 32.2413 36.7746 32.3316 36.7295C32.3993 36.6843 32.5122 36.594 32.6702 36.4811C32.7153 36.436 32.7605 36.4134 32.7831 36.3908C32.8282 36.1651 32.9411 35.9168 33.0991 35.691C33.3474 35.3524 33.6635 35.0589 34.0698 34.8332C34.2053 34.7429 34.3633 34.6751 34.5439 34.6074C34.7245 34.5397 34.9051 34.4945 35.0631 34.4494C35.2437 34.4042 35.3792 34.3817 35.4921 34.3817C35.7404 34.3817 35.8758 34.472 35.8758 34.6751C35.8758 34.7654 35.8533 34.8332 35.7855 34.8783C35.7178 34.9235 35.6049 34.9686 35.4469 34.9912C35.1986 35.0363 34.9503 35.1041 34.7697 35.1944C34.5665 35.2847 34.3859 35.375 34.2053 35.5104C33.9795 35.6684 33.7989 35.849 33.6635 36.0522C33.528 36.2554 33.4603 36.436 33.4603 36.594C33.4603 36.6843 33.4829 36.752 33.528 36.7972C33.5732 36.8423 33.6183 36.8649 33.6861 36.8649C33.7764 36.8649 33.8892 36.8198 34.0021 36.752C34.115 36.6617 34.2279 36.5489 34.3859 36.3683L34.431 36.278C34.4988 36.0974 34.5439 36.0071 34.5665 36.0071L34.7019 35.7362C34.7922 35.5556 34.86 35.4427 34.9277 35.375C34.9954 35.3072 35.0857 35.2847 35.176 35.2847C35.2663 35.2847 35.334 35.3072 35.4018 35.3524C35.4695 35.3975 35.4921 35.4653 35.4921 35.5556C35.4921 35.6233 35.4469 35.7362 35.3792 35.8942L35.2437 36.1877C35.2212 36.2328 35.1986 36.278 35.176 36.3231C35.1534 36.3683 35.1309 36.4134 35.1083 36.4586C35.0406 36.594 34.9954 36.6843 34.9954 36.752C34.9954 36.8423 35.0406 36.9101 35.1309 36.9101C35.1986 36.9101 35.2663 36.8875 35.3566 36.8198C35.4469 36.7746 35.6049 36.6392 35.8307 36.4811C35.9661 36.3908 36.0564 36.3231 36.1016 36.3005C36.1467 36.278 36.1919 36.2554 36.237 36.2554C36.2822 36.278 36.3499 36.3231 36.4176 36.3683ZM24.7238 37.5647C24.2949 37.7228 23.9337 37.9485 23.6628 38.242C23.4596 38.4677 23.3693 38.6709 23.3693 38.8289C23.3693 38.8967 23.3919 38.9644 23.437 39.0095C23.4822 39.0547 23.5273 39.0773 23.5951 39.0773C23.7757 39.0773 23.9563 38.9644 24.1594 38.7612C24.2949 38.6257 24.3852 38.4903 24.4303 38.3549L24.7238 37.5647ZM62.7626 36.3457C62.8078 36.3908 62.8529 36.4586 62.8529 36.5263C62.8529 36.6617 62.7175 36.8423 62.4466 37.0681C62.2434 37.2261 62.0176 37.3616 61.7919 37.4744C61.5661 37.5873 61.363 37.6325 61.1824 37.6325C61.0469 37.6325 60.9566 37.6099 60.8663 37.5422C60.776 37.4744 60.7083 37.3841 60.6631 37.2487L60.5954 37.2713C60.3697 37.4067 60.1891 37.497 60.0536 37.5422C59.9182 37.5873 59.7601 37.6099 59.6247 37.6099C59.4215 37.6099 59.2635 37.5422 59.1506 37.4293C59.1055 37.3841 59.0603 37.3164 59.0377 37.2487C58.9249 37.3164 58.812 37.3841 58.6765 37.4293C58.4508 37.5422 58.2476 37.5873 58.067 37.5873C57.9316 37.5873 57.8413 37.5647 57.751 37.497C57.6607 37.4293 57.5929 37.339 57.5478 37.2035L57.4801 37.2261C57.2543 37.3615 57.0737 37.4519 56.9383 37.497C56.8028 37.5422 56.6448 37.5647 56.5093 37.5647C56.3062 37.5647 56.1481 37.497 56.0353 37.3841C55.9901 37.339 55.945 37.2713 55.9224 37.2035C55.5838 37.4293 55.2677 37.5422 54.9743 37.5422C54.7711 37.5422 54.6131 37.4744 54.5002 37.3616C54.3873 37.2487 54.3196 37.0907 54.3196 36.9101C54.3196 36.8198 54.3422 36.7069 54.3647 36.594C54.3873 36.4811 54.455 36.3683 54.5002 36.2328H53.7552L53.3263 37.1132C53.236 37.2938 53.1683 37.4067 53.1231 37.4519C53.078 37.5196 52.9877 37.5422 52.8974 37.5422C52.8071 37.5422 52.7393 37.5196 52.6716 37.4519C52.649 37.4293 52.6265 37.3841 52.6039 37.3616C52.5587 37.3841 52.491 37.4293 52.4459 37.4519C52.2878 37.5196 52.1072 37.5647 51.9492 37.5647C51.6783 37.5647 51.5203 37.4519 51.4751 37.2035C51.2945 37.339 51.1365 37.4519 51.0236 37.497C50.9108 37.5422 50.7753 37.5647 50.6173 37.5647C50.369 37.5647 50.1884 37.497 50.0303 37.339C49.9852 37.2713 49.94 37.2035 49.8949 37.1358C49.4885 37.4293 49.1273 37.5647 48.8339 37.5647C48.6307 37.5647 48.4727 37.497 48.3598 37.3841C48.2469 37.2713 48.1792 37.1132 48.1792 36.9101C48.1792 36.8198 48.2018 36.6843 48.2695 36.5037C48.3146 36.3683 48.4501 36.0974 48.6533 35.6684C48.7887 35.4201 48.8339 35.2621 48.8339 35.2169C48.8339 35.1492 48.7887 35.1041 48.721 35.1041C48.6533 35.1041 48.5178 35.1492 48.3824 35.2395C48.2243 35.3298 48.0889 35.4427 47.9309 35.5556L47.2085 37.1132C47.1182 37.2938 47.0504 37.4067 47.0053 37.4519C46.9601 37.497 46.8698 37.5422 46.7795 37.5422C46.6892 37.5422 46.6215 37.5196 46.5538 37.4519C46.5312 37.4293 46.5086 37.3841 46.4861 37.339C46.2377 37.4519 46.012 37.5422 45.8314 37.5422C45.6508 37.5422 45.4928 37.4744 45.3573 37.3616C45.2896 37.2938 45.2219 37.2035 45.1993 37.0907C44.9058 37.339 44.4769 37.5422 44.2737 37.5422C44.1383 37.5422 44.0254 37.5196 43.9577 37.4519C43.8674 37.3841 43.8222 37.3164 43.7996 37.2035C43.145 37.6776 42.6032 37.6325 42.3774 37.3164C42.1517 37.4744 41.9034 37.5647 41.6776 37.5647C41.4067 37.5647 41.181 37.4744 41.0004 37.2713C40.9552 37.2035 40.9101 37.1358 40.8649 37.0681C40.8198 37.0907 40.7972 37.1132 40.752 37.1358C40.5037 37.2938 40.3005 37.4067 40.1425 37.4744C39.9845 37.5422 39.8265 37.5647 39.691 37.5647C39.533 37.5647 39.4201 37.5196 39.3298 37.4519C39.2395 37.3841 39.1492 37.2713 39.0815 37.1132C38.9686 36.8423 38.9009 36.5263 38.8557 36.1651C38.7429 36.2328 38.63 36.3231 38.5171 36.4134L38.4945 36.436L38.1559 37.1358C38.0656 37.3164 37.9979 37.4293 37.9527 37.4744C37.9076 37.5196 37.8173 37.5647 37.727 37.5647C37.6367 37.5647 37.569 37.5422 37.5012 37.4744C37.4335 37.4067 37.4109 37.339 37.4109 37.2487C37.4109 37.181 37.4561 37.0681 37.5238 36.9101L38.4945 34.8557C38.5848 34.6751 38.6526 34.5623 38.6977 34.5171C38.7429 34.472 38.8332 34.4268 38.9235 34.4268C39.0138 34.4268 39.0815 34.4494 39.1492 34.5171C39.2169 34.5623 39.2395 34.6526 39.2395 34.7429C39.2395 34.8106 39.1944 34.9235 39.1266 35.0815L39.0138 35.3072C39.1944 35.1718 39.4653 34.9686 39.849 34.7429C40.1877 34.5397 40.4134 34.4494 40.5263 34.4494C40.5714 34.4494 40.6166 34.472 40.6617 34.4945C40.7069 34.5171 40.752 34.5623 40.7746 34.6074C40.7972 34.6526 40.8198 34.6977 40.8198 34.7654C40.8198 34.8332 40.7972 34.8783 40.7746 34.9235C40.7295 34.9686 40.6617 35.0138 40.5263 35.0815L40.278 35.2395L39.9168 35.4653C39.8265 35.5104 39.691 35.6007 39.5104 35.7362L39.4653 35.7587C39.4878 36.0296 39.533 36.3005 39.6233 36.5263C39.6684 36.6617 39.7136 36.7295 39.7362 36.7972C39.7813 36.8423 39.8265 36.8649 39.8716 36.8649C40.0071 36.8649 40.3005 36.7069 40.752 36.4134C40.752 36.1877 40.7972 35.9845 40.8649 35.7587C40.9552 35.5104 41.0681 35.2847 41.2261 35.0815C41.3841 34.8783 41.5647 34.7203 41.7679 34.6074C41.9711 34.4945 42.1743 34.4494 42.3774 34.4494C42.558 34.4494 42.7386 34.4945 42.8741 34.5623C43.0095 34.6526 43.1224 34.7654 43.1901 34.9235C43.2579 35.0815 43.303 35.2621 43.303 35.4878C43.303 35.849 43.2353 36.1877 43.0773 36.5037C43.0321 36.6166 42.9644 36.7069 42.8967 36.7972C42.9192 37.0229 43.2353 37.0455 43.8222 36.5037L44.5898 34.8557C44.6801 34.6751 44.7478 34.5623 44.7929 34.5171C44.8607 34.4494 44.9284 34.4268 45.0187 34.4268C45.109 34.4268 45.1767 34.4494 45.2444 34.5171C45.3122 34.5623 45.3347 34.6526 45.3347 34.7429C45.3347 34.8106 45.2896 34.9235 45.2219 35.0815L44.6123 36.3908C44.522 36.594 44.4769 36.7069 44.4769 36.752C44.4769 36.8198 44.522 36.8423 44.5672 36.8423C44.7026 36.8423 44.9284 36.7069 45.2896 36.4134L45.3122 36.3908L46.0346 34.8332C46.1249 34.6526 46.1926 34.5397 46.2377 34.4945C46.2829 34.4268 46.3732 34.4042 46.4635 34.4042C46.5538 34.4042 46.6215 34.4268 46.6892 34.4945C46.757 34.5397 46.7795 34.63 46.7795 34.7203C46.7795 34.788 46.7344 34.9009 46.6667 35.0589L46.012 36.4586C45.9443 36.594 45.9217 36.6843 45.9217 36.7295C45.9217 36.8198 45.9668 36.8649 46.0571 36.8649C46.1023 36.8649 46.1474 36.8423 46.1926 36.8198C46.2377 36.7972 46.3055 36.752 46.3958 36.7069C46.4635 36.6617 46.5764 36.5714 46.7344 36.4586C46.7795 36.436 46.8021 36.4134 46.8473 36.3908L47.5697 34.8557C47.6374 34.6977 47.7051 34.5848 47.7728 34.5171C47.8406 34.4494 47.9083 34.4268 47.9986 34.4268C48.0889 34.4268 48.1792 34.4494 48.2243 34.5171C48.2921 34.5623 48.3146 34.6526 48.3146 34.7203V34.7429C48.4049 34.6526 48.5178 34.5848 48.6758 34.5171C48.8339 34.4494 48.9693 34.4268 49.0822 34.4268C49.2628 34.4268 49.3982 34.472 49.5111 34.5848C49.624 34.6751 49.6691 34.8106 49.6691 34.9912C49.6691 35.1944 49.5788 35.4653 49.4434 35.7587L49.2628 36.1425L49.0822 36.4811C49.0145 36.6166 48.9919 36.7069 48.9919 36.752C48.9919 36.8423 49.037 36.8875 49.1273 36.8875C49.1725 36.8875 49.2176 36.8875 49.2628 36.8423C49.3079 36.8198 49.3757 36.7746 49.4434 36.7295C49.5111 36.6843 49.624 36.594 49.782 36.4811C49.8272 36.436 49.8723 36.4134 49.8949 36.3908C49.94 36.1651 50.0529 35.9168 50.2109 35.691C50.4593 35.3524 50.7753 35.0589 51.1817 34.8332C51.3171 34.7429 51.4751 34.6751 51.6557 34.6074C51.8363 34.5397 51.9944 34.4945 52.175 34.4494C52.3556 34.4042 52.491 34.3817 52.6039 34.3817C52.8522 34.3817 52.9877 34.472 52.9877 34.6751C52.9877 34.7654 52.9651 34.8332 52.8974 34.8783C52.8296 34.9235 52.7168 34.9686 52.5587 34.9912C52.3104 35.0363 52.0847 35.1041 51.8815 35.1944C51.6783 35.2847 51.4977 35.375 51.3171 35.5104C51.0914 35.6684 50.9108 35.849 50.7753 36.0522C50.6399 36.2554 50.5721 36.436 50.5721 36.594C50.5721 36.6843 50.5947 36.752 50.6399 36.7972C50.685 36.8423 50.7302 36.8649 50.7979 36.8649C50.8882 36.8649 51.0011 36.8198 51.1139 36.752C51.2268 36.6617 51.3397 36.5489 51.4977 36.3683L51.5429 36.278C51.6106 36.0974 51.6557 36.0071 51.6783 36.0071L51.8138 35.7362C51.9041 35.5556 51.9718 35.4427 52.0395 35.375C52.1072 35.3072 52.1975 35.2847 52.2878 35.2847C52.3781 35.2847 52.4459 35.3072 52.5136 35.3524C52.5813 35.3975 52.6039 35.4653 52.6039 35.5556C52.6039 35.6233 52.5587 35.7362 52.491 35.8942L52.3556 36.1877C52.333 36.2328 52.3104 36.278 52.2878 36.3231C52.2653 36.3683 52.2427 36.4134 52.2201 36.4586C52.1524 36.594 52.1072 36.6843 52.1072 36.752C52.1072 36.8423 52.1524 36.9101 52.2653 36.9101C52.333 36.9101 52.4007 36.8875 52.491 36.8198C52.5813 36.7746 52.7393 36.6392 52.9651 36.4811L53.7326 34.8783C53.8004 34.7203 53.8681 34.6074 53.9358 34.5397C54.0035 34.472 54.0713 34.4494 54.1616 34.4494C54.2519 34.4494 54.3196 34.472 54.3873 34.5397C54.455 34.5848 54.4776 34.6751 54.4776 34.7654C54.4776 34.8332 54.4325 34.946 54.3647 35.1041L54.0713 35.7136H54.8162L55.2 34.9009C55.2903 34.7203 55.358 34.6074 55.4032 34.5623C55.4709 34.5171 55.5386 34.472 55.6289 34.472C55.7192 34.472 55.7869 34.4945 55.8547 34.5623C55.9224 34.6074 55.945 34.6977 55.945 34.788C55.945 34.8557 55.8998 34.9686 55.8321 35.1266L55.1774 36.5263C55.1323 36.6392 55.0871 36.7295 55.0871 36.7746C55.0871 36.8649 55.1323 36.9101 55.2226 36.9101C55.3354 36.9101 55.5612 36.7746 55.8998 36.5263C55.945 36.4811 55.9901 36.4586 56.0353 36.4134C56.0578 36.3683 56.0804 36.3005 56.103 36.2328L56.7351 34.9009C56.8028 34.7429 56.8705 34.63 56.9383 34.5623C57.006 34.4945 57.0737 34.472 57.164 34.472C57.2543 34.472 57.3446 34.4945 57.3898 34.5623C57.4575 34.6074 57.4801 34.6977 57.4801 34.7654C57.4801 34.8332 57.4349 34.946 57.3672 35.1041L56.8028 36.3005L56.7577 36.3683C56.6674 36.5714 56.6222 36.7069 56.6222 36.7746C56.6222 36.8649 56.6674 36.9101 56.7577 36.9101C56.848 36.9101 56.9608 36.8649 57.0737 36.7972C57.2092 36.7295 57.3672 36.594 57.5704 36.436L58.2928 34.9009C58.3605 34.7429 58.4282 34.63 58.4959 34.5623C58.5637 34.4945 58.6314 34.472 58.7217 34.472C58.812 34.472 58.9023 34.4945 58.9474 34.5623C59.0152 34.6074 59.0377 34.6977 59.0377 34.7654C59.0377 34.8332 58.9926 34.946 58.9249 35.1041L58.3153 36.4134L58.2702 36.5263C58.2025 36.6617 58.1799 36.7295 58.1799 36.7746C58.1799 36.7972 58.2025 36.8423 58.225 36.8649C58.2476 36.8875 58.2928 36.9101 58.3153 36.9101C58.4508 36.9101 58.7217 36.752 59.128 36.4134C59.1506 36.3683 59.1732 36.3005 59.1958 36.2328L59.8279 34.9009C59.8956 34.7429 59.9859 34.63 60.031 34.5623C60.0988 34.4945 60.1665 34.472 60.2568 34.472C60.3471 34.472 60.4374 34.4945 60.4825 34.5623C60.5503 34.6074 60.5728 34.6977 60.5728 34.7654C60.5728 34.8332 60.5277 34.946 60.46 35.1041L59.8956 36.3005L59.8504 36.3683C59.7601 36.5714 59.715 36.7069 59.715 36.7746C59.715 36.8649 59.7601 36.9101 59.8504 36.9101C59.9407 36.9101 60.0536 36.8649 60.1665 36.7972C60.3019 36.7295 60.46 36.594 60.6631 36.436L61.3855 34.9009C61.4533 34.7429 61.521 34.63 61.5887 34.5623C61.6564 34.4945 61.7242 34.472 61.8145 34.472C61.9048 34.472 61.9951 34.4945 62.0402 34.5623C62.1079 34.6074 62.1305 34.6977 62.1305 34.7654C62.1305 34.8332 62.0854 34.946 62.0176 35.1041L61.4081 36.4134L61.363 36.5263C61.2952 36.6617 61.2727 36.7295 61.2727 36.7746C61.2727 36.7972 61.2952 36.8423 61.3178 36.8649C61.3404 36.8875 61.3855 36.9101 61.4081 36.9101C61.5436 36.9101 61.8145 36.752 62.1982 36.4134C62.3337 36.3005 62.4466 36.2328 62.5369 36.2328C62.6272 36.2554 62.6949 36.3005 62.7626 36.3457ZM42.6258 35.533C42.6258 35.4201 42.6032 35.3072 42.558 35.2621C42.5129 35.1944 42.4452 35.1718 42.3549 35.1718C42.242 35.1718 42.1291 35.2169 42.0388 35.3298C41.9259 35.4427 41.8356 35.6007 41.7228 35.8265C41.5873 36.1199 41.5196 36.3908 41.5196 36.594C41.5196 36.7069 41.5422 36.7972 41.6099 36.8649C41.655 36.9326 41.7453 36.9552 41.8356 36.9552C42.0162 36.9552 42.2194 36.752 42.4226 36.3683C42.558 36.0748 42.6258 35.7813 42.6258 35.533ZM61.1146 34.4945C61.2049 34.4945 61.2727 34.472 61.3178 34.4268C61.363 34.3817 61.4307 34.2688 61.4984 34.1108L61.6113 33.885C61.679 33.7496 61.7242 33.6367 61.7242 33.5915C61.7242 33.5012 61.7016 33.4561 61.6339 33.3884C61.5887 33.3432 61.521 33.3206 61.4307 33.3206C61.3404 33.3206 61.2727 33.3432 61.2275 33.3884C61.1824 33.4335 61.1146 33.5464 61.0469 33.6818L60.934 33.9076C60.8663 34.043 60.8437 34.1559 60.8437 34.2236C60.8437 34.2914 60.8663 34.3591 60.934 34.4268C60.9792 34.472 61.0469 34.4945 61.1146 34.4945ZM68 31.9887C68 49.6649 53.6649 63.9774 36.0113 63.9774C18.3351 64 4 49.6649 4 31.9887C4 14.3351 18.3351 0 35.9887 0C53.6649 0 68 14.3351 68 31.9887ZM28.2455 13.4547C29.1711 11.5132 28.539 11.0843 25.7848 12.1679C22.9855 13.2741 19.9831 15.7347 17.7707 18.7598C15.7841 21.4688 13.4138 26.0064 13.4138 32.2145C13.4138 33.6141 13.5492 35.0138 13.7975 36.3683C13.933 37.0907 13.4589 37.7905 12.7365 37.9259C12.6462 37.9485 12.5785 37.9485 12.4882 37.9485C11.8561 37.9485 11.2917 37.497 11.1788 36.8649C10.8854 35.3524 10.7499 33.7721 10.7499 32.2145C10.7499 19.7757 19.1478 11.9422 24.8141 9.70723C30.5933 7.42716 32.3541 11.0166 30.661 14.606C29.0582 18.0148 24.4303 27.8123 23.6176 29.5958C22.9855 30.9503 24.5432 31.0631 26.6427 29.0765C26.6427 28.6025 26.6878 28.1284 26.8007 27.6543C26.9813 26.9319 27.2748 26.2321 27.7037 25.5323C28.5616 24.0875 30.1644 22.575 31.4963 21.9654C32.1284 21.672 32.7605 21.5139 33.3926 21.5139C34.1601 21.5139 34.7922 21.7397 35.2437 22.1686C35.7178 22.5975 35.9436 23.2071 35.9436 23.952C35.9436 24.7422 35.6501 25.4646 35.0857 26.1418C34.5213 26.7965 33.7086 27.3608 32.6928 27.7898C31.6769 28.2187 30.5256 28.4896 29.2162 28.5799C29.1485 28.7831 29.1259 28.9862 29.1259 29.1443C29.1259 29.5958 29.284 29.957 29.6 30.2504C29.916 30.5213 30.345 30.6568 30.8642 30.6568C31.2931 30.6568 31.7672 30.5891 32.309 30.4762C32.8282 30.3633 33.3474 30.1827 33.8441 29.9795C34.4988 29.7086 35.3115 29.2797 36.2596 28.7605L38.8783 23.1619C39.1718 22.5298 39.4427 22.1235 39.6459 21.8977C39.849 21.6945 40.1425 21.5817 40.4811 21.5817C40.8423 21.5817 41.1132 21.672 41.3164 21.8526C41.5196 22.0332 41.6325 22.3041 41.655 22.6201C42.6032 21.9203 43.4384 21.5591 44.1834 21.5591C44.6575 21.5591 45.0638 21.672 45.3799 21.8977C45.6959 22.1235 45.8991 22.4395 45.9894 22.8459C47.1859 21.988 48.3146 21.5365 49.3531 21.5365C49.9852 21.5365 50.527 21.7171 50.9333 22.1009C51.3397 22.4621 51.5429 22.9362 51.5429 23.5005C51.5429 23.9972 51.4526 24.4938 51.272 24.9905C51.0914 25.4646 50.6624 26.4127 49.9626 27.8123C49.4885 28.7831 49.1951 29.37 49.1273 29.5506C49.0596 29.7312 49.0145 29.9118 49.0145 30.0698C49.0145 30.2053 49.0596 30.3182 49.1499 30.431C49.2402 30.5439 49.3531 30.5891 49.4885 30.5891C49.7369 30.5891 50.0303 30.4988 50.3464 30.2956C50.685 30.0924 51.2042 29.7086 51.9266 29.1217C52.0621 29.0088 52.1975 28.9185 52.3104 28.8282C52.3556 28.0155 52.5136 27.2254 52.7845 26.4353C53.1005 25.5097 53.5746 24.6744 54.1616 23.9295C54.7485 23.1845 55.4032 22.5975 56.1481 22.1686C56.8931 21.7623 57.6381 21.5365 58.4056 21.5365C59.128 21.5365 59.7376 21.6945 60.2342 21.988C60.7534 22.2815 61.1372 22.733 61.4081 23.2974C61.679 23.8617 61.8145 24.5616 61.8145 25.3517C61.8145 25.758 61.7919 26.1644 61.7242 26.5707C62.2208 27.2028 62.9884 27.248 63.5753 27.0448C64.2526 26.819 64.975 26.1644 64.7266 25.0808C61.679 12.1002 49.9626 2.41552 35.9887 2.41552C19.6444 2.41552 6.41552 15.667 6.41552 31.9887C6.41552 48.333 19.667 61.5619 35.9887 61.5619C52.333 61.5619 65.5619 48.3104 65.5619 31.9887C65.5619 30.8825 65.4942 29.7989 65.3813 28.7379C65.0427 28.9637 64.7041 29.1443 64.3429 29.2571C63.7559 29.4603 63.1464 29.528 62.582 29.4829C62.0402 29.4377 61.521 29.2571 61.0469 29.0088C61.0243 29.054 61.0018 29.0991 60.9792 29.1668C60.4148 30.3633 59.6473 31.334 58.6991 32.079C57.751 32.8014 56.7803 33.1852 55.7644 33.1852C54.7259 33.1852 53.8907 32.824 53.2586 32.1242C53.078 31.921 52.9199 31.6952 52.7845 31.4469C52.5362 31.6275 52.2878 31.8081 52.0169 31.9661C51.4074 32.3499 50.7979 32.6434 50.2109 32.8691C49.6014 33.0949 49.0822 33.2078 48.6758 33.2078C47.9534 33.2078 47.3665 33.0046 46.915 32.5982C46.4861 32.1919 46.2603 31.6275 46.2603 30.9277C46.2603 30.4536 46.3506 29.9344 46.5312 29.3926C46.7118 28.8508 47.0504 28.0832 47.5245 27.1125C48.2469 25.7129 48.6081 24.855 48.6081 24.539C48.6081 24.4487 48.563 24.3584 48.4952 24.2907C48.4275 24.2229 48.3372 24.2004 48.2018 24.2004C47.6825 24.2004 46.8924 24.6293 45.8314 25.5097L42.9869 31.6049C42.6935 32.237 42.4226 32.666 42.2194 32.8691C42.0162 33.0723 41.7228 33.1852 41.3841 33.1852C41.0455 33.1852 40.752 33.0723 40.5489 32.8691C40.3231 32.666 40.2102 32.3951 40.2102 32.0564C40.2102 31.8081 40.3457 31.4018 40.6166 30.8148L42.8967 25.916C43.2353 25.1937 43.3933 24.7422 43.3933 24.539C43.3933 24.2907 43.2804 24.1778 43.0321 24.1778C42.5354 24.1778 41.655 24.7196 40.3908 25.7806L40.3231 25.8483L37.6367 31.5824C37.3432 32.2145 37.0723 32.6434 36.8691 32.8466C36.666 33.0497 36.3725 33.1626 36.0339 33.1626C35.6952 33.1626 35.4018 33.0497 35.1986 32.8466C34.9954 32.6434 34.8825 32.3951 34.86 32.079C33.2571 32.7563 31.8123 33.0949 30.5256 33.0949C29.0582 33.0949 27.9295 32.5305 27.2522 31.4469C22.963 34.6977 19.3058 32.3725 21.157 28.4444L28.2455 13.4547ZM58.9249 24.3358C58.7443 24.1101 58.4959 23.9746 58.1573 23.9746C57.751 23.9746 57.3446 24.1778 56.9608 24.5841C56.5771 24.9905 56.1933 25.6 55.8321 26.4353C55.358 27.5414 55.1097 28.5122 55.1097 29.3023C55.1097 29.7312 55.2 30.0473 55.4032 30.2956C55.6063 30.5439 55.8773 30.6568 56.2159 30.6568C56.9157 30.6568 57.6381 29.9344 58.3605 28.5122C58.9249 27.3834 59.2183 26.345 59.2183 25.3968C59.1732 24.9228 59.0829 24.5616 58.9249 24.3358ZM32.4896 25.4646C33.2346 25.0582 33.6183 24.6519 33.6183 24.2455C33.6183 24.1101 33.5732 23.9746 33.4603 23.8843C33.37 23.794 33.2346 23.7489 33.054 23.7489C32.625 23.7489 32.1284 23.9972 31.5189 24.4713C30.9093 24.9679 30.3901 25.5548 29.9612 26.2321C30.9093 26.1192 31.7446 25.8709 32.4896 25.4646Z" fill="white"/>
<path d="M28.5 63H43.5L41.773 64.099C39.3041 65.6701 37.3087 67.8826 36 70.5C34.6913 67.8826 32.6959 65.6701 30.227 64.099L28.5 63Z" fill="white"/>
</g>
<defs>
<filter id="filter0_d" x="0" y="0" width="72" height="79" filterUnits="userSpaceOnUse" color-interpolation-filters="sRGB">
<feFlood flood-opacity="0" result="BackgroundImageFix"/>
<feColorMatrix in="SourceAlpha" type="matrix" values="0 0 0 0 0 0 0 0 0 0 0 0 0 0 0 0 0 0 127 0"/>
<feOffset dy="4"/>
<feGaussianBlur stdDeviation="2"/>
<feColorMatrix type="matrix" values="0 0 0 0 1 0 0 0 0 0.654902 0 0 0 0 0.133333 0 0 0 0.25 0"/>
<feBlend mode="normal" in2="BackgroundImageFix" result="effect1_dropShadow"/>
<feBlend mode="normal" in="SourceGraphic" in2="effect1_dropShadow" result="shape"/>
</filter>
</defs>
</svg>
