<svg width="81" height="64" viewBox="0 0 81 64" fill="none" xmlns="http://www.w3.org/2000/svg">
<g clip-path="url(#clip0)">
<path d="M53.3 63.7C49.2 63.7 45.7 61.5 43.6 57.6C41.5 61.5 38 63.7 33.9 63.7C29.8 63.7 26.3 61.5 24.2 57.6C22.1 61.5 18.6 63.7 14.5 63.7C11.4 63.7 8.5 62.5 6.5 60.3C4.6 58.3 2.5 54.5 3.1 47.5V47.4H1.5C0.7 47.4 0 46.7 0 45.9C0 45.1 0.7 44.4 1.5 44.4L5.6 26.5C6.5 22.5 10.1 19.6 14.2 19.6H52.7C56.8 19.6 60.4 22.4 61.3 26.5L61.8 28.7C62 29.5 61.5 30.3 60.7 30.5C59.9 30.7 59.1 30.2 58.9 29.4L58.4 27.2C57.8 24.5 55.4 22.7 52.7 22.7H14.2C11.5 22.7 9.1 24.6 8.5 27.2L4.5 44.4H24.4C25.2 44.4 25.9 45.1 25.9 45.9C25.9 46.7 25.2 47.4 24.4 47.4H6C6 47.5 6 47.6 6 47.7C5.6 52.4 6.6 56 8.6 58.3C10.1 59.9 12.1 60.8 14.4 60.8C18.5 60.8 20.7 57.8 21.6 56C22.1 55.1 23 54.5 24.1 54.5C25.2 54.5 26.1 55.1 26.6 56C27.5 57.8 29.7 60.8 33.8 60.8C37.9 60.8 40.1 57.8 41 56C41.5 55.1 42.4 54.5 43.5 54.5C44.6 54.5 45.5 55.1 46 56C46.9 57.8 49.1 60.8 53.2 60.8C57.9 60.8 60.5 56.9 61.4 53.2C61.6 52.4 62.4 51.9 63.2 52.1C64 52.3 64.5 53.1 64.3 53.9C63.3 58.4 59.7 63.7 53.3 63.7ZM65.5 47.4H27.7C26.9 47.4 26.2 46.7 26.2 45.9C26.2 45.1 26.9 44.4 27.7 44.4H62.4L60.3 35.3C60.1 34.5 60.6 33.7 61.4 33.5C62.2 33.3 63 33.8 63.2 34.6L65.5 44.4C66.3 44.4 67 45.1 67 45.9C67 46.7 66.3 47.4 65.5 47.4Z" fill="white"/>
<path d="M79.6001 63.6H72.6001C72.0001 63.6 71.6001 63.2 71.6001 62.6C71.6001 62 72.0001 61.6 72.6001 61.6H79.6001C80.2001 61.6 80.6001 62 80.6001 62.6C80.6001 63.2 80.1001 63.6 79.6001 63.6Z" fill="white"/>
<path d="M79.6 53.4H77.8C77.2 53.4 76.8 53 76.8 52.4C76.8 51.8 77.2 51.4 77.8 51.4H79.6C80.2 51.4 80.6 51.8 80.6 52.4C80.6 53 80.1 53.4 79.6 53.4Z" fill="white"/>
<path d="M79.6 43.1H77.8C77.2 43.1 76.8 42.7 76.8 42.1C76.8 41.5 77.2 41.1 77.8 41.1H79.6C80.2 41.1 80.6 41.5 80.6 42.1C80.6 42.7 80.1 43.1 79.6 43.1Z" fill="white"/>
<path d="M79.6001 43.1H72.6001C72.0001 43.1 71.6001 42.7 71.6001 42.1C71.6001 41.5 72.0001 41.1 72.6001 41.1H79.6001C80.2001 41.1 80.6001 41.5 80.6001 42.1C80.6001 42.7 80.1001 43.1 79.6001 43.1Z" fill="white"/>
<path d="M79.6 32.8H77.8C77.2 32.8 76.8 32.4 76.8 31.8C76.8 31.2 77.2 30.8 77.8 30.8H79.6C80.2 30.8 80.6 31.2 80.6 31.8C80.6 32.4 80.1 32.8 79.6 32.8Z" fill="white"/>
<path d="M79.6001 22.5H72.6001C72.0001 22.5 71.6001 22.1 71.6001 21.5C71.6001 20.9 72.0001 20.5 72.6001 20.5H79.6001C80.2001 20.5 80.6001 20.9 80.6001 21.5C80.6001 22.1 80.1001 22.5 79.6001 22.5Z" fill="white"/>
<path d="M79.6 12.3H77.8C77.2 12.3 76.8 11.9 76.8 11.3C76.8 10.7 77.2 10.3 77.8 10.3H79.6C80.2 10.3 80.6 10.7 80.6 11.3C80.6 11.9 80.1 12.3 79.6 12.3Z" fill="white"/>
<path d="M79.6001 43.1H72.6001C72.0001 43.1 71.6001 42.7 71.6001 42.1C71.6001 41.5 72.0001 41.1 72.6001 41.1H79.6001C80.2001 41.1 80.6001 41.5 80.6001 42.1C80.6001 42.7 80.1001 43.1 79.6001 43.1Z" fill="white"/>
<path d="M79.6001 22.5H72.6001C72.0001 22.5 71.6001 22.1 71.6001 21.5C71.6001 20.9 72.0001 20.5 72.6001 20.5H79.6001C80.2001 20.5 80.6001 20.9 80.6001 21.5C80.6001 22.1 80.1001 22.5 79.6001 22.5Z" fill="white"/>
<path d="M79.6001 2H72.6001C72.0001 2 71.6001 1.6 71.6001 1C71.6001 0.4 72.0001 0 72.6001 0H79.6001C80.2001 0 80.6001 0.4 80.6001 1C80.6001 1.6 80.1001 2 79.6001 2Z" fill="white"/>
<path d="M79.6 2H77.8C77.2 2 76.8 1.6 76.8 1C76.8 0.4 77.2 0 77.8 0H79.6C80.2 0 80.6 0.4 80.6 1C80.6 1.6 80.1 2 79.6 2Z" fill="white"/>
<path d="M79.6 22.5H77.8C77.2 22.5 76.8 22.1 76.8 21.5C76.8 20.9 77.2 20.5 77.8 20.5H79.6C80.2 20.5 80.6 20.9 80.6 21.5C80.6 22.1 80.1 22.5 79.6 22.5Z" fill="white"/>
<path d="M28.4 15.8C25 15.8 22.8 13.4 22.8 9.39995C22.8 5.39995 25.1 2.69995 28.5 2.69995C30 2.69995 31.4 3.29995 32 3.89995C32.4 4.29995 32.4 4.89995 32 5.29995C31.6 5.69995 31 5.69995 30.6 5.29995C30.4001 5.09995 29.5 4.69995 28.5 4.69995C25 4.69995 24.8 8.29995 24.8 9.39995C24.8 11 25.3 13.8 28.4 13.8C29.6 13.8 30.5001 13.3 30.7001 13.1C31.1 12.7 31.7 12.7 32.1 13.1C32.5 13.5 32.5 14.1 32.1 14.5C31.5 15.2 30.1 15.8 28.4 15.8ZM40.6 15.5H35.9001C35.3001 15.5 34.9001 15.1 34.9001 14.5V3.99995C34.9001 3.39995 35.3001 2.99995 35.9001 2.99995H40.2001C41.5 2.99995 42.3001 3.59995 42.7001 3.99995C43.2001 4.59995 43.5 5.39995 43.5 6.19995C43.5 6.99995 43.2 7.79995 42.8 8.39995C43.9 9.19995 44.6 10.6 44.6 11.8C44.6 12.8 44.2 13.7 43.6 14.3C43 14.9 42.1 15.5 40.6 15.5ZM36.8 13.5H40.5C42.2001 13.5 42.5 12.5 42.5 11.9C42.5 10.9 41.7001 9.79995 40.5 9.79995H40.4001C40.3001 9.79995 40.2001 9.79995 40.2001 9.79995H39C38.4 9.79995 38 9.39995 38 8.79995C38 8.19995 38.4 7.79995 39 7.79995H40.2001C41.2001 7.79995 41.5 6.89995 41.5 6.29995C41.5 5.89995 41.4001 5.59995 41.2001 5.39995C41 5.09995 40.6 4.99995 40.2001 4.99995H36.9001V13.5H36.8Z" fill="white"/>
</g>
<defs>
<clipPath id="clip0">
<rect width="80.6" height="63.7" fill="white"/>
</clipPath>
</defs>
</svg>
