<svg xmlns="http://www.w3.org/2000/svg" fill="none" viewBox="0.12 0.6 99.86 98.5">
<path d="M50.0004 34.7C47.9004 34.7 46.0004 33.9 44.5004 32.4C42.0004 29.9 41.1003 26 41.3003 23.4C41.5003 20.6 42.5004 17.7 44.0004 15.5C45.2004 13.7 47.2004 11.6 50.1004 11.6C53.0004 11.6 55.0004 13.7 56.2004 15.5C57.6004 17.7 58.6004 20.6 58.9004 23.4C59.1004 26.1 58.2004 29.9 55.7004 32.4C54.1004 33.9 52.1004 34.7 50.0004 34.7Z" stroke="white" stroke-width="3" stroke-miterlimit="10" stroke-linecap="round" stroke-linejoin="round"/>
<path d="M32.1014 35.9C30.7014 36.2 29.3014 35.9001 28.1014 35.1001C26.0014 33.7001 24.9015 31.3 24.7015 29.4C24.5015 27.5 24.8014 25.4 25.5014 23.7C26.1014 22.3 27.1014 20.6 29.1014 20.2C31.0014 19.8 32.7015 21 33.7015 22C35.0015 23.3 36.0014 25.1 36.6014 27C37.1014 28.8 37.0014 31.5 35.6014 33.5C34.7014 34.9 33.5014 35.7 32.1014 35.9Z" stroke="white" stroke-width="3" stroke-miterlimit="10" stroke-linecap="round" stroke-linejoin="round"/>
<path d="M67.8995 35.9C69.2995 36.2 70.6995 35.9001 71.8995 35.1001C73.9995 33.7001 75.0995 31.3 75.2995 29.4C75.4995 27.5 75.1995 25.4 74.4995 23.7C73.8995 22.3 72.8995 20.6 70.8995 20.2C68.9995 19.8 67.2995 21 66.2995 22C64.9995 23.3 63.9995 25.1 63.3995 27C62.8995 28.8 62.9995 31.5 64.3995 33.5C65.2995 34.9 66.4995 35.7 67.8995 35.9Z" stroke="white" stroke-width="3" stroke-miterlimit="10" stroke-linecap="round" stroke-linejoin="round"/>
<path d="M49.9994 1.59998C39.7994 1.99998 4.89936 27.4 1.49936 36.9C-1.30064 46.6 12.0994 87.7 20.0994 93.9C28.3994 99.5 71.6994 99.5 80.0994 93.9C87.9994 87.7 101.399 46.6 98.5994 36.9C95.0994 27.4 60.2994 1.99998 49.9994 1.59998Z" stroke="white" stroke-width="2" stroke-miterlimit="10" stroke-linecap="round" stroke-linejoin="round"/>
<path d="M50.7008 73.7C50.5008 73.6 50.3008 73.5 50.1008 73.6H50.0008C49.8008 73.6 49.6008 73.6 49.4008 73.7L22.3008 91.3L50.1008 55.1L77.9008 91.3L50.7008 73.7Z" stroke="white" stroke-width="2" stroke-miterlimit="10" stroke-linecap="round" stroke-linejoin="round"/>
<path d="M50.0008 55.2L10.3008 40C34.2008 44.2 65.8008 44.2 89.8008 40L50.0008 55.2Z" stroke="white" stroke-width="2" stroke-miterlimit="10" stroke-linecap="round" stroke-linejoin="round"/>
</svg>