<svg xmlns="http://www.w3.org/2000/svg" width="93" height="45" viewBox="0 0 93 45"><g><g><g><path fill="#fff" d="M17.2 44.3c-3.9 0-7.4-2.2-9.2-5.8L.5 24.1c-.6-1.2-.6-2.6 0-3.9L7.9 5.8C9.8 2.2 13.3 0 17.2 0h58c3.9 0 7.4 2.2 9.2 5.8l7.5 14.5c.6 1.2.6 2.6 0 3.9l-7.5 14.5c-1.8 3.4-5.3 5.6-9.2 5.6zm0-42.3c-3.1 0-6 1.8-7.5 4.7L2.2 21.1c-.3.6-.3 1.4 0 2l7.5 14.5c1.5 2.9 4.4 4.7 7.5 4.7h58c3.1 0 6-1.8 7.5-4.7l7.5-14.5c.3-.6.3-1.4 0-2L82.7 6.7C81.2 3.8 78.3 2 75.2 2z"/></g></g><g><g><path fill="#fff" d="M72.1 38.4c-3.2 0-6.1-1.5-8-4.3-.5-.7-.3-1.6.4-2.1s1.6-.3 2.1.4c1 1.4 2.7 3.1 5.6 3.1 5.1 0 7.5-5.3 7.5-9.1 0-.8.7-1.5 1.5-1.5s1.5.7 1.5 1.5c-.1 4.9-3.4 12-10.6 12zm-17.3 0c-3.6 0-6.7-1.9-8.6-5.3-1.9 3.4-5 5.3-8.6 5.3-3.6 0-6.7-1.9-8.6-5.3-1.9 3.4-5.1 5.3-8.6 5.3-2.9 0-5.6-1.2-7.5-3.3-1.6-1.9-3.4-5.3-2.9-11.4H7.8c-.8 0-1.5-.7-1.5-1.5s.7-1.5 1.5-1.5h.4L13 10.4c1.3-2.9 4.2-4.7 7.3-4.7h51.8c3.1 0 6 1.8 7.3 4.7l.4.9c.3.8 0 1.6-.7 2-.8.3-1.6 0-2-.7l-.4-.9c-.8-1.8-2.6-3-4.6-3H20.3c-2 0-3.8 1.2-4.6 3l-4.1 9h23.8c.8 0 1.5.7 1.5 1.5s-.7 1.5-1.5 1.5H12.9c-.4 4.2.4 7.4 2.1 9.4 1.7 2 4 2.3 5.2 2.3 3.6 0 5.5-2.6 6.3-4.2.5-.9 1.4-1.5 2.4-1.5s1.9.6 2.4 1.5c.8 1.6 2.7 4.2 6.3 4.2 3.6 0 5.5-2.6 6.3-4.2.5-.9 1.4-1.5 2.4-1.5s1.9.6 2.4 1.5c.8 1.6 2.7 4.2 6.3 4.2 4.1 0 6.4-3.4 7.2-6.6.2-.8 1-1.3 1.8-1.1.8.2 1.3 1 1.1 1.8-1.2 4.1-4.4 8.9-10.3 8.9zM39.2 23.7c-.8 0-1.5-.7-1.5-1.5s.7-1.5 1.5-1.5h41.6l-2.1-4.6c-.3-.8 0-1.6.7-2 .8-.3 1.6 0 2 .7l2.7 5.8h.4c.8 0 1.5.7 1.5 1.5s-.6 1.6-1.4 1.6z"/></g></g></g></svg>