<svg width="74" height="84" viewBox="0 0 74 84" fill="none" xmlns="http://www.w3.org/2000/svg">
<g clip-path="url(#clip0)">
<path d="M30.7004 83.5C23.0004 83.5 16.1004 80.4 10.7004 74.5C2.3004 65.4 -0.599599 51.9 0.100401 42.5C1.8004 22.1 14.0004 0 30.7004 0C40.1004 0 49.0004 7.2 55.1004 19.7C55.3004 20.2 55.1004 20.8 54.6004 21C54.1004 21.2 53.5004 21 53.3004 20.5C47.6004 8.8 39.3004 2 30.7004 2C14.2004 2 3.5004 25.6 2.1004 42.7C1.4004 51.6 4.2004 64.5 12.1004 73.2C17.2004 78.7 23.4004 81.5 30.6004 81.5C41.4004 81.5 50.5004 74.8 55.6004 63.1C55.8004 62.6 56.4004 62.4 56.9004 62.6C57.4004 62.8 57.6004 63.4 57.4004 63.9C52.1004 76.3 42.3004 83.5 30.7004 83.5Z" fill="white"/>
<path d="M55.4998 38.7C54.7998 38.7 54.1998 38.4 53.6998 37.9C53.0998 37.3 52.7998 36.4 52.8998 35.6C52.9998 34.1 53.9998 32.5 55.4998 32.5C56.9998 32.5 57.9998 34.1 58.0998 35.6C58.1998 36.4 57.8998 37.3 57.2998 37.9C56.8998 38.4 56.1998 38.7 55.4998 38.7ZM54.8998 35.7C54.8998 35.9 54.9998 36.3 55.1998 36.5C55.3998 36.8 55.5998 36.8 55.8998 36.5C56.0998 36.3 56.1998 35.9 56.1998 35.7C56.0998 35 55.6998 34.5 55.5998 34.5C55.4998 34.5 54.9998 35 54.8998 35.7Z" fill="white"/>
<path d="M49.1999 39.4C48.8999 39.4 48.4999 39.3 48.1999 39.1C47.4999 38.7 47.1999 37.9 47.0999 37.3C46.8999 36.1 47.2999 34.7 48.4999 34.3C49.6999 33.9 50.7999 35 51.0999 36.2C51.2999 36.9 51.2999 37.7 50.8999 38.3C50.5999 38.8 50.1999 39.1 49.6999 39.3C49.5999 39.4 49.3999 39.4 49.1999 39.4ZM48.9999 36.6C48.9999 36.7 48.9999 36.9 48.9999 37.1C48.9999 37.2 49.0999 37.3 49.0999 37.4C49.0999 37.3 49.0999 37.1 49.0999 36.9C49.1999 36.8 49.0999 36.7 48.9999 36.6Z" fill="white"/>
<path d="M61.9005 39.4C61.7005 39.4 61.5005 39.4 61.4005 39.3C60.9005 39.1 60.5005 38.8 60.2005 38.3C59.9005 37.7 59.8005 36.9 60.0005 36.2C60.4005 35 61.5005 33.9 62.6005 34.3C63.8005 34.6 64.2005 36.1 64.0005 37.3C63.9005 37.9 63.6005 38.6 62.9005 39.1C62.6005 39.3 62.2005 39.4 61.9005 39.4ZM62.0005 36.6C61.9005 36.7 61.9005 36.8 61.9005 36.9C61.9005 37 61.9005 37.2 61.9005 37.4C62.0005 37.3 62.0005 37.2 62.0005 37.1C62.0005 36.9 62.0005 36.7 62.0005 36.6Z" fill="white"/>
<path d="M55.4003 60.2C50.8003 60.2 46.2003 59.7 44.6003 58.6C41.5003 56.1 36.7003 41.6 37.8003 37.9C39.2003 34.1 51.5003 25.2 55.4003 25C55.4003 25 55.4003 25 55.5003 25C59.4003 25.1 71.8003 34.1 73.1003 37.8C74.2002 41.6 69.5003 56.1 66.4003 58.6C64.8003 59.7 60.1003 60.2 55.4003 60.2ZM55.5003 27C52.4003 27.2 40.8003 35.6 39.7003 38.5C38.9003 41.4 43.3003 55.1 45.8003 57C48.3003 58.7 62.7003 58.7 65.3003 57C67.7003 55.1 72.1003 41.4 71.3003 38.5C70.2003 35.6 58.6003 27.2 55.5003 27Z" fill="white"/>
<path d="M63.1005 56.4C62.9005 56.4 62.6005 56.3 62.4005 56.1L55.5005 49.5L48.6005 56.1C48.2005 56.5 47.6005 56.5 47.2005 56.1C46.8005 55.8 46.8005 55.2 47.1005 54.7L53.8005 46L42.5005 41.7C42.0005 41.5 41.7005 40.9 41.9005 40.4C42.1005 39.9 42.7005 39.6 43.2005 39.8C45.7005 40.7 50.6005 42.3 55.5005 42.3C60.0005 42.3 64.6005 40.9 67.6005 39.8C68.1005 39.6 68.7005 39.9 68.9005 40.4C69.1005 40.9 68.8005 41.5 68.3005 41.7L57.2005 46L63.9005 54.7C64.2005 55.1 64.2005 55.7 63.8005 56.1C63.6005 56.3 63.4005 56.4 63.1005 56.4ZM55.2005 44.4L55.6005 44.5L55.9005 44.4C55.7005 44.4 55.4005 44.4 55.2005 44.4Z" fill="white"/>
</g>
<defs>
<clipPath id="clip0">
<rect width="73.3" height="83.5" fill="white"/>
</clipPath>
</defs>
</svg>
