<svg xmlns="http://www.w3.org/2000/svg" fill="none" viewBox="0 0 70 111.1">
<g clip-path="url(#clip0_1259_1670)">
<path d="M35.0011 1L27.9011 13.3C24.7011 18.8 28.7011 25.6 35.0011 25.6C41.3011 25.6 45.3011 18.7 42.1011 13.3L35.0011 1Z" stroke="white" stroke-width="2" stroke-miterlimit="10" stroke-linecap="round" stroke-linejoin="round"/>
<path d="M48.4023 20.7L53.2023 15.9" stroke="white" stroke-width="2" stroke-miterlimit="10" stroke-linecap="round" stroke-linejoin="round"/>
<path d="M50.8008 25.1L62.8008 21.6" stroke="white" stroke-width="2" stroke-miterlimit="10" stroke-linecap="round" stroke-linejoin="round"/>
<path d="M21.6008 20.7L16.8008 15.9" stroke="white" stroke-width="2" stroke-miterlimit="10" stroke-linecap="round" stroke-linejoin="round"/>
<path d="M19.2008 25.1L7.30078 21.6" stroke="white" stroke-width="2" stroke-miterlimit="10" stroke-linecap="round" stroke-linejoin="round"/>
<path d="M68.5 60.2V90.1C68.5 100.8 59.8 109.6 49 109.6H21C10.3 109.6 1.5 100.9 1.5 90.1V60.2C1.5 44.9 13.9 32.6 29.1 32.6H40.9C56.2 32.6 68.5 45 68.5 60.2Z" stroke="white" stroke-width="3" stroke-miterlimit="10" stroke-linecap="round" stroke-linejoin="round"/>
<path d="M50.1008 71.5001C50.4008 69.9001 50.9008 68.4001 51.2008 66.8001C51.7008 64.3001 52.3008 61.8001 52.7008 59.3001C53.0008 57.5001 53.2008 55.7001 53.4008 53.9001C53.6008 51.8001 52.9008 50.0001 51.5008 48.6001C49.7008 46.7001 47.4008 45.8001 44.7008 45.7001C42.2008 45.6001 39.9008 46.2001 38.0008 47.8001C37.3008 48.3001 36.8008 48.9001 36.3008 49.6001C35.6008 50.7001 34.6008 50.5001 34.0008 49.6001C32.1008 46.9001 29.4008 45.7001 26.2008 45.7001C23.6008 45.6001 21.4008 46.4001 19.4008 48.0001C17.8008 49.4001 16.9008 51.1001 16.8008 53.2001C16.8008 54.3001 17.0008 55.4001 17.1008 56.5001C17.4008 59.4001 18.0008 62.4001 18.6008 65.3001C19.0008 67.1001 19.4008 69.0001 19.9008 70.8001C20.0008 71.1001 19.9008 71.4001 20.1008 71.7001" stroke="white" stroke-width="2" stroke-miterlimit="10" stroke-linecap="round" stroke-linejoin="round"/>
<path d="M45.8008 80.8001C46.1008 81.3001 46.0008 81.8001 46.1008 82.4001C46.2008 84.0001 46.4008 85.6001 47.0008 87.0001C47.6008 88.4001 48.7008 89.2001 50.1008 89.7001C50.7008 89.9001 50.8008 90.2001 50.8008 90.7001C50.8008 91.6001 50.8008 92.5001 50.7008 93.4001C50.7008 93.8001 50.5008 94.0001 50.1008 94.1001C49.0008 94.4001 48.2008 95.4001 48.2008 96.6001C48.2008 98.0001 49.1008 98.8001 50.0008 99.1001C50.6008 99.3001 51.1008 99.3001 51.6008 99.1001C51.9008 99.0001 52.2008 99.0001 52.5008 99.1001C54.1008 99.6001 55.5008 98.8001 55.9008 97.3001C56.3008 96.0001 55.6008 94.5001 54.0008 94.1001C53.8008 94.1001 53.7008 94.0001 53.5008 93.9001C53.5008 92.7001 53.5008 91.4001 53.5008 90.2001C53.5008 89.9001 53.7008 89.8001 53.9008 89.7001C56.3008 89.0001 57.4008 87.2001 57.8008 84.9001C58.3008 82.2001 58.3008 79.5001 57.9008 76.9001C57.8008 76.2001 57.6008 75.5001 57.4008 74.8001C56.6008 72.1001 53.4008 70.8001 50.8008 71.3001C50.6008 71.4001 50.4008 71.4001 50.1008 71.3001" stroke="white" stroke-width="2" stroke-miterlimit="10" stroke-linecap="round" stroke-linejoin="round"/>
<path d="M19.8993 71.3C19.3993 71.5 18.8993 71.3 18.4993 71.2C16.2993 70.9 13.2993 72.2 12.4993 75.1C11.7993 77.7 11.6993 80.3 11.9993 82.9C12.0993 84 12.2993 85.1 12.5993 86.2C13.0993 87.9 14.2993 89.1 15.9993 89.7C16.3993 89.8 16.5993 90.1 16.5993 90.6C16.5993 91.7 16.5993 92.9 16.5993 94C15.8993 94.2 15.2993 94.4 14.7993 94.9C13.9993 95.7 13.8993 97.1 14.4993 98.1C15.0993 99 16.1993 99.6 17.4993 99.2C17.7993 99.1 18.0993 99 18.3993 99.2C19.4993 99.7 20.8993 99.1 21.4993 98C22.0993 96.8 21.6993 95.4 20.7993 94.8C20.4993 94.6 20.1993 94.3 19.7993 94.3C19.4993 94.3 19.3993 94 19.2993 93.7C19.1993 92.7 19.2993 91.7 19.1993 90.8C19.1993 90.4 19.3993 90.1 19.7993 89.9C21.8993 89.3 22.9993 87.8 23.4993 85.7C23.7993 84.4 23.8993 83 23.9993 81.6C23.9993 81.4 24.0993 81.1 24.1993 80.9" stroke="white" stroke-width="2" stroke-miterlimit="10" stroke-linecap="round" stroke-linejoin="round"/>
<path d="M15.501 51.1001C15.301 51.0001 15.101 51.0001 14.801 51.0001C14.001 51.0001 13.201 51.1001 12.401 51.0001C10.601 50.8001 9.50096 51.7001 8.70096 53.2001C7.10096 56.2001 6.60097 59.3001 7.30097 62.6001C7.70097 64.5001 8.60097 66.1001 9.80097 67.6001C10.401 68.4001 10.901 69.2001 11.801 69.7001C11.801 69.7001 11.801 69.8001 11.801 69.9001" stroke="white" stroke-width="2" stroke-miterlimit="10" stroke-linecap="round" stroke-linejoin="round"/>
<path d="M58.2023 69.8C58.5023 69.4 58.9023 69 59.2023 68.6C60.6023 67 61.7023 65.3 62.3023 63.3C62.8023 61.7 62.9023 60.1 62.7023 58.5C62.5023 56.7 62.1023 54.9 61.2023 53.3C60.9023 52.7 60.4023 52.1 59.9023 51.6C59.4023 51.2 58.8023 50.9 58.0023 50.9C57.0023 50.9 56.1023 50.9 55.1023 50.9C54.9023 50.9 54.6023 50.8 54.4023 51" stroke="white" stroke-width="2" stroke-miterlimit="10" stroke-linecap="round" stroke-linejoin="round"/>
<path d="M24.1016 80.3C24.4016 80.9 25.0016 81.1 25.5016 81.3C25.7016 81.4 25.9016 81.4 26.1016 81.6C27.2016 82.9 28.3016 84.1 29.7016 85.1C31.4016 86.3 33.2016 87.1 35.3016 87.1C37.2016 87 38.8016 86.3 40.3016 85.2C41.7016 84.2 42.8016 83 43.9016 81.7C44.1016 81.5 44.3016 81.4 44.5016 81.3C45.0016 81.1 45.6016 81 45.9016 80.3" stroke="white" stroke-width="2" stroke-miterlimit="10" stroke-linecap="round" stroke-linejoin="round"/>
<path d="M15.6008 51C15.2008 52.1 15.3008 53.3 15.4008 54.5C15.6008 56.3 15.8008 58.1 16.1008 59.9C16.8008 63.2 15.0008 65.6 13.3008 68C12.9008 68.6 12.4008 69.2 11.8008 69.6" stroke="white" stroke-width="2" stroke-miterlimit="10" stroke-linecap="round" stroke-linejoin="round"/>
<path d="M54.4009 51C54.7009 52.2 54.7009 53.4 54.6009 54.6C54.4009 56.6 54.1009 58.7 53.7009 60.7C53.4009 62.2 54.0009 63.6 54.6009 64.9C55.4009 66.7 56.6009 68.3 58.1009 69.6" stroke="white" stroke-width="2" stroke-miterlimit="10" stroke-linecap="round" stroke-linejoin="round"/>
</g>
<defs>
<clipPath id="clip0_1259_1670">
<rect width="70" height="111.1" fill="white"/>
</clipPath>
</defs>
</svg>