<svg width="106" height="113" viewBox="0 0 106 113" fill="none" xmlns="http://www.w3.org/2000/svg">
<g clip-path="url(#clip0)">
<path d="M33.4998 49.2999C32.6998 58.4 38.2998 71.9 50.2998 71.9C62.2998 71.9 67.6998 58.4999 66.9998 49.2999C66.0998 38.6999 59.6998 25.7 50.1998 25.7C40.6998 25.7 34.2998 38.6999 33.4998 49.2999Z" stroke="white" stroke-width="3" stroke-miterlimit="10" stroke-linecap="round" stroke-linejoin="round"/>
<path d="M95.8996 54.6999C95.6996 56.9999 97.0996 60.2999 99.9996 60.2999C103 60.2999 104.3 56.9999 104.1 54.6999C103.9 52.0999 102.3 48.8999 99.9996 48.8999C97.6996 48.7999 96.1996 52.0999 95.8996 54.6999Z" stroke="white" stroke-width="2" stroke-miterlimit="10" stroke-linecap="round" stroke-linejoin="round"/>
<path d="M76.8004 12.1C76.4004 16.4 79.1004 22.7 85.0004 22.7C90.9004 22.7 93.6004 16.4 93.2004 12.1C92.8004 7.1 89.7004 1 85.0004 1C80.3004 1 77.3004 7.1 76.8004 12.1Z" stroke="white" stroke-width="2" stroke-miterlimit="10" stroke-linecap="round" stroke-linejoin="round"/>
<path d="M0.99962 22.9C0.59962 27.2 3.29962 33.5 9.19962 33.5C15.0996 33.5 17.7996 27.2 17.3996 22.9C16.9996 17.9 13.7996 11.8 9.19962 11.8C4.59962 11.8 1.49962 17.9 0.99962 22.9Z" stroke="white" stroke-width="2" stroke-miterlimit="10" stroke-linecap="round" stroke-linejoin="round"/>
<path d="M61.9 101.1C61.5 105.4 64.2 111.7 70.1 111.7C76 111.7 78.7 105.4 78.3 101.1C77.9 96.1 74.7 90 70.1 90C65.5 90 62.4 96.1 61.9 101.1Z" stroke="white" stroke-width="2" stroke-miterlimit="10" stroke-linecap="round" stroke-linejoin="round"/>
<path d="M1.0003 70.5C0.6003 75.9 4.0003 83.9 11.4003 83.9C18.8003 83.9 22.2003 75.9 21.8003 70.5C21.3003 64.2 17.3003 56.5 11.4003 56.5C5.5003 56.5 1.6003 64.2 1.0003 70.5Z" stroke="white" stroke-width="2" stroke-miterlimit="10" stroke-linecap="round" stroke-linejoin="round"/>
<path d="M70.0996 53.1001L93.2996 54.7001" stroke="white" stroke-width="2" stroke-miterlimit="10" stroke-linecap="round" stroke-linejoin="round"/>
<path d="M65.4004 31.4L76.8004 21.8" stroke="white" stroke-width="2" stroke-miterlimit="10" stroke-linecap="round" stroke-linejoin="round"/>
<path d="M33.4004 36.2999L18.9004 30.3999" stroke="white" stroke-width="2" stroke-miterlimit="10" stroke-linecap="round" stroke-linejoin="round"/>
<path d="M32.1998 61L23.7998 63.6" stroke="white" stroke-width="2" stroke-miterlimit="10" stroke-linecap="round" stroke-linejoin="round"/>
<path d="M57.7002 73.5L63.9002 88.7" stroke="white" stroke-width="2" stroke-miterlimit="10" stroke-linecap="round" stroke-linejoin="round"/>
</g>
<defs>
<clipPath id="clip0">
<rect width="105.2" height="112.7" fill="white"/>
</clipPath>
</defs>
</svg>
