<svg width="93" height="96" viewBox="0 0 93 96" fill="transparent" xmlns="http://www.w3.org/2000/svg">
<g clip-path="url(#clip0)">
<path d="M44.4999 47.2C44.4999 47.2 44.2999 19.1 35.8999 1" stroke="white" stroke-width="2" stroke-miterlimit="10" stroke-linecap="round" stroke-linejoin="round"/>
<path d="M34.4999 44.3C21.5999 41 13.8999 39.5 13.8999 30.2C13.8999 24.1 18.8999 19.1 24.9999 19.1C34.9999 19.1 35.9999 27.8 39.7999 42.5C40.5999 45.7 41.3999 49 42.0999 52.2" stroke="white" stroke-width="2" stroke-miterlimit="10" stroke-linecap="round" stroke-linejoin="round"/>
<path d="M47.8999 47.2C62.0999 42.9 70.7999 41.5 70.3999 31.6C70.1999 25.5 64.9999 20.7 58.8999 21C49.4999 21.4 48.3999 29.1 45.5999 42.3C45.1999 44.3 44.7999 46.3 44.3999 48.3" stroke="white" stroke-width="2" stroke-miterlimit="10" stroke-linecap="round" stroke-linejoin="round"/>
<path d="M91.0999 74.8C91.5999 73.9 91.5999 72.8 91.0999 71.9L83.5999 57.4C81.8999 54.2 78.6999 52.2 75.2999 52.2H17.2999C13.7999 52.2 10.5999 54.2 8.9999 57.4L1.3999 71.9C0.899902 72.8 0.899902 73.9 1.3999 74.8L8.8999 89.3C10.5999 92.5 13.7999 94.5 17.1999 94.5H75.1999C78.6999 94.5 81.8999 92.5 83.4999 89.3L91.0999 74.8Z" stroke="white" stroke-width="2" stroke-miterlimit="10" stroke-linecap="round" stroke-linejoin="round"/>
</g>
<defs>
<clipPath id="clip0">
<rect width="92.4" height="95.5" fill="white"/>
</clipPath>
</defs>
</svg>
