<svg xmlns="http://www.w3.org/2000/svg" width="80" height="98" viewBox="0 0 80 98"><g><g><g><path fill="#fff" d="M65.8 97.6c-3.2 0-6.1-1.5-8-4.3-.5-.7-.3-1.6.4-2.1s1.6-.3 2.1.4c1 1.4 2.7 3.1 5.6 3.1 5.1 0 7.5-5.3 7.5-9.1 0-.8.7-1.5 1.5-1.5s1.5.7 1.5 1.5c-.2 4.9-3.4 12-10.6 12zm-17.3 0c-3.6 0-6.7-1.9-8.6-5.3-1.9 3.4-5 5.3-8.6 5.3-3.6 0-6.7-1.9-8.6-5.3-1.9 3.4-5.1 5.3-8.6 5.3-2.9 0-5.6-1.2-7.5-3.3C5 92.4 3.2 89 3.7 82.9H1.5c-.8 0-1.5-.7-1.5-1.5s.7-1.5 1.5-1.5h.4l4.7-10.3c1.3-2.9 4.2-4.7 7.3-4.7h51.8c3.1 0 6 1.8 7.3 4.7l.4.9c.3.8 0 1.6-.7 2-.8.3-1.6 0-2-.7l-.4-.9c-.8-1.8-2.6-3-4.6-3H14c-2 0-3.8 1.2-4.6 3l-4.1 9h23.8c.8 0 1.5.7 1.5 1.5s-.7 1.5-1.5 1.5H6.6c-.4 4.1.4 7.4 2.1 9.4 1.7 2 4 2.3 5.2 2.3 3.6 0 5.5-2.6 6.3-4.2.5-.9 1.4-1.5 2.4-1.5s1.9.6 2.4 1.5c.8 1.6 2.7 4.2 6.3 4.2 3.6 0 5.5-2.6 6.3-4.2.5-.9 1.4-1.5 2.4-1.5s1.9.6 2.4 1.5c.8 1.6 2.7 4.2 6.3 4.2 4.1 0 6.4-3.4 7.2-6.6.2-.8 1-1.3 1.8-1.1.8.2 1.3 1 1.1 1.8-1.2 4.1-4.5 8.9-10.3 8.9zM32.9 82.9c-.8 0-1.5-.7-1.5-1.5s.7-1.5 1.5-1.5h41.6l-2.1-4.6c-.3-.8 0-1.6.7-2 .8-.3 1.6 0 2 .7l2.7 5.8h.4c.8 0 1.5.7 1.5 1.5s-.6 1.6-1.5 1.6z"/></g></g><g><g><g><path fill="#fff" d="M3.495 33.5h-.2c-.5-.1-.9-.6-.8-1.1C6.195 10 23.895 0 39.895 0s33.7 10 37.4 32.3c.1.5-.3 1.1-.8 1.1-.5.1-1.1-.3-1.1-.8-3.6-21.1-20.4-30.6-35.5-30.6-15.1 0-32 9.5-35.4 30.7-.1.5-.5.8-1 .8z"/></g></g><g><g><path fill="#fff" d="M3.599 33.5c-.2 0-.4 0-.5-.2-.5-.3-.6-.9-.3-1.4 2.1-3.3 5.8-5.2 9.9-5.2 4.1 0 7.8 2 9.9 5.2.3.5.2 1.1-.3 1.4-.5.3-1.1.2-1.4-.3-1.7-2.7-4.8-4.3-8.2-4.3-3.4 0-6.6 1.6-8.3 4.3-.2.3-.5.5-.8.5z"/></g></g><g><g><path fill="#fff" d="M21.699 33.5c-.2 0-.4 0-.5-.2-.5-.3-.6-.9-.3-1.4 2.1-3.3 5.8-5.2 9.9-5.2 4.1 0 7.8 2 9.9 5.2.3.5.2 1.1-.3 1.4-.5.3-1.1.2-1.4-.3-1.7-2.7-4.8-4.3-8.2-4.3-3.4 0-6.5 1.6-8.2 4.3-.2.3-.5.5-.9.5z"/></g></g><g><g><path fill="#fff" d="M39.899 33.5c-.2 0-.4 0-.5-.2-.5-.3-.6-.9-.3-1.4 2.1-3.3 5.8-5.2 9.9-5.2 4.1 0 7.8 2 9.9 5.2.3.5.2 1.1-.3 1.4-.5.3-1.1.2-1.4-.3-1.7-2.7-4.8-4.3-8.2-4.3-3.4 0-6.5 1.6-8.2 4.3-.2.3-.6.5-.9.5z"/></g></g><g><g><path fill="#fff" d="M76.299 33.5c-.3 0-.7-.2-.8-.5-1.7-2.7-4.8-4.3-8.2-4.3-3.4 0-6.5 1.6-8.2 4.3-.3.5-.9.6-1.4.3-.5-.3-.6-.9-.3-1.4 2.1-3.3 5.8-5.2 9.9-5.2 4.1 0 7.9 2 9.9 5.2.3.5.2 1.1-.3 1.4-.3.2-.5.2-.6.2z"/></g></g><g><g><path fill="#fff" d="M45.005 62.405c-.3 0-.6-.1-.8-.3-.4-.4-.3-1 .1-1.4l29.4-25.9c.4-.4 1-.3 1.4.1.4.4.3 1-.1 1.4l-29.3 25.8c-.2.2-.5.3-.7.3z"/></g></g><g><g><path fill="#fff" d="M34.705 62.405c-.2 0-.5-.1-.7-.2l-29.3-25.9c-.4-.4-.5-1-.1-1.4.4-.4 1-.5 1.4-.1l29.4 25.8c.4.4.5 1 .1 1.4-.2.3-.5.4-.8.4z"/></g></g><g><g><path fill="#fff" d="M42.401 62.401c-.2 0-.3 0-.5-.1-.5-.3-.7-.9-.4-1.4l14.1-25c.3-.5.9-.7 1.4-.4.5.3.7.9.4 1.4l-14.1 25c-.2.3-.5.5-.9.5z"/></g></g><g><g><path fill="#fff" d="M37.301 62.401c-.3 0-.7-.2-.9-.5l-14.1-25c-.3-.5-.1-1.1.4-1.4.5-.3 1.1-.1 1.4.4l14.1 25c.3.5.1 1.1-.4 1.4-.1 0-.3.1-.5.1z"/></g></g><g><g><path fill="#fff" d="M39.9 62.4c-.6 0-1-.4-1-1V36.3c0-.6.4-1 1-1s1 .4 1 1v25.1c0 .5-.5 1-1 1z"/></g></g></g></g></svg>