<svg width="124" height="66" viewBox="0 0 124 66" fill="none" xmlns="http://www.w3.org/2000/svg">
<g clip-path="url(#clip0)">
<path d="M16.9 65.5C14.1 65.5 11.6 64.2 9.9 61.7C9.6 61.2 9.7 60.6 10.1 60.3C10.6 60 11.2 60.1 11.5 60.5C12.4 61.8 14.1 63.4 16.9 63.4C21.8 63.4 24 58.3 24.1 54.8C24.1 54.3 24.6 53.8 25.1 53.8C25.7 53.8 26.1 54.3 26.1 54.8C26 59.3 23.2 65.5 16.9 65.5ZM3.2 65.2C2.8 65.2 2.4 64.9 2.2 64.5C2.1 64 2.4 63.4 2.9 63.3C5.4 62.6 7.3 60.4 8.1 57.2C8.2 56.7 8.8 56.3 9.3 56.5C9.8 56.6 10.2 57.2 10 57.7C9.1 61.6 6.6 64.4 3.4 65.2C3.4 65.2 3.3 65.2 3.2 65.2ZM28.2 52.1H1C0.4 52.1 0 51.7 0 51.1C0 50.5 0.4 50.1 1 50.1H25.4L23.3 45.5C23.1 45 23.3 44.4 23.8 44.2C24.3 44 24.9 44.2 25.1 44.7L27.6 50.2H28.2C28.8 50.2 29.2 50.6 29.2 51.2C29.2 51.8 28.8 52.1 28.2 52.1ZM22.7 42.8C22.3 42.8 22 42.6 21.8 42.2L21.4 41.4C20.6 39.6 18.8 38.5 16.9 38.5H2.1C1.5 38.5 1.1 38.1 1.1 37.5C1.1 36.9 1.5 36.5 2.1 36.5H16.9C19.6 36.5 22.1 38.1 23.2 40.6L23.6 41.4C23.8 41.9 23.6 42.5 23.1 42.7C23 42.8 22.8 42.8 22.7 42.8Z" fill="white"/>
<path d="M117.2 65.1C117.1 65.1 117 65.1 116.9 65C114.7 64.3 109.8 61.6 110.7 52.1H108.4C107.8 52.1 107.4 51.7 107.4 51.1C107.4 50.5 107.8 50.1 108.4 50.1H109L113.4 40.6C114.5 38.1 117 36.5 119.7 36.5H122.8C123.4 36.5 123.8 36.9 123.8 37.5C123.8 38.1 123.4 38.5 122.8 38.5H119.7C117.8 38.5 116 39.6 115.2 41.4L111.2 50.1H111.8H122.1C122.7 50.1 123.1 50.5 123.1 51.1C123.1 51.7 122.7 52.1 122.1 52.1H112.7C112.1 57.9 113.8 61.9 117.5 63.1C118 63.3 118.3 63.8 118.1 64.4C118 64.8 117.6 65.1 117.2 65.1Z" fill="white"/>
<path d="M91.9002 66C88.9002 66 86.3002 64.6 84.5002 62C84.3002 61.7 84.2002 61.4 84.2002 61C82.7002 63.7 80.1002 66 76.2002 66C73.0002 66 70.1002 64.3 68.4002 61.3C66.6002 64.3 63.8002 66 60.6002 66C57.4002 66 54.5002 64.3 52.8002 61.3C51.0002 64.3 48.2002 66 45.0002 66C42.3002 66 39.8002 64.9 38.1002 62.9C36.6002 61.2 35.0002 58.1 35.4002 52.6H33.7002C32.9002 52.6 32.2002 51.9 32.2002 51.1C32.2002 50.3 32.9002 49.6 33.7002 49.6H34.0002L38.2002 40.4C39.4002 37.8 42.1002 36 45.0002 36H92.0002C94.9002 36 97.6002 37.7 98.8002 40.4L99.2002 41.2C99.5002 42 99.2002 42.8 98.5002 43.2C97.7002 43.5 96.9002 43.2 96.5002 42.5L96.0002 41.6C95.2002 40 93.6002 39 91.9002 39H44.9002C43.2002 39 41.6002 40 40.8002 41.6L37.1002 49.6H58.5002C59.3002 49.6 60.0002 50.3 60.0002 51.1C60.0002 51.9 59.3002 52.6 58.5002 52.6H38.4002C38.1002 56.3 38.7002 59.1 40.3002 60.9C41.8002 62.7 43.9002 62.9 44.9002 62.9C48.1002 62.9 49.7002 60.6 50.5002 59.2C50.9002 58.3 51.8002 57.8 52.8002 57.8C53.8002 57.8 54.6002 58.3 55.1002 59.2C55.8002 60.6 57.5002 62.9 60.7002 62.9C63.9002 62.9 65.5002 60.6 66.3002 59.2C66.7002 58.3 67.6002 57.8 68.6002 57.8C69.6002 57.8 70.4002 58.3 70.9002 59.2C71.6002 60.6 73.3002 62.9 76.5002 62.9C80.1002 62.9 82.2002 59.9 82.9002 57C83.1002 56.2 83.9002 55.7 84.7002 55.9C85.5002 56.1 86.0002 56.9 85.8002 57.7C85.6002 58.4 85.4002 59.2 85.0002 59.9L85.1002 59.8C85.8002 59.3 86.7002 59.5 87.2002 60.2C88.1002 61.4 89.6002 62.9 92.1002 62.9C96.6002 62.9 98.7002 58.1 98.8002 54.8C98.8002 54 99.5002 53.3 100.3 53.3C101.1 53.3 101.8 54 101.8 54.8C101.6 60.3 97.9002 66 91.9002 66ZM103.2 52.6H62.1002C61.3002 52.6 60.6002 51.9 60.6002 51.1C60.6002 50.3 61.3002 49.6 62.1002 49.6H99.6002L97.8002 45.7C97.5002 44.9 97.8002 44.1 98.5002 43.7C99.3002 43.4 100.1 43.7 100.5 44.4L102.9 49.6H103.2C104 49.6 104.7 50.3 104.7 51.1C104.7 51.9 104.1 52.6 103.2 52.6Z" fill="white"/>
<path d="M54.2002 29C51.4002 29 48.9002 27.7 47.2002 25.2C46.9002 24.7 47.0002 24.1 47.4002 23.8C47.9002 23.5 48.5002 23.6 48.8002 24C49.7002 25.3 51.4002 26.9 54.2002 26.9C59.1002 26.9 61.3002 21.8 61.4002 18.3C61.4002 17.7 61.9002 17.3 62.4002 17.3C63.0002 17.3 63.4002 17.8 63.4002 18.3C63.3002 22.8 60.5002 29 54.2002 29ZM38.5002 29C35.2002 29 32.4002 27.1 30.7002 23.9L29.7002 23.4L30.6002 23.9C29.0002 27.1 26.2002 29 22.9002 29C19.6002 29 16.8002 27.1 15.1002 23.9H15.0002C13.3002 27.1 10.5002 29 7.20019 29C6.50019 29 5.90019 28.9 5.20019 28.8C4.70019 28.7 4.30019 28.1 4.40019 27.6C4.50019 27.1 5.10019 26.7 5.60019 26.8C6.10019 26.9 6.60019 27 7.10019 27C10.5002 27 12.3002 24.5 13.1002 23C13.5002 22.3 14.2002 21.9 14.9002 21.9C15.7002 21.9 16.4002 22.3 16.7002 23C17.5002 24.5 19.3002 27 22.7002 27C26.1002 27 27.9002 24.5 28.7002 23C29.1002 22.3 29.8002 21.9 30.5002 21.9C31.3002 21.9 32.0002 22.3 32.3002 23C33.1002 24.5 34.9002 27 38.3002 27C42.2002 27 44.4002 23.8 45.1002 20.7C45.2002 20.2 45.8002 19.8 46.3002 20C46.8002 20.1 47.2002 20.7 47.0002 21.2C46.4002 24.8 43.6002 29 38.5002 29ZM65.5002 15.6H12.9002C12.3002 15.6 11.9002 15.2 11.9002 14.6C11.9002 14 12.3002 13.6 12.9002 13.6H62.7002L60.6002 9C60.4002 8.5 60.6002 7.9 61.1002 7.7C61.6002 7.5 62.2002 7.7 62.4002 8.2L64.9002 13.7H65.5002C66.1002 13.7 66.5002 14.1 66.5002 14.7C66.5002 15.3 66.1002 15.6 65.5002 15.6ZM60.0002 6.3C59.6002 6.3 59.3002 6.1 59.1002 5.7L58.7002 4.9C57.9002 3.1 56.1002 2 54.2002 2H22.7002C22.1002 2 21.7002 1.6 21.7002 1C21.7002 0.4 22.1002 0 22.7002 0H54.2002C56.9002 0 59.4002 1.6 60.5002 4.1L60.9002 4.9C61.1002 5.4 60.9002 6 60.4002 6.2C60.3002 6.3 60.1002 6.3 60.0002 6.3Z" fill="white"/>
<path d="M113.6 29C110.3 29 107.5 27.1 105.8 23.9H105.7C104 27.1 101.2 29 97.8999 29C94.5999 29 91.7999 27.1 90.0999 23.9H89.9999C88.2999 27.1 85.4999 29 82.1999 29C79.5999 29 77.2999 28 75.6999 26.1C74.1999 24.4 72.6999 21.3 73.1999 15.6H70.8999C70.2999 15.6 69.8999 15.2 69.8999 14.6C69.8999 14 70.2999 13.6 70.8999 13.6H71.4999L75.8999 4.1C76.9999 1.6 79.4999 0 82.1999 0H113.1C113.7 0 114.1 0.4 114.1 1C114.1 1.6 113.7 2 113.1 2H82.1999C80.2999 2 78.4999 3.1 77.6999 4.9L73.6999 13.6H74.2999H95.8999C96.4999 13.6 96.8999 14 96.8999 14.6C96.8999 15.2 96.4999 15.6 95.8999 15.6H75.1999C74.7999 19.6 75.4999 22.8 77.1999 24.8C78.3999 26.2 80.1999 27 82.1999 27C85.5999 27 87.3999 24.5 88.1999 23C88.5999 22.3 89.2999 21.9 89.9999 21.9C90.7999 21.9 91.4999 22.3 91.7999 23C92.5999 24.5 94.3999 27 97.7999 27C101.2 27 103 24.5 103.8 23C104.2 22.3 104.9 21.9 105.6 21.9C106.4 21.9 107.1 22.3 107.4 23C108.2 24.5 110 27 113.4 27C115.4 27 117 26.2 118.3 24.6C118.7 24.2 119.3 24.1 119.7 24.5C120.1 24.9 120.2 25.5 119.8 25.9C118.4 27.9 116.1 29 113.6 29ZM118.1 15.6H99.3999C98.7999 15.6 98.3999 15.2 98.3999 14.6C98.3999 14 98.7999 13.6 99.3999 13.6H118.1C118.7 13.6 119.1 14 119.1 14.6C119.1 15.2 118.6 15.6 118.1 15.6Z" fill="white"/>
</g>
<defs>
<clipPath id="clip0">
<rect width="123.8" height="66" fill="white"/>
</clipPath>
</defs>
</svg>
