<svg width="113" height="33" viewBox="0 0 113 33" fill="none" xmlns="http://www.w3.org/2000/svg">
<g clip-path="url(#clip0)">
<path d="M98.5999 32.7C95.3999 32.7 92.4999 31.2 90.5999 28.4C90.0999 27.7 90.2999 26.8 90.9999 26.3C91.6999 25.8 92.5999 26 93.0999 26.7C94.0999 28.1 95.7999 29.8 98.6999 29.8C103.8 29.8 106.2 24.5 106.2 20.7C106.2 19.9 106.9 19.2 107.7 19.2C108.5 19.2 109.2 19.9 109.2 20.7C109.1 25.6 105.8 32.7 98.5999 32.7ZM81.2999 32.7C77.6999 32.7 74.5999 30.8 72.6999 27.4C70.7999 30.8 67.6999 32.7 64.0999 32.7C60.4999 32.7 57.3999 30.8 55.4999 27.4C53.5999 30.8 50.3999 32.7 46.8999 32.7C43.9999 32.7 41.2999 31.5 39.3999 29.4C37.7999 27.5 35.9999 24.1 36.4999 18H34.3999C33.5999 18 32.8999 17.3 32.8999 16.5C32.8999 15.7 33.5999 15 34.3999 15H34.7999L39.4999 4.7C40.7999 1.8 43.6999 0 46.7999 0H98.5999C101.7 0 104.6 1.8 105.9 4.7L106.3 5.6C106.6 6.4 106.3 7.2 105.6 7.6C104.8 7.9 104 7.6 103.6 6.9L103.2 6C102.4 4.2 100.6 3 98.5999 3H46.7999C44.7999 3 42.9999 4.2 42.1999 6L37.9999 15H61.7999C62.5999 15 63.2999 15.7 63.2999 16.5C63.2999 17.3 62.6999 18 61.8999 18H39.3999C38.9999 22.2 39.7999 25.4 41.4999 27.4C43.1999 29.4 45.4999 29.7 46.6999 29.7C50.2999 29.7 52.1999 27.1 52.9999 25.5C53.4999 24.6 54.3999 24 55.3999 24C56.3999 24 57.2999 24.6 57.7999 25.5C58.5999 27.1 60.4999 29.7 64.0999 29.7C67.6999 29.7 69.5999 27.1 70.3999 25.5C70.8999 24.6 71.7999 24 72.7999 24C73.7999 24 74.6999 24.6 75.1999 25.5C75.9999 27.1 77.8999 29.7 81.4999 29.7C85.5999 29.7 87.8999 26.3 88.6999 23.1C88.8999 22.3 89.6999 21.8 90.4999 22C91.2999 22.2 91.7999 23 91.5999 23.8C90.3999 27.9 87.0999 32.7 81.2999 32.7ZM111.1 18H65.6999C64.8999 18 64.1999 17.3 64.1999 16.5C64.1999 15.7 64.8999 15 65.6999 15H107.3L105.2 10.4C104.9 9.6 105.2 8.8 105.9 8.4C106.7 8.1 107.5 8.4 107.9 9.1L110.6 14.9H111C111.8 14.9 112.5 15.6 112.5 16.4C112.5 17.2 111.9 18 111.1 18Z" fill="white"/>
<path d="M98.5999 32.7C95.3999 32.7 92.4999 31.2 90.5999 28.4C90.0999 27.7 90.2999 26.8 90.9999 26.3C91.6999 25.8 92.5999 26 93.0999 26.7C94.0999 28.1 95.7999 29.8 98.6999 29.8C103.8 29.8 106.2 24.5 106.2 20.7C106.2 19.9 106.9 19.2 107.7 19.2C108.5 19.2 109.2 19.9 109.2 20.7C109.1 25.6 105.8 32.7 98.5999 32.7ZM81.2999 32.7C77.6999 32.7 74.5999 30.8 72.6999 27.4C70.7999 30.8 67.6999 32.7 64.0999 32.7C60.4999 32.7 57.3999 30.8 55.4999 27.4C53.5999 30.8 50.3999 32.7 46.8999 32.7C43.9999 32.7 41.2999 31.5 39.3999 29.4C37.7999 27.5 35.9999 24.1 36.4999 18H34.3999C33.5999 18 32.8999 17.3 32.8999 16.5C32.8999 15.7 33.5999 15 34.3999 15H34.7999L39.4999 4.7C40.7999 1.8 43.6999 0 46.7999 0H98.5999C101.7 0 104.6 1.8 105.9 4.7L106.3 5.6C106.6 6.4 106.3 7.2 105.6 7.6C104.8 7.9 104 7.6 103.6 6.9L103.2 6C102.4 4.2 100.6 3 98.5999 3H46.7999C44.7999 3 42.9999 4.2 42.1999 6L37.9999 15H61.7999C62.5999 15 63.2999 15.7 63.2999 16.5C63.2999 17.3 62.6999 18 61.8999 18H39.3999C38.9999 22.2 39.7999 25.4 41.4999 27.4C43.1999 29.4 45.4999 29.7 46.6999 29.7C50.2999 29.7 52.1999 27.1 52.9999 25.5C53.4999 24.6 54.3999 24 55.3999 24C56.3999 24 57.2999 24.6 57.7999 25.5C58.5999 27.1 60.4999 29.7 64.0999 29.7C67.6999 29.7 69.5999 27.1 70.3999 25.5C70.8999 24.6 71.7999 24 72.7999 24C73.7999 24 74.6999 24.6 75.1999 25.5C75.9999 27.1 77.8999 29.7 81.4999 29.7C85.5999 29.7 87.8999 26.3 88.6999 23.1C88.8999 22.3 89.6999 21.8 90.4999 22C91.2999 22.2 91.7999 23 91.5999 23.8C90.3999 27.9 87.0999 32.7 81.2999 32.7ZM111.1 18H65.6999C64.8999 18 64.1999 17.3 64.1999 16.5C64.1999 15.7 64.8999 15 65.6999 15H107.3L105.2 10.4C104.9 9.6 105.2 8.8 105.9 8.4C106.7 8.1 107.5 8.4 107.9 9.1L110.6 14.9H111C111.8 14.9 112.5 15.6 112.5 16.4C112.5 17.2 111.9 18 111.1 18Z" fill="white"/>
<path d="M98.0998 9.90002H47.2998C46.6998 9.90002 46.2998 9.50002 46.2998 8.90002C46.2998 8.30002 46.6998 7.90002 47.2998 7.90002H97.9998C98.5998 7.90002 98.9998 8.30002 98.9998 8.90002C98.9998 9.50002 98.5998 9.90002 98.0998 9.90002Z" fill="white"/>
<path d="M30.4 3.80005H1C0.4 3.80005 0 3.40005 0 2.80005C0 2.20005 0.4 1.80005 1 1.80005H30.4C31 1.80005 31.4 2.20005 31.4 2.80005C31.4 3.40005 31 3.80005 30.4 3.80005Z" fill="white"/>
<path d="M28.1 17.3H10.5C9.9 17.3 9.5 16.9 9.5 16.3C9.5 15.7 9.9 15.3 10.5 15.3H28.1C28.7 15.3 29.1 15.7 29.1 16.3C29.1 16.9 28.7 17.3 28.1 17.3Z" fill="white"/>
<path d="M8.4999 24.8H5.3999C4.7999 24.8 4.3999 24.4 4.3999 23.8C4.3999 23.2 4.7999 22.8 5.3999 22.8H8.4999C9.0999 22.8 9.4999 23.2 9.4999 23.8C9.4999 24.4 9.0999 24.8 8.4999 24.8Z" fill="white"/>
<path d="M16.9002 24.8H15.7002C15.1002 24.8 14.7002 24.4 14.7002 23.8C14.7002 23.2 15.1002 22.8 15.7002 22.8H16.9002C17.5002 22.8 17.9002 23.2 17.9002 23.8C17.9002 24.4 17.5002 24.8 16.9002 24.8Z" fill="white"/>
<path d="M6.3001 17.3H5.1001C4.5001 17.3 4.1001 16.9 4.1001 16.3C4.1001 15.7 4.5001 15.3 5.1001 15.3H6.3001C6.9001 15.3 7.3001 15.7 7.3001 16.3C7.3001 16.9 6.9001 17.3 6.3001 17.3Z" fill="white"/>
<path d="M29.9999 24.8H20.8999C20.2999 24.8 19.8999 24.4 19.8999 23.8C19.8999 23.2 20.2999 22.8 20.8999 22.8H29.9999C30.5999 22.8 30.9999 23.2 30.9999 23.8C30.9999 24.4 30.5999 24.8 29.9999 24.8Z" fill="white"/>
</g>
<defs>
<clipPath id="clip0">
<rect width="112.6" height="32.7" fill="white"/>
</clipPath>
</defs>
</svg>
