<svg xmlns="http://www.w3.org/2000/svg" width="80" height="81" viewBox="0 0 80 81"><g><g><g/><g><g><path fill="#fff" d="M46.705 45.8l7.9-13.8c.2-.5.1-1.1-.4-1.4-.5-.2-1.1-.1-1.4.4l-8 13.8c-1.2 1.9-3.2 3.1-5.5 3.1s-4.4-1.1-5.5-3.1l-4.4-7.6 5.3 1.5c.5.1 1.1-.2 1.2-.7.1-.5-.2-1.1-.7-1.2l-7.6-2.1c-.2-.1-.5 0-.7.1-.2.1-.3.4-.4.6l-2 7.6c-.2.5.2 1.1.7 1.2.5.2 1.1-.2 1.2-.7l1.4-5.3 4.4 7.6c1.5 2.5 4.2 4.1 7.2 4.1s5.6-1.5 7.3-4.1zm-21.6-14.1c.5-.3.7-.9.4-1.4l-7.7-13.3c-1.1-2-1.2-4.4 0-6.3 1.2-1.9 3.2-3.1 5.5-3.1h8.8l-3.9 3.8c-.4.4-.4 1 0 1.4.4.4 1 .4 1.4 0l5.6-5.5c.2-.2.3-.4.3-.7 0-.3-.1-.5-.3-.7l-5.6-5.5c-.4-.4-1-.4-1.4 0-.4.4-.4 1 0 1.4l3.9 3.8h-8.8c-3 0-5.7 1.5-7.2 4.1-1.5 2.6-1.5 5.7 0 8.3l7.7 13.3c.2.3.6.5.9.5.2 0 .3-.1.4-.1zm31.3-3.5l7.6-2.1c.5-.1.8-.7.7-1.2-.1-.5-.7-.8-1.2-.7l-5.3 1.5 4.4-7.6c1.5-2.6 1.5-5.8 0-8.3-1.5-2.5-4.2-4.1-7.2-4.1h-16.2c-.6 0-1 .4-1 1s.4 1 1 1h16.1c2.3 0 4.4 1.1 5.5 3.1 1.1 2 1.1 4.3 0 6.3l-4.4 7.6-1.4-5.3c-.1-.5-.7-.8-1.2-.7-.5.1-.8.7-.7 1.2l2 7.6c.1.3.3.5.5.6.2.1.3.1.5.1h.3z"/></g></g><g><g><path fill="#fff" d="M65.8 80.2c-3.6 0-6.7-1.9-8.6-5.3-1.9 3.4-5 5.3-8.6 5.3-3.6 0-6.7-1.9-8.6-5.3-1.9 3.4-5 5.3-8.6 5.3-3.6 0-6.7-1.9-8.6-5.3-1.9 3.4-5.1 5.3-8.6 5.3-2.9 0-5.6-1.2-7.5-3.3-1.9-1.9-3.6-5.4-3.1-11.5H1.5c-.8 0-1.5-.7-1.5-1.5s.7-1.5 1.5-1.5h.4l4.7-10.3c1.3-2.9 4.2-4.7 7.3-4.7h12.3c.8 0 1.5.7 1.5 1.5s-.7 1.5-1.5 1.5H14c-2 0-3.8 1.2-4.6 3l-4.1 9h17.5c.8 0 1.5.7 1.5 1.5s-.7 1.5-1.5 1.5H6.6c-.4 4.2.4 7.4 2.1 9.4 1.7 2 4 2.3 5.2 2.3 3.6 0 5.5-2.6 6.3-4.2.5-.9 1.4-1.5 2.4-1.5s1.9.6 2.4 1.5c.8 1.6 2.7 4.2 6.3 4.2 3.6 0 5.5-2.6 6.3-4.2.5-.9 1.4-1.5 2.4-1.5s1.9.6 2.4 1.5c.8 1.6 2.7 4.2 6.3 4.2 3.6 0 5.5-2.6 6.3-4.2.5-.9 1.4-1.5 2.4-1.5s1.9.6 2.4 1.5c.8 1.6 2.7 4.2 6.3 4.2 5.1 0 7.5-5.3 7.5-9.1 0-.8.7-1.5 1.5-1.5s1.5.7 1.5 1.5c-.4 5.1-3.6 12.2-10.8 12.2zM32.9 65.4c-.8 0-1.5-.7-1.5-1.5s.7-1.5 1.5-1.5h41.6l-4.1-9c-.8-1.8-2.6-3-4.6-3H54.2c-.8 0-1.5-.7-1.5-1.5s.7-1.5 1.5-1.5h11.6c3.1 0 6 1.8 7.3 4.7l4.7 10.3h.4c.8 0 1.5.7 1.5 1.5s-.6 1.5-1.5 1.5zm-5.9 0c-.8 0-1.5-.7-1.5-1.5s.7-1.5 1.5-1.5h2.1c.8 0 1.5.7 1.5 1.5s-.7 1.5-1.5 1.5z"/></g></g></g></g></svg>