<svg width="998" height="789" viewBox="0 0 998 789" fill="none" xmlns="http://www.w3.org/2000/svg">
<path d="M140 91.5L150.106 78.5567C180.31 39.875 223.682 13.6488 271.967 4.86965L296 0.5M997.5 429.5V429.5C997.5 449.809 986.297 468.463 968.369 478.005L966.5 479M687 727V727C659.502 755.138 621.821 771 582.478 771H559M197 788H176.007C127.791 788 81.3551 769.784 46 737V737M1 461V461C1 451.826 3.3942 442.81 7.94595 434.845L11 429.5M700 12.5H722.654C803.444 12.5 875.131 64.2967 900.5 141V141" stroke="#ECE6E1" stroke-linecap="round" stroke-linejoin="round"/>
</svg>
