<svg xmlns="http://www.w3.org/2000/svg" width="80" height="92" viewBox="0 0 80 92"><g><g><g><path fill="#fff" d="M73.2 89c2.4-2.3 3.8-6 3.7-9.5 0-.9-.7-1.5-1.5-1.5-.9 0-1.5.7-1.5 1.5 0 2.7-1.1 5.6-2.8 7.4-1.3 1.3-2.9 2-4.7 2-3.6 0-5.5-2.6-6.3-4.2-.5-.9-1.4-1.5-2.4-1.5s-1.9.6-2.4 1.5c-.8 1.6-2.7 4.2-6.3 4.2-3.6 0-5.5-2.6-6.3-4.2-.5-.9-1.4-1.5-2.4-1.5s-1.9.6-2.4 1.5c-.8 1.6-2.7 4.2-6.3 4.2-4 0-6.3-3.3-7.1-6.4-.2-.8-1-1.3-1.8-1.1-.8.2-1.3 1-1.1 1.8 1.1 4.2 4.3 8.7 10 8.7 3.5 0 6.7-1.9 8.6-5.3 1.9 3.4 5 5.3 8.6 5.3 3.5 0 6.7-1.9 8.6-5.3 1.9 3.4 5 5.3 8.6 5.3 2.6 0 5-1 7.2-2.9zm-51.1-1.2c.5-.7.4-1.6-.3-2.1s-1.6-.4-2.1.3c-1 1.3-2.7 2.9-5.5 2.9-5.1 0-7.4-5.2-7.5-9 0-.9-.7-1.5-1.5-1.5-.9 0-1.5.7-1.5 1.5.1 5.9 4.1 12 10.5 12 3.1 0 5.9-1.4 7.9-4.1zm56.4-10.6c.8 0 1.4-.7 1.4-1.5s-.7-1.5-1.5-1.5H78l-4.7-10.3C72 61 69.1 59.2 66 59.2H14.2c-3.1 0-6 1.8-7.3 4.7L2.2 74.2h-.4c-.8 0-1.5.7-1.5 1.5s.7 1.5 1.5 1.5h8.9c.8 0 1.5-.7 1.5-1.5s-.7-1.5-1.5-1.5H5.5l4.1-9c.8-1.8 2.6-3 4.6-3H66c2 0 3.8 1.2 4.6 3l4.1 9H15.8c-.8 0-1.5.7-1.5 1.5s.7 1.5 1.5 1.5z"/></g></g><g><g><path fill="#fff" d="M22.199 53.7c-3.3 0-6.1-2.1-7.1-5.2l-8.9-28c-.2-.5.1-1.1.7-1.3.5-.2 1.1.1 1.3.7l8.9 28c.7 2.3 2.8 3.8 5.2 3.8h35.7c2.4 0 4.5-1.5 5.2-3.8l8.9-28c.2-.5.7-.8 1.3-.7.5.2.8.7.7 1.3l-8.9 28c-1.2 3.2-4 5.2-7.3 5.2zm54.8-37h-.2l-14.6-3.2c-14.5-3.2-29.8-3.2-44.2 0l-14.6 3.2c-.5.1-1.1-.2-1.2-.8-.1-.5.2-1.1.8-1.2l14.6-3.2c14.7-3.2 30.3-3.2 45.1 0l14.6 3.2c.5.1.9.7.8 1.2-.2.5-.7.8-1.1.8zM47.099 8c-.6 0-1-.4-1-1V4.9c0-1.6-1.3-3-3-3h-6.1c-1.6 0-3 1.3-3 3V7c0 .6-.4 1-1 1s-1-.4-1-1V4.9c0-2.7 2.2-5 5-5h6.2c2.7 0 5 2.2 5 5V7c-.1.5-.5 1-1.1 1z"/></g></g></g></svg>