<svg xmlns="http://www.w3.org/2000/svg" fill="none" viewBox="0 -0.08 70 106.78">
<g clip-path="url(#clip0_1259_1664)">
<path d="M68.5 55.7999V85.6999C68.5 96.3999 59.8 105.2 49 105.2H21C10.3 105.2 1.5 96.4999 1.5 85.6999V55.7999C1.5 40.4999 13.9 28.1999 29.1 28.1999H40.9C56.2 28.0999 68.5 40.4999 68.5 55.7999Z" stroke="white" stroke-width="3" stroke-miterlimit="10" stroke-linecap="round" stroke-linejoin="round"/>
<path d="M50.1008 66.5001C50.4008 64.9001 50.9008 63.4001 51.2008 61.8001C51.7008 59.3001 52.3008 56.8001 52.7008 54.3001C53.0008 52.5001 53.2008 50.7001 53.4008 48.9001C53.6008 46.8001 52.9008 45.0001 51.5008 43.6001C49.7008 41.7001 47.4008 40.8001 44.7008 40.7001C42.2008 40.6001 39.9008 41.2001 38.0008 42.8001C37.3008 43.3001 36.8008 43.9001 36.3008 44.6001C35.6008 45.7001 34.6008 45.5001 34.0008 44.6001C32.1008 41.9001 29.4008 40.7001 26.2008 40.7001C23.6008 40.6001 21.4008 41.4001 19.4008 43.0001C17.8008 44.4001 16.9008 46.1001 16.8008 48.2001C16.8008 49.3001 17.0008 50.4001 17.1008 51.5001C17.4008 54.4001 18.0008 57.4001 18.6008 60.3001C19.0008 62.1001 19.4008 64.0001 19.9008 65.8001C20.0008 66.1001 19.9008 66.4001 20.1008 66.7001" stroke="white" stroke-width="2" stroke-miterlimit="10" stroke-linecap="round" stroke-linejoin="round"/>
<path d="M45.8008 75.8001C46.1008 76.3001 46.0008 76.8001 46.1008 77.4001C46.2008 79.0001 46.4008 80.6001 47.0008 82.0001C47.6008 83.4001 48.7008 84.2001 50.1008 84.7001C50.7008 84.9001 50.8008 85.2001 50.8008 85.7001C50.8008 86.6001 50.8008 87.5001 50.7008 88.4001C50.7008 88.8001 50.5008 89.0001 50.1008 89.1001C49.0008 89.4001 48.2008 90.4001 48.2008 91.6001C48.2008 93.0001 49.1008 93.8001 50.0008 94.1001C50.6008 94.3001 51.1008 94.3001 51.6008 94.1001C51.9008 94.0001 52.2008 94.0001 52.5008 94.1001C54.1008 94.6001 55.5008 93.8001 55.9008 92.3001C56.3008 91.0001 55.6008 89.5001 54.0008 89.1001C53.8008 89.1001 53.7008 89.0001 53.5008 88.9001C53.5008 87.7001 53.5008 86.4001 53.5008 85.2001C53.5008 84.9001 53.7008 84.8001 53.9008 84.7001C56.3008 84.0001 57.4008 82.2001 57.8008 79.9001C58.3008 77.2001 58.3008 74.5001 57.9008 71.9001C57.8008 71.2001 57.6008 70.5001 57.4008 69.8001C56.6008 67.1001 53.4008 65.8001 50.8008 66.3001C50.6008 66.4001 50.4008 66.4001 50.1008 66.3001" stroke="white" stroke-width="2" stroke-miterlimit="10" stroke-linecap="round" stroke-linejoin="round"/>
<path d="M19.8993 66.3C19.3993 66.5 18.8993 66.3 18.4993 66.2C16.2993 65.9 13.2993 67.2 12.4993 70.1C11.7993 72.7 11.6993 75.3 11.9993 77.9C12.0993 79 12.2993 80.1 12.5993 81.2C13.0993 82.9 14.2993 84.1 15.9993 84.7C16.3993 84.8 16.5993 85.1 16.5993 85.6C16.5993 86.7 16.5993 87.9 16.5993 89C15.8993 89.2 15.2993 89.4 14.7993 89.9C13.9993 90.7 13.8993 92.1 14.4993 93.1C15.0993 94 16.1993 94.6 17.4993 94.2C17.7993 94.1 18.0993 94 18.3993 94.2C19.4993 94.7 20.8993 94.1 21.4993 93C22.0993 91.8 21.6993 90.4 20.7993 89.8C20.4993 89.6 20.1993 89.3 19.7993 89.3C19.4993 89.3 19.3993 89 19.2993 88.7C19.1993 87.7 19.2993 86.7 19.1993 85.8C19.1993 85.4 19.3993 85.1 19.7993 84.9C21.8993 84.3 22.9993 82.8 23.4993 80.7C23.7993 79.4 23.8993 78 23.9993 76.6C23.9993 76.4 24.0993 76.1 24.1993 75.9" stroke="white" stroke-width="2" stroke-miterlimit="10" stroke-linecap="round" stroke-linejoin="round"/>
<path d="M15.501 46.1001C15.301 46.0001 15.101 46.0001 14.801 46.0001C14.001 46.0001 13.201 46.1001 12.401 46.0001C10.601 45.8001 9.50096 46.7001 8.70096 48.2001C7.10096 51.2001 6.60097 54.3001 7.30097 57.6001C7.70097 59.5001 8.60097 61.1001 9.80097 62.6001C10.401 63.4001 10.901 64.2001 11.801 64.7001C11.801 64.7001 11.801 64.8001 11.801 64.9001" stroke="white" stroke-width="2" stroke-miterlimit="10" stroke-linecap="round" stroke-linejoin="round"/>
<path d="M58.2023 64.8C58.5023 64.4 58.9023 64 59.2023 63.6C60.6023 62 61.7023 60.3 62.3023 58.3C62.8023 56.7 62.9023 55.1 62.7023 53.5C62.5023 51.7 62.1023 49.9 61.2023 48.3C60.9023 47.7 60.4023 47.1 59.9023 46.6C59.4023 46.2 58.8023 45.9 58.0023 45.9C57.0023 45.9 56.1023 45.9 55.1023 45.9C54.9023 45.9 54.6023 45.8 54.4023 46" stroke="white" stroke-width="2" stroke-miterlimit="10" stroke-linecap="round" stroke-linejoin="round"/>
<path d="M24.1016 75.3C24.4016 75.9 25.0016 76.1 25.5016 76.3C25.7016 76.4 25.9016 76.4 26.1016 76.6C27.2016 77.9 28.3016 79.1 29.7016 80.1C31.4016 81.3 33.2016 82.1 35.3016 82.1C37.2016 82 38.8016 81.3 40.3016 80.2C41.7016 79.2 42.8016 78 43.9016 76.7C44.1016 76.5 44.3016 76.4 44.5016 76.3C45.0016 76.1 45.6016 76 45.9016 75.3" stroke="white" stroke-width="2" stroke-miterlimit="10" stroke-linecap="round" stroke-linejoin="round"/>
<path d="M15.6008 46C15.2008 47.1 15.3008 48.3 15.4008 49.5C15.6008 51.3 15.8008 53.1 16.1008 54.9C16.8008 58.2 15.0008 60.6 13.3008 63C12.9008 63.6 12.4008 64.2 11.8008 64.6" stroke="white" stroke-width="2" stroke-miterlimit="10" stroke-linecap="round" stroke-linejoin="round"/>
<path d="M54.4009 46C54.7009 47.2 54.7009 48.4 54.6009 49.6C54.4009 51.6 54.1009 53.7 53.7009 55.7C53.4009 57.2 54.0009 58.6 54.6009 59.9C55.4009 61.7 56.6009 63.3 58.1009 64.6" stroke="white" stroke-width="2" stroke-miterlimit="10" stroke-linecap="round" stroke-linejoin="round"/>
<path d="M35 22.4C32.3 22.4 30 24.6 30 27.4V28.2H40V27.4C40 24.6 37.8 22.4 35 22.4Z" stroke="white" stroke-width="3" stroke-miterlimit="10" stroke-linecap="round" stroke-linejoin="round"/>
<path d="M30.4981 25.2C2.49815 22.6 10.0981 11.6 16.2981 3.79998C22.4981 -4.00002 32.3981 8.69998 33.1981 22.6" stroke="white" stroke-width="3" stroke-miterlimit="10" stroke-linecap="round" stroke-linejoin="round"/>
<path d="M39.5008 25.2C67.5008 22.6 59.9008 11.6 53.7008 3.8C47.5008 -4 37.6008 8.8 36.8008 22.7" stroke="white" stroke-width="3" stroke-miterlimit="10" stroke-linecap="round" stroke-linejoin="round"/>
</g>
<defs>
<clipPath id="clip0_1259_1664">
<rect width="70" height="106.6" fill="white"/>
</clipPath>
</defs>
</svg>
