<svg width="108" height="68" viewBox="0 0 108 68" fill="none" xmlns="http://www.w3.org/2000/svg">
<g clip-path="url(#clip0)">
<path d="M25.9002 39.8C25.8002 39.8 25.8002 39.8 25.7002 39.8C25.2002 39.7 24.8002 39.2 24.9002 38.6C26.3002 32 31.3002 24.8 37.1002 24.8C39.1002 24.8 40.9002 25.6001 42.4002 27.2001C44.9002 29.8001 46.4002 34.3001 46.2002 38.9001C46.2002 39.5001 45.7002 39.9001 45.2002 39.9001C44.6002 39.9001 44.2002 39.4001 44.2002 38.9001C44.3002 35.0001 43.0002 30.9001 40.9002 28.7001C39.8002 27.5001 38.5002 27 37.1002 27C32.5002 27 28.0002 33.3001 26.8002 39.2001C26.8002 39.5001 26.4002 39.8 25.9002 39.8Z" fill="white"/>
<path d="M50.7 39.8C50.6 39.8 50.6 39.8 50.5 39.8C50 39.7 49.6 39.2 49.7 38.6C51.1 32 56.2 24.8 62 24.8C64 24.8 65.8 25.6001 67.3 27.2001C69.8 29.8001 71.3 34.3001 71.1 38.9001C71.1 39.5001 70.6 39.9001 70.1 39.9001C69.5 39.9001 69.1 39.4001 69.1 38.9001C69.2 35.0001 67.9 30.9001 65.8 28.7001C64.7 27.5001 63.4 27 62 27C57.4 27 52.9 33.3001 51.7 39.2001C51.6 39.5001 51.2 39.8 50.7 39.8Z" fill="white"/>
<path d="M49.4995 27.4C46.6995 27.4 44.2995 26.3 42.5995 24.2C40.3995 21.5 39.4995 17.4 40.2995 13.8C41.6995 7.2 46.7995 0 52.5995 0C54.5995 0 56.3995 0.8 57.8995 2.4C60.3995 5 61.8995 9.5 61.6995 14.1C61.4995 19.5 57.0995 27.4 49.4995 27.4ZM42.2995 14.2C41.7995 16.8 42.1995 20.5 44.1995 23C45.4995 24.6 47.2995 25.4 49.4995 25.4C55.5995 25.4 59.4995 18.7 59.6995 13.9C59.7995 10 58.4995 5.9 56.3995 3.7C55.2995 2.6 53.9995 2 52.5995 2C47.9995 2 43.5995 8.3 42.2995 14.2Z" fill="white"/>
<path d="M69.3002 59.1001H49.7002C49.1002 59.1001 48.7002 58.7001 48.7002 58.1001C48.7002 57.5001 49.1002 57.1001 49.7002 57.1001H69.2002C69.8002 57.1001 70.2002 57.5001 70.2002 58.1001C70.2002 58.7001 69.8002 59.1001 69.3002 59.1001Z" fill="white"/>
<path d="M24.6996 59.1001H19.7996C19.4996 59.1001 19.1996 59.0001 19.0996 58.8001C18.8996 58.6001 18.7996 58.3001 18.8996 58.0001L20.6996 43.0001C20.7996 42.5001 21.1996 42.1001 21.6996 42.1001H70.8996C71.4996 42.1001 71.8996 42.5001 71.8996 43.1001C71.8996 43.7001 71.4996 44.1001 70.8996 44.1001H22.4996L20.8996 57.1001H24.6996C25.2996 57.1001 25.6996 57.5001 25.6996 58.1001C25.6996 58.7001 25.2996 59.1001 24.6996 59.1001Z" fill="white"/>
<path d="M89.1 44.0001H80.5C79.9 44.0001 79.5 43.6001 79.5 43.0001C79.5 42.4001 79.9 42.0001 80.5 42.0001H89.1C91 42.0001 93 41.3001 94.6 40.1001L95.8 39.2001C96.2 38.9001 96.9 39.0001 97.2 39.4001C97.5 39.8001 97.4 40.5001 97 40.8001L95.8 41.7001C93.9 43.2001 91.5 44.0001 89.1 44.0001Z" fill="white"/>
<path d="M74.5998 59.5999C74.4998 59.5999 74.4998 59.5999 74.3998 59.5999C73.5998 59.5 72.9998 58.8 73.0998 57.9L77.3998 22.5C77.4998 21.7 78.0998 21.2 78.8998 21.2H86.8998C89.9998 21.2 92.7998 22.7 94.2998 25.2L106.1 44.0999C107.1 45.7999 107.6 47.8 107.3 49.9L106.7 55.2999C106.4 57.7 104.3 59.5999 101.9 59.5999H99.7998C98.9998 59.5999 98.2998 58.8999 98.2998 58.0999C98.2998 57.2999 98.9998 56.5999 99.7998 56.5999H101.9C102.8 56.5999 103.7 55.8 103.8 54.9L104.4 49.5C104.6 48.1 104.3 46.8 103.6 45.7L91.7998 26.7C90.7998 25.1 88.9998 24.1 86.8998 24.1H80.1998L76.0998 58.2C75.9998 59 75.2998 59.5999 74.5998 59.5999Z" fill="white"/>
<path d="M87.0001 67.3C84.5001 67.3 82.2001 66.2999 80.6001 64.5C79.0001 62.7 78.3001 60.2999 78.6001 57.7999C79.2001 52.7999 83.8001 48.7 88.9001 48.7C91.4001 48.7 93.7001 49.7 95.3001 51.5C96.9001 53.3 97.6001 55.7 97.3001 58.2C96.7001 63.3 92.1001 67.3 87.0001 67.3ZM88.9001 51.7999C85.3001 51.7999 82.1001 54.6999 81.6001 58.2999C81.4001 59.9 81.8001 61.4999 82.9001 62.5999C83.9001 63.6999 85.4001 64.4 87.0001 64.4C90.6001 64.4 93.8001 61.5 94.3001 57.9C94.5001 56.3 94.1001 54.6999 93.0001 53.5999C92.0001 52.3999 90.6001 51.7999 88.9001 51.7999Z" fill="white"/>
<path d="M36.4005 67.3C33.9005 67.3 31.6005 66.2999 30.0005 64.5C28.4005 62.7 27.7005 60.2999 28.0005 57.7999C28.6005 52.7999 33.2005 48.7 38.3005 48.7C40.8005 48.7 43.1005 49.7 44.7005 51.5C46.3005 53.3 47.0005 55.7 46.7005 58.2C46.0005 63.3 41.4005 67.3 36.4005 67.3ZM38.2005 51.7999C34.6005 51.7999 31.4005 54.6999 30.9005 58.2999C30.7005 59.9 31.1005 61.4999 32.2005 62.5999C33.2005 63.6999 34.7005 64.4 36.3005 64.4C39.9005 64.4 43.1005 61.5 43.6005 57.9C43.8005 56.3 43.4005 54.6999 42.3005 53.5999C41.4005 52.3999 39.9005 51.7999 38.2005 51.7999Z" fill="white"/>
<path d="M14.8996 44.1001H8.09961C7.49961 44.1001 7.09961 43.7001 7.09961 43.1001C7.09961 42.5001 7.49961 42.1001 8.09961 42.1001H14.7996C15.3996 42.1001 15.7996 42.5001 15.7996 43.1001C15.7996 43.7001 15.3996 44.1001 14.8996 44.1001Z" fill="white"/>
<path d="M2.7 44.1001H1C0.4 44.1001 0 43.7001 0 43.1001C0 42.5001 0.4 42.1001 1 42.1001H2.7C3.3 42.1001 3.7 42.5001 3.7 43.1001C3.7 43.7001 3.2 44.1001 2.7 44.1001Z" fill="white"/>
<path d="M28.4002 27.3999H24.7002C24.1002 27.3999 23.7002 26.9999 23.7002 26.3999C23.7002 25.7999 24.1002 25.3999 24.7002 25.3999H28.4002C29.0002 25.3999 29.4002 25.7999 29.4002 26.3999C29.4002 26.9999 29.0002 27.3999 28.4002 27.3999Z" fill="white"/>
<path d="M14.4004 27.3999H13.9004C13.3004 27.3999 12.9004 26.9999 12.9004 26.3999C12.9004 25.7999 13.3004 25.3999 13.9004 25.3999H14.4004C15.0004 25.3999 15.4004 25.7999 15.4004 26.3999C15.4004 26.9999 14.9004 27.3999 14.4004 27.3999Z" fill="white"/>
<path d="M20.7998 27.3999H19.7998C19.1998 27.3999 18.7998 26.9999 18.7998 26.3999C18.7998 25.7999 19.1998 25.3999 19.7998 25.3999H20.7998C21.3998 25.3999 21.7998 25.7999 21.7998 26.3999C21.7998 26.9999 21.2998 27.3999 20.7998 27.3999Z" fill="white"/>
<path d="M43.6002 2H37.7002C37.1002 2 36.7002 1.6 36.7002 1C36.7002 0.4 37.1002 0 37.7002 0H43.6002C44.2002 0 44.6002 0.4 44.6002 1C44.6002 1.6 44.2002 2 43.6002 2Z" fill="white"/>
<path d="M36.5998 12.5H32.7998C32.1998 12.5 31.7998 12.1 31.7998 11.5C31.7998 10.9 32.1998 10.5 32.7998 10.5H36.5998C37.1998 10.5 37.5998 10.9 37.5998 11.5C37.5998 12.1 37.0998 12.5 36.5998 12.5Z" fill="white"/>
<path d="M28.8002 12.5H27.7002C27.1002 12.5 26.7002 12.1 26.7002 11.5C26.7002 10.9 27.1002 10.5 27.7002 10.5H28.8002C29.4002 10.5 29.8002 10.9 29.8002 11.5C29.8002 12.1 29.4002 12.5 28.8002 12.5Z" fill="white"/>
<path d="M31.9002 2H30.7002C30.1002 2 29.7002 1.6 29.7002 1C29.7002 0.4 30.1002 0 30.7002 0H31.9002C32.5002 0 32.9002 0.4 32.9002 1C32.9002 1.6 32.5002 2 31.9002 2Z" fill="white"/>
<path d="M21.4002 2H20.2002C19.6002 2 19.2002 1.6 19.2002 1C19.2002 0.4 19.6002 0 20.2002 0H21.4002C22.0002 0 22.4002 0.4 22.4002 1C22.4002 1.6 21.9002 2 21.4002 2Z" fill="white"/>
<path d="M16.4004 51.6001H11.4004C10.8004 51.6001 10.4004 51.2001 10.4004 50.6001C10.4004 50.0001 10.8004 49.6001 11.4004 49.6001H16.4004C17.0004 49.6001 17.4004 50.0001 17.4004 50.6001C17.4004 51.2001 16.9004 51.6001 16.4004 51.6001Z" fill="white"/>
<path d="M9.50039 59.1001H1.40039C0.800391 59.1001 0.400391 58.7001 0.400391 58.1001C0.400391 57.5001 0.800391 57.1001 1.40039 57.1001H9.50039C10.1004 57.1001 10.5004 57.5001 10.5004 58.1001C10.5004 58.7001 10.1004 59.1001 9.50039 59.1001Z" fill="white"/>
</g>
<defs>
<clipPath id="clip0">
<rect width="107.4" height="67.3" fill="white"/>
</clipPath>
</defs>
</svg>
