<svg width="1054" height="833" viewBox="0 0 1054 833" fill="none" xmlns="http://www.w3.org/2000/svg">
<path d="M14 226V226C14 135.358 71.5528 54.7162 157.272 25.2504L163.471 23.1193C181.087 17.0639 199.396 13.2552 217.965 11.7833L354 1M981.5 692.5V692.5C947.991 776.724 866.51 832 775.865 832H669.5M241 832L154.132 812.765C119.418 805.078 87.5839 787.738 62.2983 762.743V762.743C31.0801 731.884 11.6011 691.104 7.21661 647.427L1 585.5M50 474V474C50 464.826 52.3942 455.81 56.9459 447.845L60 442.5M751.5 1L833.815 13.9692C881.652 21.5063 926.433 42.2583 963.106 73.8852V73.8852C1030.04 131.612 1063.06 219.4 1050.74 306.93L1042.5 365.5" stroke="#ECE6E1" stroke-linecap="round" stroke-linejoin="round"/>
</svg>
