<svg width="98" height="81" viewBox="0 0 98 81" fill="none" xmlns="http://www.w3.org/2000/svg">
<g clip-path="url(#clip0)">
<path d="M74.7 80.6C71.5 80.6 68.6 79.1 66.7 76.3C66.2 75.6 66.4 74.7 67.1 74.2C67.8 73.7 68.7 73.9 69.2 74.6C70.2 76 71.9 77.7 74.8 77.7C79.9 77.7 82.3 72.4 82.3 68.6C82.3 67.8 83 67.1 83.8 67.1C84.6 67.1 85.3 67.8 85.3 68.6C85.1 73.5 81.9 80.6 74.7 80.6ZM57.4 80.6C53.8 80.6 50.7 78.7 48.8 75.3C46.9 78.7 43.8 80.6 40.2 80.6C36.6 80.6 33.5 78.7 31.6 75.3C29.7 78.7 26.5 80.6 23 80.6C20.1 80.6 17.4 79.4 15.5 77.3C13.9 75.4 12.1 72 12.6 65.9H10.5C9.7 65.9 9 65.2 9 64.4C9 63.6 9.7 62.9 10.5 62.9H10.9L15.6 52.6C16.9 49.7 19.8 47.9 22.9 47.9H74.7C77.8 47.9 80.7 49.7 82 52.6L82.4 53.5C82.7 54.3 82.4 55.1 81.7 55.5C80.9 55.8 80.1 55.5 79.7 54.8L79.3 53.9C78.5 52.1 76.7 50.9 74.7 50.9H22.9C20.9 50.9 19.1 52.1 18.3 53.9L14.2 62.9H38C38.8 62.9 39.5 63.6 39.5 64.4C39.5 65.2 38.8 65.9 38 65.9H15.5C15.1 70.1 15.9 73.3 17.6 75.3C19.3 77.3 21.6 77.6 22.8 77.6C26.4 77.6 28.3 75 29.1 73.4C29.6 72.5 30.5 71.9 31.5 71.9C32.5 71.9 33.4 72.5 33.9 73.4C34.7 75 36.6 77.6 40.2 77.6C43.8 77.6 45.7 75 46.5 73.4C47 72.5 47.9 71.9 48.9 71.9C49.9 71.9 50.8 72.5 51.3 73.4C52.1 75 54 77.6 57.6 77.6C61.7 77.6 64 74.2 64.8 71C65 70.2 65.8 69.7 66.6 69.9C67.4 70.1 67.9 70.9 67.7 71.7C66.5 75.8 63.2 80.6 57.4 80.6ZM87.1 65.8H41.8C41 65.8 40.3 65.1 40.3 64.3C40.3 63.5 41 62.8 41.8 62.8H83.4L81.3 58.2C81 57.4 81.3 56.6 82 56.2C82.8 55.9 83.6 56.2 84 56.9L86.7 62.7H87.1C87.9 62.7 88.6 63.4 88.6 64.2C88.6 65 88 65.8 87.1 65.8Z" fill="white"/>
<path d="M96.5 80.1C95.9 80.1 95.5 79.7 95.5 79.1C95.5 48.1 78 29.6 48.8 29.6C19.5 29.6 2 48.1 2 79.1C2 79.7 1.6 80.1 1 80.1C0.4 80.1 0 79.7 0 79.1C0 46.9 18.2 27.6 48.7 27.6C79.2 27.6 97.4 46.8 97.4 79.1C97.5 79.6 97 80.1 96.5 80.1Z" fill="white"/>
<path d="M28.4 26.4C26.6 26.4 25 25.2 24.5 23.4L20.7 9.40002C20.4 8.40002 20.6 7.30002 21.1 6.40002C21.6 5.50002 22.5 4.80002 23.5 4.50002L30.7 2.60002C31.7 2.30002 32.8 2.50002 33.7 3.00002C34.6 3.50002 35.3 4.40002 35.6 5.40002L39.4 19.4C40 21.5 38.7 23.7 36.6 24.3L29.4 26.2C29.1 26.4 28.7 26.4 28.4 26.4ZM31.8 4.50002C31.6 4.50002 31.5 4.50002 31.3 4.60002L24.1 6.50002C23.6 6.60002 23.2 7.00002 22.9 7.40002C22.6 7.90002 22.6 8.40002 22.7 8.90002L26.5 22.9C26.8 24 27.9 24.6 28.9 24.3L36.1 22.4C37.2 22.1 37.8 21 37.5 20L33.7 6.00002C33.6 5.50002 33.2 5.10002 32.8 4.80002C32.5 4.60002 32.2 4.50002 31.8 4.50002ZM41.7 15.6C41.3 15.6 40.9 15.3 40.7 14.9C40.6 14.4 40.9 13.8 41.4 13.7L69.3 6.20002C69.4 6.20002 69.5 6.10002 69.5 6.00002C69.5 6.00002 69.6 5.90002 69.5 5.70002L68.6 2.20002C68.6 2.10002 68.5 2.00002 68.4 2.00002C68.4 2.00002 68.3 1.90002 68.1 2.00002L40.3 9.50002C39.8 9.60002 39.2 9.30002 39.1 8.80002C39 8.30002 39.3 7.70002 39.8 7.60002L67.7 0.100024C68.3 -0.0999765 68.9 2.3514e-05 69.5 0.300024C70 0.600024 70.4 1.10002 70.6 1.70002L71.5 5.20002C71.7 5.80002 71.6 6.40002 71.3 7.00002C71 7.50002 70.5 7.90002 69.9 8.10002L42 15.6C41.8 15.6 41.7 15.6 41.7 15.6Z" fill="white"/>
<path d="M19.3001 32.2C19.2001 32.2 19.1001 32.2 19.1001 32.2L2.90006 28.3C2.40006 28.2 2.00006 27.6 2.20006 27.1C2.30006 26.6 2.90006 26.2 3.40006 26.4L19.5001 30.3C20.0001 30.4 20.4001 31 20.2001 31.5C20.1001 31.9 19.7001 32.2 19.3001 32.2Z" fill="white"/>
<path d="M22.5 28.6999C22.3 28.6999 22.1 28.5999 21.9 28.4999L16.6 24.2999C16.2 23.9999 16.1 23.2999 16.4 22.8999C16.7 22.4999 17.4 22.3999 17.8 22.6999L23.1 26.8999C23.5 27.1999 23.6 27.8999 23.3 28.2999C23.1 28.5999 22.8 28.6999 22.5 28.6999Z" fill="white"/>
<path d="M43.5001 23.5C43.2001 23.5 42.9001 23.4 42.7001 23.1C42.4001 22.7 42.5001 22 42.9001 21.7L45.9001 19.4C46.3001 19.1 47.0001 19.2 47.3001 19.6C47.6001 20 47.5001 20.7 47.1001 21L44.1001 23.3C43.9001 23.5 43.7001 23.5 43.5001 23.5Z" fill="white"/>
</g>
<defs>
<clipPath id="clip0">
<rect width="97.5" height="80.6" fill="white"/>
</clipPath>
</defs>
</svg>
