<svg width="17" height="24" viewBox="0 0 17 24" fill="none" xmlns="http://www.w3.org/2000/svg">
<path d="M8.31014 0.5C3.71769 0.5 0 4.23457 0 8.84786C0 9.83642 0.21869 10.7151 0.437378 11.5939C0.984097 13.1316 1.85884 14.3399 3.06163 15.3284C4.15507 16.2072 4.92047 17.5252 5.13916 18.9532C5.13916 19.063 5.24851 19.1728 5.35786 19.1728C6.12326 19.3925 6.88867 19.5024 7.65408 19.6122C7.87277 19.6122 8.09145 19.6122 8.31014 19.6122C8.52883 19.6122 8.74751 19.6122 8.85686 19.6122C9.62227 19.6122 10.497 19.3925 11.2624 19.1728C11.3718 19.1728 11.4811 19.063 11.4811 18.9532C11.6998 17.5252 12.3559 16.317 13.34 15.4383C13.4493 15.3284 13.5586 15.2186 13.7773 15.1088C14.8708 14.1202 15.7455 12.9119 16.1829 11.484C16.5109 10.6053 16.6203 9.72658 16.6203 8.73802C16.6203 4.23457 12.9026 0.5 8.31014 0.5ZM11.8091 13.571C10.7157 14.5595 9.84095 15.7678 9.40358 17.1957C9.29423 17.1957 9.29424 17.1957 9.18489 17.1957C8.96621 17.1957 8.63817 17.1957 8.41948 17.1957C8.09145 17.1957 7.87277 17.1957 7.54473 17.1957C7.43539 17.1957 7.43539 17.1957 7.32604 17.1957C6.77932 15.658 5.90457 14.4497 4.70179 13.4611C3.38966 12.3627 2.62426 10.825 2.62426 8.9577C2.62426 5.77233 5.24851 3.13617 8.41948 3.13617C11.5905 3.13617 14.2147 5.77233 14.2147 8.9577C14.2147 10.7151 13.4493 12.2529 12.2465 13.3513C12.1372 13.3513 12.0278 13.4611 11.8091 13.571Z" fill="#FFA722"/>
<path d="M11.1531 7.85938C10.6063 7.85938 10.169 8.29874 10.169 8.7381V8.84794C10.169 9.8365 9.29422 10.6054 8.31012 10.6054C7.32603 10.6054 6.45128 9.8365 6.45128 8.84794C6.45128 8.29874 6.01391 7.85938 5.46719 7.85938C4.92047 7.85938 4.48309 8.29874 4.48309 8.84794C4.48309 10.9349 6.23259 12.5825 8.31012 12.5825C10.3877 12.5825 12.0278 10.9349 12.1372 8.84794C12.1372 8.29874 11.6998 7.85938 11.1531 7.85938Z" fill="#FFA722"/>
<path d="M11.3718 20.1616C10.6064 20.3813 9.84095 20.4911 8.9662 20.4911C8.74751 20.4911 8.52882 20.4911 8.31014 20.4911C8.09145 20.4911 7.87276 20.4911 7.65407 20.4911C6.88867 20.4911 6.01392 20.3813 5.35786 20.1616C5.35786 20.1616 5.2485 20.1616 5.2485 20.2715C5.35785 21.4797 6.01392 22.5781 7.10735 23.0175C7.43539 23.1273 7.87276 23.2372 8.31014 23.2372C8.74751 23.2372 9.18488 23.1273 9.51292 23.0175C10.6064 22.5781 11.3718 21.4797 11.3718 20.1616C11.4811 20.2715 11.4811 20.2715 11.3718 20.1616C11.3718 20.1616 11.4811 20.1616 11.3718 20.1616Z" fill="#FFA722"/>
</svg>
