<svg width="533" height="494" viewBox="0 0 533 494" fill="none" xmlns="http://www.w3.org/2000/svg">
<path d="M0.5 349.332C0.5 389.963 8.97253 419.197 24.1623 440.217C39.3491 461.232 61.2941 474.095 88.3603 481.901C115.435 489.709 147.604 492.448 183.195 493.231C205.144 493.714 228.369 493.452 252.489 493.181C267.488 493.013 282.834 492.84 298.435 492.84C379.691 492.84 438.174 473.265 476.353 433.46C514.535 393.651 532.5 333.513 532.5 252.18C532.5 170.873 510.606 107.971 468.475 65.3963C426.345 22.8221 363.908 0.5 282.669 0.5C201.545 0.5 131.011 47.019 80.7383 113.921C30.4651 180.823 0.5 268.051 0.5 349.332Z" stroke="#EAE2DB"/>
</svg>
