<svg width="533" height="494" viewBox="0 0 533 494" fill="none" xmlns="http://www.w3.org/2000/svg">
<path d="M532.5 144.668C532.5 104.037 524.027 74.8027 508.838 53.7834C493.651 32.7682 471.706 19.9048 444.64 12.0989C417.565 4.29056 385.396 1.55176 349.805 0.769073C327.856 0.286407 304.631 0.547577 280.511 0.818817C265.512 0.987488 250.166 1.16006 234.565 1.16006C153.309 1.16006 94.8255 20.7355 56.6473 60.5403C18.4649 100.349 0.5 160.487 0.5 241.82C0.5 323.127 22.3945 386.029 64.525 428.604C106.655 471.178 169.092 493.5 250.331 493.5C331.455 493.5 401.989 446.981 452.262 380.079C502.535 313.177 532.5 225.949 532.5 144.668Z" stroke="#EAE2DB"/>
</svg>
