<svg width="674" height="524" viewBox="0 0 674 524" fill="none" xmlns="http://www.w3.org/2000/svg">
<path d="M26.5 34.5L31.6017 30.9235C59.8472 11.1226 93.5052 0.5 128 0.5V0.5M419 28V28C456.95 55.8948 502.901 71 550 71V71M0.5 338V338C0.5 303.02 20.1157 270.995 51.2763 255.101L61.3214 249.977C70.3976 245.348 80.0657 241.984 90.0555 239.981L170.813 223.788C231.647 211.59 294.285 233.601 334.116 281.172V281.172C360.473 312.65 397.358 333.493 437.921 339.831L458.022 342.972C543.32 356.3 628.226 316.816 673 243V243M124.5 479L163.437 506.503C178.324 517.018 197.694 518.779 214.232 511.119V511.119C227.441 505.001 242.637 504.827 255.983 510.641L285.5 523.5" stroke="#ECE6E1" stroke-linecap="round" stroke-linejoin="round"/>
</svg>
