<svg xmlns="http://www.w3.org/2000/svg" width="863" height="663" viewBox="0 0 863 663"><defs><radialGradient id="715xa" cx="430.1" cy="333.06" r="342.32" gradientUnits="userSpaceOnUse"><stop offset="0" stop-color="#0098d4"/><stop offset="1" stop-color="#0098d4" stop-opacity="0"/></radialGradient><radialGradient id="715xb" cx="441.13" cy="344.59" r="326.61" gradientUnits="userSpaceOnUse"><stop offset="0" stop-color="#fbbf54"/><stop offset="1" stop-color="#fbbf54" stop-opacity="0"/></radialGradient><radialGradient id="715xc" cx="448.78" cy="333.13" r="341.2" gradientUnits="userSpaceOnUse"><stop offset="0" stop-color="#8a8a8a"/><stop offset="1" stop-color="#8a8a8a" stop-opacity="0"/></radialGradient><radialGradient id="715xd" cx="441.45" cy="419.14" r="137.02" gradientUnits="userSpaceOnUse"><stop offset="0" stop-opacity=".4"/><stop offset=".67" stop-opacity="0"/></radialGradient><radialGradient id="715xe" cx="435.3" cy="267.75" r="124.96" gradientUnits="userSpaceOnUse"><stop offset="0" stop-color="#fff"/><stop offset=".44" stop-color="#fdfdfd"/><stop offset=".65" stop-color="#f7f6f5"/><stop offset=".81" stop-color="#eceae9"/><stop offset=".94" stop-color="#ddd9d6"/><stop offset="1" stop-color="#d4cfcb"/></radialGradient><linearGradient id="715xf" x1="443.62" x2="448.12" y1="342.44" y2="452.04" gradientUnits="userSpaceOnUse"><stop offset="0" stop-opacity="0"/><stop offset=".85" stop-opacity=".85"/><stop offset="1"/></linearGradient><linearGradient id="715xg" x1="478.5" x2="441.47" y1="112" y2="432.76" gradientUnits="userSpaceOnUse"><stop offset="0" stop-color="#f8a475"/><stop offset="1" stop-color="#ed7b02"/></linearGradient><radialGradient id="715xh" cx="437.31" cy="341.6" r="118.16" gradientUnits="userSpaceOnUse"><stop offset="0" stop-color="#6c8e9c"/><stop offset=".23" stop-color="#85a1ad"/><stop offset=".52" stop-color="#9eb4be"/><stop offset=".79" stop-color="#aec0c8"/><stop offset="1" stop-color="#b3c4cc"/></radialGradient><radialGradient id="715xi" cx="437.64" cy="327.93" r="101.61" gradientUnits="userSpaceOnUse"><stop offset="0" stop-color="#6c8e9c"/><stop offset=".14" stop-color="#8fa9b4"/><stop offset=".32" stop-color="#b7c8cf"/><stop offset=".51" stop-color="#d7e0e4"/><stop offset=".68" stop-color="#edf1f3"/><stop offset=".85" stop-color="#fafbfc"/><stop offset="1" stop-color="#fff"/></radialGradient><radialGradient id="715xj" cx="416.95" cy="281.05" r="74.5" gradientUnits="userSpaceOnUse"><stop offset=".1" stop-color="#ffd62a"/><stop offset="1" stop-color="#eba102"/></radialGradient><radialGradient id="715xl" cx="416.95" cy="281.05" r="74.5" gradientUnits="userSpaceOnUse"><stop offset=".1" stop-color="#ffd62a"/><stop offset="1" stop-color="#eba102"/></radialGradient><linearGradient id="715xm" x1="358.63" x2="387.2" y1="471.22" y2="471.22" gradientUnits="userSpaceOnUse"><stop offset="0" stop-color="#ffa722"/><stop offset="1" stop-color="#ffb422"/></linearGradient><linearGradient id="715xn" x1="324.3" x2="352.87" y1="453.71" y2="453.71" gradientUnits="userSpaceOnUse"><stop offset="0" stop-color="#ffa722"/><stop offset="1" stop-color="#ffb422"/></linearGradient><linearGradient id="715xo" x1="473.21" x2="501.78" y1="478.62" y2="478.62" gradientUnits="userSpaceOnUse"><stop offset="0" stop-color="#ffa722"/><stop offset="1" stop-color="#ffb422"/></linearGradient><linearGradient id="715xp" x1="509.55" x2="538.12" y1="464.26" y2="464.26" gradientUnits="userSpaceOnUse"><stop offset="0" stop-color="#ffa722"/><stop offset="1" stop-color="#ffb422"/></linearGradient><linearGradient id="715xq" x1="543.73" x2="572.3" y1="445.04" y2="445.04" gradientUnits="userSpaceOnUse"><stop offset="0" stop-color="#ffa722"/><stop offset="1" stop-color="#ffb422"/></linearGradient><linearGradient id="715xr" x1="292.52" x2="321.09" y1="430.68" y2="430.68" gradientUnits="userSpaceOnUse"><stop offset="0" stop-color="#ffa722"/><stop offset="1" stop-color="#ffb422"/></linearGradient><linearGradient id="715xs" x1="435.06" x2="463.63" y1="482.36" y2="482.36" gradientUnits="userSpaceOnUse"><stop offset="0" stop-color="#ffa722"/><stop offset="1" stop-color="#ffb422"/></linearGradient><linearGradient id="715xt" x1="395.2" x2="423.77" y1="480.12" y2="480.12" gradientUnits="userSpaceOnUse"><stop offset="0" stop-color="#ffa722"/><stop offset="1" stop-color="#ffb422"/></linearGradient><clipPath id="715xk"><path d="M498.486 355.138c-13.387 6.357-29.168 10.022-45.322 11.218h-.075c-13.237 1.048-26.774.3-39.414-2.019-.075-.075-.15-.075-.224-.075h-.15c-15.257-2.916-29.317-8.152-40.311-15.705 0-40.461 30.664-87.952 68.507-105.827 31.561 21.54 56.989 72.022 56.989 112.408z"/></clipPath></defs><g><g><g/><g><g/><g><g><path fill="url(#715xa)" d="M777.001 333c0 69.404-20.941 133.873-56.914 187.422L442.17 332.327V-4c185.103 1.197 334.831 151.598 334.831 337z"/></g><g><path fill="url(#715xb)" d="M719.862 520.799c-60.504 89.971-163.265 149.204-279.861 149.204-134.546 0-250.618-78.828-304.691-192.806L441.422 332.33z"/></g><g><path fill="url(#715xc)" d="M441.421-4v335.579L135.01 476.52C114.517 432.993 103 384.305 103 333 103 146.85 253.85-4 440-4h1.421z"/></g></g><g><g><path fill="url(#715xd)" d="M441.426 502.997c80.173 0 145.166-37.536 145.166-83.838 0-46.303-64.993-83.839-145.166-83.839S296.26 372.856 296.26 419.159c0 46.302 64.993 83.838 145.166 83.838z"/></g><g><g><path fill="url(#715xe)" d="M566.992 275.415c-6.88-69.479-55.867-150.625-125.346-150.625-69.629 0-118.317 80.024-125.646 150.102-5.983 57.363 24.68 123.103 78.902 147.708 30.963 14.136 65.291 13.163 94.609-.673 53.549-25.278 83.091-90.121 77.481-146.512z"/></g><g><path fill="url(#715xf)" d="M566.992 275.415c-6.88-69.479-55.867-150.625-125.346-150.625-69.629 0-118.317 80.024-125.646 150.102-5.983 57.363 24.68 123.103 78.902 147.708 30.963 14.136 65.291 13.163 94.609-.673 53.549-25.278 83.091-90.121 77.481-146.512z"/></g><g><path fill="url(#715xg)" d="M566.992 275.415c-6.88-69.479-55.867-150.625-125.346-150.625-69.629 0-118.317 80.024-125.646 150.102-5.983 57.363 24.68 123.103 78.902 147.708 30.963 14.136 65.291 13.163 94.609-.673 53.549-25.278 83.091-90.121 77.481-146.512z"/></g></g><g><path fill="#e8cdbe" d="M523.09 345.709c0 14.509-1.496 22.213-1.795 25.054l-79.875-54.147V137.945c.075 0 .075-.075.15-.075 39.787 26.475 63.122 98.348 71.648 133.274 6.282 26.177 9.872 52.353 9.872 74.565z"/></g><g><path fill="#baa498" d="M441.423 137.95v178.671l-95.73 45.023c-.075-.523-2.693-11.891-2.693-26.774 0-16.454 3.814-41.358 11.592-68.283 9.499-32.832 35.45-104.33 86.83-128.637z"/></g><g><path fill="#f2e1d7" d="M521.295 370.767c-.598.225-31.486 16.529-79.8 16.529-59.682 0-95.73-25.653-95.805-25.653l95.73-45.023z"/></g><g><path fill="#fff" d="M520.022 369.799c-52.053 24.53-129.61 20.567-173.062-9.05l94.384-44.499z"/></g><g><path fill="url(#715xh)" d="M441.419 139.52v176.727l-94.459 44.574c-2.393-11.891-3.066-24.157-2.169-36.048 4.637-62.374 40.76-158.927 96.628-185.253z"/></g><g><path fill="url(#715xi)" d="M520.023 369.796l-78.603-53.175V139.52c50.184 33.43 89 163.265 78.603 230.276z"/></g><g><g><g><path fill="url(#715xj)" d="M498.486 355.138c-13.387 6.357-29.168 10.022-45.322 11.218h-.075c-13.237 1.048-26.774.3-39.414-2.019-.075-.075-.15-.075-.224-.075h-.15c-15.257-2.916-29.317-8.152-40.311-15.705 0-40.461 30.664-87.952 68.507-105.827 31.561 21.54 56.989 72.022 56.989 112.408z"/></g><g clip-path="url(#715xk)"><path fill="url(#715xl)" d="M498.486 355.138c-13.387 6.357-29.168 10.022-45.322 11.218h-.075c-13.237 1.048-26.774.3-39.414-2.019-.075-.075-.15-.075-.224-.075h-.15c-15.257-2.916-29.317-8.152-40.311-15.705 0-40.461 30.664-87.952 68.507-105.827 31.561 21.54 56.989 72.022 56.989 112.408z"/></g><g clip-path="url(#715xk)" opacity=".2"><path fill="#fff" d="M426.935 285.81c9.18-12.322 10.552-26.832 3.067-32.408-7.486-5.577-20.996-.11-30.175 12.212-9.18 12.322-10.552 26.831-3.067 32.408 7.486 5.577 20.996.109 30.175-12.213z"/></g></g></g></g><g><g><g><g><path fill="#3286ba" d="M479.485 93.3c7.889 0 14.284-6.396 14.284-14.285 0-7.89-6.395-14.285-14.284-14.285-7.89 0-14.285 6.395-14.285 14.285 0 7.889 6.395 14.284 14.285 14.284z"/></g></g><g><g><path fill="#fff" d="M472.83 71.99h6.806v1.346h-5.31V77.6h4.786v1.346h-4.786v5.011h-1.496z"/></g><g><path fill="#fff" d="M486.97 83.2c-.748.673-1.87 1.047-2.917 1.047-2.542 0-4.113-1.57-4.113-4.038 0-2.244 1.421-4.039 3.964-4.039 2.02 0 3.59 1.421 3.59 3.515 0 .374 0 .673-.075.898h-5.983c.15 1.495 1.196 2.318 2.692 2.318.972 0 1.87-.374 2.393-.823zm-.897-3.74c-.075-1.27-.898-2.093-2.244-2.093-1.42.074-2.318.972-2.468 2.094z"/></g></g></g><g><g><g><path fill="#3286ba" d="M516.435 104.97c7.889 0 14.285-6.396 14.285-14.285 0-7.89-6.396-14.285-14.285-14.285-7.89 0-14.285 6.395-14.285 14.285 0 7.889 6.395 14.284 14.285 14.284z"/></g></g><g><g><path fill="#fff" d="M512.7 95.766h1.496V83.725H512.7zm8.825-12.116h-1.795l-5.31 5.759 5.46 6.282h1.87l-5.61-6.357z"/></g></g></g><g><g><g><path fill="#3286ba" d="M553.385 121.87c7.889 0 14.285-6.396 14.285-14.285 0-7.89-6.396-14.285-14.285-14.285-7.89 0-14.285 6.395-14.285 14.285 0 7.889 6.396 14.285 14.285 14.285z"/></g></g><g><g><path fill="#fff" d="M555.027 111.479c-.823.823-2.319 1.346-3.814 1.346-3.59 0-6.133-2.468-6.133-6.208 0-3.44 2.244-6.207 5.983-6.207 1.57 0 2.767.449 3.665 1.197l-.673 1.121c-.823-.598-1.72-.897-2.992-.897-2.618 0-4.487 1.944-4.487 4.786 0 2.842 1.944 4.787 4.712 4.787 1.121 0 2.243-.374 3.066-1.047z"/></g><g><path fill="#fff" d="M555.998 105.493c.673-.449 1.646-.673 2.543-.673 2.169 0 2.992 1.122 2.992 3.141v4.712h-1.272v-.972c-.448.598-1.196 1.121-2.468 1.121-1.42 0-2.393-.897-2.393-2.393 0-1.57 1.271-2.468 2.917-2.468.598 0 1.42.15 1.944.524 0-1.421-.224-2.468-1.72-2.468-.972 0-1.496.224-2.169.598zm4.263 4.114c-.448-.374-1.047-.524-1.72-.524-.823 0-1.645.374-1.645 1.271 0 .748.523 1.197 1.42 1.197.973 0 1.571-.523 1.945-.972z"/></g></g></g><g><g><g><path fill="#3286ba" d="M586.065 147.22c7.889 0 14.284-6.396 14.284-14.285 0-7.89-6.395-14.285-14.284-14.285-7.89 0-14.285 6.395-14.285 14.285 0 7.889 6.396 14.284 14.285 14.284z"/></g></g><g><g><path fill="#fff" d="M576.645 125.98h1.496l4.487 6.208 4.338-6.208h1.42v12.041h-1.495v-9.723l-4.263 5.984h-.224l-4.338-5.909v9.648h-1.496V125.98z"/></g><g><path fill="#fff" d="M591.668 136.751c-.15-.15-.225-.449-.225-.673 0-.224.075-.449.225-.673-1.122-.449-1.72-1.421-1.72-2.543 0-1.57 1.196-2.842 3.14-2.842.748 0 1.422.224 1.945.598l2.244-.523v1.122l-1.496.374c.224.374.374.822.374 1.346 0 1.57-1.271 2.767-3.141 2.767h-.524c-.075.15-.075.3-.075.449 0 .224.075.374.15.523h.449c2.243 0 3.964.823 3.964 2.468 0 1.646-1.72 2.468-3.964 2.468-2.244 0-3.964-.748-3.964-2.468.15-1.271 1.122-2.094 2.618-2.393zm1.495 3.74c1.571 0 2.618-.45 2.618-1.347s-.972-1.346-2.618-1.346c-1.645 0-2.617.524-2.617 1.346-.075.823.972 1.346 2.617 1.346zm-.074-5.909c1.047 0 1.87-.673 1.87-1.645s-.749-1.72-1.87-1.72c-1.122 0-1.87.748-1.87 1.72s.748 1.645 1.87 1.645z"/></g></g></g><g><g><g><path fill="#3286ba" d="M632.435 220.37c7.889 0 14.285-6.396 14.285-14.285 0-7.89-6.396-14.285-14.285-14.285-7.89 0-14.285 6.396-14.285 14.285s6.396 14.284 14.285 14.284z"/></g></g><g><g><path fill="#fff" d="M633.477 209.969c-.823.822-2.319 1.346-3.814 1.346-3.59 0-6.133-2.468-6.133-6.208 0-3.44 2.244-6.207 5.983-6.207 1.57 0 2.767.449 3.665 1.197l-.673 1.121c-.823-.598-1.72-.897-2.992-.897-2.618 0-4.487 1.945-4.487 4.786 0 2.842 1.944 4.787 4.711 4.787 1.122 0 2.244-.374 3.067-1.047z"/></g><g><path fill="#fff" d="M641.036 211.098h-1.347v-1.122c-.523.673-1.495 1.272-2.767 1.272-1.72 0-2.842-1.047-2.842-3.291v-4.637h1.346v4.263c0 1.496.599 2.318 2.02 2.318.897 0 1.72-.523 2.243-1.121v-5.46h1.347z"/></g></g></g><g><g><g><path fill="#3286ba" d="M645.375 302.04c7.889 0 14.285-6.396 14.285-14.285 0-7.89-6.396-14.285-14.285-14.285-7.89 0-14.285 6.395-14.285 14.285 0 7.889 6.396 14.284 14.285 14.284z"/></g></g><g><g><path fill="#fff" d="M637.89 283.711c0-1.72 1.345-3.141 3.664-3.141 1.42 0 2.617.524 3.29 1.271l-.822 1.122c-.673-.673-1.421-.972-2.468-.972-1.346 0-2.17.673-2.17 1.795 0 2.992 5.91 1.87 5.91 5.983 0 1.945-1.72 3.29-3.89 3.29-1.496 0-3.216-.672-3.814-1.794l.823-.972c.673.897 1.944 1.42 2.991 1.42 1.272 0 2.393-.672 2.393-1.87 0-3.065-5.908-2.093-5.908-6.132z"/></g><g><path fill="#fff" d="M653.07 291.94c-.748.673-1.87 1.047-2.917 1.047-2.542 0-4.113-1.57-4.113-4.038 0-2.244 1.421-4.039 3.964-4.039 2.02 0 3.59 1.421 3.59 3.515 0 .374 0 .673-.075.898h-5.983c.15 1.495 1.196 2.318 2.692 2.318.973 0 1.87-.374 2.394-.823zm-.897-3.664c-.075-1.272-.898-2.095-2.244-2.095-1.42 0-2.318.898-2.468 2.095z"/></g></g></g><g><g><g><path fill="#3286ba" d="M627.945 378.47c7.889 0 14.284-6.396 14.284-14.285 0-7.89-6.395-14.285-14.284-14.285-7.89 0-14.285 6.395-14.285 14.285 0 7.889 6.396 14.284 14.285 14.284z"/></g></g><g><g><path fill="#fff" d="M625.18 357.23h6.806v1.346h-5.31v4.263h4.786v1.346h-4.786v5.011h-1.496z"/></g></g></g><g><g><g><path fill="#3286ba" d="M605.955 414.52c7.889 0 14.284-6.396 14.284-14.285 0-7.89-6.395-14.285-14.284-14.285-7.89 0-14.285 6.395-14.285 14.285 0 7.889 6.395 14.284 14.285 14.284z"/></g></g><g><g><path fill="#fff" d="M597.434 393.21h9.05v.972l-7.405 9.648h7.554v1.346h-9.573v-.972l7.33-9.648h-7.03v-1.346z"/></g><g><path fill="#fff" d="M607.45 397.545h1.346v.972c.524-.598 1.496-1.047 2.543-1.047 2.02 0 3.216.972 3.216 3.44v4.488h-1.346v-4.189c0-1.645-.748-2.393-2.17-2.393-.897 0-1.72.449-2.168.973v5.609h-1.346v-7.853z"/></g></g></g><g><g><g><path fill="#3286ba" d="M642.605 259.26c7.889 0 14.284-6.396 14.284-14.285 0-7.89-6.395-14.285-14.284-14.285-7.89 0-14.285 6.395-14.285 14.285 0 7.889 6.395 14.284 14.285 14.284z"/></g></g><g><g><path fill="#fff" d="M643.205 250.061l-7.479-9.423v9.423h-1.346V238.02h1.197l7.478 9.498v-9.498h1.347v12.041z"/></g><g><path fill="#fff" d="M646.338 242.803c.673-.449 1.646-.673 2.543-.673 2.17 0 2.992 1.122 2.992 3.141v4.712H650.6v-.972c-.448.598-1.196 1.121-2.468 1.121-1.42 0-2.393-.897-2.393-2.393 0-1.57 1.271-2.468 2.917-2.468.598 0 1.42.15 1.944.524 0-1.421-.224-2.468-1.72-2.468-.972 0-1.496.224-2.169.598zm4.263 4.114c-.448-.374-1.047-.524-1.72-.524-.823 0-1.645.374-1.645 1.271 0 .748.523 1.197 1.42 1.197.973.075 1.571-.449 1.945-.972z"/></g></g></g><g><g><g><path fill="#3286ba" d="M642.235 341.3c7.889 0 14.284-6.396 14.284-14.285 0-7.89-6.395-14.285-14.284-14.285-7.89 0-14.285 6.395-14.285 14.285 0 7.889 6.395 14.285 14.285 14.285z"/></g></g><g><g><path fill="#fff" d="M639.01 319.99h3.141c3.44 0 4.487 1.87 4.487 3.74 0 1.944-1.42 3.814-4.337 3.814-.45 0-1.197 0-1.795-.075v4.637h-1.496zm1.421 6.058c.598.075 1.122.075 1.72.075 1.795 0 2.842-.898 2.842-2.394 0-1.42-.823-2.318-2.767-2.318-.449-.075-1.197-.075-1.795 0z"/></g></g></g><g><g><g><path fill="#3286ba" d="M610.295 179.98c7.889 0 14.284-6.396 14.284-14.285 0-7.89-6.395-14.285-14.284-14.285-7.89 0-14.285 6.395-14.285 14.285 0 7.889 6.395 14.285 14.285 14.285z"/></g></g><g><g><path fill="#fff" d="M600.345 158.74h1.496l4.487 6.207 4.338-6.207h1.42v12.041h-1.495v-9.723l-4.263 5.984h-.224l-4.338-5.909v9.648h-1.496V158.74z"/></g><g><path fill="#fff" d="M614.03 163.005h1.346v.972c.524-.598 1.496-1.047 2.543-1.047 2.02 0 3.216.972 3.216 3.44v4.488h-1.346v-4.338c0-1.645-.748-2.393-2.17-2.393-.897 0-1.72.448-2.168.972v5.61h-1.346v-7.704z"/></g></g></g></g><g><g><g><g><path fill="#6a6e65" d="M418.165 90.61c7.889 0 14.284-6.396 14.284-14.285 0-7.89-6.395-14.285-14.284-14.285-7.89 0-14.285 6.395-14.285 14.285 0 7.889 6.395 14.284 14.285 14.284z"/></g></g><g><g><path fill="#fff" d="M410.76 69.365c.673 0 2.169-.075 3.29-.075 2.843 0 3.89 1.271 3.89 2.992 0 1.495-.898 2.393-2.094 2.767 1.495.224 2.468 1.196 2.468 2.842 0 2.468-1.87 3.515-4.338 3.515-1.047 0-2.543 0-3.216-.075zm1.496 5.235h1.944c1.272 0 2.319-.673 2.319-2.02 0-1.27-.823-1.944-2.468-1.944-.599 0-1.346.075-1.795.075zm0 5.385c.374 0 1.196.075 1.87.075 1.794 0 2.842-.748 2.842-2.17 0-1.27-.973-1.944-2.768-1.944h-1.944z"/></g><g><path fill="#fff" d="M426.39 80.51c-.748.673-1.87 1.047-2.917 1.047-2.542 0-4.113-1.57-4.113-4.038 0-2.244 1.421-4.039 3.964-4.039 2.02 0 3.59 1.421 3.59 3.515 0 .374 0 .673-.075.898h-5.983c.15 1.495 1.196 2.318 2.692 2.318.972 0 1.87-.374 2.393-.823zm-.897-3.664c-.075-1.272-.898-2.095-2.244-2.095-1.42 0-2.318.898-2.468 2.095z"/></g></g></g><g><g><g><path fill="#6a6e65" d="M388.395 94.8c7.889 0 14.285-6.396 14.285-14.285 0-7.89-6.396-14.285-14.285-14.285-7.89 0-14.285 6.395-14.285 14.285 0 7.889 6.396 14.284 14.285 14.284z"/></g></g><g><g><path fill="#fff" d="M387.87 73.48h1.272l5.16 12.116h-1.57l-1.57-3.665h-5.46l-1.496 3.665h-1.496zm-1.57 7.03h4.338l-2.17-5.16z"/></g></g></g><g><g><g><path fill="#6a6e65" d="M280.105 165.85c7.889 0 14.284-6.396 14.284-14.285 0-7.89-6.395-14.285-14.284-14.285-7.89 0-14.285 6.395-14.285 14.285 0 7.889 6.395 14.284 14.285 14.284z"/></g></g><g><g><path fill="#fff" d="M285.257 156.199c-.823.822-2.319 1.346-3.814 1.346-3.59 0-6.133-2.468-6.133-6.207 0-3.44 2.244-6.208 5.983-6.208 1.57 0 2.767.449 3.665 1.197l-.673 1.121c-.823-.598-1.72-.897-2.992-.897-2.617 0-4.487 1.945-4.487 4.787 0 2.841 1.944 4.786 4.711 4.786 1.122 0 2.244-.374 3.067-1.047z"/></g></g></g><g><g><g><path fill="#6a6e65" d="M262.455 194.49c7.889 0 14.285-6.396 14.285-14.285 0-7.89-6.396-14.285-14.285-14.285-7.89 0-14.285 6.395-14.285 14.285 0 7.889 6.395 14.284 14.285 14.284z"/></g></g><g><g><path fill="#fff" d="M258.19 173.925c.822 0 2.093-.075 3.066-.075 4.786 0 6.73 2.767 6.73 5.908 0 3.44-2.318 6.208-6.88 6.208h-3.216v-12.041zm1.196 10.695h1.72c3.44 0 5.31-2.02 5.31-4.862 0-2.617-1.72-4.562-5.235-4.562-.673.075-1.197.075-1.795.15z"/></g></g></g><g><g><g><path fill="#6a6e65" d="M249.735 224.18c7.889 0 14.284-6.396 14.284-14.285 0-7.89-6.395-14.285-14.284-14.285-7.89 0-14.285 6.396-14.285 14.285s6.395 14.284 14.285 14.284z"/></g></g><g><g><path fill="#fff" d="M246.67 203.69h6.806v1.346h-5.31v3.89h4.786v1.345h-4.786v4.04h5.534v1.345h-6.955V203.69z"/></g></g></g><g><g><g><path fill="#6a6e65" d="M240.465 253.87c7.889 0 14.284-6.396 14.284-14.285 0-7.89-6.395-14.285-14.284-14.285-7.89 0-14.285 6.396-14.285 14.285s6.395 14.284 14.285 14.284z"/></g></g><g><g><path fill="#fff" d="M236.72 245.351h1.496V233.31h-1.496zm8.825-12.041h-1.795l-5.31 5.759 5.46 6.282h1.87l-5.61-6.357z"/></g></g></g><g><g><g><path fill="#6a6e65" d="M238.145 284.99c7.889 0 14.284-6.396 14.284-14.285 0-7.89-6.395-14.285-14.284-14.285-7.89 0-14.285 6.395-14.285 14.285 0 7.889 6.395 14.285 14.285 14.285z"/></g></g><g><g><path fill="#fff" d="M240.465 276.461l-7.479-9.423v9.423h-1.346V264.42h1.197l7.479 9.498v-9.498h1.346v12.041z"/></g><g><path fill="#fff" d="M243.6 265.843c0 .598.449.897.897.897.374 0 .823-.299.823-.897 0-.524-.374-.823-.823-.823-.523 0-.897.3-.897.823zm.15 10.62h1.346v-7.704h-1.346z"/></g></g></g><g><g><g><path fill="#6a6e65" d="M238.515 315.13c7.889 0 14.285-6.396 14.285-14.285 0-7.89-6.396-14.285-14.285-14.285-7.89 0-14.285 6.395-14.285 14.285 0 7.889 6.395 14.284 14.285 14.284z"/></g></g><g><g><path fill="#fff" d="M233.13 294.56h3.216c3.29 0 4.263 1.645 4.263 3.59 0 1.87-1.272 3.066-2.618 3.44l4.039 5.086h-1.795l-3.665-4.787h-1.944v4.787h-1.496zm1.421 5.908h1.795c1.42 0 2.767-.822 2.767-2.318 0-1.272-.673-2.244-2.842-2.244-.374 0-1.122 0-1.72.075z"/></g><g><path fill="#fff" d="M242.71 295.983c0 .598.449.897.897.897.374 0 .823-.299.823-.897 0-.524-.374-.823-.823-.823-.448 0-.897.3-.897.823zm.15 10.62h1.346v-7.704h-1.346z"/></g></g></g><g><g><g><path fill="#6a6e65" d="M242.855 345.12c7.889 0 14.285-6.396 14.285-14.285 0-7.89-6.396-14.285-14.285-14.285-7.89 0-14.285 6.396-14.285 14.285s6.396 14.285 14.285 14.285z"/></g></g><g><g><path fill="#fff" d="M233.66 324.62h9.872v1.346h-4.188v10.695h-1.496v-10.695h-4.188z"/></g><g><path fill="#fff" d="M244.13 324.62h1.346v5.16a3.75 3.75 0 0 1 2.543-1.047c2.02 0 3.216 1.047 3.216 3.44v4.413h-1.346v-4.263c0-1.57-.748-2.318-2.17-2.318-.822 0-1.72.449-2.168.972v5.61h-1.346V324.62z"/></g></g></g><g><g><g><path fill="#6a6e65" d="M253.925 375.11c7.889 0 14.284-6.396 14.284-14.285 0-7.89-6.395-14.285-14.284-14.285-7.89 0-14.285 6.395-14.285 14.285 0 7.889 6.396 14.285 14.285 14.285z"/></g></g><g><g><path fill="#fff" d="M246.89 354.54h6.806v1.346h-5.31v4.263h4.786v1.346h-4.786v5.011h-1.496z"/></g><g><path fill="#fff" d="M258.033 358.65c2.468 0 4.114 1.72 4.114 4.039 0 2.318-1.646 4.038-4.114 4.038s-4.113-1.72-4.113-4.038c0-2.319 1.645-4.039 4.113-4.039zm0 6.806c1.571 0 2.693-1.122 2.693-2.767 0-1.646-1.122-2.768-2.693-2.768-1.495 0-2.692 1.122-2.692 2.768.075 1.645 1.197 2.767 2.692 2.767z"/></g></g></g><g><g><g><path fill="#6a6e65" d="M269.185 404.57c7.889 0 14.285-6.396 14.285-14.285 0-7.89-6.396-14.285-14.285-14.285-7.89 0-14.285 6.396-14.285 14.285 0 7.89 6.395 14.285 14.285 14.285z"/></g></g><g><g><path fill="#fff" d="M270.227 394.929c-.823.823-2.318 1.346-3.814 1.346-3.59 0-6.133-2.468-6.133-6.207 0-3.44 2.244-6.208 5.983-6.208 1.57 0 2.767.449 3.665 1.197l-.673 1.121c-.823-.598-1.72-.897-2.992-.897-2.617 0-4.487 1.945-4.487 4.787 0 2.842 1.944 4.786 4.712 4.786 1.121 0 2.243-.374 3.066-1.047z"/></g><g><path fill="#fff" d="M270.98 384.08h1.346v5.16a3.75 3.75 0 0 1 2.543-1.047c2.02 0 3.216 1.047 3.216 3.44v4.413h-1.346v-4.263c0-1.57-.748-2.318-2.17-2.318-.822 0-1.72.449-2.168.972v5.61h-1.346V384.08z"/></g></g></g><g><g><g><path fill="#6a6e65" d="M358.925 105.64c7.889 0 14.284-6.396 14.284-14.285 0-7.89-6.395-14.285-14.284-14.285-7.89 0-14.285 6.395-14.285 14.285 0 7.889 6.396 14.284 14.285 14.284z"/></g></g><g><g><path fill="#fff" d="M352.2 84.405c.673 0 2.169-.075 3.29-.075 2.843 0 3.89 1.271 3.89 2.992 0 1.495-.898 2.393-2.094 2.767 1.495.224 2.468 1.196 2.468 2.842 0 2.468-1.87 3.515-4.338 3.515-1.047 0-2.543 0-3.216-.075zm1.496 5.235h1.944c1.272 0 2.319-.673 2.319-2.02 0-1.27-.823-1.944-2.468-1.944-.673.075-1.421.075-1.795.075zm0 5.46c.374 0 1.196.074 1.87.074 1.794 0 2.841-.748 2.841-2.168 0-1.272-.972-1.945-2.767-1.945h-1.944z"/></g><g><path fill="#fff" d="M362.066 92.03h4.188v1.496h-2.916l-.225 1.795c.15 0 .3-.075.524-.075 1.57 0 2.767 1.047 2.767 2.842 0 1.944-1.346 2.991-3.066 2.991-.973 0-2.094-.448-2.618-1.27l.823-1.123c.374.524 1.122.898 1.795.898.822 0 1.495-.599 1.495-1.496 0-.898-.673-1.57-1.87-1.57-.598 0-1.196.149-1.495.224z"/></g></g></g><g><g><g><path fill="#6a6e65" d="M330.505 121.5c7.889 0 14.284-6.396 14.284-14.285 0-7.89-6.395-14.285-14.284-14.285-7.89 0-14.285 6.395-14.285 14.285 0 7.889 6.395 14.284 14.285 14.284z"/></g></g><g><g><path fill="#fff" d="M323.85 100.255c.673 0 2.169-.075 3.29-.075 2.843 0 3.89 1.271 3.89 2.992 0 1.495-.898 2.393-2.094 2.767 1.495.224 2.468 1.196 2.468 2.842 0 2.468-1.87 3.515-4.338 3.515-1.047 0-2.543 0-3.216-.075zm1.421 5.235h1.945c1.271 0 2.318-.673 2.318-2.02 0-1.27-.823-1.944-2.468-1.944-.598.075-1.346.075-1.795.075zm0 5.46c.374 0 1.197.074 1.87.074 1.795 0 2.842-.748 2.842-2.168 0-1.272-.973-1.945-2.767-1.945h-1.945z"/></g><g><path fill="#fff" d="M337.388 108.852c-1.421.449-2.767 1.57-3.216 3.29.374-.523.972-.822 1.795-.822 1.346 0 2.468 1.122 2.468 2.692 0 1.87-1.421 2.917-2.842 2.917-2.02 0-3.141-1.496-3.141-3.29-.075-3.291 2.393-5.385 4.337-5.909zm-1.795 6.581c.822 0 1.346-.673 1.346-1.346 0-.823-.524-1.496-1.421-1.496-.823 0-1.271.524-1.496.973-.075 1.121.524 1.87 1.57 1.87z"/></g></g></g><g><g><g><path fill="#6a6e65" d="M302.615 140.57c7.889 0 14.284-6.396 14.284-14.285 0-7.89-6.395-14.285-14.284-14.285-7.89 0-14.285 6.395-14.285 14.285 0 7.889 6.395 14.285 14.285 14.285z"/></g></g><g><g><path fill="#fff" d="M294.31 119.325c.673 0 2.169-.075 3.29-.075 2.843 0 3.89 1.271 3.89 2.992 0 1.495-.898 2.393-2.094 2.767 1.495.224 2.468 1.196 2.468 2.842 0 2.468-1.87 3.515-4.338 3.515-1.047 0-2.543 0-3.216-.075zm1.421 5.235h1.945c1.27 0 2.318-.673 2.318-2.02 0-1.27-.823-1.944-2.468-1.944-.598 0-1.346.075-1.795.075zm0 5.385c.374 0 1.197.075 1.87.075 1.795 0 2.842-.748 2.842-2.17 0-1.27-.973-1.944-2.767-1.944h-1.945z"/></g><g><path fill="#fff" d="M304.558 126.88h1.048v8.975h-1.496v-6.806l-1.122.823-.748-1.197z"/></g><g><path fill="#fff" d="M306.58 134.658c1.421-1.42 3.665-3.515 3.665-5.235 0-.748-.374-1.122-1.122-1.122-.598 0-1.122.449-1.272 1.197l-1.196-.524c.224-1.271 1.271-2.094 2.692-2.094 1.72 0 2.543 1.122 2.543 2.318 0 2.469-2.692 4.712-3.365 5.31h3.664v1.347h-5.609z"/></g></g></g></g><g><g><g><g><path fill="url(#715xm)" d="M372.915 485.5c7.889 0 14.284-6.396 14.284-14.285 0-7.89-6.395-14.285-14.284-14.285-7.89 0-14.285 6.396-14.285 14.285s6.396 14.285 14.285 14.285z"/></g></g><g><g><path fill="#fff" d="M367.45 464.93h3.141c3.44 0 4.487 1.87 4.487 3.74 0 1.944-1.42 3.814-4.337 3.814-.449 0-1.197 0-1.795-.075v4.637h-1.496zm1.421 6.058c.598.075 1.122.075 1.72.075 1.795 0 2.842-.898 2.842-2.394 0-1.42-.823-2.318-2.767-2.318-.449-.075-1.197-.075-1.795 0z"/></g><g><path fill="#fff" d="M376.06 467.996c0-2.169.972-3.216 2.692-3.216.898 0 1.646.3 2.094.673l-.448 1.047c-.3-.299-.748-.449-1.346-.449-.973 0-1.571.674-1.571 2.095v1.121h2.543v1.272h-2.543v6.432h-1.346v-8.975z"/></g></g></g><g><g><g><path fill="url(#715xn)" d="M338.585 467.99c7.889 0 14.285-6.396 14.285-14.285 0-7.89-6.396-14.285-14.285-14.285-7.89 0-14.285 6.395-14.285 14.285 0 7.889 6.395 14.285 14.285 14.285z"/></g></g><g><g><path fill="#fff" d="M330.585 447.5h1.496l4.487 6.208 4.338-6.208h1.42v12.041h-1.495v-9.723l-4.263 5.984h-.224l-4.338-5.909v9.648h-1.496V447.5z"/></g><g><path fill="#fff" d="M344.34 450.566c0-2.169.972-3.216 2.692-3.216.898 0 1.646.3 2.094.673l-.448 1.047c-.3-.299-.748-.449-1.346-.449-.973 0-1.571.674-1.571 2.095v1.121h2.543v1.272h-2.543v6.432h-1.346v-8.975z"/></g></g></g><g><g><g><path fill="url(#715xo)" d="M487.495 492.9c7.889 0 14.285-6.396 14.285-14.285 0-7.89-6.396-14.285-14.285-14.285-7.89 0-14.285 6.395-14.285 14.285 0 7.889 6.395 14.284 14.285 14.284z"/></g></g><g><g><path fill="#fff" d="M484.2 472.33h3.141c3.44 0 4.488 1.87 4.488 3.74 0 1.944-1.422 3.814-4.338 3.814-.449 0-1.197 0-1.795-.075v4.637H484.2zm1.496 6.058c.598.075 1.122.075 1.72.075 1.795 0 2.842-.898 2.842-2.394 0-1.42-.823-2.318-2.767-2.318-.449-.075-1.272 0-1.795 0z"/></g></g></g><g><g><g><path fill="url(#715xp)" d="M523.835 478.54c7.889 0 14.284-6.396 14.284-14.285 0-7.89-6.395-14.285-14.284-14.285-7.89 0-14.285 6.395-14.285 14.285 0 7.889 6.396 14.284 14.285 14.284z"/></g></g><g><g><path fill="#fff" d="M524.807 468.889c-.823.822-2.319 1.346-3.814 1.346-3.59 0-6.133-2.468-6.133-6.208 0-3.44 2.244-6.207 5.983-6.207 1.57 0 2.767.449 3.665 1.197l-.673 1.121c-.823-.598-1.72-.897-2.992-.897-2.617 0-4.487 1.944-4.487 4.786 0 2.842 1.944 4.787 4.711 4.787 1.122 0 2.244-.374 3.067-1.047z"/></g><g><path fill="#fff" d="M525.56 458.05h1.346v5.16a3.75 3.75 0 0 1 2.543-1.047c2.02 0 3.216 1.047 3.216 3.44v4.413h-1.346v-4.263c0-1.57-.748-2.318-2.17-2.318-.822 0-1.72.449-2.168.972v5.61h-1.421z"/></g></g></g><g><g><g><path fill="url(#715xq)" d="M558.015 459.32c7.889 0 14.285-6.396 14.285-14.285 0-7.89-6.396-14.285-14.285-14.285-7.89 0-14.285 6.396-14.285 14.285s6.396 14.284 14.285 14.284z"/></g></g><g><g><path fill="#fff" d="M557.647 449.669c-.823.822-2.319 1.346-3.814 1.346-3.59 0-6.133-2.468-6.133-6.208 0-3.44 2.244-6.207 5.983-6.207 1.57 0 2.767.449 3.665 1.197l-.673 1.121c-.823-.598-1.72-.897-2.992-.897-2.618 0-4.487 1.945-4.487 4.786 0 2.842 1.944 4.787 4.712 4.787 1.121 0 2.243-.374 3.066-1.047z"/></g><g><path fill="#fff" d="M558.618 443.613c.673-.449 1.646-.673 2.543-.673 2.169 0 2.992 1.122 2.992 3.141v4.712h-1.272v-.972c-.448.598-1.196 1.122-2.468 1.122-1.42 0-2.393-.898-2.393-2.394 0-1.57 1.271-2.468 2.917-2.468.598 0 1.42.15 1.944.524 0-1.421-.224-2.468-1.72-2.468-.972 0-1.496.224-2.169.598zm4.263 4.114c-.448-.374-1.047-.524-1.72-.524-.823 0-1.645.374-1.645 1.271 0 .748.523 1.197 1.42 1.197.973 0 1.571-.523 1.945-.972z"/></g><g><path fill="#fff" d="M565.57 438.75h1.346v9.349c0 1.047.225 1.495.898 1.495.374 0 .748-.15.972-.373l.3 1.047c-.45.299-1.048.598-1.796.598-1.196 0-1.72-.673-1.72-2.17z"/></g></g></g><g><g><g><path fill="url(#715xr)" d="M306.805 444.96c7.889 0 14.285-6.396 14.285-14.285 0-7.89-6.396-14.285-14.285-14.285-7.89 0-14.285 6.396-14.285 14.285s6.396 14.284 14.285 14.284z"/></g></g><g><g><path fill="#fff" d="M300.97 428.211c0-1.72 1.345-3.141 3.664-3.141 1.42 0 2.617.524 3.29 1.271l-.822 1.122c-.673-.673-1.421-.972-2.468-.972-1.346 0-2.169.673-2.169 1.795 0 2.991 5.908 1.87 5.908 5.983 0 1.944-1.72 3.29-3.889 3.29-1.496 0-3.216-.672-3.814-1.794l.823-.972c.673.897 1.944 1.42 2.991 1.42 1.272 0 2.319-.673 2.319-1.87.075-3.066-5.834-2.168-5.834-6.132z"/></g><g><path fill="#fff" d="M309.64 428.286c0-2.169.972-3.216 2.692-3.216.898 0 1.646.3 2.095.673l-.45 1.047c-.298-.299-.747-.449-1.345-.449-.973 0-1.571.674-1.571 2.095v1.121h2.543v1.272h-2.543v6.432h-1.346v-8.975z"/></g></g></g><g><g><g><path fill="url(#715xs)" d="M449.345 496.64c7.889 0 14.284-6.396 14.284-14.285 0-7.89-6.395-14.285-14.284-14.285-7.89 0-14.285 6.395-14.285 14.285 0 7.889 6.396 14.284 14.285 14.284z"/></g></g><g><g><path fill="#fff" d="M446.133 475.17c3.515 0 6.132 2.543 6.132 6.208 0 3.59-2.617 6.207-6.132 6.207-3.515 0-6.133-2.543-6.133-6.207 0-3.516 2.543-6.208 6.133-6.208zm0 10.994c2.767 0 4.562-2.094 4.562-4.786 0-2.768-2.02-4.787-4.562-4.787-2.618 0-4.562 2.02-4.562 4.787s2.019 4.786 4.562 4.786z"/></g><g><path fill="#fff" d="M457.876 484.002c-1.42.449-2.767 1.57-3.216 3.29.374-.523.972-.822 1.795-.822 1.346 0 2.468 1.122 2.468 2.692 0 1.87-1.42 2.917-2.842 2.917-2.02 0-3.141-1.496-3.141-3.29 0-3.291 2.393-5.46 4.338-5.909zm-1.72 6.581c.823 0 1.346-.673 1.346-1.346 0-.823-.523-1.496-1.42-1.496-.824 0-1.272.524-1.497.973-.074 1.047.45 1.87 1.57 1.87z"/></g></g></g><g><g><g><path fill="url(#715xt)" d="M409.485 494.4c7.889 0 14.284-6.396 14.284-14.285 0-7.89-6.395-14.285-14.284-14.285-7.89 0-14.285 6.395-14.285 14.285 0 7.889 6.395 14.284 14.285 14.284z"/></g></g><g><g><path fill="#fff" d="M406.493 472.93c3.515 0 6.132 2.543 6.132 6.207 0 3.59-2.617 6.208-6.132 6.208-3.515 0-6.133-2.543-6.133-6.208 0-3.515 2.543-6.207 6.133-6.207zm0 10.994c2.767 0 4.562-2.094 4.562-4.787 0-2.767-2.02-4.786-4.562-4.786-2.618 0-4.562 2.02-4.562 4.786 0 2.693 1.944 4.787 4.562 4.787z"/></g><g><path fill="#fff" d="M413 488.258l.823-1.047c.448.674 1.122 1.122 1.87 1.122.972 0 1.42-.523 1.42-1.196 0-.823-.598-1.272-1.645-1.272h-.598v-1.496h.598c.748 0 1.346-.448 1.346-1.196 0-.598-.374-1.047-1.122-1.047-.747 0-1.196.299-1.645.972l-.823-1.047c.45-.897 1.421-1.421 2.618-1.421 1.496 0 2.543.897 2.543 2.244 0 .972-.449 1.72-1.346 2.094v.075c1.121.224 1.72 1.047 1.72 2.094 0 1.645-1.272 2.617-2.917 2.617-1.421 0-2.393-.598-2.842-1.496z"/></g></g></g></g></g><g><g/><g><g><text dominant-baseline="text-before-edge" style="font-kerning:normal" fill="#333e2c" font-family="'Museo Cyrillic','MuseoCyrillic-700'" font-size="20" transform="translate(0 89)"><tspan style="font-kerning:normal">Витамины</tspan></text></g></g><g><g/><g><g><text dominant-baseline="text-before-edge" style="font-kerning:normal" fill="#5b6356" font-family="'Circe','Circe-Regular'" font-size="12" transform="translate(0 123)"><tspan style="font-kerning:normal">Бетаин Витамин А Витамин В5 Витамин B6 Витамин B12 Витамин C Витамин D Витамин E Витамин K Ниацин Рибофлавин Тиамин Фолат Холин</tspan></text></g></g><g><g><text dominant-baseline="text-before-edge" style="font-kerning:normal" fill="#5b6356" font-family="'Circe','Circe-Regular'" font-size="12" transform="translate(119 123)"><tspan style="font-kerning:normal">0.3 мг 243.4 МЕ 0.72 мг 0.06 мг 0.64 мкг 0.0 мг 17.5 МЕ 0.5 мг 0.15 мкг 0.04 мг 0.25 мг 0.04 мг 23.5 мкг 125.5 мг</tspan></text></g></g></g></g><g><g/><g><g><text dominant-baseline="text-before-edge" style="font-kerning:normal" fill="#333e2c" font-family="'Museo Cyrillic','MuseoCyrillic-700'" font-size="20" transform="translate(0 456)"><tspan style="font-kerning:normal">Жиры и жирные кислоты</tspan></text></g></g><g><g><text dominant-baseline="text-before-edge" style="font-kerning:normal" fill="#5b6356" font-family="'Circe','Circe-Regular'" font-size="12" transform="translate(0 490)"><tspan style="font-kerning:normal">Насыщенные жиры Мононенасыщенные жиры Полиненасыщенные жиры Омега-3 кислоты Омега-6 кислоты</tspan></text></g></g><g><g><text dominant-baseline="text-before-edge" style="font-kerning:normal" fill="#5b6356" font-family="'Circe','Circe-Regular'" font-size="12" transform="translate(235 490)"><tspan style="font-kerning:normal">1.5 г 1.9 г 0.7 г 37.0 мг 573.8 мг</tspan></text></g></g></g><g><g/><g><g><text dominant-baseline="text-before-edge" style="font-kerning:normal" fill="#333e2c" font-family="'Museo Cyrillic','MuseoCyrillic-700'" font-size="20" transform="translate(704 89)"><tspan style="font-kerning:normal">Минералы</tspan></text></g></g><g><g/><g><g><text dominant-baseline="text-before-edge" style="font-kerning:normal" fill="#5b6356" font-family="'Circe','Circe-Regular'" font-size="12" transform="translate(704 123)"><tspan style="font-kerning:normal">Железо Калий Кальций Магний Марганец Медь Натрий Селен Фосфор Фтор Цинк</tspan></text></g></g><g><g><text dominant-baseline="text-before-edge" style="font-kerning:normal" fill="#5b6356" font-family="'Circe','Circe-Regular'" font-size="12" transform="translate(823 123)"><tspan style="font-kerning:normal">0.9 мг 67.1 мг 26.5 мг 6.0 мг 0.02 мг 0.04 мг 70.0 мг 15.8 мкг 95.5 мг 0.5 мкг 0.5 мг</tspan></text></g></g></g></g><g><g/><g><g><text dominant-baseline="text-before-edge" style="font-kerning:normal" fill="#333e2c" font-family="'Museo Cyrillic','MuseoCyrillic-700'" font-size="20" transform="translate(671 456)"><tspan style="font-kerning:normal">Белки</tspan></text></g></g><g><g><text dominant-baseline="text-before-edge" style="font-kerning:normal" fill="#333e2c" font-family="'Museo Cyrillic','MuseoCyrillic-700'" font-size="20" transform="translate(613 500)"><tspan style="font-kerning:normal">Холестерин</tspan></text></g></g><g><g><text dominant-baseline="text-before-edge" style="font-kerning:normal" fill="#333e2c" font-family="'Museo Cyrillic','MuseoCyrillic-700'" font-size="20" transform="translate(588 544)"><tspan style="font-kerning:normal">Калорийность</tspan></text></g></g><g><g><text dominant-baseline="text-before-edge" style="line-height:22.399999618530273px;font-kerning:normal" fill="#5b6356" font-family="'Circe','Circe-Regular'" font-size="16" transform="translate(823 457)"><tspan style="line-height:22.399999618530273px;font-kerning:normal">6.3 г</tspan></text></g></g><g><g><text dominant-baseline="text-before-edge" style="line-height:22.399999618530273px;font-kerning:normal" fill="#5b6356" font-family="'Circe','Circe-Regular'" font-size="16" transform="translate(823 501)"><tspan style="line-height:22.399999618530273px;font-kerning:normal">212.0 мг</tspan></text></g></g><g><g><text dominant-baseline="text-before-edge" style="line-height:22.399999618530273px;font-kerning:normal" fill="#5b6356" font-family="'Circe','Circe-Regular'" font-size="16" transform="translate(823 545)"><tspan style="line-height:22.399999618530273px;font-kerning:normal">71.4 ккал</tspan></text></g></g><g/><g/><g/></g></g></g></svg>