<svg width="196" height="38" viewBox="0 0 196 38" fill="none" xmlns="http://www.w3.org/2000/svg">
<g clip-path="url(#clip0)">
<path d="M104.349 31.2763V6.72412H119.529V12.4267H110.679V31.2763H104.349Z" fill="#E30613"/>
<path d="M138.627 31.2763V21.6605H129.224V31.2763H122.894V6.72412H129.224V15.8868H138.627V6.72412H144.957V31.2763H138.627Z" fill="#E30613"/>
<path d="M181.69 31.2763V12.4267H174.297V6.72412H195.453V12.4267H188.023V31.2763H181.69Z" fill="#E30613"/>
<path d="M164.983 31.2731V17.2838L154.907 31.2731H149.614V6.72754H155.944V20.5713L165.851 6.72754H171.316V31.2731H164.983Z" fill="#E30613"/>
<path d="M67.974 31.2763V16.6851L61.6541 24.3934L55.3344 16.6851V31.2763H49.0047V6.72412H55.2516L61.6541 15.1664L68.0568 6.72412H74.3036V31.2763H67.974Z" fill="#E30613"/>
<path d="M86.3203 22.6411H92.2029L89.2616 14.9429L86.3203 22.6411ZM95.502 31.2728L94.1771 27.8328H84.3364L83.0114 31.2728H76.6487L86.3834 6.72388H92.2362L101.974 31.2728H95.502Z" fill="#E30613"/>
<path d="M-0.00915527 11.7129C-0.00302652 8.74773 1.15344 5.90582 3.20702 3.80942C5.26061 1.71301 8.04399 0.53295 10.9478 0.527588H36.2435V6.21326H10.9544C9.52757 6.21948 8.16089 6.8008 7.15166 7.83075C6.14245 8.86068 5.57233 10.2559 5.56536 11.7129L5.53223 21.2578C5.41678 22.4807 4.90795 23.6301 4.08519 24.5267C3.26245 25.4231 2.17213 26.016 0.984519 26.213L-0.00915527 26.3685V11.7129Z" fill="#E30613"/>
<path d="M-0.00558472 37.4726V31.7867H25.29C26.7172 31.7797 28.0839 31.1976 29.093 30.1672C30.102 29.1366 30.6721 27.7411 30.6791 26.2839V17.226C30.6861 15.9118 31.1503 14.643 31.9888 13.6461C32.8274 12.6492 33.9856 11.9892 35.2566 11.7838L36.2503 11.6316V26.2839C36.2441 29.2494 35.0878 32.0916 33.0342 34.1886C30.9808 36.2855 28.1974 37.4662 25.2933 37.4726H-0.00558472Z" fill="#E30613"/>
<path d="M21.4237 26.3888V19.039L18.1246 23.0606L14.829 19.039V26.3888H10.4601V11.926H14.5971L18.1246 16.5767L21.6522 11.926H25.7892V26.3888H21.4237Z" fill="#E30613"/>
</g>
<defs>
<clipPath id="clip0">
<rect y="0.527588" width="195.453" height="36.9451" fill="white"/>
</clipPath>
</defs>
</svg>
