<svg width="281" height="56" viewBox="0 0 281 56" fill="none" xmlns="http://www.w3.org/2000/svg">
<g opacity="0.3">
<g opacity="0.3">
<path opacity="0.3" d="M257.66 36.637C257.222 36.637 256.921 36.8268 256.675 37.0437L255.964 37.7488C255.909 37.803 255.854 37.8572 255.854 37.9386C255.854 38.02 255.909 38.0742 255.964 38.1284L256.675 38.8335C256.921 39.0775 257.222 39.2402 257.66 39.2402C258.398 39.2402 258.946 38.6708 258.946 37.9386C258.946 37.2064 258.398 36.637 257.66 36.637ZM257.66 37.1793C258.07 37.1793 258.398 37.5047 258.398 37.9386C258.398 38.3725 258.07 38.6979 257.66 38.6979C257.414 38.6979 257.25 38.6165 257.058 38.4267L256.538 37.9115L257.058 37.3963C257.25 37.2335 257.414 37.1793 257.66 37.1793Z" fill="#94BB1E"/>
<path opacity="0.3" d="M253.338 36.637C252.627 36.637 252.052 37.2064 252.052 37.9386C252.052 38.6708 252.599 39.2402 253.338 39.2402C253.775 39.2402 254.076 39.0504 254.323 38.8335L255.034 38.1284C255.089 38.0742 255.143 38.02 255.143 37.9386C255.143 37.8572 255.116 37.803 255.034 37.7488L254.323 37.0437C254.076 36.7997 253.775 36.637 253.338 36.637ZM253.338 37.1793C253.584 37.1793 253.748 37.2607 253.94 37.4505L254.459 37.9657L253.94 38.4809C253.748 38.6708 253.584 38.7521 253.338 38.7521C252.927 38.7521 252.599 38.3996 252.599 37.9928C252.599 37.5047 252.927 37.1793 253.338 37.1793Z" fill="#94BB1E"/>
<path opacity="0.3" d="M255.499 38.291C255.417 38.291 255.362 38.3452 255.307 38.3995L254.596 39.1045C254.35 39.3486 254.186 39.6469 254.186 40.0808C254.186 40.7858 254.76 41.3553 255.499 41.3553C256.237 41.3553 256.812 40.8129 256.812 40.0808C256.812 39.6469 256.62 39.3486 256.401 39.1045L255.69 38.3995C255.636 38.3452 255.581 38.291 255.499 38.291ZM255.499 38.9689L256.019 39.4842C256.21 39.674 256.292 39.8367 256.292 40.0808C256.292 40.4875 255.964 40.8129 255.526 40.8129C255.088 40.8129 254.76 40.4875 254.76 40.0808C254.76 39.8367 254.842 39.674 255.006 39.4842L255.499 38.9689Z" fill="#94BB1E"/>
<path opacity="0.3" d="M255.499 34.5217C254.76 34.5217 254.186 35.0641 254.186 35.7963C254.186 36.2301 254.377 36.5284 254.596 36.7725L255.307 37.4775C255.362 37.5318 255.417 37.586 255.499 37.586C255.581 37.586 255.636 37.5318 255.69 37.4775L256.401 36.7725C256.648 36.5284 256.812 36.2301 256.812 35.7963C256.812 35.0641 256.237 34.5217 255.499 34.5217ZM255.499 35.0641C255.936 35.0641 256.265 35.3895 256.265 35.7963C256.265 36.0403 256.183 36.203 256.019 36.3928L255.499 36.9081L254.979 36.3928C254.788 36.203 254.705 36.0403 254.705 35.7963C254.733 35.3895 255.061 35.0641 255.499 35.0641Z" fill="#94BB1E"/>
</g>
</g>
<path d="M272.815 44.9891V46.345H275.687V55.3209H277.219V46.345H280.091V44.9891H272.815ZM267.125 50.5753H271.228V49.2737H267.125V46.345H272.268V44.9891H265.566V55.3209H272.404V53.965H267.097V50.5753H267.125ZM263.678 54.1006C263.35 54.1006 263.268 53.9108 263.131 53.5854C262.666 52.3108 262.693 51.7143 262.365 50.9821C262.228 50.6567 261.873 50.0601 261.134 49.816C261.654 49.572 261.927 49.111 262.064 48.6771C262.338 47.9178 262.42 46.7789 262.721 46.4264C262.83 46.2908 263.049 46.1552 263.186 46.1552C263.24 46.1552 263.295 46.1552 263.487 46.1823L263.651 46.2094V44.962L263.541 44.9349C263.432 44.9078 263.24 44.8807 263.022 44.8807C262.529 44.8807 261.763 45.0434 261.353 45.9654C260.997 46.7518 260.943 47.9992 260.532 48.65C260.177 49.2195 259.629 49.3279 259.055 49.3279H257.769V44.9891H256.237V55.3209H257.769V50.5753H259.028C259.712 50.5753 260.395 50.6025 260.806 51.3075C260.97 51.5787 261.052 51.9854 261.243 52.6905C261.408 53.4227 261.572 54.0735 261.845 54.5887C262.228 55.2666 262.775 55.4836 263.295 55.4836H263.322C263.623 55.4836 263.815 55.4294 264.034 55.3209L264.088 55.2938V54.0464L263.897 54.1006C263.87 54.1006 263.787 54.1006 263.678 54.1006ZM253.256 49.4093C252.763 49.8703 252.052 49.8703 251.587 49.8703H249.754V46.345H251.724C252.189 46.345 252.845 46.3992 253.283 46.7789C253.502 46.9416 253.83 47.3212 253.83 48.0263C253.803 48.65 253.557 49.1381 253.256 49.4093ZM254.323 45.6671C253.502 45.0705 252.517 44.9891 251.696 44.9891H248.195V55.3209H249.754V51.2262H251.751C251.778 51.2262 251.806 51.2262 251.833 51.2262C252.517 51.2262 253.584 51.2262 254.487 50.4126C254.815 50.1415 255.471 49.3822 255.471 48.0534C255.444 46.7789 254.842 46.0467 254.323 45.6671ZM241.466 51.1177L242.806 46.9416L244.119 51.1177H241.466ZM243.763 44.9891H242.095L238.73 55.3209H240.18L241.083 52.3922H244.529L245.487 55.3209H247.183L247.128 55.1311L243.763 44.9891ZM232.52 52.8261L229.566 44.9891H227.46V55.3209H228.8V47.1043L231.918 55.3209H232.958L236.022 47.0772V55.3209H237.554V44.9891H235.447L232.52 52.8261ZM223.876 49.4093C223.356 49.8703 222.645 49.8703 222.18 49.8703H220.347V46.345H222.289C222.754 46.345 223.438 46.3992 223.876 46.7789C224.095 46.9416 224.423 47.3212 224.423 48.0263C224.423 48.65 224.177 49.1381 223.876 49.4093ZM224.916 45.6671C224.122 45.0705 223.11 44.9891 222.289 44.9891H218.788V55.3209H220.347V51.2262H222.344C222.371 51.2262 222.399 51.2262 222.399 51.2262C223.11 51.2262 224.15 51.2262 225.052 50.4126C225.381 50.1415 226.037 49.3822 226.037 48.0534C226.064 46.7789 225.463 46.0467 224.916 45.6671ZM211.949 50.5753H216.025V49.2737H211.949V46.345H217.092V44.9891H210.39V55.3209H217.229V53.965H211.922V50.5753H211.949ZM200.679 55.3209H202.238V46.345H206.533V55.3209H208.092V44.9891H200.679V55.3209ZM195.946 50.8465L193.156 44.9891H191.515L195.153 52.582C195.043 52.9346 194.825 53.4498 194.524 53.721C194.305 53.9108 193.949 54.1006 193.457 54.1006C193.265 54.1006 193.129 54.0735 192.937 53.9921L192.746 53.9108V55.2666L192.828 55.2938C192.992 55.348 193.238 55.4022 193.539 55.4022C194.113 55.4022 194.77 55.1853 195.262 54.7514C195.946 54.1548 196.247 53.3142 196.521 52.582L199.694 44.9891H198.271L195.946 50.8465ZM189.873 51.7685C189.709 52.6363 189.244 53.1786 189.08 53.3955C188.615 53.8565 188.205 54.1006 187.493 54.1006C186.317 54.1006 185.633 53.3684 185.25 52.582C184.922 51.877 184.785 50.9007 184.785 50.033C184.785 49.3279 184.867 48.2432 185.332 47.4568C185.907 46.4535 186.673 46.1823 187.466 46.1823C188.287 46.1823 188.834 46.4535 189.299 47.1585C189.572 47.5924 189.737 48.0534 189.819 48.4059L189.846 48.5415L189.983 48.5144L191.323 48.2704L191.296 48.1348C191.159 47.1585 190.694 46.2908 190.092 45.7484C189.244 44.962 188.341 44.7993 187.493 44.7993C186.81 44.7993 185.414 44.9078 184.32 46.1823C183.992 46.5619 183.117 47.728 183.144 49.9516C183.144 51.2804 183.472 52.6363 184.129 53.6396C185.168 55.2124 186.563 55.4294 187.493 55.4294H187.521C188.287 55.4294 189.217 55.2938 190.092 54.3447C190.694 53.721 191.104 52.8803 191.268 52.0397L191.296 51.9041L189.873 51.6058V51.7685Z" fill="#94BB1E"/>
<path d="M42.4281 16.4888C39.0908 16.4888 36.8476 17.8446 35.0148 19.6344L28.4222 26.3595L35.0148 33.0846C36.8476 34.8744 39.0908 36.2303 42.4281 36.2303C47.9265 36.2303 52.1393 31.8101 52.1393 26.3595C52.1393 20.9089 47.9539 16.4888 42.4281 16.4888ZM42.4281 20.7191C45.4646 20.7191 47.8718 23.2139 47.8718 26.3595C47.8718 29.5323 45.4919 31.9999 42.4281 31.9999C40.6774 31.9999 39.419 31.4576 38.0239 30.0746L34.2215 26.3324L37.9965 22.6173C39.419 21.2614 40.6774 20.7191 42.4281 20.7191Z" fill="#004819"/>
<path d="M9.71114 16.4888C4.18537 16.4888 0 20.9089 0 26.3595C0 31.8101 4.18537 36.2303 9.68379 36.2303C13.0211 36.2303 15.2643 34.8744 17.0971 33.0846L23.6897 26.3595L17.1244 19.6344C15.2916 17.8446 13.0211 16.4888 9.71114 16.4888ZM9.71114 20.7191C11.4619 20.7191 12.7202 21.2614 14.1427 22.6444L17.9451 26.3866L14.1427 30.0746C12.7202 31.4847 11.4619 31.9999 9.71114 31.9999C6.6747 31.9999 4.26743 29.5323 4.26743 26.3595C4.26743 23.1868 6.64735 20.7191 9.71114 20.7191Z" fill="#94BB1E"/>
<path d="M26.0696 28.6914C25.4952 28.6914 19.2855 35.2267 19.2855 35.2267C17.48 37.0436 16.1123 39.2672 16.1123 42.5755C16.1123 48.0261 20.5712 52.1751 26.0696 52.1751C31.568 52.1751 36.027 48.0261 36.027 42.5755C36.027 39.2672 34.6592 37.0436 32.8537 35.2267L26.0696 28.6914ZM26.0696 34.4403L29.8173 38.1825C31.2124 39.6197 31.7595 40.84 31.7595 42.5755C31.7595 45.6398 29.2976 47.9719 26.0696 47.9719C22.8143 47.9719 20.3797 45.6669 20.3797 42.5755C20.3797 40.84 20.9268 39.5926 22.2946 38.1825L26.0696 34.4403Z" fill="#41884C"/>
<path d="M26.0696 0.516602C20.5712 0.516602 16.1123 4.66557 16.1123 10.1162C16.1123 13.4245 17.48 15.6481 19.2855 17.465L26.0696 24.0003L32.8537 17.465C34.6592 15.6481 36.027 13.4245 36.027 10.1162C36.027 4.66557 31.568 0.516602 26.0696 0.516602ZM26.0696 4.74692C29.2702 4.74692 31.7595 7.10614 31.7595 10.1433C31.7595 11.8788 31.2124 13.1262 29.8173 14.5363L26.0696 18.2785L22.3219 14.5363C20.9268 13.1262 20.3797 11.8788 20.3797 10.1433C20.3797 7.0519 22.8143 4.74692 26.0696 4.74692Z" fill="#B5D054"/>
<path d="M109.668 34.5218C107.561 34.5218 106.248 32.8676 106.248 30.1016V25.8171C106.248 23.4578 107.589 21.6952 109.668 21.6952C111.911 21.6952 113.306 23.5121 113.306 28.0407C113.306 31.3761 112.567 34.5218 109.668 34.5218ZM112.512 17.8445C112.157 17.7903 111.829 17.7632 111.5 17.7632C109.449 17.8717 107.589 18.5496 106.221 19.3631V18.7394C106.221 18.4954 106.33 18.0344 105.728 18.0344H102.364C101.406 18.1157 100.668 18.7936 100.64 19.6343V23.1596V40.4605C100.64 43.4705 102.801 45.3416 105.455 45.3416H105.674C105.947 45.3416 106.221 45.2331 106.221 44.745V37.2335C107.37 37.9114 108.82 38.4538 110.762 38.4809C111.473 38.4809 112.102 38.4267 112.704 38.3182C116.205 37.803 119.379 34.6845 119.379 27.9051C119.406 22.2918 116.999 18.1699 112.512 17.8445Z" fill="#004819"/>
<path d="M251.532 32.8407C250.794 34.1152 249.699 34.522 248.633 34.522C247.566 34.522 246.472 34.1152 245.733 32.8407C245.268 32.0272 244.83 30.7256 244.83 28.0409C244.83 26.5766 244.912 24.6512 245.842 23.214C246.499 22.1564 247.374 21.6683 248.633 21.6683C249.891 21.6683 250.739 22.1564 251.423 23.214C252.353 24.6512 252.462 26.5495 252.462 28.0409C252.435 30.7256 251.997 32.0001 251.532 32.8407ZM248.633 17.7905C246.663 17.7905 244.01 18.2515 241.684 20.5023C240.727 21.4243 238.703 23.892 238.703 28.0409C238.703 31.2408 239.961 34.0881 241.821 35.8508C243.189 37.1253 245.432 38.3727 248.605 38.3727C251.778 38.3727 254.022 37.1253 255.389 35.8508C257.277 34.061 258.535 31.2137 258.535 28.0409C258.535 23.892 256.484 21.4243 255.554 20.5023C253.256 18.2515 250.575 17.7905 248.633 17.7905Z" fill="#004819"/>
<path d="M214.11 21.6681C215.204 21.6681 216.107 22.2376 216.627 22.9426C216.846 23.2409 217.01 23.6748 217.147 24.1629C217.311 24.6239 217.612 24.9493 218.104 24.9493H222.207C222.426 24.9493 222.59 24.7595 222.563 24.5425C222.207 22.7528 221.332 20.9902 220.046 19.8241C218.569 18.4682 216.326 17.7632 214.056 17.7632C211.511 17.7632 209.241 18.7394 207.709 20.0953C206.177 21.4512 204.536 24.0273 204.536 28.0949C204.536 31.4846 205.712 34.2777 207.463 35.959C208.502 36.9352 210.554 38.3724 213.946 38.3724C216.983 38.3724 218.897 37.2335 219.992 36.3115C221.195 35.2539 222.125 33.6811 222.563 31.8914C222.59 31.7558 222.563 31.5117 222.235 31.5117H217.995C217.502 31.5388 217.283 31.81 217.119 32.2439C217.119 32.2439 217.092 32.2981 217.065 32.3795C217.065 32.4066 217.065 32.4066 217.037 32.4337C217.037 32.4608 217.01 32.4879 217.01 32.5151C216.9 32.7591 216.791 32.9761 216.627 33.193C215.943 34.2506 215.232 34.4946 214.22 34.4946C213.262 34.4946 212.332 34.2506 211.539 32.9218C210.992 31.9998 210.691 30.644 210.691 28.0678C210.691 25.0035 211.156 23.8104 211.511 23.2138C212.031 22.2918 213.016 21.6681 214.11 21.6681Z" fill="#004819"/>
<path d="M84.993 25.9529C84.993 24.7597 85.4307 23.6208 86.0872 22.9157C86.7985 22.1835 87.8653 21.6683 89.069 21.6683C90.6009 21.6683 91.5036 22.4005 92.0507 23.1598C92.5978 23.9462 92.8714 25.0309 92.844 25.9529H84.993ZM88.9869 17.7905C87.2088 17.7905 84.7195 18.0617 82.3943 20.0142C80.835 21.3429 78.8654 23.7835 78.8654 28.1494C78.8654 31.8916 80.3426 34.2779 81.7377 35.6609C83.2149 37.1253 85.6496 38.4269 88.9595 38.4269C91.6404 38.4269 93.8014 37.7218 95.3607 36.6371C96.4549 35.8778 97.7953 34.5762 98.5066 32.4611C98.5613 32.2983 98.6433 31.9458 98.2056 31.9458H93.5005C93.227 31.9458 92.9261 32.2712 92.844 32.4068C92.6799 32.7865 92.4337 33.139 92.1875 33.4102C91.6404 33.9525 90.7103 34.5491 89.2605 34.5491C87.3729 34.5491 86.2787 33.5729 85.6769 32.4611C85.2119 31.5933 84.9657 30.4001 85.0204 29.3154H98.1236C98.6433 29.2341 98.8348 28.9358 98.8622 28.2307C98.8622 28.2307 98.8622 28.1494 98.8622 28.068C98.8075 24.8411 97.7406 22.5361 96.5643 21.1531C95.1966 19.4989 92.7893 17.7905 88.9869 17.7905Z" fill="#004819"/>
<path d="M158.661 31.5389C157.403 28.9627 156.281 27.417 155.214 27.2815C155.214 27.2815 156.637 27.2001 157.594 24.5968C157.922 23.6748 158.852 21.5597 159.482 20.258C159.7 19.7699 160.083 19.2547 160.494 18.7666C160.548 18.7123 160.576 18.6039 160.576 18.5225C160.576 18.3056 160.384 18.1158 160.166 18.0886H156.062C154.941 18.1158 154.394 18.9835 154.038 19.8513C153.436 21.2343 153.19 22.102 152.315 24.0274C151.904 24.9494 151.138 25.9256 149.47 25.9256H148.266V18.7666C148.266 18.5225 148.375 18.0615 147.774 18.0615H144.135C143.178 18.1429 142.412 18.8479 142.412 19.6886V34.9286C142.412 35.3624 142.439 35.959 142.631 36.5285C143.041 37.3963 143.834 38.1284 144.847 38.1284H147.418C148.074 38.1284 148.266 37.7759 148.266 37.2878V29.261H149.305C151.549 29.261 152.533 31.8101 153.491 33.5998C154.366 35.254 155.898 38.1827 158.606 38.0471H161.834C162.053 38.02 162.217 37.8573 162.217 37.6403C162.217 37.559 162.19 37.5047 162.162 37.4234C161.396 36.2031 159.7 33.4642 158.661 31.5389Z" fill="#004819"/>
<path d="M75.3092 12.5027H59.2243C58.2121 12.5027 57.282 13.3433 57.282 14.4823C57.282 14.4823 57.282 32.8136 57.282 32.895C57.282 33.6 57.3641 34.4407 57.7197 35.2813C58.4583 36.8541 59.9902 37.9931 61.823 38.21H62.5616C63.0814 38.21 63.1634 37.966 63.1634 37.3965V18.6312C63.2455 18.2787 63.5738 17.9804 63.9567 17.9804H70.5494C70.9324 17.9804 71.2606 18.2787 71.3427 18.6312C71.3427 18.6312 71.3153 32.5967 71.3427 32.8679C71.3427 33.5729 71.3974 34.4136 71.753 35.2542C72.4916 36.827 74.0235 37.966 75.8563 38.1829H76.5949C77.1147 38.1829 77.1967 37.9388 77.1967 37.3694V14.4551C77.2241 13.5331 76.4034 12.5027 75.3092 12.5027Z" fill="#004819"/>
<path d="M240.699 18.4685C240.754 18.2787 240.727 18.0347 240.344 18.0347H221.523C221.113 18.0347 221.086 18.2787 221.14 18.4685C221.715 20.3668 223.137 22.1565 225.162 22.265H227.213C227.651 22.3192 228.007 22.6717 228.007 23.1327V33.3831C228.007 34.1153 228.116 34.6034 228.417 35.2813C229.156 36.8542 230.687 37.9931 232.493 38.1829H233.231C233.751 38.1829 233.833 37.9388 233.833 37.3694V23.1327C233.833 22.6989 234.189 22.3192 234.627 22.265H236.678C238.703 22.1836 240.125 20.3939 240.699 18.4685Z" fill="#004819"/>
<path d="M279.872 37.4505C279.106 36.2302 277.41 33.4642 276.371 31.5389C275.113 28.9627 273.991 27.417 272.924 27.2543C272.924 27.2543 274.347 27.173 275.304 24.5697C275.632 23.6748 276.562 21.5326 277.192 20.2309C277.41 19.7428 277.793 19.2276 278.204 18.7395C278.258 18.6852 278.286 18.5768 278.286 18.4954C278.286 18.2785 278.122 18.0886 277.876 18.0615H273.772C272.651 18.0886 272.104 18.9564 271.748 19.8242C271.146 21.2071 270.9 22.0749 270.025 24.0002C269.614 24.9222 268.848 25.8985 267.18 25.8985H266.003V18.7666C266.003 18.5225 266.113 18.0615 265.511 18.0615H261.873C260.915 18.1429 260.177 18.8479 260.149 19.6886V34.9286C260.149 35.3624 260.177 35.959 260.368 36.5285C260.778 37.3963 261.572 38.1284 262.611 38.1284H265.183C265.839 38.1284 266.031 37.7759 266.031 37.2878V29.261H267.07C269.313 29.261 270.298 31.8101 271.256 33.5998C272.131 35.254 273.663 38.1827 276.371 38.0471H279.599C279.818 38.02 279.982 37.8573 279.982 37.6403C279.927 37.559 279.9 37.5047 279.872 37.4505Z" fill="#004819"/>
<path d="M171.928 34.5218C169.822 34.5218 168.509 32.8676 168.509 30.1016V25.8171C168.509 23.4578 169.849 21.6952 171.928 21.6952C174.171 21.6952 175.567 23.5121 175.567 28.0407C175.594 31.3761 174.855 34.5218 171.928 34.5218ZM174.801 17.8445C174.445 17.7903 174.117 17.7632 173.788 17.7632C171.709 17.8717 169.877 18.5496 168.482 19.3631V18.7394C168.482 18.4954 168.591 18.0344 167.989 18.0344H164.624C163.667 18.1157 162.928 18.7936 162.901 19.6343V23.1596V40.4605C162.901 43.4705 165.062 45.3416 167.716 45.3416H167.934C168.208 45.3416 168.509 45.2331 168.509 44.745V37.2335C169.658 37.9114 171.108 38.4538 173.05 38.4809C173.734 38.4809 174.39 38.4267 174.992 38.3182C178.494 37.803 181.694 34.6845 181.694 27.9051C181.694 22.2918 179.314 18.1699 174.801 17.8445Z" fill="#004819"/>
<path d="M189.299 25.9529C189.299 24.7597 189.737 23.6208 190.393 22.9157C191.104 22.1835 192.144 21.6683 193.375 21.6683C194.907 21.6683 195.81 22.4005 196.357 23.1598C196.904 23.9462 197.177 25.0309 197.15 25.9529H189.299ZM193.293 17.7905C191.515 17.7905 189.025 18.0617 186.7 20.0142C185.141 21.3429 183.171 23.7835 183.171 28.1494C183.171 31.8916 184.649 34.2779 186.016 35.6609C187.521 37.1253 189.928 38.4269 193.238 38.4269C195.892 38.4269 198.053 37.7218 199.639 36.6371C200.733 35.8778 202.047 34.5762 202.785 32.4611C202.84 32.2983 202.922 31.9458 202.484 31.9458H197.779C197.506 31.9458 197.205 32.2712 197.15 32.4068C196.986 32.7865 196.74 33.139 196.466 33.4102C195.919 33.9525 194.989 34.5491 193.539 34.5491C191.651 34.5491 190.557 33.5729 189.983 32.4611C189.518 31.5933 189.272 30.4001 189.326 29.3154H202.43C202.949 29.2341 203.141 28.9358 203.168 28.2307V28.068C203.113 24.8411 202.047 22.5361 200.843 21.1531C199.502 19.4989 197.095 17.7905 193.293 17.7905Z" fill="#004819"/>
<path d="M134.014 18.116H124.631H121.594C121.594 21.7226 125.151 22.9429 127.777 22.9429H136.23H140.196C140.196 19.3363 136.64 18.116 134.014 18.116Z" fill="#004819"/>
<path d="M134.014 25.7629H124.631H121.594C121.594 29.3696 125.151 30.5898 127.777 30.5898H136.23H140.196C140.196 27.0103 136.64 25.7629 134.014 25.7629Z" fill="#004819"/>
<path d="M134.014 33.4099H124.631H121.594C121.594 36.9894 125.151 38.2368 127.777 38.2368H136.23H140.196C140.196 34.6573 136.64 33.4099 134.014 33.4099Z" fill="#004819"/>
</svg>
