<svg width="200" height="53" viewBox="0 0 200 53" fill="none" xmlns="http://www.w3.org/2000/svg">
<g clip-path="url(#clip0)">
<path fill-rule="evenodd" clip-rule="evenodd" d="M137.142 24.4662C137.164 25.6691 138.14 26.6359 139.314 26.6359C140.487 26.6359 141.463 25.6691 141.463 24.4662V19.4972H148.548V24.4662C148.548 25.6691 149.547 26.6359 150.72 26.6359C151.894 26.6359 152.87 25.6691 152.87 24.4662V10.1552C152.87 8.9523 151.872 7.9855 150.698 7.9855C149.525 7.9855 148.548 8.9523 148.548 10.1552V15.1241H141.441V10.1552C141.441 8.9523 140.465 7.9855 139.292 7.9855C138.118 7.9855 137.142 8.9523 137.142 10.1552V24.4662ZM85.5931 12.5385V24.4662C85.5931 25.6915 86.5911 26.6359 87.7757 26.6359C88.9821 26.6359 89.9583 25.6803 89.9583 24.4662V12.5385H93.2267C94.4222 12.5385 95.3764 11.5717 95.3764 10.3463C95.3764 9.1659 94.4112 8.17661 93.2267 8.17661H82.3246C81.1292 8.17661 80.175 9.1659 80.175 10.3463C80.175 11.5717 81.1401 12.5385 82.3246 12.5385H85.5931ZM70.3916 17.9346L65.3355 9.07597C64.7542 8.07543 63.5367 7.71569 62.4838 8.1991C61.4199 8.82864 61.0799 10.1552 61.6941 11.2119L67.7265 21.6557C66.9916 22.1503 66.2019 22.3302 65.3464 22.3977C64.1729 22.5101 63.3832 23.3645 63.3832 24.4999C63.3832 25.8489 64.4471 26.6021 65.5329 26.6021C67.9787 26.6021 70.1174 25.3318 71.6639 23.5556C73.0678 21.9367 74.1317 19.8907 75.1297 17.9796L78.6833 11.1445C79.2208 10.0877 78.8917 8.70498 77.7949 8.16537C76.764 7.65948 75.5027 8.10916 74.9543 9.15466L70.3916 17.9346ZM156.314 17.3275C156.314 22.6787 160.185 26.6359 165.439 26.6359C170.693 26.6359 174.564 22.6562 174.564 17.3275C174.564 11.9764 170.66 7.99674 165.439 7.99674C160.185 7.99674 156.314 11.9764 156.314 17.3275ZM170.188 17.3275C170.188 20.183 168.258 22.3302 165.428 22.3302C162.587 22.3302 160.668 20.1718 160.668 17.3275C160.668 14.4721 162.598 12.3024 165.428 12.3024C168.269 12.3024 170.188 14.4721 170.188 17.3275ZM189.415 12.5497C190.61 12.5497 191.553 11.5942 191.553 10.4025C191.553 9.23335 190.61 8.24406 189.415 8.24406H186.157C180.838 8.24406 177.054 12.1338 177.054 17.3613C177.054 22.5775 180.838 26.4785 186.157 26.4785H189.415C190.61 26.4785 191.553 25.5229 191.553 24.32C191.553 23.1509 190.61 22.1616 189.415 22.1616H186.037C183.196 22.1616 181.331 20.1155 181.331 17.35C181.331 14.5845 183.207 12.5385 186.037 12.5385H189.415V12.5497ZM110.117 25.9951C110.918 26.8382 112.267 26.8719 113.089 26.0288C113.89 25.2194 113.978 23.8254 113.177 22.9822L107.693 17.1814L112.958 11.6054C113.748 10.7623 113.671 9.3795 112.87 8.59256C112.069 7.74942 110.72 7.78314 109.931 8.62629L104.491 14.3709C104.019 14.8768 103.69 14.9443 103.339 14.9443C102.802 14.9443 102.341 14.562 102.341 13.9887V10.1552C102.341 8.9523 101.365 7.9855 100.191 7.9855C99.0177 7.9855 98.0416 8.9523 98.0416 10.1552V24.4774C98.0416 25.6803 99.0177 26.6471 100.191 26.6471C101.365 26.6471 102.341 25.6803 102.341 24.4774V20.4078C102.341 19.857 102.802 19.4748 103.339 19.4748C103.69 19.4748 104.019 19.5422 104.491 20.0481L110.117 25.9951ZM115.469 17.3275C115.469 22.6787 119.341 26.6359 124.595 26.6359C129.848 26.6359 133.72 22.6562 133.72 17.3275C133.72 11.9764 129.815 7.99674 124.595 7.99674C119.341 7.99674 115.469 11.9764 115.469 17.3275ZM129.355 17.3275C129.355 20.183 127.424 22.3302 124.595 22.3302C121.754 22.3302 119.835 20.1718 119.835 17.3275C119.835 14.4721 121.765 12.3024 124.595 12.3024C127.424 12.3024 129.355 14.4721 129.355 17.3275ZM196.895 15.5738C198.046 15.5738 199.066 14.607 199.066 13.3367C199.066 12.1113 198.046 11.1332 196.895 11.1332C195.71 11.1332 194.712 12.1225 194.712 13.3367C194.701 14.5958 195.699 15.5738 196.895 15.5738ZM196.895 23.5218C198.046 23.5218 199.066 22.5213 199.066 21.2847C199.066 20.0593 198.046 19.0925 196.895 19.0925C195.71 19.0925 194.712 20.0593 194.712 21.2847C194.701 22.5101 195.699 23.5218 196.895 23.5218Z" fill="#13A538"/>
<path d="M64.9954 36.1692C67.0903 36.1692 68.2419 37.7655 68.2419 39.7329C68.2419 41.7002 67.1013 43.2966 64.9954 43.2966C62.9006 43.2966 61.7489 41.7002 61.7489 39.7329C61.7599 37.7655 62.9006 36.1692 64.9954 36.1692ZM64.9954 42.5659C66.52 42.5659 67.4522 41.4641 67.4522 39.7329C67.4522 38.0016 66.52 36.8999 64.9954 36.8999C63.4709 36.8999 62.5386 38.0016 62.5386 39.7329C62.5386 41.4641 63.4709 42.5659 64.9954 42.5659Z" fill="black"/>
<path d="M75.2833 36.3152C75.5465 36.3152 75.6672 36.5288 75.6672 36.7649V42.7118C75.6672 42.9479 75.5465 43.1615 75.2833 43.1615C75.0201 43.1615 74.8994 42.9479 74.8994 42.7118V39.9913H70.8962V42.7118C70.8962 42.9479 70.7755 43.1615 70.5123 43.1615C70.2491 43.1615 70.1284 42.9479 70.1284 42.7118V36.7649C70.1284 36.5288 70.2491 36.3152 70.5123 36.3152C70.7755 36.3152 70.8962 36.5288 70.8962 36.7649V39.2606H74.8994V36.7649C74.8994 36.5175 75.0201 36.3152 75.2833 36.3152Z" fill="black"/>
<path d="M78.1898 41.745C78.5736 40.7333 78.7382 38.721 78.804 36.6637C78.804 36.4501 78.9575 36.3152 79.1769 36.3152H82.4782C82.7524 36.3152 82.884 36.5063 82.884 36.7424V42.7118C82.884 42.9479 82.7634 43.1615 82.5001 43.1615C82.2369 43.1615 82.1163 42.9479 82.1163 42.7118V37.0347H79.5169C79.4401 38.5973 79.3304 40.8906 78.804 42.1497C78.4749 42.9367 78.0033 43.229 77.4549 43.229C77.1807 43.229 76.8736 43.1166 76.9065 42.7793C76.9504 42.4533 77.1478 42.4758 77.4001 42.4758C77.762 42.4758 78.0252 42.161 78.1898 41.745Z" fill="black"/>
<path d="M85.286 37.2034C85.1763 36.9336 85.3079 36.7875 85.5163 36.6751C86.0208 36.4053 86.8763 36.1692 87.6879 36.1692C89.4757 36.1692 90.2105 37.1023 90.2105 38.6424V42.712C90.2105 42.9481 90.0899 43.1617 89.8267 43.1617C89.5634 43.1617 89.4428 42.9481 89.4428 42.712V41.6665C89.1137 42.4534 88.3131 43.2966 86.8434 43.2966C85.5382 43.2966 84.6389 42.6108 84.6389 41.2618C84.6389 39.4631 86.2292 38.9572 87.666 38.9572C88.4337 38.9572 88.9602 39.0246 89.4537 39.0921V38.6986C89.4537 37.5969 88.9054 36.8999 87.6221 36.8999C86.9531 36.8999 86.4595 37.0685 85.9002 37.2934C85.6698 37.3833 85.3847 37.4395 85.286 37.2034ZM89.4428 40.0589V39.7891C88.8834 39.7104 88.4886 39.6542 87.7647 39.6542C86.4156 39.6542 85.4176 40.0701 85.4176 41.2281C85.4176 42.0262 85.9331 42.5659 86.9311 42.5659C88.6421 42.5659 89.4428 41.1269 89.4428 40.0589Z" fill="black"/>
<path d="M92.9085 42.9593C92.8318 43.0605 92.7001 43.1504 92.5137 43.1504C92.2505 43.1504 92.1298 42.9368 92.1298 42.7008V36.7538C92.1298 36.5177 92.2505 36.3041 92.5137 36.3041C92.7769 36.3041 92.8976 36.5177 92.8976 36.7538V41.8801L96.9995 36.5065C97.1092 36.3828 97.2189 36.3153 97.3834 36.3153C97.6467 36.3153 97.7673 36.5289 97.7673 36.765V42.712C97.7673 42.9481 97.6467 43.1617 97.3834 43.1617C97.1202 43.1617 96.9995 42.9481 96.9995 42.712V37.6306L92.9085 42.9593ZM93.1389 34.1681C93.0621 33.9545 93.0621 33.7297 93.2485 33.6285C93.4679 33.5049 93.6544 33.651 93.764 33.8534C94.0053 34.303 94.3892 34.6403 94.9924 34.6403C95.5957 34.6403 95.9686 34.303 96.2208 33.8534C96.3305 33.6622 96.517 33.5161 96.7363 33.6285C96.9228 33.7297 96.9228 33.9658 96.846 34.1681C96.6595 34.6628 96.0453 35.3148 94.9924 35.3148C93.9505 35.3148 93.3363 34.6628 93.1389 34.1681Z" fill="black"/>
<path d="M104.875 36.3152C105.138 36.3152 105.258 36.5288 105.258 36.7649V42.7118C105.258 42.9479 105.138 43.1615 104.875 43.1615C104.611 43.1615 104.491 42.9479 104.491 42.7118V39.9913H100.487V42.7118C100.487 42.9479 100.367 43.1615 100.104 43.1615C99.8403 43.1615 99.7197 42.9479 99.7197 42.7118V36.7649C99.7197 36.5288 99.8403 36.3152 100.104 36.3152C100.367 36.3152 100.487 36.5288 100.487 36.7649V39.2606H104.491V36.7649C104.502 36.5175 104.622 36.3152 104.875 36.3152Z" fill="black"/>
<path d="M107.452 39.3844C107.452 39.1708 107.606 39.0247 107.825 39.0247H111.4C111.62 39.0247 111.773 39.182 111.773 39.3844C111.773 39.6092 111.62 39.7441 111.4 39.7441H107.825C107.606 39.7441 107.452 39.6092 107.452 39.3844Z" fill="black"/>
<path d="M114.724 42.7118C114.724 42.9479 114.603 43.1615 114.34 43.1615C114.077 43.1615 113.956 42.9479 113.956 42.7118V36.7649C113.956 36.5288 114.077 36.3152 114.34 36.3152H117.652C117.871 36.3152 118.025 36.4726 118.025 36.6749C118.025 36.8998 117.871 37.0347 117.652 37.0347H114.724V42.7118Z" fill="black"/>
<path d="M120.35 42.9592C120.273 43.0604 120.142 43.1503 119.955 43.1503C119.692 43.1503 119.571 42.9367 119.571 42.7006V36.7536C119.571 36.5176 119.692 36.304 119.955 36.304C120.219 36.304 120.339 36.5176 120.339 36.7536V41.88L124.441 36.5063C124.551 36.3826 124.66 36.3152 124.825 36.3152C125.088 36.3152 125.209 36.5288 125.209 36.7649V42.7119C125.209 42.9479 125.088 43.1615 124.825 43.1615C124.562 43.1615 124.441 42.9479 124.441 42.7119V37.6305L120.35 42.9592Z" fill="black"/>
<path d="M128.203 37.0347V42.7118C128.203 42.9479 128.082 43.1615 127.819 43.1615C127.556 43.1615 127.435 42.9479 127.435 42.7118V36.7649C127.435 36.5288 127.567 36.3152 127.808 36.3152H132.393C132.656 36.3152 132.788 36.5288 132.788 36.7649V42.7118C132.788 42.9479 132.667 43.1615 132.404 43.1615C132.141 43.1615 132.02 42.9479 132.02 42.7118V37.0347H128.203Z" fill="black"/>
<path d="M139.248 42.1499C139.489 42.0262 139.686 42.0262 139.796 42.2174C139.906 42.4085 139.807 42.6221 139.632 42.7457C139.072 43.128 138.305 43.2853 137.559 43.2853C135.431 43.2853 134.411 41.9476 134.411 39.7666C134.411 37.7093 135.541 36.158 137.515 36.158C139.314 36.158 140.114 37.4733 140.114 38.8111C140.114 39.0247 140.103 39.227 140.07 39.4069C140.016 39.8228 139.84 40.0926 139.346 40.0926H135.179C135.288 41.689 136.133 42.5546 137.548 42.5546C138.217 42.5659 138.743 42.3972 139.248 42.1499ZM135.19 39.4069H139.379C139.401 39.227 139.401 39.0471 139.401 38.8785C139.379 37.7318 138.776 36.8999 137.471 36.8999C136.144 36.8999 135.299 37.788 135.19 39.4069Z" fill="black"/>
<path d="M147.825 39.5193C147.825 41.5428 146.87 43.2966 144.622 43.2966C143.898 43.2966 143.24 43.1617 142.724 42.8581V45.5C142.724 45.7361 142.604 45.9497 142.341 45.9497C142.077 45.9497 141.957 45.7361 141.957 45.5V36.7538C141.957 36.5177 142.077 36.3041 142.341 36.3041C142.604 36.3041 142.724 36.5177 142.724 36.7538V37.8892C143.163 36.7538 144.019 36.1692 145.203 36.1692C146.969 36.1692 147.825 37.5632 147.825 39.5193ZM142.724 40.7109V42.0824C143.306 42.4309 143.909 42.5771 144.633 42.5771C146.443 42.5771 147.035 41.1494 147.035 39.5305C147.035 38.0129 146.465 36.8999 145.094 36.8999C143.108 36.8999 142.724 38.9797 142.724 40.7109Z" fill="black"/>
<path d="M149.832 36.3152C150.051 36.3152 150.172 36.4276 150.314 36.6412L152.639 40.0138L155.03 36.6749C155.184 36.4613 155.316 36.3264 155.546 36.3264C155.809 36.3264 155.897 36.5513 155.897 36.7761V42.7231C155.897 42.9592 155.776 43.1728 155.513 43.1728C155.25 43.1728 155.129 42.9592 155.129 42.7231V37.6642L152.958 40.722C152.738 41.048 152.398 41.0031 152.212 40.722L150.172 37.7766V42.7231C150.172 42.9592 150.073 43.1728 149.821 43.1728C149.558 43.1728 149.47 42.9592 149.47 42.7231V36.7761C149.459 36.5063 149.568 36.3152 149.832 36.3152Z" fill="black"/>
<path d="M158.321 37.2034C158.211 36.9336 158.343 36.7875 158.551 36.6751C159.056 36.4053 159.911 36.1692 160.723 36.1692C162.51 36.1692 163.245 37.1023 163.245 38.6424V42.712C163.245 42.9481 163.125 43.1617 162.861 43.1617C162.598 43.1617 162.478 42.9481 162.478 42.712V41.6665C162.149 42.4534 161.348 43.2966 159.878 43.2966C158.573 43.2966 157.674 42.6108 157.674 41.2618C157.674 39.4631 159.264 38.9572 160.701 38.9572C161.469 38.9572 161.995 39.0246 162.489 39.0921V38.6986C162.489 37.5969 161.94 36.8999 160.657 36.8999C159.988 36.8999 159.494 37.0685 158.935 37.2934C158.705 37.3833 158.419 37.4395 158.321 37.2034ZM162.478 40.0589V39.7891C161.918 39.7104 161.523 39.6542 160.799 39.6542C159.45 39.6542 158.452 40.0701 158.452 41.2281C158.452 42.0262 158.968 42.5659 159.966 42.5659C161.677 42.5659 162.478 41.1269 162.478 40.0589Z" fill="black"/>
<path d="M171.043 39.5193C171.043 41.5428 170.089 43.2966 167.841 43.2966C167.117 43.2966 166.459 43.1617 165.943 42.8581V45.5C165.943 45.7361 165.823 45.9497 165.56 45.9497C165.296 45.9497 165.176 45.7361 165.176 45.5V36.7538C165.176 36.5177 165.296 36.3041 165.56 36.3041C165.823 36.3041 165.943 36.5177 165.943 36.7538V37.8892C166.382 36.7538 167.238 36.1692 168.422 36.1692C170.188 36.1692 171.043 37.5632 171.043 39.5193ZM165.943 40.7109V42.0824C166.525 42.4309 167.128 42.5771 167.852 42.5771C169.662 42.5771 170.254 41.1494 170.254 39.5305C170.254 38.0129 169.683 36.8999 168.312 36.8999C166.327 36.8999 165.943 38.9797 165.943 40.7109Z" fill="black"/>
<path d="M173.325 36.3152C173.588 36.3152 173.709 36.5288 173.709 36.7649V39.4742L176.67 36.4951C176.856 36.3039 177.076 36.2477 177.251 36.4276C177.383 36.5625 177.372 36.8098 177.186 37.0009L174.433 39.654L177.504 42.4308C177.679 42.5994 177.734 42.8467 177.58 43.0266C177.416 43.2402 177.142 43.139 176.955 42.9704L173.709 39.9801V42.7006C173.709 42.9367 173.588 43.1503 173.325 43.1503C173.062 43.1503 172.941 42.9367 172.941 42.7006V36.7536C172.941 36.5175 173.062 36.3152 173.325 36.3152Z" fill="black"/>
<path d="M183.788 42.1499C184.029 42.0262 184.227 42.0262 184.337 42.2174C184.446 42.4085 184.347 42.6221 184.172 42.7457C183.613 43.128 182.845 43.2853 182.099 43.2853C179.971 43.2853 178.951 41.9476 178.951 39.7666C178.951 37.7093 180.081 36.158 182.055 36.158C183.854 36.158 184.655 37.4733 184.655 38.8111C184.655 39.0247 184.644 39.227 184.611 39.4069C184.556 39.8228 184.38 40.0926 183.887 40.0926H179.719C179.829 41.689 180.673 42.5546 182.088 42.5546C182.757 42.5659 183.284 42.3972 183.788 42.1499ZM179.73 39.4069H183.92C183.942 39.227 183.942 39.0471 183.942 38.8785C183.92 37.7318 183.317 36.8999 182.011 36.8999C180.684 36.8999 179.84 37.788 179.73 39.4069Z" fill="black"/>
<path d="M189.129 42.7118C189.129 42.9479 189.009 43.1615 188.746 43.1615C188.482 43.1615 188.362 42.9479 188.362 42.7118V37.0347H186.179C185.96 37.0347 185.806 36.8998 185.806 36.6749C185.806 36.4613 185.96 36.3152 186.179 36.3152H191.301C191.52 36.3152 191.674 36.4726 191.674 36.6749C191.674 36.8998 191.52 37.0347 191.301 37.0347H189.119V42.7118H189.129Z" fill="black"/>
<path fill-rule="evenodd" clip-rule="evenodd" d="M46.5914 5.97329C46.5914 2.84804 44.1236 0.318604 41.0746 0.318604H5.51683C2.46777 0.318604 0 2.84804 0 5.97329V28.6932C0 41.88 10.4304 52.5711 23.2957 52.5711C36.161 52.5711 46.5914 41.88 46.5914 28.6932C46.5914 19.6547 46.6024 15.023 46.5914 5.97329Z" fill="#FEC800"/>
<path fill-rule="evenodd" clip-rule="evenodd" d="M21.7602 35.0111C21.7602 33.7744 20.7731 32.7852 19.5447 32.7852C18.3382 32.7852 17.3731 33.7744 17.3731 35.0111C17.3731 36.2477 18.3382 37.2594 19.5447 37.2594C20.7731 37.2594 21.7602 36.2477 21.7602 35.0111ZM29.5474 35.0111C29.5474 33.7744 28.5603 32.7852 27.3538 32.7852C26.1473 32.7852 25.1602 33.7744 25.1602 35.0111C25.1602 36.2477 26.1473 37.2594 27.3538 37.2594C28.5603 37.2594 29.5474 36.2477 29.5474 35.0111Z" fill="black"/>
</g>
<defs>
<clipPath id="clip0">
<rect y="0.318604" width="199.055" height="52.2637" fill="white"/>
</clipPath>
</defs>
</svg>
