<svg width="212" height="80" viewBox="0 0 212 80" fill="none" xmlns="http://www.w3.org/2000/svg">
<g clip-path="url(#clip0)">
<path d="M159.7 60.8C155.3 60.8 151.4 59.1 148.4 55.8C144.6 51.6 142.4 45.2 142.9 39.3C143.8 28.6 150.5 17.1 159.7 17.1C168.9 17.1 175.6 28.6 176.5 39.3C177 45.1 174.8 51.6 171 55.8C168 59 164.1 60.8 159.7 60.8ZM159.7 19.1C151.2 19.1 145.6 30.9 144.9 39.5C144.5 43.8 145.9 50.1 149.9 54.4C152.6 57.3 155.9 58.8 159.7 58.8C163.5 58.8 166.8 57.3 169.5 54.4C173.5 50.1 174.9 43.8 174.5 39.5C173.8 30.9 168.2 19.1 159.7 19.1Z" fill="url(#paint0_linear)"/>
<path d="M118.6 61.3C113.5 61.3 109 59.3 105.5 55.5C101.1 50.7 98.6 43.2 99.1 36.5C100.2 24.2 107.9 10.9 118.5 10.9C129.2 10.9 136.9 24.2 137.9 36.5C138.5 43.2 136 50.7 131.5 55.5C128.2 59.3 123.6 61.3 118.6 61.3ZM102.1 36.7C101.7 41.5 103.2 48.6 107.7 53.4C110.7 56.6 114.3 58.3 118.6 58.3C122.9 58.3 126.5 56.7 129.5 53.4C133.9 48.6 135.5 41.5 135.1 36.7C134.3 27.1 128.1 13.9 118.6 13.9C109.1 13.9 102.9 27.1 102.1 36.7Z" fill="url(#paint1_linear)"/>
<path d="M196.8 60.8C192.9 60.8 189.4 59.2 186.7 56.3C183.3 52.6 181.3 46.8 181.8 41.6C182.6 32.1 188.6 21.8 196.8 21.8C205 21.8 211 32.1 211.8 41.6C212.2 46.8 210.3 52.5 206.9 56.3C204.2 59.2 200.7 60.8 196.8 60.8ZM196.8 23.8C189.3 23.8 184.4 34.2 183.8 41.8C183.5 45.6 184.7 51.2 188.2 55C190.5 57.5 193.4 58.8 196.8 58.8C200.2 58.8 203.1 57.5 205.4 55C208.9 51.2 210.1 45.7 209.8 41.8C209.2 34.2 204.3 23.8 196.8 23.8Z" fill="url(#paint2_linear)"/>
<path d="M73.1 61.3C67.5 61.3 62.5 59.1 58.6 54.8C53.7 49.4 50.9 41.1 51.5 33.7C52.7 20 61.3 5.20001 73.1 5.20001C84.9 5.20001 93.5 20 94.7 33.7C95.3 41.2 92.6 49.5 87.6 54.8C83.8 59 78.7 61.3 73.1 61.3ZM54.5 33.9C54 39.4 55.8 47.3 60.8 52.7C64.1 56.3 68.3 58.2 73.1 58.2C77.9 58.2 82.1 56.4 85.4 52.7C90.4 47.3 92.2 39.3 91.7 33.9C90.8 23.1 83.8 8.20001 73.1 8.20001C62.4 8.20001 55.4 23.1 54.5 33.9Z" fill="url(#paint3_linear)"/>
<path d="M23.3 60.8C17.3 60.8 11.9 58.4 7.69999 53.9C1.59999 47.3 -0.500006 37.6 -6.08712e-06 31C1.39999 16.1 10.6 0 23.3 0C36 0 45.3 16.1 46.6 30.9C47.2 37.5 45 47.2 38.9 53.8C34.8 58.4 29.4 60.8 23.3 60.8ZM23.3 2C11.1 2 3.09999 18.9 2.09999 31.1C1.59999 37.3 3.59999 46.3 9.19999 52.5C13 56.6 17.9 58.8 23.3 58.8C28.8 58.8 33.6 56.6 37.4 52.5C43.1 46.3 45.1 37.3 44.5 31.1C43.6 18.9 35.6 2 23.3 2Z" fill="url(#paint4_linear)"/>
<path d="M20.2 77.3C20.2 80.5 14.3 80.5 14.3 77.5C14.3 76.4 15 75.8 16 75.3C15.1 74.8 14.6 74.2 14.6 73.3C14.6 70.3 20 70.3 20 73.1C20 74 19.4 74.7 18.6 75.1C19.4 75.6 20.2 76.3 20.2 77.3ZM18.5 77.4C18.5 76.6 17.8 76.3 17.1 75.9C16.5 76.2 15.9 76.6 15.9 77.4C16 78.8 18.5 78.8 18.5 77.4ZM18.3 73.2C18.3 71.9 16.1 71.9 16.1 73.2C16.1 73.9 16.7 74.2 17.3 74.5C17.9 74.2 18.3 73.8 18.3 73.2Z" fill="#9BC045"/>
<path d="M27.2 75.3C27.2 77.7 26.5 79.7 24.1 79.7C21.7 79.7 21.2 77.8 21.2 75.4C21.2 73 21.9 71 24.3 71C26.8 71 27.2 72.9 27.2 75.3ZM25.5 75.4C25.5 72.9 25.1 72.4 24.2 72.4C23 72.4 22.9 74.1 22.9 75.4C22.9 78.1 23.5 78.4 24.2 78.4C25.5 78.3 25.5 76.7 25.5 75.4Z" fill="#9BC045"/>
<path d="M32.2 74.8H30.3V79.3C30.3 79.6 28.7 79.7 28.7 79.3C28.7 77.2 28.7 75.8 28.7 75C28.7 73.1 28.6 73.3 29.8 73.3C30.3 73.3 31 73.3 32.2 73.3C32.5 73.3 32.5 74.8 32.2 74.8Z" fill="#9BC045"/>
<path d="M69.6 72.9C67.6 77.6 67.1 79 66.7 79.4C66.5 79.6 64.9 79.6 64.9 79.3C64.9 79.2 65.1 78.9 67.9 72.6H64.4C64 72.6 64.1 71.3 64.3 71.2C64.4 71.1 64.4 71.2 69.4 71.2C70 71.2 69.9 72.4 69.6 72.9Z" fill="#9BC045"/>
<path d="M77 75.3C77 77.7 76.3 79.7 73.9 79.7C71.5 79.7 71 77.8 71 75.4C71 73 71.7 71 74.1 71C76.5 71 77 72.9 77 75.3ZM75.3 75.4C75.3 72.9 74.9 72.4 74 72.4C72.8 72.4 72.7 74.1 72.7 75.4C72.7 78.1 73.3 78.4 74 78.4C75.2 78.3 75.3 76.7 75.3 75.4Z" fill="#9BC045"/>
<path d="M81.9 74.8H80V79.3C80 79.6 78.4 79.7 78.4 79.3C78.4 74.6 78.4 74.2 78.4 73.8C78.4 73.3 78.6 73.3 79 73.3H81.9C82.3 73.3 82.3 74.8 81.9 74.8Z" fill="#9BC045"/>
<path d="M115.4 76.7C115.4 78.4 114.3 79.6 112.4 79.6C109.9 79.6 109.6 77.7 109.6 75.7C109.6 72 111.3 71 113.2 71C113.5 71 114.5 71.1 114.7 71.3C114.8 71.4 114.8 71.7 114.8 71.9C114.8 72.4 114.8 72.6 114.6 72.6C114.4 72.6 113.9 72.3 113.1 72.3C111.7 72.3 111.2 73.4 111.2 74.7C111.7 74.4 112.3 74.2 112.9 74.2C114.6 74.3 115.4 75.1 115.4 76.7ZM113.8 76.9C113.8 76.1 113.5 75.6 112.7 75.6C112.2 75.6 111.8 75.8 111.4 76C111.4 77.2 111.5 78.4 112.6 78.4C113.4 78.4 113.8 77.7 113.8 76.9Z" fill="#9BC045"/>
<path d="M122.4 75.3C122.4 77.7 121.7 79.7 119.3 79.7C116.9 79.7 116.4 77.8 116.4 75.4C116.4 73 117.1 71 119.5 71C122 71 122.4 72.9 122.4 75.3ZM120.7 75.4C120.7 72.9 120.3 72.4 119.4 72.4C118.2 72.4 118.1 74.1 118.1 75.4C118.1 78.1 118.7 78.4 119.4 78.4C120.7 78.3 120.7 76.7 120.7 75.4Z" fill="#9BC045"/>
<path d="M127.4 74.8H125.5V79.3C125.5 79.6 123.9 79.7 123.9 79.3V74.1C123.9 73.4 124 73.3 124.5 73.3H127.4C127.7 73.3 127.7 74.8 127.4 74.8Z" fill="#9BC045"/>
<path d="M156.3 76.8C156.3 78.7 154.8 79.7 153 79.7C152.2 79.7 150.8 79.6 150.8 78.5C150.8 78.3 150.8 77.8 151 77.8C151.2 77.8 151.7 78.3 152.8 78.3C154.2 78.3 154.4 77.4 154.4 76.9C154.4 75.7 153.3 75.6 152.7 75.6C152.2 75.6 151.7 75.7 151.4 75.7C151.1 75.7 151 75.5 151 75.3V71.8C151 71.3 151.1 71.2 151.7 71.2H155.4C155.8 71.2 155.8 72.7 155.4 72.7H152.4V74.5C154.7 74.2 156.3 74.8 156.3 76.8Z" fill="#9BC045"/>
<path d="M163.6 75.3C163.6 77.7 162.9 79.7 160.5 79.7C158.1 79.7 157.6 77.8 157.6 75.4C157.6 73 158.3 71 160.7 71C163.1 71 163.6 72.9 163.6 75.3ZM161.8 75.4C161.8 72.9 161.4 72.4 160.5 72.4C159.3 72.4 159.2 74.1 159.2 75.4C159.2 78.1 159.8 78.4 160.5 78.4C161.8 78.3 161.8 76.7 161.8 75.4Z" fill="#9BC045"/>
<path d="M168.5 74.8H166.6V79.3C166.6 79.6 165 79.7 165 79.3V74.1C165 73.4 165.1 73.3 165.6 73.3H168.5C168.9 73.3 168.9 74.8 168.5 74.8Z" fill="#9BC045"/>
<path d="M193.6 77.8H192.9C192.9 78.4 192.9 78.7 192.9 79C192.9 79.5 192.9 79.5 192.7 79.5C192.4 79.6 191.7 79.6 191.4 79.5C191.3 79.4 191.2 79.5 191.2 79C191.2 78.8 191.2 78.4 191.2 77.8C189.9 77.8 189.1 77.8 188.6 77.8C187.8 77.8 187.6 77.9 187.6 77C187.6 76.4 187.7 76.2 187.8 75.9L190.2 71.7C190.5 71.2 190.7 71.2 191.1 71.2H192.2C192.6 71.2 192.8 71.5 192.8 71.9V76.5C193.1 76.5 193.2 76.5 193.4 76.5C194.1 76.4 193.9 77.8 193.6 77.8ZM191.2 72.6L189 76.4H191.2V72.6Z" fill="#9BC045"/>
<path d="M200.7 75.3C200.7 77.7 200 79.7 197.6 79.7C195.2 79.7 194.7 77.8 194.7 75.4C194.7 73 195.4 71 197.8 71C200.3 71 200.7 72.9 200.7 75.3ZM199 75.4C199 72.9 198.6 72.4 197.7 72.4C196.5 72.4 196.4 74.1 196.4 75.4C196.4 78.1 197 78.4 197.7 78.4C199 78.3 199 76.7 199 75.4Z" fill="#9BC045"/>
<path d="M205.7 74.8H203.8V79.3C203.8 79.6 202.2 79.7 202.2 79.3V74.1C202.2 73.3 202.3 73.3 203 73.3H205.7C206 73.3 206 74.8 205.7 74.8Z" fill="#9BC045"/>
<path d="M79.9 45.4C77.2 45.4 72.7 44.4 72.7 37.3C72.7 32.2 75.5 29.1 80.1 29.1C84.6 29.1 87.2 32 87.2 37.1C87.3 42.3 84.5 45.4 79.9 45.4ZM80.1 32.1C77.2 32.1 75.7 33.9 75.7 37.3C75.7 41.8 77.8 42.4 79.9 42.4C82.8 42.4 84.3 40.6 84.3 37.1C84.3 32.7 82 32.1 80.1 32.1ZM65.5 45.4C61.2 45.4 58.5 42.4 58.5 37.5C58.5 32.5 61.4 29.2 65.7 29.2C67.6 29.2 69.4 30 70.1 30.7C70.7 31.3 70.7 32.2 70.1 32.8C69.5 33.4 68.6 33.4 68 32.8C67.8 32.6 66.8 32.2 65.7 32.2C61.8 32.2 61.5 36.2 61.5 37.5C61.5 39.8 62.2 42.4 65.5 42.4C66.9 42.4 67.9 41.8 68.1 41.7C68.7 41.1 69.7 41.2 70.2 41.7C70.8 42.3 70.8 43.2 70.2 43.8C69.4 44.6 67.6 45.4 65.5 45.4Z" fill="#9BC045"/>
<path d="M112.8 45.4C108.5 45.4 105.8 42.4 105.8 37.5C105.8 32.5 108.7 29.2 113 29.2C114.9 29.2 116.7 30 117.4 30.7C118 31.3 118 32.2 117.4 32.8C116.8 33.4 115.9 33.4 115.3 32.8C115.1 32.6 114.1 32.2 113 32.2C109.1 32.2 108.8 36.2 108.8 37.5C108.8 39.8 109.5 42.4 112.8 42.4C114.2 42.4 115.2 41.8 115.4 41.7C116 41.1 117 41.2 117.5 41.7C118.1 42.3 118.1 43.2 117.5 43.8C116.7 44.6 114.9 45.4 112.8 45.4ZM129.9 45H122.8C122 45 121.3 44.3 121.3 43.5C121.3 42.7 122 42 122.8 42H124.8V32.6L123.2 33.2C122.4 33.5 121.6 33.1 121.3 32.3C121 31.5 121.4 30.7 122.2 30.4L125.9 29C126.4 28.8 126.9 28.9 127.3 29.2C127.7 29.5 127.9 29.9 127.9 30.4V42H129.9C130.7 42 131.4 42.7 131.4 43.5C131.4 44.3 130.7 45 129.9 45Z" fill="#9BC045"/>
</g>
<defs>
<linearGradient id="paint0_linear" x1="142.83" y1="38.95" x2="176.57" y2="38.95" gradientUnits="userSpaceOnUse">
<stop stop-color="#FFA722"/>
<stop offset="1" stop-color="#FFB422"/>
</linearGradient>
<linearGradient id="paint1_linear" x1="99.0369" y1="36.1" x2="137.988" y2="36.1" gradientUnits="userSpaceOnUse">
<stop stop-color="#FFA722"/>
<stop offset="1" stop-color="#FFB422"/>
</linearGradient>
<linearGradient id="paint2_linear" x1="181.724" y1="41.3" x2="211.853" y2="41.3" gradientUnits="userSpaceOnUse">
<stop stop-color="#FFA722"/>
<stop offset="1" stop-color="#FFB422"/>
</linearGradient>
<linearGradient id="paint3_linear" x1="51.4197" y1="33.25" x2="94.7826" y2="33.25" gradientUnits="userSpaceOnUse">
<stop stop-color="#FFA722"/>
<stop offset="1" stop-color="#FFB422"/>
</linearGradient>
<linearGradient id="paint4_linear" x1="-0.0709229" y1="30.4" x2="46.6951" y2="30.4" gradientUnits="userSpaceOnUse">
<stop stop-color="#FFA722"/>
<stop offset="1" stop-color="#FFB422"/>
</linearGradient>
<clipPath id="clip0">
<rect width="211.9" height="79.7" fill="white"/>
</clipPath>
</defs>
</svg>
