<svg width="215" height="118" viewBox="0 0 215 118" fill="none" xmlns="http://www.w3.org/2000/svg">
<g clip-path="url(#clip0)">
<path d="M105.8 117.9C96.7 117.9 88.6 114.3 82.3 107.4C73.2 97.4 69.9 82.9 70.8 72.9C72.7 50.5 86.7 26.3 105.8 26.3C125 26.3 138.9 50.5 140.8 72.9C141.7 82.9 138.4 97.4 129.3 107.4C123 114.3 114.9 117.9 105.8 117.9ZM73.7 73.2C72.9 82.5 75.9 96.1 84.5 105.4C90.2 111.6 97.6 114.9 105.8 114.9C114 114.9 121.4 111.6 127.1 105.4C135.6 96.1 138.6 82.5 137.9 73.2C136.3 54.8 124.3 29.3 105.9 29.3C87.3 29.3 75.3 54.8 73.7 73.2Z" fill="#FFB422"/>
<path d="M186.7 117.4C179.5 117.4 173 114.5 168 109.1C160.7 101.1 158.1 89.5 158.8 81.6C160.3 63.7 171.4 44.4 186.7 44.4C196 44.4 202.4 51.2 206.2 56.9C210.7 63.8 213.9 73 214.6 81.6C215.3 89.6 212.7 101.2 205.4 109.1C200.4 114.5 193.9 117.4 186.7 117.4ZM186.7 46.3C171.8 46.3 162 66.9 160.8 81.7C160.2 89.2 162.6 100.2 169.5 107.7C174.1 112.7 180.1 115.4 186.7 115.4C193.3 115.4 199.3 112.7 203.9 107.7C210.8 100.2 213.2 89.2 212.6 81.7C211.4 66.9 201.6 46.3 186.7 46.3Z" fill="#FFB422"/>
<path d="M9.8998 117.4C6.7998 117.4 3.6998 117.1 0.799801 116.5C0.299801 116.4 -0.100199 115.9 -0.00019888 115.3C0.0998011 114.8 0.599801 114.4 1.1998 114.5C3.9998 115.1 6.8998 115.4 9.8998 115.4C21.3998 115.4 31.6998 110.8 39.5998 102.2C51.3998 89.3 55.5998 70.5 54.4998 57.6C52.9998 39.9 45.2998 21 34.9998 9.60001C34.5998 9.20001 34.6998 8.60001 35.0998 8.20001C35.4998 7.80001 36.0998 7.90001 36.4998 8.30001C47.1998 20.2 54.8998 39 56.4998 57.4C57.5998 70.8 53.2998 90.2 41.0998 103.5C32.6998 112.6 21.8998 117.4 9.8998 117.4Z" fill="#FFB422"/>
<path d="M94.1 84.4C87.5 84.4 83.5 79.7 83.5 72.1C83.5 64.3 87.8 59.3 94.5 59.3C97.4 59.3 100.1 60.5 101.1 61.5C101.7 62.1 101.7 63 101.1 63.6C100.5 64.2 99.6 64.2 99 63.6C98.5 63.1 96.5 62.2 94.5 62.2C88.6 62.2 86.5 67.3 86.5 72C86.5 75.5 87.5 81.3 94.1 81.3C96.5 81.3 98.6 80.3 99.1 79.8C99.7 79.2 100.6 79.2 101.2 79.8C101.8 80.4 101.8 81.3 101.2 81.9C100.1 83.2 97.2 84.4 94.1 84.4ZM124.4 83.7H108.7C107.9 83.7 107.2 83.1 107.2 82.3C106.9 77.8 110.2 74.3 116.9 71.7C119.6 70.7 122.7 69 122.6 66.8C122.4 64.1 119.8 62.9 117.4 62.7C114.3 62.5 110.7 63.8 110.1 66.8C109.9 67.6 109.1 68.1 108.3 68C107.5 67.8 107 67 107.1 66.2C108.1 61.5 113.1 59.4 117.5 59.8C122.1 60.1 125.3 62.9 125.5 66.7C125.7 70 123.1 72.6 117.8 74.6C113.3 76.3 110.7 78.4 110.1 80.8H124.1C124.9 80.8 125.6 81.5 125.6 82.3C125.6 83.1 125.2 83.7 124.4 83.7Z" fill="#C93E7F"/>
<path d="M92.7001 23.8C92.6001 23.8 92.6001 23.8 92.5001 23.8C82.8001 21.6 77.1001 17.5 77.1001 12.6C77.1001 5.6 89.7001 0 105.8 0C121.9 0 134.5 5.5 134.5 12.6C134.5 17.4 128.7 21.6 119.1 23.8C118.6 23.9 118 23.6 117.9 23C117.8 22.5 118.1 21.9 118.7 21.8C127.1 19.9 132.6 16.3 132.6 12.6C132.6 6.9 120.4 2 105.9 2C91.4001 2 79.1001 6.8 79.1001 12.6C79.1001 16.3 84.5001 19.9 93.0001 21.8C93.5001 21.9 93.9001 22.5 93.8001 23C93.6001 23.4 93.2001 23.8 92.7001 23.8Z" fill="#FFB422"/>
</g>
<defs>
<clipPath id="clip0">
<rect width="214.7" height="117.9" fill="white"/>
</clipPath>
</defs>
</svg>
