<svg width="132" height="132" viewBox="0 0 132 132" fill="none" xmlns="http://www.w3.org/2000/svg">
<path d="M130 62.2708L115.945 120.267C114.58 125.998 109.394 129.955 103.527 129.955H28.3369C22.4691 129.955 17.42 125.998 15.9189 120.267L2 62.2708" stroke="#9BC044" stroke-width="3" stroke-miterlimit="10" stroke-linecap="round" stroke-linejoin="round"/>
<path d="M15.1016 73.5971C19.1954 73.5971 22.7434 71.8231 25.3361 69.0939C27.7924 71.8231 31.4768 73.5971 35.5706 73.5971C39.6645 73.5971 43.2124 71.8231 45.8052 69.0939C48.3979 71.8231 51.9459 73.5971 56.0397 73.5971C60.1335 73.5971 63.6815 71.8231 66.2743 69.0939C68.867 71.8231 72.415 73.5971 76.5088 73.5971C80.6026 73.5971 84.1506 71.8231 86.7434 69.0939C89.3361 71.8231 92.8841 73.5971 96.9779 73.5971C101.072 73.5971 104.62 71.8231 107.212 69.0939C109.669 71.8231 113.353 73.5971 117.447 73.5971" stroke="url(#paint0_linear_1255_3255)" stroke-width="3" stroke-miterlimit="10" stroke-linecap="round" stroke-linejoin="round"/>
<path d="M27.9258 54.2196C27.9258 48.8977 32.9748 48.8976 32.9748 43.5757C32.9748 38.2537 27.9258 38.2537 27.9258 32.9318C27.9258 27.6098 32.9748 27.6098 32.9748 22.2879C32.9748 16.9659 27.9258 16.9659 27.9258 11.6439C27.9258 6.32195 32.9748 6.32196 32.9748 1" stroke="#9BC044" stroke-width="2" stroke-miterlimit="10" stroke-linecap="round" stroke-linejoin="round"/>
<path d="M61.9102 54.2196C61.9102 48.8977 66.9592 48.8976 66.9592 43.5757C66.9592 38.2537 61.9102 38.2537 61.9102 32.9318C61.9102 27.6098 66.9592 27.6098 66.9592 22.2879C66.9592 16.9659 61.9102 16.9659 61.9102 11.6439C61.9102 6.32195 66.9592 6.32196 66.9592 1" stroke="#9BC044" stroke-width="2" stroke-miterlimit="10" stroke-linecap="round" stroke-linejoin="round"/>
<path d="M95.7539 54.2196C95.7539 48.8977 100.803 48.8976 100.803 43.5757C100.803 38.2537 95.7539 38.2537 95.7539 32.9318C95.7539 27.6098 100.803 27.6098 100.803 22.2879C100.803 16.9659 95.7539 16.9659 95.7539 11.6439C95.7539 6.32195 100.803 6.32196 100.803 1" stroke="#9BC044" stroke-width="2" stroke-miterlimit="10" stroke-linecap="round" stroke-linejoin="round"/>
<path d="M63.5478 118.356C68.9741 118.356 73.373 113.957 73.373 108.531C73.373 103.105 68.9741 98.7058 63.5478 98.7058C58.1215 98.7058 53.7227 103.105 53.7227 108.531C53.7227 113.957 58.1215 118.356 63.5478 118.356Z" stroke="url(#paint1_linear_1255_3255)" stroke-width="2" stroke-miterlimit="10" stroke-linecap="round" stroke-linejoin="round"/>
<path d="M104.334 88.2629L92.8008 82.6472L87.185 94.1802L98.718 99.7959L104.334 88.2629Z" stroke="#9BC044" stroke-width="2" stroke-miterlimit="10" stroke-linecap="round" stroke-linejoin="round"/>
<path d="M34.7536 95.1578L31.3421 98.9787L28.8857 94.339L24.2461 92.2921L27.9305 88.6077L28.3399 83.5587L32.9795 85.8785L38.0286 84.7868L37.2098 89.8359L39.8026 94.339L34.7536 95.1578Z" stroke="#9BC044" stroke-width="2" stroke-miterlimit="10" stroke-linecap="round" stroke-linejoin="round"/>
<path d="M49.9003 87.3796C50.5032 87.3796 50.9919 86.8909 50.9919 86.2879C50.9919 85.685 50.5032 85.1962 49.9003 85.1962C49.2973 85.1962 48.8086 85.685 48.8086 86.2879C48.8086 86.8909 49.2973 87.3796 49.9003 87.3796Z" stroke="url(#paint2_linear_1255_3255)" stroke-width="2" stroke-miterlimit="10" stroke-linecap="round" stroke-linejoin="round"/>
<path d="M72.5526 86.2879C73.1555 86.2879 73.6444 85.7991 73.6444 85.1962C73.6444 84.5933 73.1555 84.1046 72.5526 84.1046C71.9497 84.1046 71.4609 84.5933 71.4609 85.1962C71.4609 85.7991 71.9497 86.2879 72.5526 86.2879Z" stroke="#9BC044" stroke-width="2" stroke-miterlimit="10" stroke-linecap="round" stroke-linejoin="round"/>
<path d="M92.201 112.898C92.804 112.898 93.2927 112.409 93.2927 111.806C93.2927 111.203 92.804 110.714 92.201 110.714C91.5981 110.714 91.1094 111.203 91.1094 111.806C91.1094 112.409 91.5981 112.898 92.201 112.898Z" stroke="url(#paint3_linear_1255_3255)" stroke-width="2" stroke-miterlimit="10" stroke-linecap="round" stroke-linejoin="round"/>
<path d="M32.9784 113.989C33.5813 113.989 34.0701 113.501 34.0701 112.898C34.0701 112.295 33.5813 111.806 32.9784 111.806C32.3755 111.806 31.8867 112.295 31.8867 112.898C31.8867 113.501 32.3755 113.989 32.9784 113.989Z" stroke="#9BC044" stroke-width="2" stroke-miterlimit="10" stroke-linecap="round" stroke-linejoin="round"/>
<defs>
<linearGradient id="paint0_linear_1255_3255" x1="12.9872" y1="71.3153" x2="119.035" y2="71.3153" gradientUnits="userSpaceOnUse">
<stop stop-color="#F7A52B"/>
<stop offset="1" stop-color="#F9B32A"/>
</linearGradient>
<linearGradient id="paint1_linear_1255_3255" x1="52.4006" y1="108.586" x2="74.674" y2="108.586" gradientUnits="userSpaceOnUse">
<stop stop-color="#F7A52B"/>
<stop offset="1" stop-color="#F9B32A"/>
</linearGradient>
<linearGradient id="paint2_linear_1255_3255" x1="47.4418" y1="86.3365" x2="52.3547" y2="86.3365" gradientUnits="userSpaceOnUse">
<stop stop-color="#F7A52B"/>
<stop offset="1" stop-color="#F9B32A"/>
</linearGradient>
<linearGradient id="paint3_linear_1255_3255" x1="89.7932" y1="111.861" x2="94.7061" y2="111.861" gradientUnits="userSpaceOnUse">
<stop stop-color="#F7A52B"/>
<stop offset="1" stop-color="#F9B32A"/>
</linearGradient>
</defs>
</svg>
