<svg width="112" height="153" viewBox="0 0 112 153" fill="none" xmlns="http://www.w3.org/2000/svg">
<path d="M19.8002 153C10.3002 153 5.8002 143.5 5.7002 136.8C5.7002 136 6.3002 135.3 7.2002 135.3C8.0002 135.3 8.7002 135.9 8.7002 136.8C8.8002 142.3 12.3002 150 19.8002 150C23.9002 150 26.5002 147.7 27.9002 145.7C28.4002 145 29.3002 144.9 30.0002 145.4C30.7002 145.9 30.8002 146.8 30.3002 147.5C27.7002 151 24.0002 153 19.8002 153Z" fill="#9BC045"/>
<path d="M92.3002 153C87.3002 153 82.9002 150.2 80.3002 145.2C80.3002 145.1 80.1002 145.1 80.1002 145.2C77.5002 150.2 73.2002 153 68.1002 153C63.1002 153 58.7002 150.1 56.1002 145.2C56.1002 145.2 56.1002 145.1 56.0002 145.1C55.9002 145.1 55.9002 145.1 55.9002 145.2C53.3002 150.2 49.0002 153 43.9002 153C36.3002 153 32.0002 147 30.5002 141.3C30.3002 140.5 30.8002 139.7 31.6002 139.5C32.4002 139.3 33.2002 139.8 33.4002 140.6C34.6002 145.2 38.0002 150 43.9002 150C49.2002 150 52.0002 146.1 53.2002 143.8C53.7002 142.7 54.8002 142.1 56.0002 142.1C57.2002 142.1 58.3002 142.8 58.8002 143.8C60.0002 146.1 62.8002 150 68.1002 150C73.4002 150 76.2002 146.1 77.4002 143.8C77.9002 142.7 79.0002 142.1 80.2002 142.1C81.4002 142.1 82.5002 142.8 83.0002 143.8C84.2002 146.1 87.0002 150 92.3002 150C95.0002 150 97.4002 149 99.3002 147C101.9 144.4 103.5 140.2 103.4 136.2C103.4 135.4 104 134.7 104.9 134.7C105.7 134.7 106.4 135.3 106.4 136.2C106.5 141 104.6 145.9 101.5 149.1C98.9002 151.6 95.8002 153 92.3002 153Z" fill="#9BC045"/>
<path d="M109.7 132.3H22.0996C21.2996 132.3 20.5996 131.6 20.5996 130.8C20.5996 130 21.2996 129.3 22.0996 129.3H109.7C110.5 129.3 111.2 130 111.2 130.8C111.2 131.6 110.5 132.3 109.7 132.3Z" fill="#9BC045"/>
<path d="M106.7 92.8001C106.5 92.8001 106.2 92.7001 106 92.5001C105.2 91.7001 104.4 91.0001 103.7 90.4001C98.8004 85.7001 96.6004 83.6001 92.1004 83.6001H77.9004C77.3004 83.6001 76.9004 83.2001 76.9004 82.6001C76.9004 82.0001 77.3004 81.6001 77.9004 81.6001H92.2004C97.4004 81.6001 100.2 84.2001 105.1 89.0001C105.8 89.7001 106.5 90.4001 107.3 91.1001C107.7 91.5001 107.7 92.1001 107.3 92.5001C107.2 92.7001 107 92.8001 106.7 92.8001Z" fill="#9BC045"/>
<path d="M73.8 83.5H44.5C43.9 83.5 43.5 83.1 43.5 82.5C43.5 81.9 43.9 81.5 44.5 81.5H73.8C74.4 81.5 74.8 81.9 74.8 82.5C74.8 83.1 74.4 83.5 73.8 83.5Z" fill="#9BC045"/>
<path d="M39.7998 83.5H19.7998C19.1998 83.5 18.7998 83.1 18.7998 82.5C18.7998 81.9 19.1998 81.5 19.7998 81.5H39.7998C40.3998 81.5 40.7998 81.9 40.7998 82.5C40.7998 83.1 40.3998 83.5 39.7998 83.5Z" fill="#9BC045"/>
<path d="M13.6004 132.3C9.2004 132.3 5.1004 130.2 2.5004 126.5C2.0004 125.8 2.2004 124.9 2.9004 124.4C3.6004 123.9 4.5004 124.1 5.0004 124.8C7.1004 127.8 10.6004 129.5 14.2004 129.3H14.3004H16.8004C17.6004 129.3 18.3004 130 18.3004 130.8C18.3004 131.6 17.6004 132.3 16.8004 132.3H14.3004C14.0004 132.3 13.8004 132.3 13.6004 132.3Z" fill="#9BC045"/>
<path d="M109.2 125.8C109 125.8 108.7 125.7 108.5 125.6C107.8 125.2 107.5 124.3 107.9 123.6C108.7 122.1 109.1 120.4 109.1 118.7V101.3C109.1 95.3998 104.3 90.6998 98.5 90.6998H13.6C7.8 90.6998 3 95.4998 3 101.4V118.8C3 119.3 3 119.9 3.1 120.4C3.2 121.2 2.7 122 1.8 122.1C1 122.2 0.2 121.7 0.1 120.8C0 120.1 0 119.5 0 118.8V101.4C0 93.8998 6.1 87.7998 13.6 87.7998H98.4C105.9 87.7998 112 93.8998 112 101.4V118.8C112 121 111.5 123.2 110.5 125.1C110.2 125.5 109.7 125.8 109.2 125.8Z" fill="#9BC045"/>
<path d="M80.6998 127.6C80.4998 127.6 80.3998 127.6 80.1998 127.5C79.3998 127.2 78.9998 126.4 79.2998 125.6C81.4998 119.4 86.1998 112.8 92.9998 112.8C98.2998 112.8 103 116.8 105.9 123.7C106.2 124.5 105.9 125.3 105.1 125.7C104.3 126 103.5 125.7 103.1 124.9C100.7 119.2 96.8998 115.8 92.8998 115.8C87.6998 115.8 83.8998 121.4 82.0998 126.6C81.8998 127.3 81.2998 127.6 80.6998 127.6Z" fill="#FFB422"/>
<path d="M32.1002 127.6C31.5002 127.6 30.9002 127.2 30.7002 126.6C28.9002 121.4 25.1002 115.8 19.9002 115.8C16.0002 115.8 12.2002 119.2 9.70025 124.9C9.40025 125.7 8.50025 126 7.70025 125.7C6.90025 125.4 6.60025 124.5 6.90025 123.7C9.90025 116.8 14.6002 112.8 19.8002 112.8C25.4002 112.8 29.5002 117.2 32.1002 122.3C34.6002 117.3 38.8003 112.8 44.4002 112.8C50.0002 112.8 55.0002 117.4 57.8002 125C58.1002 125.8 57.7002 126.6 56.9002 126.9C56.1003 127.2 55.3002 126.8 55.0002 126C53.2002 121.1 49.4002 115.8 44.4002 115.8C39.2002 115.8 35.4002 121.4 33.6002 126.6C33.3002 127.2 32.7002 127.6 32.1002 127.6Z" fill="#FFB422"/>
<path d="M68.3997 77.9C64.9997 77.9 61.8997 76.5 59.5997 74C56.6997 70.8 54.9997 65.8 55.3997 61.4C56.0997 53.3 61.2997 44.5 68.3997 44.5C75.5997 44.5 80.6997 53.3 81.3997 61.4C81.7997 65.9 80.0997 70.8 77.1997 74C74.8997 76.5 71.7997 77.9 68.3997 77.9ZM68.3997 47.4C63.0997 47.4 58.8997 54.7 58.2997 61.6C57.9997 64.6 58.9997 69 61.6997 71.9C63.4997 73.9 65.6997 74.8 68.2997 74.8C70.8997 74.8 73.0997 73.8 74.8997 71.9C77.5997 68.9 78.5997 64.6 78.2997 61.6C77.8997 54.7 73.6997 47.4 68.3997 47.4Z" fill="#FFB422"/>
<path d="M52 69.2001C51.4 69.2001 51 68.8001 51 68.2001V45.9001C51 45.6001 51.2 45.2001 51.5 45.1001L65.3 36.3001C65.8 36.0001 66.4 36.1001 66.7 36.6001C67 37.1001 66.9 37.7001 66.4 38.0001L53 46.4001V68.2001C53 68.8001 52.6 69.2001 52 69.2001Z" fill="#9BC045"/>
<path d="M84.8 69.2C84.2 69.2 83.8 68.8 83.8 68.2V46.4L70.5 37.9C70 37.6 69.9 37 70.2 36.5C70.5 36 71.1 35.9 71.6 36.2L85.3 45C85.6 45.2 85.8 45.5 85.8 45.8V68.2C85.8 68.8 85.3 69.2 84.8 69.2Z" fill="#9BC045"/>
<path d="M68.3998 39.4998C66.1998 39.4998 64.2998 37.6998 64.2998 35.3998C64.2998 33.0998 66.0998 31.2998 68.3998 31.2998C70.6998 31.2998 72.4998 33.0998 72.4998 35.3998C72.4998 37.6998 70.6998 39.4998 68.3998 39.4998ZM68.3998 33.3998C67.2998 33.3998 66.2998 34.2998 66.2998 35.4998C66.2998 36.6998 67.1998 37.5998 68.3998 37.5998C69.5998 37.5998 70.4998 36.6998 70.4998 35.4998C70.4998 34.2998 69.4998 33.3998 68.3998 33.3998Z" fill="#9BC045"/>
<path d="M71.5004 29.1001H65.4004C64.8004 29.1001 64.4004 28.7001 64.4004 28.1001C64.4004 27.5001 64.8004 27.1001 65.4004 27.1001H71.5004C72.1004 27.1001 72.5004 27.5001 72.5004 28.1001C72.5004 28.7001 72.0004 29.1001 71.5004 29.1001Z" fill="#9BC045"/>
<path d="M71.5004 24.6001H65.4004C64.8004 24.6001 64.4004 24.2001 64.4004 23.6001C64.4004 23.0001 64.8004 22.6001 65.4004 22.6001H71.5004C72.1004 22.6001 72.5004 23.0001 72.5004 23.6001C72.5004 24.2001 72.0004 24.6001 71.5004 24.6001Z" fill="#9BC045"/>
<path d="M71.5004 20.1001H65.4004C64.8004 20.1001 64.4004 19.7001 64.4004 19.1001C64.4004 18.5001 64.8004 18.1001 65.4004 18.1001H71.5004C72.1004 18.1001 72.5004 18.5001 72.5004 19.1001C72.5004 19.7001 72.0004 20.1001 71.5004 20.1001Z" fill="#9BC045"/>
<path d="M71.5004 15.5H65.4004C64.8004 15.5 64.4004 15.1 64.4004 14.5C64.4004 13.9 64.8004 13.5 65.4004 13.5H71.5004C72.1004 13.5 72.5004 13.9 72.5004 14.5C72.5004 15.1 72.0004 15.5 71.5004 15.5Z" fill="#9BC045"/>
<path d="M71.5004 11H65.4004C64.8004 11 64.4004 10.6 64.4004 10C64.4004 9.4 64.8004 9 65.4004 9H71.5004C72.1004 9 72.5004 9.4 72.5004 10C72.5004 10.6 72.0004 11 71.5004 11Z" fill="#9BC045"/>
<path d="M71.5004 6.5H65.4004C64.8004 6.5 64.4004 6.1 64.4004 5.5C64.4004 4.9 64.8004 4.5 65.4004 4.5H71.5004C72.1004 4.5 72.5004 4.9 72.5004 5.5C72.5004 6.1 72.0004 6.5 71.5004 6.5Z" fill="#9BC045"/>
<path d="M71.5004 2H65.4004C64.8004 2 64.4004 1.6 64.4004 1C64.4004 0.4 64.8004 0 65.4004 0H71.5004C72.1004 0 72.5004 0.4 72.5004 1C72.5004 1.6 72.0004 2 71.5004 2Z" fill="#9BC045"/>
</svg>
