<svg width="131" height="138" viewBox="0 0 131 138" fill="none" xmlns="http://www.w3.org/2000/svg">
<path d="M60.067 120.841C59.5787 127.048 63.4855 136.175 72.0316 136.175C80.5777 136.175 84.4845 127.048 83.9962 120.841C83.3858 113.661 78.8685 104.778 72.0316 104.778C65.1947 104.778 60.6775 113.661 60.067 120.841Z" stroke="#FFB422" stroke-width="3" stroke-miterlimit="10" stroke-linecap="round" stroke-linejoin="round"/>
<path d="M89.49 114.635C90.5887 120.72 96.6931 128.63 104.995 126.317C113.175 124.127 114.64 114.27 112.564 108.429C110.123 101.614 103.408 94.3122 96.9373 96.0159C90.3446 97.8413 88.2691 107.455 89.49 114.635Z" stroke="#FFB422" stroke-width="3" stroke-miterlimit="10" stroke-linecap="round" stroke-linejoin="round"/>
<path d="M30.2782 109.646C29.5456 111.714 29.0573 113.905 28.8131 115.974C28.3248 122.18 32.2316 131.307 40.7777 131.307C49.3238 131.307 53.2306 122.18 52.7423 115.974C52.6202 114.878 52.4981 113.783 52.2539 112.688" stroke="#FFB422" stroke-width="3" stroke-miterlimit="10" stroke-linecap="round" stroke-linejoin="round"/>
<path d="M92.4199 22.6349C88.5131 39.3068 75.9381 53.7883 59.8225 60.1164C50.1776 63.8889 39.556 64.7407 29.4227 62.5502C19.2895 60.3598 9.88872 55.2486 2.68555 47.9471" stroke="#9BC045" stroke-width="2" stroke-miterlimit="10" stroke-linecap="round" stroke-linejoin="round"/>
<path d="M100.112 16.7936C102.432 15.2116 105.484 14.6032 108.17 15.2116C110.978 15.6984 113.542 17.4021 115.129 19.7143C116.716 22.0264 117.449 24.7037 117.937 27.5026" stroke="#9BC045" stroke-width="2" stroke-miterlimit="10" stroke-linecap="round" stroke-linejoin="round"/>
<path d="M119.157 60.2381C123.308 73.0159 120.5 86.7672 112.442 96.9894" stroke="#9BC045" stroke-width="2" stroke-miterlimit="10" stroke-linecap="round" stroke-linejoin="round"/>
<path d="M7.44727 87.2539C18.6793 107.942 54.451 114.026 80.944 93.4603C88.5134 87.619 94.3736 79.709 97.9142 70.8254" stroke="#9BC045" stroke-width="2" stroke-miterlimit="10" stroke-linecap="round" stroke-linejoin="round"/>
<path d="M1.2207 66.8095C1.58697 71.6772 3.78454 76.4233 7.32508 79.709C10.6214 82.7513 15.0166 84.6984 19.5338 85.0635" stroke="#9BC045" stroke-width="2" stroke-miterlimit="10" stroke-linecap="round" stroke-linejoin="round"/>
<path d="M1.95325 47.582C0.976551 52.3281 1.95325 57.4392 4.51709 61.5767C6.83676 65.4709 10.6215 68.3916 14.8945 69.8519" stroke="#9BC045" stroke-width="2" stroke-miterlimit="10" stroke-linecap="round" stroke-linejoin="round"/>
<path d="M119.401 37.2381C119.279 36.2646 119.157 35.291 119.035 34.1958C118.913 33.3439 119.401 32.4921 120.256 32.127C122.82 31.2751 127.215 29.6931 129.779 28.8413L120.622 25.1905" stroke="#9BC045" stroke-width="2" stroke-miterlimit="10" stroke-linecap="round" stroke-linejoin="round"/>
<path d="M117.327 15.0899C118.792 12.291 119.28 9.12696 119.036 6.08463C118.914 5.35447 118.792 4.74601 118.547 4.01585C118.303 3.40738 117.815 2.79892 117.204 2.55553C116.594 2.31214 115.862 2.19045 115.251 2.43384C114.519 2.55553 113.908 2.92061 113.298 3.40738C112.687 3.89415 112.199 4.38093 111.711 4.8677C111.222 5.35447 110.734 5.84124 110.123 6.20632C109.513 6.5714 108.903 6.93648 108.17 6.93648C107.315 6.93648 106.583 6.6931 105.85 6.32802C104.996 5.84124 104.385 5.23278 103.775 4.62431C103.164 4.01585 102.554 3.28569 101.944 2.67722C101.333 2.06876 100.601 1.58199 99.746 1.3386C98.8913 1.09521 97.9146 1.21691 97.1821 1.58199C96.4496 1.94706 96.0833 2.67722 95.7171 3.40738C95.4729 4.13754 95.3508 4.98939 95.3508 5.71955C95.3508 6.44971 95.2287 7.30156 95.1066 8.03172C94.8625 8.76188 94.4962 9.61373 93.8858 10.1005C93.3974 10.4656 92.909 10.709 92.2986 10.8307C91.6882 10.9524 90.9556 10.9524 90.3452 10.8307C89.7348 10.709 89.0022 10.5873 88.3918 10.5873C87.7814 10.4656 87.1709 10.4656 86.5605 10.4656C85.9501 10.4656 85.2175 10.709 84.7292 11.074C84.2408 11.4391 83.7525 12.0476 83.6304 12.6561C83.5083 13.3862 83.7525 14.1164 84.1187 14.7248C84.485 15.3333 84.9734 15.8201 85.4617 16.3069C87.0488 18.0106 88.5139 19.7143 89.8569 21.5397" stroke="#FFB422" stroke-width="2" stroke-miterlimit="10" stroke-linecap="round" stroke-linejoin="round"/>
<path d="M120.257 40.7672C120.745 42.5926 121.355 44.5397 122.088 46.3651C122.943 48.6773 123.797 51.2328 122.698 53.4233C121.355 56.2222 117.693 57.1958 115.007 55.3704" stroke="#9BC045" stroke-width="2" stroke-miterlimit="10" stroke-linecap="round" stroke-linejoin="round"/>
</svg>
