<svg width="158" height="126" viewBox="0 0 158 126" fill="none" xmlns="http://www.w3.org/2000/svg">
<g clip-path="url(#clip0)">
<path d="M73.2 75.8C69.1 77.2 64.8 78.9 59.1 77.5C60 69.3 57 54 57 54C62.3 54.5 67.3 53.3 72.3 52.5C72.2 52.5 73.3 67.8 73.2 75.8Z" stroke="#FFB422" stroke-width="3" stroke-miterlimit="10" stroke-linecap="round" stroke-linejoin="round"/>
<path d="M100.8 52.1H84.8999V74H100.8V52.1Z" stroke="#FFB422" stroke-width="3" stroke-miterlimit="10" stroke-linecap="round" stroke-linejoin="round"/>
<path d="M126.3 73.7C120.8 73.5 115.4 73.3 111.3 73.5C111.5 66.3 113 52.5 113 52.5C118 52.8 123.3 52.8 128.9 52.5C128.8 52.6 126.3 66.5 126.3 73.7Z" stroke="#FFB422" stroke-width="3" stroke-miterlimit="10" stroke-linecap="round" stroke-linejoin="round"/>
<path d="M34.6001 46.1C34.6001 46.1 126 36.6 145 42.9" stroke="#3180CA" stroke-width="3" stroke-miterlimit="10" stroke-linecap="round" stroke-linejoin="round"/>
<path d="M40.7 43.4001C62.1 35.2001 84.9 5.80005 84.9 5.80005L135.6 38" stroke="#3180CA" stroke-width="3" stroke-miterlimit="10" stroke-linecap="round" stroke-linejoin="round"/>
<path d="M48.7 82.6999L46.5 49.2" stroke="#3180CA" stroke-width="3" stroke-miterlimit="10" stroke-linecap="round" stroke-linejoin="round"/>
<path d="M136.5 48.2L134.6 83.6999" stroke="#3180CA" stroke-width="3" stroke-miterlimit="10" stroke-linecap="round" stroke-linejoin="round"/>
<path d="M12.3 113.9L9.69995 93.8L15.7 82.5L24.4 91.9L27 112.1" stroke="#3180CA" stroke-width="3" stroke-miterlimit="10" stroke-linecap="round" stroke-linejoin="round"/>
<path d="M33.4 119.6L31.7 93.5L38.2 82.4L46.4 92.1L48.0999 118.2" stroke="#3180CA" stroke-width="3" stroke-miterlimit="10" stroke-linecap="round" stroke-linejoin="round"/>
<path d="M54.5 113.2L53.7 93.1L60.7 82.4L68.4 92.5L69.3 112.6" stroke="#3180CA" stroke-width="3" stroke-miterlimit="10" stroke-linecap="round" stroke-linejoin="round"/>
<path d="M75.6001 118.8L75.7001 92.7L83.1001 82.4L90.5001 92.8L90.4001 118.9" stroke="#3180CA" stroke-width="3" stroke-miterlimit="10" stroke-linecap="round" stroke-linejoin="round"/>
<path d="M96.8 112.5L97.7 92.4L105.6 82.4L112.5 93.1L111.5 113.2" stroke="#3180CA" stroke-width="3" stroke-miterlimit="10" stroke-linecap="round" stroke-linejoin="round"/>
<path d="M116.8 123.7L119.7 92L128.1 82.3L134.5 93.4L132.6 113.5" stroke="#3180CA" stroke-width="3" stroke-miterlimit="10" stroke-linecap="round" stroke-linejoin="round"/>
<path d="M138.1 118.7L141.7 91.7L150.5 82.3L156.5 93.7L153.7 113.8" stroke="#3180CA" stroke-width="3" stroke-miterlimit="10" stroke-linecap="round" stroke-linejoin="round"/>
<path d="M36.2 58.2C33.4 60.3 29.9999 61.5 26.2999 61.5C17.0999 61.5 9.69995 54.1 9.69995 44.9C9.69995 39.6 12.2 34.9 16 31.9" stroke="#FFB422" stroke-width="3" stroke-miterlimit="10" stroke-linecap="round" stroke-linejoin="round"/>
<path d="M24.5 14.3C26.2 7 32.8 1.5 40.7 1.5C49.9 1.5 57.3 8.9 57.3 18.1C57.3 26.4 51.2 33.3 43.2 34.5" stroke="#FFB422" stroke-width="3" stroke-miterlimit="10" stroke-linecap="round" stroke-linejoin="round"/>
<path d="M43.2 34.5C42.4 34.6 41.5 34.7 40.7 34.7" stroke="#FFB422" stroke-width="3" stroke-miterlimit="10" stroke-linecap="round" stroke-linejoin="round"/>
<path d="M28.6 26.3C27 28.7 24.7 30.5 22 31.5" stroke="#FFB422" stroke-width="3" stroke-miterlimit="10" stroke-linecap="round" stroke-linejoin="round"/>
<path d="M17.7 32.2C12.3 31.8 8 27.4 8 21.9C8 16.2 12.6 11.6 18.3 11.6C20.7 11.6 22.9 12.4 24.6 13.8" stroke="#FFB422" stroke-width="3" stroke-miterlimit="10" stroke-linecap="round" stroke-linejoin="round"/>
<path d="M9.79999 40.9C6.69999 42 3.29999 40.5999 1.99999 37.5999C0.79999 34.8999 1.69999 31.9 3.89999 30.2" stroke="#FFB422" stroke-width="3" stroke-miterlimit="10" stroke-linecap="round" stroke-linejoin="round"/>
</g>
<defs>
<clipPath id="clip0">
<rect width="158" height="125.2" fill="white"/>
</clipPath>
</defs>
</svg>
