<svg width="126" height="121" viewBox="0 0 126 121" fill="none" xmlns="http://www.w3.org/2000/svg">
<g clip-path="url(#clip0)">
<path d="M52.8 120.8H9.6C4.3 120.8 0 116.5 0 111.2V69C0 68.4 0.4 68 1 68C1.6 68 2 68.4 2 69V111.2C2 115.4 5.4 118.8 9.6 118.8H52.7C56.9 118.8 60.3 115.4 60.3 111.2V72.8H43C42.4 72.8 42 72.4 42 71.8C42 71.2 42.4 70.8 43 70.8H60.4V68C60.4 63.8 57 60.4 52.8 60.4H52.2C51.6 60.4 51.2 60 51.2 59.4C51.2 58.8 51.6 58.4 52.2 58.4H52.8C58.1 58.4 62.4 62.7 62.4 68V111.1C62.4 116.5 58.1 120.8 52.8 120.8ZM34 112.2H28.3C27.7 112.2 27.3 111.8 27.3 111.2V105.5C27.3 104.9 27.7 104.5 28.3 104.5H34C34.6 104.5 35 104.9 35 105.5V111.2C35 111.8 34.6 112.2 34 112.2ZM29.3 110.2H33V106.5H29.3V110.2ZM16 112.2H10.3C9.7 112.2 9.3 111.8 9.3 111.2V105.5C9.3 104.9 9.7 104.5 10.3 104.5H16C16.6 104.5 17 104.9 17 105.5V111.2C17 111.8 16.6 112.2 16 112.2ZM11.3 110.2H15V106.5H11.3V110.2ZM16 98.6C15.7 98.6 15.5 98.5 15.3 98.3L13.1 96.1L11 98.3C10.6 98.7 10 98.7 9.6 98.3C9.2 97.9 9.2 97.3 9.6 96.9L11.8 94.7L9.6 92.5C9.2 92.1 9.2 91.5 9.6 91.1C10 90.7 10.6 90.7 11 91.1L13.2 93.3L15.4 91.1C15.8 90.7 16.4 90.7 16.8 91.1C17.2 91.5 17.2 92.1 16.8 92.5L14.6 94.7L16.8 96.9C17.2 97.3 17.2 97.9 16.8 98.3C16.5 98.5 16.3 98.6 16 98.6ZM52.1 98.6H46.4C45.8 98.6 45.4 98.2 45.4 97.6V91.9C45.4 91.3 45.8 90.9 46.4 90.9H52.1C52.7 90.9 53.1 91.3 53.1 91.9V97.6C53.1 98.1 52.6 98.6 52.1 98.6ZM47.4 96.6H51.1V92.9H47.4V96.6ZM34 98.6H28.3C27.7 98.6 27.3 98.2 27.3 97.6V91.9C27.3 91.3 27.7 90.9 28.3 90.9H34C34.6 90.9 35 91.3 35 91.9V97.6C35 98.1 34.6 98.6 34 98.6ZM29.3 96.6H33V92.9H29.3V96.6ZM52.1 84.9C51.8 84.9 51.6 84.8 51.4 84.6L49.2 82.4L47 84.6C46.6 85 46 85 45.6 84.6C45.2 84.2 45.2 83.6 45.6 83.2L47.8 81L45.6 78.8C45.2 78.4 45.2 77.8 45.6 77.4C46 77 46.6 77 47 77.4L49.2 79.6L51.4 77.4C51.8 77 52.4 77 52.8 77.4C53.2 77.8 53.2 78.4 52.8 78.8L50.6 81L52.8 83.2C53.2 83.6 53.2 84.2 52.8 84.6C52.6 84.8 52.3 84.9 52.1 84.9ZM34 84.9C33.7 84.9 33.5 84.8 33.3 84.6L31.1 82.4L29 84.6C28.6 85 28 85 27.6 84.6C27.2 84.2 27.2 83.6 27.6 83.2L29.8 81L27.6 78.8C27.2 78.4 27.2 77.8 27.6 77.4C28 77 28.6 77 29 77.4L31.2 79.6L33.4 77.4C33.8 77 34.4 77 34.8 77.4C35.2 77.8 35.2 78.4 34.8 78.8L32.6 81L34.8 83.2C35.2 83.6 35.2 84.2 34.8 84.6C34.6 84.8 34.3 84.9 34 84.9ZM16 84.9C15.7 84.9 15.5 84.8 15.3 84.6L13.1 82.4L11 84.6C10.6 85 10 85 9.6 84.6C9.2 84.2 9.2 83.6 9.6 83.2L11.8 81L9.6 78.8C9.2 78.4 9.2 77.8 9.6 77.4C10 77 10.6 77 11 77.4L13.2 79.6L15.4 77.4C15.8 77 16.4 77 16.8 77.4C17.2 77.8 17.2 78.4 16.8 78.8L14.6 81L16.8 83.2C17.2 83.6 17.2 84.2 16.8 84.6C16.5 84.8 16.3 84.9 16 84.9ZM38.5 72.8H37.6C37 72.8 36.6 72.4 36.6 71.8C36.6 71.2 37 70.8 37.6 70.8H38.5C39.1 70.8 39.5 71.2 39.5 71.8C39.5 72.4 39 72.8 38.5 72.8ZM33.6 72.8H5.3C4.7 72.8 4.3 72.4 4.3 71.8C4.3 71.2 4.7 70.8 5.3 70.8H33.5C34.1 70.8 34.5 71.2 34.5 71.8C34.5 72.4 34.1 72.8 33.6 72.8ZM1.5 66C1.4 66 1.3 66 1.2 65.9C0.7 65.7 0.4 65.1 0.6 64.6C1.9 61 5.2 58.6 9 58.4C9.6 58.4 10 58.8 10.1 59.3C10.2 59.8 9.7 60.3 9.2 60.4C6.2 60.6 3.6 62.5 2.5 65.4C2.3 65.8 1.9 66 1.5 66ZM44.8 60.4H16.6C16 60.4 15.6 60 15.6 59.4C15.6 58.8 16 58.4 16.6 58.4H44.9C45.5 58.4 45.9 58.8 45.9 59.4C45.9 60 45.4 60.4 44.8 60.4ZM100 41.9C99.4 41.9 99 41.5 99 40.9V37C99 36.4 99.4 36 100 36C100.6 36 101 36.4 101 37V40.8C101 41.4 100.5 41.9 100 41.9ZM94.5 41.9C93.9 41.9 93.5 41.5 93.5 40.9V37C93.5 36.4 93.9 36 94.5 36C95.1 36 95.5 36.4 95.5 37V40.8C95.5 41.4 95 41.9 94.5 41.9ZM89 41.9C88.4 41.9 88 41.5 88 40.9V37C88 36.4 88.4 36 89 36C89.6 36 90 36.4 90 37V40.8C90 41.4 89.6 41.9 89 41.9ZM83.6 41.9C83 41.9 82.6 41.5 82.6 40.9V37C82.6 36.4 83 36 83.6 36C84.2 36 84.6 36.4 84.6 37V40.8C84.6 41.4 84.1 41.9 83.6 41.9ZM78.1 41.9C77.5 41.9 77.1 41.5 77.1 40.9V37C77.1 36.4 77.5 36 78.1 36C78.7 36 79.1 36.4 79.1 37V40.8C79.1 41.4 78.6 41.9 78.1 41.9ZM72.6 41.9C72 41.9 71.6 41.5 71.6 40.9V37C71.6 36.4 72 36 72.6 36C73.2 36 73.6 36.4 73.6 37V40.8C73.6 41.4 73.2 41.9 72.6 41.9ZM67.1 41.9C66.5 41.9 66.1 41.5 66.1 40.9V37C66.1 36.4 66.5 36 67.1 36C67.7 36 68.1 36.4 68.1 37V40.8C68.1 41.4 67.7 41.9 67.1 41.9ZM61.7 41.9C61.1 41.9 60.7 41.5 60.7 40.9V37C60.7 36.4 61.1 36 61.7 36C62.3 36 62.7 36.4 62.7 37V40.8C62.7 41.4 62.2 41.9 61.7 41.9Z" fill="#9BC045"/>
<path d="M79.6 120.5C74.9 120.5 70.3 119.8 66.1 118.3C65.3 118 64.9 117.2 65.2 116.4C65.5 115.6 66.3 115.2 67.1 115.5C71 116.8 75.3 117.5 79.6 117.5C90.7 117.5 100.6 113.1 108.2 104.7C119.6 92.3 123.7 74.1 122.6 61.6C121.4 47.9 116.4 33.1 109.2 22.2C98.7 6.3 87.3 3 79.6 3C66.9 3 57.6 11.9 52 19.4C45 28.8 39.7 41.7 37.5 54.7C37.4 55.5 36.6 56.1 35.8 55.9C35 55.8 34.4 55 34.6 54.2C39.2 27.2 56.2 0 79.6 0C88 0 100.4 3.6 111.7 20.6C119.2 32 124.4 47.2 125.6 61.4C126.7 74.5 122.5 93.7 110.4 106.8C102.2 115.8 91.5 120.5 79.6 120.5Z" fill="url(#paint0_linear)"/>
<path d="M48.5 64C47.7 64 47 63.3 47 62.5V55.3C47 54.5 47.7 53.8 48.5 53.8C49.3 53.8 50 54.5 50 55.3V62.5C50 63.3 49.3 64 48.5 64ZM12.6 64C11.8 64 11.1 63.3 11.1 62.5V55.3C11.1 54.5 11.8 53.8 12.6 53.8C13.4 53.8 14.1 54.5 14.1 55.3V62.5C14.1 63.3 13.4 64 12.6 64Z" fill="url(#paint1_linear)"/>
</g>
<defs>
<linearGradient id="paint0_linear" x1="34.5612" y1="60.25" x2="125.768" y2="60.25" gradientUnits="userSpaceOnUse">
<stop stop-color="#FFA722"/>
<stop offset="1" stop-color="#FFB422"/>
</linearGradient>
<linearGradient id="paint1_linear" x1="11.1" y1="58.9" x2="50" y2="58.9" gradientUnits="userSpaceOnUse">
<stop stop-color="#FFA722"/>
<stop offset="1" stop-color="#FFB422"/>
</linearGradient>
<clipPath id="clip0">
<rect width="125.8" height="120.8" fill="white"/>
</clipPath>
</defs>
</svg>
