<svg width="171" height="122" viewBox="0 0 171 122" fill="none" xmlns="http://www.w3.org/2000/svg">
<g clip-path="url(#clip0)">
<path d="M113.3 121.3C111.8 121.3 110 121 108 120.2C107.5 120 107.2 119.4 107.4 118.9C107.6 118.4 108.2 118.1 108.7 118.3C112.8 119.8 116.2 119.5 118.4 117.3C121.6 114.1 122.1 107.1 119.6 100.3C116.2 91.3 109 85.6 100.3 85C89.8 84.3 84.4 90.4 82.8 96.4C80.4 105.9 86.5 113.6 93.3 116.8C97.6 118.8 102.3 118.7 105.6 116.6C108.5 114.8 110.1 111.5 110.1 107.6C110.1 100.4 105.5 96.4 101.2 95.1C96.3999 93.6 91.5999 94.9 88.9999 98.6C87.4999 100.8 86.8999 103.7 87.4999 106.7C88.0999 109.5 89.5999 111.9 91.5999 113.2C93.4999 114.4 95.2999 114.6 96.6999 113.8C98.1999 112.9 99.1999 110.9 98.9999 108.8C98.8999 106.6 97.5999 104.9 95.5999 104C95.0999 103.8 94.8999 103.2 95.0999 102.7C95.2999 102.2 95.9 102 96.4 102.2C99.1 103.4 100.8 105.8 101 108.7C101.2 111.5 99.7999 114.3 97.6999 115.6C96.4999 116.3 93.8999 117.2 90.4999 115C87.9999 113.4 86.1999 110.6 85.4999 107.2C84.7999 103.7 85.4 100.2 87.3 97.6C90.3 93.3 96.0999 91.6 101.7 93.3C106.7 94.9 112 99.5 112 107.7C112 112.4 110.1 116.2 106.6 118.4C102.7 120.9 97.2999 121 92.3999 118.7C84.8999 115.2 78.1 106.7 80.8 96C83 87.5 90.5999 82.4 100.4 83.1C109.9 83.8 117.8 90 121.4 99.7C124.2 107.3 123.6 115 119.8 118.8C118.4 120 116.4 121.3 113.3 121.3Z" fill="#FFB422"/>
<path d="M119.6 119.6C119 119.6 118.4 119.2 118.2 118.7C117.9 117.9 118.3 117.1 119 116.7C124.3 114.6 128.5 110 130.3 104.5C132.1 98.9 131.1 92.8 127.6 87.4C124.7 82.9 119.8 79.9 114.1 79C107 78 99.6002 80.4 93.2002 85.8C92.6002 86.3 91.6002 86.3 91.1002 85.6C90.6002 85 90.6002 84 91.3002 83.5C98.4002 77.5 106.7 74.9 114.6 76.1C121.1 77.1 126.8 80.6 130.1 85.8C134.1 92 135.2 99 133.2 105.5C131.2 111.8 126.3 117.1 120.2 119.6C119.9 119.5 119.7 119.6 119.6 119.6Z" fill="#FFB422"/>
<path d="M87.7 80.2C84 80.2 78.7 78.8 73.5 72.2C68.5 66 67.5 58.6 70.8 52.4C74.2 46 81.4 42.2 89.2 42.8C95.7 43.3 101.7 46.5 106 51.9C110.7 57.7 112.7 65.4 111.6 72.8C111.5 73.3 111 73.7 110.5 73.6C110 73.5 109.6 73 109.7 72.5C110.7 65.6 108.8 58.5 104.5 53.1C100.5 48.2 95.1 45.2 89.1 44.8C82.1 44.3 75.6 47.7 72.6 53.4C69.7 59 70.6 65.4 75.1 71C81 78.4 86.9 78.6 89.8 78.1C93.9 77.4 97.3 74.4 98.6 70.5C100 66.4 98.7 61.9 95.2 58.2C92.6 55.5 89.1 54.1 85.4 54.3C82.2 54.5 79.4 56 77.8 58.4C75.4 61.8 75.8 66.4 77.4 69.5C78.8 72.3 81.1 73.9 83.6 74C86 74 87.1 72.5 87.5 71.6C88.4 69.5 88 66.8 86.3 65C85.8 64.4 85.2 64 84.6 63.8C83.4 63.3 82.5 63.5 81.9 63.8C81.1 64.2 80.4 65 80.2 66C80.1 66.5 79.5 66.9 79 66.7C78.5 66.6 78.1 66 78.3 65.5C78.7 63.9 79.7 62.6 81.1 61.9C82.5 61.2 84 61.2 85.5 61.9C86.4 62.3 87.1 62.9 87.8 63.6C90 66 90.6 69.6 89.3 72.4C88.2 74.7 86.2 76 83.6 76C80.4 75.9 77.4 73.9 75.7 70.4C73.5 66.1 73.8 60.9 76.3 57.3C78.3 54.4 81.6 52.6 85.4 52.4C89.7 52.1 93.8 53.7 96.8 56.9C100.8 61.1 102.2 66.4 100.6 71.2C99.1 75.9 95.1 79.3 90.3 80.2C89.5 80.1 88.6 80.2 87.7 80.2Z" fill="#FFB422"/>
<path d="M122.4 63C122.3 63 122.3 63 122.2 63C121.4 62.9 120.8 62.1 120.9 61.3C122 53.3 117 45.5 108.2 41.4C100 37.6 87.2 36.8 77.9 47.1C77.3 47.7 76.4 47.8 75.8 47.2C75.2 46.6 75.1 45.7 75.7 45.1C86.1 33.6 100.4 34.5 109.4 38.7C119.4 43.4 125.1 52.4 123.8 61.8C123.8 62.4 123.2 63 122.4 63Z" fill="#FFB422"/>
<path d="M136.6 94.6999C136.3 94.6999 136 94.6 135.9 94.4C135.5 94 135.6 93.3999 136 92.9999C138.3 90.9 138.1 88.1999 137.8 86.6999C137.1 83.7999 135.1 81.2999 132.9 80.6999C131.6 80.2999 130.3 80.7 129.2 81.9C128.8 82.3 128.2 82.3 127.8 81.9C127.4 81.5 127.4 80.8999 127.8 80.4999C129.4 78.7999 131.4 78.2 133.5 78.8C136.4 79.6 138.9 82.7 139.8 86.3C140.5 89.6 139.7 92.5999 137.4 94.5999C137.1 94.6999 136.8 94.6999 136.6 94.6999Z" fill="#FFB422"/>
<path d="M135.7 95.4C135.2 95.4 134.7 95 134.7 94.4C134.7 93.8 135.1 93.4 135.7 93.4C139.8 93.2 142.6 91.6 144.1 88.6C145.7 85.2 145 80.6 142.3 76.9C139.6 73.1 135.5 71.2 131.1 71.7C127.8 72.1 125 74.2 124 77C123.8 77.5 123.3 77.8 122.7 77.6C122.2 77.4 121.9 76.9 122.1 76.3C123.3 72.8 126.7 70.2 130.8 69.6C135.9 69 140.7 71.2 143.9 75.6C147 79.9 147.8 85.3 145.9 89.4C144.1 93.1 140.6 95.1 135.7 95.4C135.8 95.4 135.7 95.4 135.7 95.4Z" fill="#FFB422"/>
<path d="M147.4 99.8C145.7 99.8 143.9 99.6 141.7 99C141.2 98.9 140.8 98.3 141 97.8C141.1 97.3 141.7 96.9 142.2 97.1C147.3 98.4 151.6 97.9 154.5 95.6C157 93.7 158.4 90.5 158.4 86.8C158.4 74.2 146.8 63.6 136.9 62.9C128.3 62.3 120.6 67.6 119 75.3C118.9 75.8 118.4 76.2 117.8 76.1C117.3 76 116.9 75.5 117 74.9C118.8 66.3 127.4 60.2 137 60.9C150.2 61.8 160.4 75.6 160.4 86.8C160.4 91.1 158.7 94.8 155.7 97.2C154.1 98.5 151.4 99.8 147.4 99.8Z" fill="#FFB422"/>
<path d="M154 99.2C153.4 99.2 152.8 98.8 152.6 98.2C152.3 97.4 152.7 96.6 153.5 96.3C162.4 93 165.8 87.4 167.2 83.3C169 77.8 168 71.5 164.6 66.4C161.2 61.3 155.6 57.9 149.4 56.9C144.6 56.1 137.3 56.5 129.5 62.7C128.8 63.2 127.9 63.1 127.4 62.4C126.9 61.7 127 60.8 127.7 60.3C136.4 53.5 144.6 53.1 150 53.9C157 55 163.3 58.9 167.2 64.7C171.1 70.5 172.3 77.8 170.2 84.2C168.7 88.9 164.7 95.4 154.7 99.1C154.3 99.1 154.1 99.2 154 99.2Z" fill="#FFB422"/>
<path d="M26.2 112.4C13.5 112.4 7.4 107 5.9 102.4C2.1 90.1 0 74.4 0 58.3C0 50.3 0.5 42.4 1.5 34.9C1.6 34.1 2.4 33.5 3.2 33.6C4 33.7 4.6 34.5 4.5 35.3C3.5 42.7 3 50.4 3 58.3C3 74.1 5.1 89.5 8.8 101.5C10.5 106.9 19 109.4 26.2 109.4C33.6 109.4 41.9 106.9 43.6 101.5C47.3 89.5 49.4 74.1 49.4 58.3C49.4 54.3 49.3 50.3 49 46.4C48.9 45.6 49.6 44.9 50.4 44.8C51.2 44.7 51.9 45.4 52 46.2C52.3 50.2 52.4 54.2 52.4 58.3C52.4 74.4 50.3 90.1 46.5 102.4C45 107 38.8 112.4 26.2 112.4Z" fill="#C93E7F"/>
<path d="M26.2 44C11.8 44 0.5 38.3 0.5 31C0.5 30 0.6 29.7 1.5 26.3C2.1 24.3 2.9 21.2 4.3 16.1C4.4 15.6 5 15.2 5.5 15.4C6 15.5 6.4 16 6.2 16.6C4.9 21.7 4 24.8 3.5 26.8C2.6 30.1 2.6 30.3 2.6 31C2.6 37 13.4 42 26.3 42C39.2 42 49.9 37 49.9 31C49.9 30.3 49.9 30.1 48.9 26.8C48.3 24.8 47.5 21.7 46.1 16.6C46 16.1 46.3 15.5 46.8 15.4C47.3 15.3 47.9 15.6 48 16.1C49.3 21.1 50.2 24.3 50.7 26.3C51.6 29.7 51.7 30 51.7 31.1C51.9 38.3 40.6 44 26.2 44Z" fill="#C93E7F"/>
<path d="M32 10.4C31.4 10.4 30.9 10.4 30.4 10.3C29.9 10.2 29.5 9.69995 29.5 9.19995C29.6 8.69995 30.1 8.29995 30.6 8.29995C31.1 8.39995 31.5 8.39995 32 8.39995C35.7 8.39995 38.3 6.69995 38.3 5.19995C38.3 4.59995 38.7 4.19995 39.3 4.19995C39.9 4.19995 40.3 4.59995 40.3 5.19995C40.3 8.19995 36.7 10.4 32 10.4Z" fill="#C93E7F"/>
<path d="M26.2001 29C13.8001 29 4.1001 24 4.1001 17.7C4.1001 17.2 4.2001 16.6 4.3001 16.1C5.3001 12.4 9.9001 9.2 16.5001 7.5C17.0001 7.4 17.6001 7.69999 17.7001 8.19999C17.8001 8.69999 17.5001 9.29999 17.0001 9.39999C11.2001 10.8 7.1001 13.6 6.3001 16.5C6.2001 16.9 6.2001 17.2 6.2001 17.6C6.2001 22.6 15.4001 26.9 26.3001 26.9C37.2001 26.9 46.4001 22.6 46.4001 17.6C46.4001 17.2 46.4001 16.9 46.3001 16.5C45.7001 14.3 43.4001 12.3 39.9001 10.8C39.4001 10.6 39.2001 10 39.4001 9.5C39.5001 9 40.0001 8.8 40.5001 9C44.6001 10.8 47.3001 13.3 48.1001 16C48.2001 16.5 48.3001 17.1 48.3001 17.6C48.3001 24 38.6001 29 26.2001 29Z" fill="#C93E7F"/>
<path d="M32.0002 17.3C26.8002 17.3 22.7002 14.7 22.7002 11.5C22.7002 11.2 22.7002 11.2 23.0002 9.6C23.2002 8.7 23.4002 7.2 23.8002 4.6C24.2002 2 27.7002 0 32.0002 0C36.3002 0 39.8002 2 40.3002 4.7C40.7002 7.2 41.0002 8.7 41.1002 9.7C41.4002 11.2 41.4002 11.2 41.4002 11.6C41.4002 14.8 37.3002 17.3 32.0002 17.3ZM25.8002 5C25.4002 7.5 25.1002 9.1 25.0002 10C24.8002 11.4 24.8002 11.4 24.8002 11.5C24.8002 13.5 28.2002 15.3 32.1002 15.3C36.0002 15.3 39.4002 13.5 39.4002 11.5C39.4002 11.3 39.4002 11.3 39.2002 10C39.0002 9 38.7002 7.5 38.3002 5C38.1002 3.6 35.6002 2 32.0002 2C28.5002 2 26.0002 3.5 25.8002 5Z" fill="#C93E7F"/>
</g>
<defs>
<clipPath id="clip0">
<rect width="171" height="121.3" fill="white"/>
</clipPath>
</defs>
</svg>
