<svg width="120" height="119" viewBox="0 0 120 119" fill="none" xmlns="http://www.w3.org/2000/svg">
<g clip-path="url(#clip0)">
<path d="M77.2 119C76.9 119 76.6 118.8 76.4 118.6L71.9 112.6L65.4 116.4C65.1 116.6 64.8 116.6 64.5 116.5C64.2 116.4 64 116.2 63.9 115.9L61.5 108.8L54.2 110.4C53.9 110.5 53.6 110.4 53.4 110.2C53.2 110 53 109.7 53 109.4L52.9 101.9L45.5 101.2C45.2 101.2 44.9 101 44.8 100.8C44.7 100.6 44.6 100.2 44.7 100L46.9 92.8L40 89.8C39.7 89.7 39.5 89.3999 39.4 89.1999C39.3 88.8999 39.4 88.6 39.5 88.4L43.8 82.3L38.2 77.3C38 77.1 37.9 76.7999 37.9 76.5C37.9 76.2 38.1 75.8999 38.3 75.6999L44.3 71.1999L40.5 64.6999C40.3 64.3999 40.3 64.0999 40.4 63.7999C40.5 63.5 40.7 63.3 41 63.2L48.1 60.7999L46.5 53.5C46.4 53.2 46.5 52.9 46.7 52.7C46.9 52.5 47.2 52.2999 47.5 52.2999L55 52.2L55.7 44.7999C55.7 44.4999 55.9 44.1999 56.1 44.0999C56.3 43.8999 56.7 43.9 56.9 44L64.1 46.2L67.1 39.2999C67.2 38.9999 67.5 38.8 67.7 38.7C68 38.6 68.3 38.6999 68.5 38.7999L74.6 43.0999L79.6 37.5C79.8 37.3 80.1 37.2 80.4 37.2C80.7 37.2 81 37.3999 81.2 37.5999L85.7 43.5999L92.2 39.7999C92.5 39.5999 92.8 39.6 93.1 39.7C93.4 39.8 93.6 39.9999 93.7 40.2999L96.1 47.4L103.4 45.7999C103.7 45.6999 104 45.8 104.2 46C104.4 46.2 104.6 46.4999 104.6 46.7999L104.7 54.2999L112.1 55C112.4 55 112.7 55.2 112.8 55.4C112.9 55.6 113 56 112.9 56.2L110.7 63.4L117.6 66.4C117.9 66.5 118.1 66.7999 118.2 67C118.3 67.2999 118.2 67.6 118.1 67.8L113.8 73.9L119.4 78.9C119.6 79.1 119.7 79.3999 119.7 79.6999C119.7 79.9999 119.5 80.2999 119.3 80.5L113.3 85L117.1 91.5C117.3 91.7999 117.3 92.1 117.2 92.4C117.1 92.7 116.9 92.9 116.6 93L109.5 95.4L111.1 102.7C111.2 103 111.1 103.3 110.9 103.5C110.7 103.7 110.4 103.9 110.1 103.9L102.6 104L101.9 111.4C101.9 111.7 101.7 112 101.5 112.1C101.3 112.2 100.9 112.3 100.7 112.2L93.5 110L90.5 116.9C90.4 117.2 90.1 117.4 89.9 117.5C89.6 117.6 89.3 117.5 89.1 117.4L83 113.1L78 118.7C77.8 118.9 77.5 119 77.2 119ZM72.2 110.3C72.5 110.3 72.8 110.4 73 110.7L77.3 116.4L82.1 111.1C82.4 110.7 83 110.7 83.4 110.9L89.3 115L92.2 108.5C92.4 108 92.9 107.8 93.4 107.9L100.2 110L100.9 102.9C101 102.4 101.4 102 101.9 102L109 101.9L107.5 94.9C107.4 94.4 107.7 93.8999 108.2 93.6999L115 91.4L111.4 85.1999C111.1 84.7999 111.3 84.2 111.7 83.9L117.4 79.5999L112.1 74.8C111.7 74.5 111.7 73.9 111.9 73.5L116 67.5999L109.5 64.6999C109 64.4999 108.8 64 108.9 63.5L111 56.7L103.9 56C103.4 55.9 103 55.5 103 55L102.9 47.9L95.9 49.4C95.4 49.5 94.9 49.2 94.7 48.7L92.2 42L86 45.5999C85.6 45.8999 85 45.6999 84.7 45.2999L80.4 39.5999L75.6 45C75.3 45.4 74.7 45.4 74.3 45.2L68.4 41.0999L65.5 47.5999C65.3 48.0999 64.8 48.3 64.3 48.2L57.5 46.0999L56.8 53.2C56.7 53.7 56.3 54.0999 55.8 54.0999L48.7 54.2L50.2 61.2C50.3 61.7 50 62.2 49.5 62.4L42.7 64.6999L46.3 70.9C46.6 71.3 46.4 71.8999 46 72.1999L40.3 76.5L45.6 81.3C46 81.6 46 82.1999 45.8 82.5999L41.7 88.5L48.2 91.4C48.7 91.6 48.9 92.0999 48.8 92.5999L46.7 99.4L54 100C54.5 100.1 54.9 100.5 54.9 101L55 108.1L62 106.6C62.5 106.5 63 106.8 63.2 107.3L65.5 114.1L71.7 110.5C71.8 110.3 72 110.3 72.2 110.3Z" fill="#9BC045"/>
<path d="M43.2 112.6C32.8 112.6 23.4 108.8 15.9 101.4C3.50001 89.2 -0.999986 70.5 0.200014 57.4C2.50001 29.8 19.6 0 43.2 0C57.3 0 70.3 10.8 78.8 29.5C79.1 30.3 78.8 31.1 78.1 31.5C77.3 31.8 76.5 31.5 76.1 30.8C68.1 13.1 56.1 3 43.2 3C30.2 3 21.1 12.7 15.7 20.9C8.90001 31.1 4.30001 44.8 3.20001 57.6C2.10001 70 6.30001 87.7 18 99.3C25.9 107.1 36.1 110.6 47.5 109.4C48.3 109.3 49.1 109.9 49.1 110.7C49.2 111.5 48.6 112.3 47.8 112.3C46.3 112.5 44.7 112.6 43.2 112.6Z" fill="url(#paint0_linear)"/>
<path d="M80.5 90.1C79.5 90.1 78.4 89.7 77.7 88.9L74.7 85.8L72.2 88.7C71.5 89.5 70.5 90 69.4 90C68.3 90 67.3 89.6 66.5 88.8L55.4 77.1C54.8 76.5 54.8 75.6 55.4 75C56 74.4 56.9 74.4 57.5 75L68.7 86.7C68.9 86.9 69.2 87 69.3 87C69.4 87 69.7 87 69.9 86.7L73.5 82.6L87.2 66.9C87.7 66.3 88.7 66.2 89.3 66.8C89.9 67.3 90 68.3 89.4 68.9L76.7 83.5L79.9 86.8C80.1 87 80.4 87.1 80.5 87.1C80.6 87.1 80.9 87.1 81.1 86.8L98.4 67C98.9 66.4 99.9 66.3 100.5 66.9C101.1 67.4 101.2 68.4 100.6 69L83.4 88.8C82.7 89.6 81.6 90.1 80.5 90.1ZM71.3 81.5C70.9 81.5 70.5 81.3 70.2 81L66.5 77.2C65.9 76.6 65.9 75.7 66.5 75.1C67.1 74.5 68 74.5 68.6 75.1L72.3 78.9C72.9 79.5 72.9 80.4 72.3 81C72 81.4 71.6 81.5 71.3 81.5Z" fill="#9BC045"/>
</g>
<defs>
<linearGradient id="paint0_linear" x1="0.013031" y1="56.3" x2="78.9159" y2="56.3" gradientUnits="userSpaceOnUse">
<stop stop-color="#FFA722"/>
<stop offset="1" stop-color="#FFB422"/>
</linearGradient>
<clipPath id="clip0">
<rect width="119.8" height="119" fill="white"/>
</clipPath>
</defs>
</svg>
