<svg width="118" height="96" viewBox="0 0 118 96" fill="none" xmlns="http://www.w3.org/2000/svg">
<g clip-path="url(#clip0)">
<path d="M97.4998 95.9C92.9998 95.9 89.2998 92.2 89.2998 87.7C89.2998 83.2 92.9998 79.5 97.4998 79.5C102 79.5 105.7 83.2 105.7 87.7C105.7 92.2 102 95.9 97.4998 95.9ZM97.4998 82.4C94.5998 82.4 92.2998 84.8 92.2998 87.6C92.2998 90.4 94.6998 92.8 97.4998 92.8C100.3 92.8 102.7 90.4 102.7 87.6C102.7 84.8 100.4 82.4 97.4998 82.4Z" fill="#9BC045"/>
<path d="M21.1004 95.9C16.6004 95.9 12.9004 92.2 12.9004 87.7C12.9004 83.2 16.6004 79.5 21.1004 79.5C25.6004 79.5 29.3004 83.2 29.3004 87.7C29.3004 92.2 25.6004 95.9 21.1004 95.9ZM21.1004 82.4C18.2004 82.4 15.9004 84.8 15.9004 87.6C15.9004 90.4 18.3004 92.8 21.1004 92.8C23.9004 92.8 26.3004 90.4 26.3004 87.6C26.3004 84.8 24.0004 82.4 21.1004 82.4Z" fill="#9BC045"/>
<path d="M84.8002 89.2998H33.7002C32.9002 89.2998 32.2002 88.5998 32.2002 87.7998C32.2002 86.9998 32.9002 86.2998 33.7002 86.2998H84.8002C85.6002 86.2998 86.3002 86.9998 86.3002 87.7998C86.3002 88.5998 85.6002 89.2998 84.8002 89.2998Z" fill="#9BC045"/>
<path d="M13.1 89.2998H1.5C0.7 89.2998 0 88.5998 0 87.7998C0 86.9998 0.7 86.2998 1.5 86.2998H13.1C13.9 86.2998 14.6 86.9998 14.6 87.7998C14.6 88.5998 13.9 89.2998 13.1 89.2998Z" fill="#9BC045"/>
<path d="M112 89.1998H104.4C103.6 89.1998 102.9 88.4998 102.9 87.6998C102.9 86.8998 103.6 86.1998 104.4 86.1998H112C113.7 86.1998 115 84.7998 115 83.1998V77.5998C115 76.0998 114.6 74.5998 113.8 73.3998L106 60.2998H96.5996V81.3998C96.5996 82.1998 95.8996 82.8998 95.0996 82.8998C94.2996 82.8998 93.5996 82.1998 93.5996 81.3998V58.7998C93.5996 57.9998 94.2996 57.2998 95.0996 57.2998H106.9C107.4 57.2998 107.9 57.5998 108.2 57.9998L116.5 71.8998C117.5 73.5998 118.1 75.5998 118.1 77.6998V83.2998C118 86.4998 115.3 89.1998 112 89.1998Z" fill="#9BC045"/>
<path d="M74.5996 76.9998C70.9996 76.9998 67.7996 75.2998 65.5996 72.1998C65.0996 71.4998 65.2996 70.5998 65.9996 70.0998C66.6996 69.5998 67.5996 69.7998 68.0996 70.4998C69.1996 72.0998 71.2996 74.0998 74.5996 74.0998C80.5996 74.0998 83.2996 67.8998 83.2996 63.4998C83.2996 62.6998 83.9996 61.9998 84.7996 61.9998C85.5996 61.9998 86.2996 62.6998 86.2996 63.4998C86.2996 69.0998 82.5996 76.9998 74.5996 76.9998ZM54.9996 76.9998C50.8996 76.9998 47.2996 74.6998 45.1996 70.7998C43.0996 74.7998 39.4996 76.9998 35.3996 76.9998C31.2996 76.9998 27.6996 74.6998 25.5996 70.7998C23.4996 74.7998 19.8996 76.9998 15.7996 76.9998C12.4996 76.9998 9.59961 75.6998 7.49961 73.2998C5.69961 71.1998 3.69961 67.1998 4.29961 60.2998H1.59961C0.799609 60.2998 0.0996094 59.5998 0.0996094 58.7998C0.0996094 57.9998 0.799609 57.2998 1.59961 57.2998H2.19961L7.59961 45.4998C9.09961 42.2998 12.2996 40.2998 15.7996 40.2998H74.5996C78.0996 40.2998 81.2996 42.3998 82.7996 45.4998L83.2996 46.4998C83.5996 47.2998 83.2996 48.0998 82.5996 48.4998C81.7996 48.7998 80.9996 48.4998 80.5996 47.7998L80.0996 46.7998C79.0996 44.6998 76.9996 43.2998 74.6996 43.2998H15.7996C13.4996 43.2998 11.2996 44.6998 10.3996 46.7998L5.49961 57.2998H5.79961H32.7996C33.5996 57.2998 34.2996 57.9998 34.2996 58.7998C34.2996 59.5998 33.5996 60.2998 32.7996 60.2998H7.19961C6.69961 65.1998 7.59961 68.9998 9.69961 71.3998C11.1996 73.0998 13.3996 74.0998 15.7996 74.0998C19.9996 74.0998 22.1996 70.9998 23.0996 69.1998C23.5996 68.2998 24.5996 67.6998 25.5996 67.6998C26.6996 67.6998 27.5996 68.2998 28.0996 69.1998C28.9996 70.9998 31.1996 73.9998 35.3996 73.9998C39.5996 73.9998 41.7996 70.8998 42.6996 69.0998C43.1996 68.1998 44.1996 67.5998 45.1996 67.5998C46.1996 67.5998 47.1996 68.1998 47.6996 69.0998C48.5996 70.9998 50.7996 73.9998 54.9996 73.9998C59.7996 73.9998 62.3996 69.9998 63.2996 66.2998C63.4996 65.4998 64.2996 64.9998 65.0996 65.1998C65.8996 65.3998 66.3996 66.1998 66.1996 66.9998C65.0996 71.5998 61.4996 76.9998 54.9996 76.9998ZM88.6996 60.2998H37.1996C36.3996 60.2998 35.6996 59.5998 35.6996 58.7998C35.6996 57.9998 36.3996 57.2998 37.1996 57.2998H84.7996L82.2996 51.7998C81.9996 50.9998 82.2996 50.1998 82.9996 49.7998C83.7996 49.4998 84.5996 49.7998 84.9996 50.4998L88.0996 57.1998H88.6996C89.4996 57.1998 90.1996 57.8998 90.1996 58.6998C90.1996 59.4998 89.5996 60.2998 88.6996 60.2998Z" fill="#FFB422"/>
<path d="M74.5996 36.8C70.9996 36.8 67.7996 35.1 65.5996 32C65.0996 31.3 65.2996 30.4 65.9996 29.9C66.6996 29.4 67.5996 29.6 68.0996 30.3C69.1996 31.9 71.2996 33.9 74.5996 33.9C80.5996 33.9 83.2996 27.7 83.2996 23.3C83.2996 22.5 83.9996 21.8 84.7996 21.8C85.5996 21.8 86.2996 22.5 86.2996 23.3C86.2996 28.8 82.5996 36.8 74.5996 36.8ZM54.9996 36.8C50.8996 36.8 47.2996 34.5 45.1996 30.6C43.0996 34.6 39.4996 36.8 35.3996 36.8C31.2996 36.8 27.6996 34.5 25.5996 30.6C23.4996 34.6 19.8996 36.8 15.7996 36.8C12.4996 36.8 9.59961 35.5 7.49961 33.1C5.49961 30.9 3.59961 27 4.19961 20H1.59961C0.799609 20 0.0996094 19.3 0.0996094 18.5C0.0996094 17.7 0.799609 17 1.59961 17H2.19961L7.59961 5.2C9.09961 2.1 12.2996 0 15.7996 0H74.5996C78.0996 0 81.2996 2.1 82.7996 5.2L83.2996 6.2C83.5996 7 83.2996 7.8 82.5996 8.2C81.7996 8.5 80.9996 8.2 80.5996 7.5L80.0996 6.5C78.9996 4.4 76.8996 3 74.5996 3H15.7996C13.4996 3 11.2996 4.4 10.3996 6.5L5.49961 17H5.79961H32.7996C33.5996 17 34.2996 17.7 34.2996 18.5C34.2996 19.3 33.6996 20 32.8996 20H7.19961C6.69961 24.9 7.59961 28.7 9.69961 31.1C11.1996 32.8 13.3996 33.8 15.7996 33.8C19.9996 33.8 22.1996 30.7 23.0996 28.9C23.5996 28 24.5996 27.4 25.5996 27.4C26.6996 27.4 27.5996 28 28.0996 28.9C28.9996 30.7 31.1996 33.8 35.3996 33.8C39.5996 33.8 41.7996 30.7 42.6996 28.9C43.1996 28 44.1996 27.4 45.1996 27.4C46.1996 27.4 47.1996 28 47.6996 28.9C48.5996 30.7 50.7996 33.8 54.9996 33.8C59.7996 33.8 62.3996 29.8 63.2996 26.1C63.4996 25.3 64.2996 24.8 65.0996 25C65.8996 25.2 66.3996 26 66.1996 26.8C65.0996 31.4 61.4996 36.8 54.9996 36.8ZM88.6996 20H37.1996C36.3996 20 35.6996 19.3 35.6996 18.5C35.6996 17.7 36.3996 17 37.1996 17H84.7996L82.2996 11.5C81.9996 10.7 82.2996 9.9 82.9996 9.5C83.7996 9.2 84.5996 9.5 84.9996 10.2L88.0996 16.9H88.6996C89.4996 16.9 90.1996 17.6 90.1996 18.4C90.1996 19.2 89.5996 20 88.6996 20Z" fill="#FFB422"/>
<path d="M109.5 73.1001H99C98.4 73.1001 98 72.7001 98 72.1001C98 71.5001 98.4 71.1001 99 71.1001H109.5C110.1 71.1001 110.5 71.5001 110.5 72.1001C110.5 72.7001 110 73.1001 109.5 73.1001Z" fill="#9BC045"/>
</g>
<defs>
<clipPath id="clip0">
<rect width="118" height="95.9" fill="white"/>
</clipPath>
</defs>
</svg>
