<svg width="104" height="92" viewBox="0 0 104 92" fill="none" xmlns="http://www.w3.org/2000/svg">
<g clip-path="url(#clip0)">
<path d="M84.9998 91.2C84.5998 91.2 84.1998 91.1 83.8998 90.8L55.1998 62C54.5998 61.4 54.5998 60.5 55.1998 59.9C55.7998 59.3 56.6998 59.3 57.2998 59.9L85.9998 88.6C86.5998 89.2 86.5998 90.1 85.9998 90.7C85.7998 91 85.3998 91.2 84.9998 91.2ZM49.3998 55.6C48.9998 55.6 48.5998 55.5 48.2998 55.2L37.5998 44.4C35.4998 42.3 35.0998 39.1 36.5998 36.6C41.2998 28.7 36.1998 18.9 31.1998 14.7C24.4998 9.00003 11.9998 4.40003 5.89981 10.5C-0.200191 16.6 4.39981 29.2 10.0998 35.9C13.8998 40.4 21.4998 44.3 28.1998 42.8C28.9998 42.6 29.7998 43.1 29.9998 43.9C30.1998 44.7 29.6998 45.5 28.8998 45.7C20.8998 47.5 12.2998 43.1 7.79981 37.8C0.399808 29.1 -3.20019 15.3 3.79981 8.40003C10.7998 1.40003 24.4998 5.00003 33.1998 12.4C39.9998 18.2 44.2998 29.6 39.1998 38.1C38.3998 39.5 38.5998 41.2 39.6998 42.3L50.4998 53C51.0998 53.6 51.0998 54.5 50.4998 55.1C50.1998 55.4 49.7998 55.6 49.3998 55.6Z" fill="#FFB422"/>
<path d="M13.8 91.2C13.4 91.2 13 91.1 12.7 90.8C12.1 90.2 12.1 89.3 12.7 88.7L90.1 11.3C90.7 10.7 91.6 10.7 92.2 11.3C92.8 11.9 92.8 12.8 92.2 13.4L65.4 40.2C67.9 42.3 71 43.2 74.4 43.1C80.4 42.8 85.9 39.3 88.8 35.9C92.7 31.2 96.8 26.6 100.9 22.1C101.5 21.5 102.4 21.4 103 22C103.6 22.6 103.7 23.5 103.1 24.1C99 28.6 95 33.2 91.1 37.8C87.1 42.6 80.6 45.8 74.5 46.1C70.2 46.3 66.4 45 63.2 42.4L50.2 55.4L14.9 90.7C14.6 91 14.2 91.2 13.8 91.2ZM59.3 34.6C58.6 34.6 58 34.1 57.8 33.4C56 25.4 60.4 16.8 65.7 12.3C70.3 8.40002 74.9 4.40002 79.4 0.300022C80 -0.299978 81 -0.199978 81.5 0.400022C82 1.10002 82 2.10002 81.4 2.60002C76.9 6.70002 72.3 10.7 67.6 14.7C63.1 18.5 59.2 26.1 60.7 32.8C60.9 33.6 60.4 34.4 59.6 34.6C59.5 34.6 59.4 34.6 59.3 34.6Z" fill="#D0724E"/>
</g>
<defs>
<clipPath id="clip0">
<rect width="103.5" height="91.2" fill="white"/>
</clipPath>
</defs>
</svg>
