<svg width="152" height="152" viewBox="0 0 152 152" fill="none" xmlns="http://www.w3.org/2000/svg">
<path d="M75.9986 128.902C66.3299 128.902 57.4901 125.311 50.5839 118.543C38.8434 106.941 34.6996 89.3991 35.8046 77.1061C36.9096 64.3988 41.4677 50.8626 48.0976 40.9177C53.4844 32.7684 62.7387 22.9617 75.8605 22.9617C88.9822 22.9617 98.2365 32.7684 103.623 40.9177C110.253 50.8626 114.811 64.3988 115.916 77.1061C117.021 89.3991 112.878 106.941 101.137 118.543C94.5072 125.311 85.8053 128.902 75.9986 128.902Z" stroke="url(#paint0_linear_1255_3339)" stroke-width="3" stroke-miterlimit="10" stroke-linecap="round" stroke-linejoin="round"/>
<path d="M76.0039 13.293V1" stroke="#9BC044" stroke-width="2" stroke-miterlimit="10" stroke-linecap="round" stroke-linejoin="round"/>
<path d="M60.2553 16.8843L56.6641 3.48633" stroke="#9BC044" stroke-width="2" stroke-miterlimit="10" stroke-linecap="round" stroke-linejoin="round"/>
<path d="M47.2721 26.2766L38.5703 10.9448" stroke="#9BC044" stroke-width="2" stroke-miterlimit="10" stroke-linecap="round" stroke-linejoin="round"/>
<path d="M38.4307 38.2934L22.9609 22.9617" stroke="#9BC044" stroke-width="2" stroke-miterlimit="10" stroke-linecap="round" stroke-linejoin="round"/>
<path d="M32.3531 50.7245L11.082 38.4315" stroke="#9BC044" stroke-width="2" stroke-miterlimit="10" stroke-linecap="round" stroke-linejoin="round"/>
<path d="M28.3452 63.1556L3.62109 56.5256" stroke="#9BC044" stroke-width="2" stroke-miterlimit="10" stroke-linecap="round" stroke-linejoin="round"/>
<path d="M26.2766 76.0012H1" stroke="#9BC044" stroke-width="2" stroke-miterlimit="10" stroke-linecap="round" stroke-linejoin="round"/>
<path d="M26.5496 89.1229L3.62109 95.3385" stroke="#9BC044" stroke-width="2" stroke-miterlimit="10" stroke-linecap="round" stroke-linejoin="round"/>
<path d="M29.8669 102.659L11.082 113.433" stroke="#9BC044" stroke-width="2" stroke-miterlimit="10" stroke-linecap="round" stroke-linejoin="round"/>
<path d="M36.0827 115.781L22.9609 128.902" stroke="#9BC044" stroke-width="2" stroke-miterlimit="10" stroke-linecap="round" stroke-linejoin="round"/>
<path d="M46.1671 127.659L38.5703 140.919" stroke="#9BC044" stroke-width="2" stroke-miterlimit="10" stroke-linecap="round" stroke-linejoin="round"/>
<path d="M59.9791 135.809L56.6641 148.378" stroke="#9BC044" stroke-width="2" stroke-miterlimit="10" stroke-linecap="round" stroke-linejoin="round"/>
<path d="M91.8867 16.8843L95.478 3.48633" stroke="#9BC044" stroke-width="2" stroke-miterlimit="10" stroke-linecap="round" stroke-linejoin="round"/>
<path d="M104.734 26.2766L113.574 10.9448" stroke="#9BC044" stroke-width="2" stroke-miterlimit="10" stroke-linecap="round" stroke-linejoin="round"/>
<path d="M113.57 38.2934L129.04 22.9617" stroke="#9BC044" stroke-width="2" stroke-miterlimit="10" stroke-linecap="round" stroke-linejoin="round"/>
<path d="M119.645 50.7245L140.916 38.4315" stroke="#9BC044" stroke-width="2" stroke-miterlimit="10" stroke-linecap="round" stroke-linejoin="round"/>
<path d="M123.656 63.1556L148.518 56.5256" stroke="#9BC044" stroke-width="2" stroke-miterlimit="10" stroke-linecap="round" stroke-linejoin="round"/>
<path d="M125.863 76.0012H151.002" stroke="#9BC044" stroke-width="2" stroke-miterlimit="10" stroke-linecap="round" stroke-linejoin="round"/>
<path d="M125.453 89.1229L148.52 95.3385" stroke="#9BC044" stroke-width="2" stroke-miterlimit="10" stroke-linecap="round" stroke-linejoin="round"/>
<path d="M122.273 102.659L140.92 113.433" stroke="#9BC044" stroke-width="2" stroke-miterlimit="10" stroke-linecap="round" stroke-linejoin="round"/>
<path d="M115.918 115.781L129.04 128.902" stroke="#9BC044" stroke-width="2" stroke-miterlimit="10" stroke-linecap="round" stroke-linejoin="round"/>
<path d="M105.832 127.659L113.567 140.919" stroke="#9BC044" stroke-width="2" stroke-miterlimit="10" stroke-linecap="round" stroke-linejoin="round"/>
<path d="M92.0195 135.809L95.4726 148.378" stroke="#9BC044" stroke-width="2" stroke-miterlimit="10" stroke-linecap="round" stroke-linejoin="round"/>
<path d="M76.0039 138.571V150.864" stroke="#9BC044" stroke-width="2" stroke-miterlimit="10" stroke-linecap="round" stroke-linejoin="round"/>
<path d="M63.5702 105.145V50.7245H81.8026C89.8137 50.7245 96.1675 57.2163 96.1675 65.0893C96.1675 72.9624 89.6756 79.4542 81.8026 79.4542H56.6641" stroke="#9BC044" stroke-width="2" stroke-miterlimit="10" stroke-linecap="round" stroke-linejoin="round"/>
<path d="M56.8008 88.5704H84.7017" stroke="#9BC044" stroke-width="2" stroke-miterlimit="10" stroke-linecap="round" stroke-linejoin="round"/>
<defs>
<linearGradient id="paint0_linear_1255_3339" x1="118.409" y1="75.9437" x2="33.65" y2="75.9437" gradientUnits="userSpaceOnUse">
<stop stop-color="#F7A52B"/>
<stop offset="1" stop-color="#F9B32A"/>
</linearGradient>
</defs>
</svg>
