<svg width="116" height="98" viewBox="0 0 116 98" fill="none" xmlns="http://www.w3.org/2000/svg">
<g clip-path="url(#clip0)">
<path d="M93.6 48.4C92.5 48.4 91.4 48.3 90.3 48.2C89.5 48.1 88.9 47.3 89 46.5C89.1 45.7 89.9 45.1 90.7 45.2C96.9 46 102.8 44.1 107 40C114.8 32.2 114 18.8 105.3 10.1C101.1 5.90003 95.6 3.40003 89.9 3.10003C84.3 2.80003 79.1 4.70003 75.4 8.50003C70.6 13.3 68.9 20.4 70.7 27.5C70.9 28.3 70.4 29.1 69.6 29.3C68.8 29.5 68 29 67.8 28.2C65.7 20.1 67.7 11.9 73.2 6.30003C77.7 1.90003 83.6 -0.299973 90.1 2.65799e-05C96.5 0.300027 102.7 3.10003 107.4 7.90003C117.3 17.8 118 33.1 109.1 42.1C105.1 46.2 99.5 48.4 93.6 48.4Z" fill="#FFB422"/>
<path d="M45.9 29.9C45.3 29.9 44.7 29.5 44.5 28.9C44.2 28.1 44.6 27.3 45.4 27C50.1 25.2 55.2 24.4 60.3 24.6C61.1 24.6 61.8 25.3 61.7 26.2C61.7 27 60.9 27.7 60.1 27.6C55.5 27.4 50.7 28.1 46.4 29.8C46.3 29.9 46.1 29.9 45.9 29.9Z" fill="#FFB422"/>
<path d="M21.8001 48.4C15.9001 48.4 10.4001 46.2 6.20012 42.1C-2.79988 33.1 -1.99988 17.8 7.90012 7.90002C17.8001 -1.99998 33.1001 -2.69998 42.1001 6.20002C47.8001 11.9 49.8001 20.4 47.4001 28.7C47.2001 29.5 46.3001 30 45.5001 29.7C44.7001 29.5 44.2001 28.6 44.5001 27.8C46.6001 20.5 45.0001 13.2 40.0001 8.20002C32.2001 0.400023 18.8001 1.20002 10.1001 9.90002C1.30012 18.8 0.600117 32.2 8.40012 40C14.0001 45.6 22.7001 47 30.7001 43.5C31.5001 43.2 32.3001 43.5 32.7001 44.3C33.0001 45.1 32.7001 45.9 31.9001 46.3C28.6001 47.7 25.2001 48.4 21.8001 48.4Z" fill="#FFB422"/>
<path d="M58.5 98C45.9 98 34.3 91.6 27.6 81C20.8 70.3 19.9 57.1 25.3 45.7C25.7 44.9 26.5 44.6 27.3 45C28.1 45.4 28.4 46.2 28 47C23.1 57.5 23.9 69.6 30.1 79.4C36.3 89.2 46.9 95 58.5 95C70.4 95 81.1 88.9 87.3 78.8C93.5 68.6 93.9 56.2 88.4 45.7C88 45 88.3 44.1 89 43.7C89.7 43.3 90.6 43.6 91 44.3C97 55.8 96.6 69.3 89.8 80.4C83.1 91.4 71.4 98 58.5 98Z" fill="#FFB422"/>
</g>
<defs>
<clipPath id="clip0">
<rect width="115.4" height="98" fill="white"/>
</clipPath>
</defs>
</svg>
