<svg width="82" height="103" viewBox="0 0 82 103" fill="none" xmlns="http://www.w3.org/2000/svg">
<g clip-path="url(#clip0)">
<path d="M63.5001 102.5C62.7001 102.5 62.0001 101.8 62.0001 101V49.4C62.0001 46.5 64.0001 43.9 66.9001 43.2C72.1001 41.9 79.5001 34.8 78.6001 23.9C77.8001 15.1 72.2001 2.99998 63.5001 2.99998C54.9001 2.99998 49.2001 15.1 48.5001 23.9C48.0001 29.7 50.6001 37.9 56.4001 41.6C57.1001 42 57.3001 43 56.9001 43.7C56.5001 44.4 55.5001 44.6 54.8001 44.2C47.9001 39.8 44.9001 30.6 45.5001 23.7C46.5001 12.3 53.6001 0.0999756 63.5001 0.0999756C73.4001 0.0999756 80.5001 12.4 81.5001 23.7C82.3001 32.6 77.2001 43.7 67.6001 46.2C66.1001 46.6 65.0001 47.9 65.0001 49.5V101C65.0001 101.8 64.4001 102.5 63.5001 102.5Z" fill="#FFB422"/>
<path d="M18.1002 102.5C17.3002 102.5 16.6002 101.8 16.6002 101V5.5C16.6002 4.7 17.3002 4 18.1002 4C18.9002 4 19.6002 4.7 19.6002 5.5V43.5C22.9002 43.2 25.7002 41.7 28.0002 39.2C32.0002 34.8 33.5002 28.4 33.1002 23.9C32.6002 17.8 32.2002 11.7 31.9002 5.6C31.9002 4.8 32.5002 4.1 33.3002 4C34.1002 4 34.8002 4.6 34.9002 5.4C35.2002 11.5 35.6002 17.6 36.1002 23.6C36.6002 29.8 34.3002 36.7 30.2002 41.2C27.3002 44.3 23.7002 46.2 19.6002 46.5V101C19.6002 101.8 18.9002 102.5 18.1002 102.5ZM10.2002 44.3C9.90022 44.3 9.60022 44.2 9.40022 44.1C2.50022 39.7 -0.499782 30.5 0.100218 23.6C0.600218 17.6 1.00022 11.4 1.30022 5.4C1.30022 4.7 2.00022 4 2.80022 4.1C3.60022 4.1 4.30022 4.8 4.20022 5.7C3.90022 11.7 3.50022 17.9 3.00022 24C2.50022 29.8 5.10022 38 10.9002 41.7C11.6002 42.1 11.8002 43.1 11.4002 43.8C11.2002 44.1 10.7002 44.3 10.2002 44.3Z" fill="#D0724E"/>
</g>
<defs>
<clipPath id="clip0">
<rect width="81.6" height="102.5" fill="white"/>
</clipPath>
</defs>
</svg>
