<svg width="123" height="121" viewBox="0 0 123 121" fill="none" xmlns="http://www.w3.org/2000/svg">
<g clip-path="url(#clip0)">
<path d="M61.3001 46.1C58.1001 46.1 55.3001 44.8 53.1001 42.4C50.4001 39.4 48.8001 34.8 49.2001 30.7C49.8001 23.1 54.6001 15 61.3001 15C68.0001 15 72.8001 23.2 73.4001 30.7C73.8001 34.8 72.2001 39.4 69.5001 42.4C67.3001 44.8 64.5001 46.1 61.3001 46.1ZM61.3001 18C56.5001 18 52.7001 24.7 52.1001 31C51.9001 33.7 52.7001 37.7 55.2001 40.4C56.8001 42.2 58.9001 43.1 61.2001 43.1C63.5001 43.1 65.6001 42.2 67.2001 40.4C69.7001 37.7 70.6001 33.7 70.3001 31C69.9001 24.7 66.1001 18 61.3001 18Z" fill="#FFB422"/>
<path d="M39.0999 46.9C37.5999 46.9 36.1999 46.5 34.8999 45.6C32.4999 44.1 30.6999 41.3 30.1999 38.4C29.3999 33.9 30.5999 27.1 35.5999 25.7C40.6999 24.3 45.0999 29.7 46.6999 34C47.6999 36.7 47.4999 40.1 46.1999 42.6C45.0999 44.6 43.3999 46 41.2999 46.6C40.4999 46.8 39.7999 46.9 39.0999 46.9ZM33.0999 37.9C33.3999 39.6 34.5999 41.8 36.4999 43.1C37.6999 43.9 38.9999 44.1 40.3999 43.7C41.7999 43.3 42.7999 42.5 43.4999 41.2C44.5999 39.2 44.3999 36.6 43.8999 35C42.5999 31.4 39.1999 27.8 36.3999 28.6C33.5999 29.4 32.4999 34.1 33.0999 37.9Z" fill="#FFB422"/>
<path d="M84.1001 46.1C83.5001 46.1 82.9001 46 82.3001 45.9C80.1001 45.4 78.3001 44.1 77.2001 42.1C75.8001 39.7 75.5001 36.3 76.3001 33.6C77.7001 29.3 81.9001 23.7 87.0001 24.9C92.1001 26.1 93.5001 32.9 92.9001 37.4C92.5001 40.3 90.8001 43.1 88.4001 44.7C87.2001 45.6 85.7001 46.1 84.1001 46.1ZM85.8001 27.7C83.2001 27.7 80.3001 31.1 79.2001 34.5C78.7001 36.1 78.7001 38.7 79.8001 40.6C80.5001 41.9 81.6001 42.7 83.0001 43C84.4001 43.3 85.7001 43.1 86.9001 42.2C88.8001 40.9 89.9001 38.6 90.1001 36.9C90.6001 33.1 89.3001 28.4 86.5001 27.8C86.2001 27.7 86.0001 27.7 85.8001 27.7Z" fill="#FFB422"/>
<path d="M61.1999 121C45.1999 121 29.1999 119.2 23.7999 115.5C13.2999 107.4 -3.10008 56.7 0.499919 44.1C4.99992 31.8 48.0999 0.5 61.1999 0C61.1999 0 61.1999 0 61.2999 0C74.3999 0.5 117.5 31.8 122 44.1C125.6 56.8 109.2 107.4 98.8999 115.5C93.2999 119.1 77.1999 121 61.1999 121ZM61.1999 2C48.8999 2.5 6.59992 33.2 2.39992 44.8C-1.00008 56.6 15.1999 106.3 24.8999 113.9C34.9999 120.7 87.3999 120.7 97.5999 113.9C107.2 106.4 123.4 56.6 120 44.8C115.8 33.2 73.5999 2.5 61.1999 2Z" fill="#D0724E"/>
<path d="M28.1999 112.2C27.8999 112.2 27.6999 112.1 27.4999 111.9C27.1999 111.5 27.0999 111 27.3999 110.6L60.3999 67.7C60.6999 67.3 61.3999 67.2 61.7999 67.5C62.1999 67.8 62.2999 68.5 61.9999 68.9L32.5999 107.2L60.6999 88.9C61.1999 88.6 61.7999 88.7 62.0999 89.2C62.3999 89.7 62.2999 90.3 61.7999 90.6L28.7999 112.1C28.5999 112.1 28.3999 112.2 28.1999 112.2Z" fill="#D0724E"/>
<path d="M94.5 112.2C94.3 112.2 94.1 112.1 94 112L61 90.6C60.5 90.3 60.4 89.7 60.7 89.2C61 88.7 61.6 88.6 62.1 88.9L90.2 107.2L60.8 68.9C60.5 68.5 60.5 67.8 61 67.5C61.4 67.2 62.1 67.2 62.4 67.7L95.4 110.6C95.7 111 95.7 111.5 95.3 111.9C95.1 112.1 94.8 112.2 94.5 112.2Z" fill="#D0724E"/>
<path d="M61.5 69.3C61.4001 69.3 61.4 69.3 61.3 69.3C61.1 69.3 61 69.2999 60.8 69.1999L6.00005 48.2C5.50005 48 5.20005 47.4 5.40005 46.9C5.60005 46.4 6.20005 46.1 6.70005 46.3C33.2 56.4 89.3 56.4 115.9 46.3C116.4 46.1 117 46.4 117.2 46.9C117.4 47.4 117.1 48 116.6 48.2L61.8 69.1999C61.8 69.2999 61.7001 69.3 61.5 69.3ZM23.9 52.9L61.4001 67.1999L98.9 52.9C76.3 56.9 46.5 56.9 23.9 52.9Z" fill="#D0724E"/>
</g>
<defs>
<clipPath id="clip0">
<rect width="122.4" height="121" fill="white"/>
</clipPath>
</defs>
</svg>
