<svg width="116" height="152" viewBox="0 0 116 152" fill="none" xmlns="http://www.w3.org/2000/svg">
<path d="M58.044 114.088C88.9962 114.088 114.088 88.9963 114.088 58.044C114.088 27.0918 88.9962 2 58.044 2C27.0917 2 2 27.0918 2 58.044C2 88.9963 27.0917 114.088 58.044 114.088Z" stroke="url(#paint0_linear_1255_3269)" stroke-width="3" stroke-miterlimit="10" stroke-linecap="round" stroke-linejoin="round"/>
<path d="M58.276 98.5213C65.6599 98.5213 71.6457 92.5354 71.6457 85.1513C71.6457 77.7673 65.6599 71.7814 58.276 71.7814C50.8921 71.7814 44.9062 77.7673 44.9062 85.1513C44.9062 92.5354 50.8921 98.5213 58.276 98.5213Z" stroke="#9BC044" stroke-width="2" stroke-miterlimit="10" stroke-linecap="round" stroke-linejoin="round"/>
<path d="M58.043 71.5971V58.0439" stroke="#9BC044" stroke-width="2" stroke-miterlimit="10" stroke-linecap="round" stroke-linejoin="round"/>
<path d="M81.4832 57.8706C88.8673 57.8706 94.8532 51.8846 94.8532 44.5005C94.8532 37.1163 88.8673 31.1302 81.4832 31.1302C74.0992 31.1302 68.1133 37.1163 68.1133 44.5005C68.1133 51.8846 74.0992 57.8706 81.4832 57.8706Z" stroke="#9BC044" stroke-width="2" stroke-miterlimit="10" stroke-linecap="round" stroke-linejoin="round"/>
<path d="M69.9477 51.0931L58.043 58.0528" stroke="#9BC044" stroke-width="2" stroke-miterlimit="10" stroke-linecap="round" stroke-linejoin="round"/>
<path d="M34.6355 57.8706C42.0194 57.8706 48.0053 51.8846 48.0053 44.5005C48.0053 37.1163 42.0194 31.1302 34.6355 31.1302C27.2515 31.1302 21.2656 37.1163 21.2656 44.5005C21.2656 51.8846 27.2515 57.8706 34.6355 57.8706Z" stroke="#9BC044" stroke-width="2" stroke-miterlimit="10" stroke-linecap="round" stroke-linejoin="round"/>
<path d="M46.2227 51.0931L58.127 58.0528" stroke="#9BC044" stroke-width="2" stroke-miterlimit="10" stroke-linecap="round" stroke-linejoin="round"/>
<path d="M29.8225 151.812C28.7237 151.812 27.991 151.629 27.2584 151.263C26.5258 150.896 25.9764 150.347 25.6101 149.614C25.2438 148.882 24.8775 148.149 24.6943 147.417C24.5112 146.684 24.3281 145.768 24.3281 144.669C24.3281 142.655 24.6944 141.189 25.2439 140.091C25.7933 138.992 26.8921 138.076 28.3573 137.526L30.5551 136.611C31.1045 136.428 31.4709 136.244 31.654 136.061C31.8371 135.878 31.8371 135.695 31.8371 135.512V135.146H34.5843V136.244C34.5843 136.611 34.5844 136.977 34.4012 137.343C34.2181 137.526 34.0348 137.893 33.8517 138.076C33.4854 138.259 33.3023 138.442 33.1192 138.442C32.936 138.625 32.5696 138.625 32.0202 138.809L29.6393 139.724C27.991 140.457 27.2584 141.556 27.2584 143.021C28.1742 141.922 29.273 141.373 30.9214 141.373C32.3865 141.373 33.4855 141.922 34.4012 142.838C35.3169 143.754 35.6831 145.036 35.6831 146.501C35.6831 148.149 35.1338 149.431 34.0349 150.347C32.936 151.263 31.4709 151.812 29.8225 151.812ZM27.0753 146.684C27.0753 147.6 27.2584 148.332 27.8078 148.882C28.3573 149.431 28.9068 149.614 29.8225 149.614C30.5551 149.614 31.2877 149.431 31.8371 148.882C32.3865 148.332 32.5697 147.6 32.5697 146.684C32.5697 145.768 32.3865 145.036 31.8371 144.486C31.2877 143.937 30.7383 143.754 29.8225 143.754C29.0899 143.754 28.3573 143.937 27.8078 144.486C27.2584 145.036 27.0753 145.768 27.0753 146.684Z" fill="#9BC044"/>
<path d="M36.1523 146.137C36.1523 144.489 36.7017 143.024 37.8006 141.925C38.8995 140.826 40.1817 140.276 42.0132 140.276C43.4784 140.276 44.7604 140.826 45.6762 141.742C46.5919 142.657 46.9581 143.939 46.9581 145.588C46.9581 145.771 46.9581 146.137 46.9581 146.503H39.2659C39.2659 147.419 39.6322 148.152 40.3648 148.701C41.0974 149.251 41.83 149.434 42.7457 149.434C43.8446 149.434 44.9435 149.068 46.0424 148.152L47.1414 150.166C46.5919 150.716 45.8592 151.082 45.1266 151.265C44.394 151.632 43.4783 151.632 42.7457 151.632C40.9142 151.632 39.4491 151.082 38.3502 149.983C36.7018 149.068 36.1523 147.786 36.1523 146.137ZM39.0827 144.855H44.0278C44.0278 144.123 43.8446 143.573 43.2951 143.024C42.9288 142.657 42.3795 142.291 41.6469 142.291C40.9143 142.291 40.3648 142.474 39.8154 143.024C39.2659 143.573 39.2659 143.939 39.0827 144.855Z" fill="#9BC044"/>
<path d="M47.9727 151.823V149.442C48.7053 149.442 49.2548 148.893 49.8042 147.794C50.1705 146.695 50.3537 145.413 50.3537 143.765V142.849H49.0716V140.468H56.9474C57.4969 140.468 57.8631 140.651 58.0463 140.834C58.2294 141.017 58.4126 141.384 58.4126 141.933V148.893C58.4126 149.259 58.5958 149.442 58.9621 149.442H59.8779V151.823H57.1305C56.581 151.823 56.2148 151.64 56.0316 151.457C55.8484 151.274 55.6653 150.907 55.6653 150.358V143.581C55.6653 143.215 55.4821 143.032 55.1158 143.032H52.9179V143.948C52.9179 144.863 52.9178 145.779 52.7347 146.695C52.5515 147.611 52.3684 148.343 52.0021 149.259C51.6358 150.175 51.0864 150.724 50.5369 151.274C49.8043 151.457 49.0716 151.823 47.9727 151.823Z" fill="#9BC044"/>
<path d="M62.5034 150.35C61.4045 149.251 60.6719 147.786 60.6719 146.137C60.6719 144.489 61.2213 143.024 62.5034 141.925C63.6023 140.826 65.0675 140.276 66.899 140.276C68.5474 140.276 70.0125 140.826 71.2946 141.925C72.3935 143.024 73.1261 144.489 73.1261 146.137C73.1261 147.786 72.5766 149.251 71.2946 150.35C70.1957 151.449 68.7305 151.998 66.899 151.998C65.0675 151.998 63.6023 151.449 62.5034 150.35ZM63.4191 146.137C63.4191 147.236 63.7854 147.969 64.3349 148.701C65.0675 149.434 65.8001 149.617 66.7158 149.617C67.6316 149.617 68.3641 149.251 69.0967 148.701C69.8293 147.969 70.0125 147.236 70.0125 146.137C70.0125 145.038 69.6462 144.306 69.0967 143.573C68.3641 142.841 67.6316 142.657 66.7158 142.657C65.8001 142.657 65.0675 143.024 64.3349 143.573C63.7854 144.123 63.4191 145.038 63.4191 146.137Z" fill="#9BC044"/>
<path d="M75.7073 151.637V143.212C75.7073 142.846 75.5241 142.663 75.1579 142.663H74.2422V140.282H76.9892C77.5387 140.282 77.9049 140.465 78.088 140.648C78.2712 140.831 78.4543 141.197 78.4543 141.747V144.494H79.1869C79.7363 144.494 80.1025 144.311 80.2857 143.945L82.6664 140.099H85.7798L82.8496 144.494C82.6665 144.677 82.6665 144.86 82.4833 145.044C82.3002 145.227 82.3002 145.227 82.117 145.41H81.934C82.3002 145.593 82.6665 145.776 82.8496 146.326L84.1315 148.523C84.3146 148.89 84.6809 148.89 85.0472 148.89H85.7798V151.271H83.7653C83.2159 151.271 82.8496 151.271 82.6664 151.088C82.4833 150.904 82.1171 150.721 81.934 150.355L80.1026 147.058C79.9195 146.692 79.5532 146.692 79.1869 146.692H78.4543V151.271H75.7073V151.637Z" fill="#9BC044"/>
<defs>
<linearGradient id="paint0_linear_1255_3269" x1="-0.742491" y1="57.9719" x2="116.849" y2="57.9719" gradientUnits="userSpaceOnUse">
<stop stop-color="#F7A52B"/>
<stop offset="1" stop-color="#F9B32A"/>
</linearGradient>
</defs>
</svg>
