<svg width="161" height="89" viewBox="0 0 161 89" fill="none" xmlns="http://www.w3.org/2000/svg">
<g clip-path="url(#clip0)">
<path d="M48.6999 46.3C47.2999 62.8 57.6999 87.1 80.2999 87.1C102.9 87.1 113.3 62.8 111.9 46.3C110.3 27.1 98.1999 3.59998 80.2999 3.59998C62.3999 3.59998 50.2999 27.1 48.6999 46.3Z" stroke="#FFB422" stroke-width="3" stroke-miterlimit="10" stroke-linecap="round" stroke-linejoin="round"/>
<path d="M43.9 50.5C41.1 46.8 38.5 44.7 34.6 45.1C22.9 46.1 8.99995 42.9 3.39995 40.2C-2.30005 37.5 6.49995 16.3 9.19995 8.3C11.4 1.4 23 0.499996 24.3 2.3C26.5 5.6 30 7.1 28.2 8.8C27.1 9.9 24.4 10.3 23.5 11.7C22 14.1 17 9.6 17 9.6C15.7 10.4 14.7 10 14.6 15.7C14.5 19 15.8 25.7 15.6 29.1C20.6 25.5 25.6 24.8 30.7 28.6C39.5 23.1 46.9 25.5 48.6 27.2" stroke="#3180CA" stroke-width="3" stroke-miterlimit="10" stroke-linecap="round" stroke-linejoin="round"/>
<path d="M116.8 50.5C119.6 46.8 122.2 44.7 126.1 45.1C137.8 46.1 151.7 42.9 157.3 40.2C163 37.5 154.2 16.3 151.5 8.30002C149.2 1.40002 137.6 0.500019 136.4 2.40002C134.2 5.70002 130.7 7.20002 132.5 8.90002C133.6 10 136.3 10.4 137.2 11.8C138.7 14.2 143.7 9.70002 143.8 9.70002C145.1 10.5 146.1 10.1 146.2 15.8C146.3 19.1 145 25.8 145.2 29.2C140.2 25.6 135.2 24.9 130.1 28.7C121.3 23.2 113.9 25.6 112.2 27.3" stroke="#3180CA" stroke-width="3" stroke-miterlimit="10" stroke-linecap="round" stroke-linejoin="round"/>
</g>
<defs>
<clipPath id="clip0">
<rect width="160.7" height="88.7" fill="white"/>
</clipPath>
</defs>
</svg>
