<svg width="91" height="109" viewBox="0 0 91 109" fill="none" xmlns="http://www.w3.org/2000/svg">
<g clip-path="url(#clip0)">
<path d="M55.5 23.0483C62 23.0483 66.4 31.6483 67 38.6483C67.5 44.6483 63.7 53.5483 55.5 53.5483C47.3 53.5483 43.4 44.6483 44 38.6483C44.5 31.6483 48.9 23.0483 55.5 23.0483Z" stroke="#FFB422" stroke-width="3" stroke-miterlimit="10" stroke-linecap="round" stroke-linejoin="round"/>
<path d="M76.6 27.6484C81.8 27.6484 85.3 34.4484 85.8 40.0484C86.2 44.8484 83.2 51.8484 76.6 51.8484C70 51.8484 67 44.8484 67.4 40.0484C68 34.4484 71.5 27.6484 76.6 27.6484Z" stroke="#FFB422" stroke-width="3" stroke-miterlimit="10" stroke-linecap="round" stroke-linejoin="round"/>
<path d="M76.5999 69.7484C75.3999 73.4484 72.5999 76.9484 67.9999 76.9484C63.3999 76.9484 60.4999 73.4484 59.3999 69.7484H76.5999Z" stroke="#FFB422" stroke-width="2" stroke-miterlimit="10" stroke-linecap="round" stroke-linejoin="round"/>
<path d="M25.8 63.1484L21.3 49.8484C18.8 46.1484 13.6 46.3484 11.3 49.6484" stroke="#3180CA" stroke-width="3" stroke-miterlimit="10" stroke-linecap="round" stroke-linejoin="round"/>
<path d="M88.6 93.3484C78.3 106.748 60.1 111.148 44.9 103.748C29.7 96.3484 21.7 79.4484 25.8 63.1484" stroke="#3180CA" stroke-width="3" stroke-miterlimit="10" stroke-linecap="round" stroke-linejoin="round"/>
<path d="M88.6 93.3484L82.7 72.7484C84.2 67.4484 82 61.8484 77.3 58.9484C73.7 56.7484 69.4 56.6484 65.7 58.3484" stroke="#3180CA" stroke-width="3" stroke-miterlimit="10" stroke-linecap="round" stroke-linejoin="round"/>
<path d="M40.2 70.2484L65.6999 58.3484" stroke="#3180CA" stroke-width="3" stroke-miterlimit="10" stroke-linecap="round" stroke-linejoin="round"/>
<path d="M34.4001 31.2484C29.9001 37.2484 28.2001 44.7484 29.7001 52.1484C31.1001 59.4484 35.6001 65.8484 42.0001 69.6484" stroke="#3180CA" stroke-width="3" stroke-miterlimit="10" stroke-linecap="round" stroke-linejoin="round"/>
<path d="M29.8999 20.0483L34.3999 31.2483" stroke="#3180CA" stroke-width="3" stroke-miterlimit="10" stroke-linecap="round" stroke-linejoin="round"/>
<path d="M61.3999 16.9484C57.7999 16.1484 54.0999 15.8484 50.3999 16.1484C42.8999 16.7484 35.6999 19.7484 29.8999 24.6484" stroke="#3180CA" stroke-width="3" stroke-miterlimit="10" stroke-linecap="round" stroke-linejoin="round"/>
<path d="M68.9 20.6484L79.2 7.74842C62.7 -0.0515828 42.9 0.648417 26.5 9.74842C14.6 16.3484 5.7 26.8484 1.5 39.1484C9.4 54.1484 13.3 70.2484 13.8 86.1484" stroke="#3180CA" stroke-width="3" stroke-miterlimit="10" stroke-linecap="round" stroke-linejoin="round"/>
</g>
<defs>
<clipPath id="clip0">
<rect y="0.848389" width="90.1" height="108" fill="white"/>
</clipPath>
</defs>
</svg>
