<svg width="114" height="125" viewBox="0 0 114 125" fill="none" xmlns="http://www.w3.org/2000/svg">
<g clip-path="url(#clip0)">
<path d="M33.7002 53.3C30.6002 53.3 27.5002 53 24.5002 52.3C16.0002 50.6 8.1002 46.2 2.0002 40.1C1.6002 39.7 1.6002 39.1 2.0002 38.7C2.4002 38.3 3.0002 38.3 3.4002 38.7C9.2002 44.5 16.8002 48.7 24.8002 50.4C32.8002 52.1 41.5002 51.4 49.1002 48.4C62.0002 43.4 72.0002 31.8 75.1002 18.3C75.2002 17.8 75.8002 17.4 76.3002 17.6C76.8002 17.7 77.2002 18.3 77.1002 18.8C73.9002 33 63.4002 45 49.9002 50.3C44.8002 52.3 39.2002 53.3 33.7002 53.3Z" fill="#C93E7F"/>
<path d="M97.0999 23.5C96.5999 23.5 96.1999 23.2 96.0999 22.7C95.6999 20.7 95.1999 18.5 93.9999 16.7C92.7999 15 90.9999 13.8 88.8999 13.4C86.8999 13 84.6999 13.4 82.9999 14.6C82.4999 14.9 81.8999 14.8 81.5999 14.3C81.2999 13.8 81.3999 13.2 81.8999 12.9C84.0999 11.5 86.6999 10.9 89.2999 11.4C91.7999 11.9 94.0999 13.4 95.5999 15.5C97.0999 17.6 97.5999 20.1 98.0999 22.3C98.1999 22.8 97.8999 23.4 97.2999 23.5C97.1999 23.5 97.1999 23.5 97.0999 23.5Z" fill="#C93E7F"/>
<path d="M92.6 81.2C92.3 81.2 91.9 81.1 91.7 80.9C91.1 80.4 90.9 79.4 91.5 78.8C98 70.7 100 59.9 96.8 50C96.5 49.2 97 48.4 97.8 48.1C98.6 47.9 99.4 48.3 99.7 49.1C103.2 60 101 71.8 93.9 80.7C93.4 81 93 81.2 92.6 81.2Z" fill="#C93E7F"/>
<path d="M36.9998 88.7C33.8998 88.7 30.8998 88.4 27.8998 87.8C17.6998 85.6 9.49977 80 5.29977 72.4C4.89977 71.7 5.19977 70.8 5.89977 70.4C6.69977 70 7.59977 70.2 7.99977 71C11.6998 77.9 19.1998 82.9 28.4998 84.9C41.0998 87.5 55.0998 84.1 65.8998 75.6C71.8998 70.9 76.5998 64.7 79.3998 57.6C79.6998 56.8 80.5998 56.5 81.2998 56.8C82.0998 57.1 82.3998 58 82.0998 58.7C79.0998 66.3 74.0998 72.9 67.6998 78C58.7998 84.9 47.7998 88.7 36.9998 88.7Z" fill="#C93E7F"/>
<path d="M16.4998 71.3H16.3998C12.2998 71 8.39979 69.3 5.49979 66.5C2.29979 63.6 0.299788 59.3 -0.000212307 55C-0.100212 54.2 0.599788 53.5 1.39979 53.4C2.19979 53.3 2.89979 54 2.99979 54.8C3.19979 58.4 4.89979 61.9 7.49979 64.4C9.89979 66.7 13.1998 68.1 16.5998 68.4C17.3998 68.5 18.0998 69.2 17.9998 70C17.8998 70.7 17.2998 71.3 16.4998 71.3Z" fill="#C93E7F"/>
<path d="M12.7002 58.4C12.6002 58.4 12.5002 58.4 12.4002 58.3C8.60017 57 5.40017 54.5 3.40017 51.1C1.20017 47.5 0.400173 43 1.20017 38.8C1.30017 38.3 1.80017 37.9 2.40017 38C2.90017 38.1 3.30017 38.6 3.20017 39.2C2.40017 43 3.10017 46.9 5.00017 50.1C6.80017 53 9.70017 55.4 13.0002 56.5C13.5002 56.7 13.8002 57.2 13.6002 57.8C13.5002 58.2 13.1002 58.4 12.7002 58.4Z" fill="#C93E7F"/>
<path d="M98.3002 31.6C97.8002 31.6 97.4002 31.2 97.3002 30.7C97.2002 29.9 97.1002 29.1 97.0002 28.3C96.8002 27.1 97.5002 25.9 98.7002 25.6L103.9 23.8L98.9002 21.8C98.4002 21.6 98.1002 21 98.3002 20.5C98.5002 20 99.1002 19.7 99.6002 19.9L107.1 22.9C107.5 23.1 107.7 23.4 107.7 23.9C107.7 24.3 107.4 24.7 107 24.8L99.2002 27.5C99.1002 27.5 99.0002 27.7 99.0002 28C99.1002 28.8 99.2002 29.7 99.3002 30.5C99.4002 31 99.0002 31.5 98.4002 31.6C98.4002 31.6 98.4002 31.6 98.3002 31.6Z" fill="#C93E7F"/>
<path d="M74.0999 18.7C73.7999 18.7 73.4999 18.6 73.2999 18.3C72.1999 16.9 70.9999 15.4 69.6999 14.1L69.5999 14C69.1999 13.6 68.7999 13.1 68.3999 12.6C67.9999 11.9 67.8999 11 67.9999 10.3C68.1999 9.50002 68.5999 8.80002 69.2999 8.40002C69.8999 8.00002 70.4999 7.80002 71.2999 7.80002C71.8999 7.70002 72.4999 7.80002 72.9999 7.90002C73.1999 7.90002 73.4999 8.00002 73.6999 8.00002C73.9999 7.90002 74.2999 8.00002 74.5999 8.00002C75.0999 8.10003 75.4999 8.10003 75.8999 8.00002C76.1999 7.90002 76.4999 7.80002 76.7999 7.60002C77.1999 7.30002 77.2999 6.80002 77.3999 6.40002C77.4999 5.90002 77.5999 5.40002 77.5999 4.80002V4.60002C77.6999 4.00002 77.7999 3.20002 77.9999 2.50002C78.2999 1.60002 78.8999 0.900024 79.5999 0.400024C80.3999 -0.0999756 81.4999 -0.199976 82.4999 0.100024C83.2999 0.300024 83.9999 0.800024 84.6999 1.40002C85.0999 1.80002 85.4999 2.20002 85.7999 2.60002L86.1999 3.00002C86.5999 3.40002 87.0999 3.90002 87.5999 4.20002C87.8999 4.40002 88.3999 4.60002 88.8999 4.60002C89.2999 4.60002 89.5999 4.40002 89.9999 4.20002C90.3999 3.90002 90.7999 3.60002 91.1999 3.20002L91.3999 3.00002C91.7999 2.60002 92.1999 2.20002 92.5999 1.90002C93.1999 1.40002 93.8999 1.10002 94.4999 0.900024C95.2999 0.700024 96.0999 0.800024 96.6999 1.10002C97.4999 1.60002 97.9999 2.20002 98.3999 3.00002C98.6999 3.70002 98.7999 4.40002 98.8999 5.00002C99.1999 7.70002 98.6999 10.5 97.3999 13C97.0999 13.5 96.4999 13.7 96.0999 13.4C95.5999 13.1 95.3999 12.5 95.6999 12.1C96.7999 10 97.1999 7.60002 96.8999 5.30002C96.8999 4.90002 96.7999 4.40002 96.5999 3.90002C96.3999 3.50002 96.1999 3.30002 95.8999 3.10002C95.6999 2.90002 95.2999 2.90002 94.9999 3.00002C94.5999 3.10002 94.1999 3.30002 93.7999 3.60002C93.3999 3.90002 93.0999 4.20002 92.7999 4.50002L92.5999 4.70002C92.1999 5.10002 91.6999 5.60002 91.0999 6.00002C90.3999 6.50002 89.6999 6.70002 88.9999 6.70002C88.1999 6.80002 87.2999 6.50002 86.4999 6.10002C85.6999 5.70002 85.0999 5.10002 84.6999 4.50002L84.2999 4.00002C83.9999 3.60002 83.5999 3.30002 83.2999 3.00002C82.7999 2.50002 82.2999 2.30002 81.8999 2.10002C81.3999 1.90002 80.9999 2.00002 80.5999 2.20002C80.2999 2.40002 79.9999 2.70002 79.8999 3.20002C79.6999 3.70002 79.6999 4.30002 79.5999 4.90002V5.10002C79.5999 5.70002 79.4999 6.40002 79.2999 7.00002C79.0999 7.90002 78.5999 8.70002 77.9999 9.20002C77.5999 9.60002 76.9999 9.80002 76.2999 10C75.6999 10.1 75.0999 10.1 74.3999 10C74.0999 10 73.6999 9.90002 73.3999 9.90002C73.1999 9.90002 72.9999 9.80002 72.7999 9.80002C72.2999 9.70002 71.8999 9.70002 71.5999 9.70002C71.1999 9.70002 70.7999 9.80002 70.5999 10C70.2999 10.2 70.1999 10.4 70.0999 10.7C69.9999 11 70.0999 11.3 70.2999 11.7C70.4999 12.1 70.7999 12.4 71.1999 12.8L71.2999 12.9C72.5999 14.3 73.7999 15.7 74.9999 17.2C75.2999 17.6 75.2999 18.3 74.7999 18.6C74.4999 18.7 74.2999 18.7 74.0999 18.7Z" fill="#FFB422"/>
<path d="M97.2001 47.3C96.1001 47.3 95.0001 47 94.1001 46.3C93.6001 46 93.5001 45.4 93.8001 44.9C94.1001 44.4 94.7001 44.3 95.2001 44.6C96.0001 45.2 97.1001 45.4 98.1001 45.1C99.0001 44.9 99.7001 44.3 100.1 43.4C100.8 41.9 100.2 40.1 99.5001 38.3C99.0001 36.8 98.5001 35.2 98.0001 33.7C97.8001 33.2 98.2001 32.6 98.7001 32.5C99.2001 32.3 99.8001 32.7 99.9001 33.2C100.3 34.7 100.8 36.2 101.3 37.7C102 39.8 102.8 42.1 101.8 44.3C101.2 45.6 100 46.6 98.5001 47C98.2001 47.2 97.7001 47.3 97.2001 47.3Z" fill="#C93E7F"/>
<path d="M83.0001 94.4C82.6001 94.4 82.1001 94.2 81.8001 93.9C81.3001 93.3 81.4001 92.3 82.0001 91.8C84.4001 89.8 84.9001 86.5 83.4001 82.6C83.1001 81.8 83.5001 81 84.3001 80.7C85.1001 80.4 85.9001 80.8 86.2001 81.6C88.1001 86.7 87.3001 91.3 83.9001 94.1C83.7001 94.3 83.3001 94.4 83.0001 94.4Z" fill="#C93E7F"/>
<path d="M76.8 96.5C73 96.5 69.5 94.7 67.7 91.7C67.3 91 67.5 90.1 68.2 89.6C68.9 89.2 69.8 89.4 70.3 90.1C71.7 92.3 74.3 93.6 77.3 93.4C78.2 93.4 78.8 94 78.9 94.8C78.9 95.6 78.3 96.3 77.5 96.4C77.2 96.5 77 96.5 76.8 96.5Z" fill="#C93E7F"/>
<path d="M40.4998 94.7C39.9998 94.7 39.4998 94.4 39.1998 93.9C38.0998 92 37.1998 88.7 38.9998 83.9C39.2998 83.1 40.1998 82.7 40.8998 83C41.6998 83.3 42.0998 84.2 41.7998 84.9C40.6998 87.9 40.6998 90.5 41.7998 92.4C42.1998 93.1 41.9998 94 41.1998 94.4C40.9998 94.6 40.6998 94.7 40.4998 94.7Z" fill="#C93E7F"/>
<path d="M48.3998 98.9C47.2998 98.9 46.1998 98.7 45.1998 98.5C44.3998 98.3 43.8998 97.4 44.1998 96.6C44.3998 95.8 45.2998 95.3 46.0998 95.6C49.0998 96.5 53.1998 95.7 55.0998 92.6C55.4998 91.9 56.4998 91.7 57.1998 92.1C57.8998 92.5 58.0998 93.5 57.6998 94.2C55.4998 97.4 51.7998 98.9 48.3998 98.9Z" fill="#C93E7F"/>
<path d="M112.8 114.8H112.7L96.1 112.6C95.8 112.6 95.6 112.4 95.4 112.2L81.9 93.7C81.6 93.3 81.7 92.6 82.1 92.3C82.5 92 83.2 92.1 83.5 92.5L96.7 110.7L112.9 112.8C113.4 112.9 113.8 113.4 113.8 113.9C113.8 114.4 113.3 114.8 112.8 114.8Z" fill="#FFB422"/>
<path d="M88.9998 114.8C88.5998 114.8 88.1998 114.5 88.0998 114.1C87.8998 113.6 88.1998 113 88.6998 112.8L92.4998 111.4C92.9998 111.2 93.5998 111.5 93.7998 112C93.9998 112.5 93.6998 113.1 93.1998 113.3L89.3998 114.7C89.2998 114.8 89.0998 114.8 88.9998 114.8Z" fill="#FFB422"/>
<path d="M103.8 119.1C103.6 119.1 103.4 119 103.2 118.9L98.3998 115.4C97.9998 115.1 97.8998 114.4 98.1998 114C98.4998 113.6 99.1998 113.5 99.5998 113.8L104.4 117.3C104.8 117.6 104.9 118.3 104.6 118.7C104.4 119 104.1 119.1 103.8 119.1Z" fill="#FFB422"/>
<path d="M97.5999 112.8C97.1999 112.8 96.7999 112.5 96.6999 112.1C96.4999 111.6 96.7999 111 97.2999 110.8L104.4 108.2C104.9 108 105.5 108.3 105.7 108.8C105.9 109.3 105.6 109.9 105.1 110.1L97.9999 112.7C97.7999 112.8 97.6999 112.8 97.5999 112.8Z" fill="#FFB422"/>
<path d="M41.9001 124.9C41.7001 124.9 41.4001 124.8 41.2001 124.6L28.7001 113.4C28.3001 113 28.3001 112.4 28.6001 112C29.0001 111.6 29.6001 111.6 30.0001 111.9L42.5001 123.1C42.9001 123.5 42.9001 124.1 42.6001 124.5C42.4001 124.8 42.1001 124.9 41.9001 124.9Z" fill="#FFB422"/>
<path d="M29.3999 113.7C29.0999 113.7 28.8999 113.6 28.6999 113.4C28.2999 113 28.2999 112.4 28.6999 112L45.6999 94.6C46.0999 94.2 46.6999 94.2 47.0999 94.6C47.4999 95 47.4999 95.6001 47.0999 96.0001L30.0999 113.4C29.8999 113.6 29.6999 113.7 29.3999 113.7Z" fill="#FFB422"/>
<path d="M26.2002 112.4C26.1002 112.4 26.0002 112.4 25.9002 112.4L22.0002 111.4C21.5002 111.3 21.1002 110.7 21.3002 110.2C21.4002 109.7 22.0002 109.3 22.5002 109.5L26.4002 110.5C26.9002 110.6 27.3002 111.2 27.1002 111.7C27.0002 112.1 26.6002 112.4 26.2002 112.4Z" fill="#FFB422"/>
<path d="M31.9001 123.3C31.5001 123.3 31.1001 123 31.0001 122.6L29.0001 117C28.8001 116.5 29.1001 115.9 29.6001 115.7C30.1001 115.5 30.7001 115.8 30.9001 116.3L32.9001 121.9C33.1001 122.4 32.8001 123 32.3001 123.2C32.2001 123.3 32.1001 123.3 31.9001 123.3Z" fill="#FFB422"/>
<path d="M37.7999 116.5C37.6999 116.5 37.5999 116.5 37.4999 116.5L30.1999 114.6C29.6999 114.5 29.2999 113.9 29.4999 113.4C29.5999 112.9 30.1999 112.5 30.6999 112.7L37.9999 114.6C38.4999 114.7 38.8999 115.3 38.6999 115.8C38.5999 116.2 38.1999 116.5 37.7999 116.5Z" fill="#FFB422"/>
</g>
<defs>
<clipPath id="clip0">
<rect width="113.8" height="124.9" fill="white"/>
</clipPath>
</defs>
</svg>
