<svg width="112" height="112" viewBox="0 0 112 112" fill="none" xmlns="http://www.w3.org/2000/svg">
<g clip-path="url(#clip0)">
<path d="M42.9002 86.8001C42.1002 86.8001 41.4002 86.1001 41.4002 85.3001V68.3001H36.7002C35.9002 68.3001 35.2002 67.6001 35.2002 66.8001C35.2002 66.0001 35.9002 65.3001 36.7002 65.3001H41.4002V57.8H36.7002C35.9002 57.8 35.2002 57.1 35.2002 56.3C35.2002 55.5 35.9002 54.8 36.7002 54.8H41.4002V27.3C41.4002 26.5 42.1002 25.8 42.9002 25.8H64.7002C73.5002 25.8 80.7002 33 80.7002 41.8C80.7002 50.6 73.5002 57.8 64.7002 57.8H44.4002V65.3001H68.2002C69.0002 65.3001 69.7002 66.0001 69.7002 66.8001C69.7002 67.6001 69.0002 68.3001 68.2002 68.3001H44.4002V85.3001C44.4002 86.1001 43.8002 86.8001 42.9002 86.8001ZM44.4002 54.8H64.7002C71.9002 54.8 77.7002 49 77.7002 41.8C77.7002 34.6 71.9002 28.8 64.7002 28.8H44.4002V54.8Z" fill="#FFB422"/>
<path d="M55.6001 103.7C42.1001 103.7 29.2001 98 20.1001 88.1C19.7001 87.7 19.8001 87.1 20.2001 86.7C20.6001 86.3 21.2001 86.4 21.6001 86.8C30.3001 96.3 42.7001 101.8 55.6001 101.8C58.9001 101.8 62.2001 101.4 65.4001 100.7C65.9001 100.6 66.5001 100.9 66.6001 101.5C66.7001 102 66.4001 102.6 65.8001 102.7C62.5001 103.3 59.0001 103.7 55.6001 103.7ZM74.5001 99.7C74.1001 99.7 73.7001 99.5 73.6001 99.1C73.4001 98.6 73.6001 98 74.1001 97.8C90.5001 90.6 101.3 74.3 101.6 56.4C101.6 55.8 102.1 55.4 102.6 55.4C103.2 55.4 103.6 55.9 103.6 56.4C103.3 75.1 92.0001 92.1 74.9001 99.6C74.8001 99.7 74.7001 99.7 74.5001 99.7ZM17.5001 84.2C17.2001 84.2 16.9001 84.1 16.7001 83.8C11.1001 76.1 8.0001 67 7.6001 57.5C7.6001 56.9 8.0001 56.5 8.6001 56.5C9.1001 56.5 9.6001 56.9 9.6001 57.5C10.0001 66.6 13.0001 75.3 18.3001 82.7C18.6001 83.1 18.5001 83.8 18.1001 84.1C17.9001 84.2 17.7001 84.2 17.5001 84.2ZM102.6 53.4C102.1 53.4 101.6 53 101.6 52.5C100.8 40 95.0001 28.7 85.5001 20.5C85.1001 20.1 85.0001 19.5 85.4001 19.1C85.8001 18.7 86.4001 18.6 86.8001 19C96.8001 27.5 102.8 39.3 103.6 52.3C103.6 52.8 103.2 53.3 102.6 53.4ZM8.6001 53C8.0001 53 7.6001 52.5 7.6001 51.9C7.8001 50.2 8.0001 48.6 8.3001 47C8.4001 46.5 8.9001 46.1 9.5001 46.2C10.0001 46.3 10.4001 46.8 10.3001 47.4C10.0001 48.9 9.7001 50.5 9.6001 52C9.6001 52.6 9.2001 53 8.6001 53ZM10.0001 44.5C9.9001 44.5 9.8001 44.5 9.7001 44.5C9.2001 44.4 8.8001 43.8 9.0001 43.3C14.6001 22.2 33.8001 7.5 55.6001 7.5C63.2001 7.5 70.5001 9.2 77.3001 12.7C77.8001 12.9 78.0001 13.6 77.7001 14C77.5001 14.5 76.9001 14.7 76.4001 14.4C69.9001 11.1 62.9001 9.5 55.6001 9.5C34.7001 9.5 16.3001 23.6 11.0001 43.8C10.9001 44.2 10.5001 44.5 10.0001 44.5Z" fill="#D0724E"/>
<path d="M55.6 111.2C41.6 111.2 28.2 106 17.9 96.5C7.7 87 1.4 74.2 0.2 60.4C0.1 58.8 0 57.2 0 55.6C0 24.9 24.9 0 55.6 0C86.3 0 111.2 24.9 111.2 55.6C111.2 86.3 86.2 111.2 55.6 111.2ZM55.6 2C26 2 2 26 2 55.6C2 57.1 2.1 58.7 2.2 60.2C3.3 73.5 9.4 85.9 19.2 95C29.1 104.2 42 109.2 55.5 109.2C85 109.2 109.1 85.2 109.1 55.6C109.1 26 85.1 2 55.6 2Z" fill="#D0724E"/>
</g>
<defs>
<clipPath id="clip0">
<rect width="111.2" height="111.2" fill="white"/>
</clipPath>
</defs>
</svg>
