<svg width="217" height="137" viewBox="0 0 217 137" fill="none" xmlns="http://www.w3.org/2000/svg">
<g clip-path="url(#clip0)">
<path d="M85.0002 91.6C75.9002 91.6 67.8002 88 61.5002 81.1C52.4002 71.1 49.1002 56.6 50.0002 46.6C51.8002 24.2 65.8002 0 85.0002 0C104.2 0 118.1 24.2 120 46.6C120.9 56.6 117.6 71.1 108.5 81.1C102.2 87.9 94.1002 91.6 85.0002 91.6ZM85.0002 3C66.5002 3 54.5002 28.5 53.0002 46.9C52.2002 56.2 55.2002 69.8 63.7002 79.1C69.4002 85.3 76.8002 88.6 85.0002 88.6C93.2002 88.6 100.6 85.3 106.3 79.1C114.8 69.8 117.8 56.2 117 46.9C115.4 28.5 103.4 3 85.0002 3Z" fill="#FFB422"/>
<path d="M138.8 41.8C135.1 41.8 131.8 40.3 129.2 37.6C126 34.1 124.2 28.7 124.6 23.9C125.4 15 131 5.5 138.7 5.5C146.5 5.5 152.1 15.1 152.8 23.9C153.2 28.7 151.4 34.1 148.2 37.6C145.8 40.3 142.5 41.8 138.8 41.8ZM127.6 24.1C127.3 27.4 128.4 32.2 131.4 35.5C133.4 37.7 135.9 38.8 138.7 38.8C141.6 38.8 144 37.7 146 35.5C149 32.2 150.1 27.4 149.8 24.1C149.2 17.5 145 8.4 138.6 8.4C132.4 8.4 128.2 17.5 127.6 24.1Z" fill="#FFB422"/>
<path d="M56.5002 136.6C52.0002 136.6 48.0002 134.8 44.9002 131.4C41.0002 127.1 38.8002 120.5 39.3002 114.6C40.2002 103.7 47.0002 92 56.5002 92C66.0002 92 72.8002 103.7 73.7002 114.6C74.2002 120.5 72.0002 127.1 68.1002 131.4C65.0002 134.8 61.0002 136.6 56.5002 136.6ZM42.2002 114.9C41.8002 119.1 43.2002 125.2 47.0002 129.4C49.6002 132.2 52.7002 133.6 56.4002 133.6C60.1002 133.6 63.3002 132.2 65.8002 129.4C69.6002 125.2 71.0002 119.1 70.6002 114.9C70.0002 106.5 64.7002 95 56.5002 95C48.3002 95 42.9002 106.5 42.2002 114.9Z" fill="#D0724E"/>
<path d="M146 100.8C140.6 100.8 135.8 98.7 132 94.6C127.3 89.4 124.6 81.5 125.2 74.3C126.3 61.1 134.6 46.9 146 46.9C157.4 46.9 165.6 61.1 166.8 74.3C167.4 81.5 164.7 89.4 160 94.6C156.2 98.6 151.4 100.8 146 100.8ZM146 49.9C135.8 49.9 129.1 64.2 128.2 74.5C127.8 79.7 129.4 87.3 134.2 92.5C137.4 96 141.4 97.7 146 97.7C150.6 97.7 154.6 95.9 157.8 92.5C162.6 87.3 164.3 79.7 163.8 74.5C162.9 64.2 156.2 49.9 146 49.9Z" fill="#D0724E"/>
<path d="M206.4 128.6C197.5 128.6 189.5 125.1 183.3 118.3C174.3 108.5 171.2 94.3 172 84.5C173.9 62.5 187.6 38.8 206.4 38.8C207.6 38.8 208.8 38.9 210 39.1C210.8 39.2 211.4 40 211.2 40.8C211.1 41.6 210.3 42.2 209.5 42C208.5 41.8 207.4 41.7001 206.3 41.7001C188.2 41.7001 176.4 66.7 174.9 84.7C174.1 93.8 177.1 107.1 185.4 116.3C191 122.4 198.2 125.6 206.3 125.6C209.2 125.6 212 125.2 214.6 124.4C215.4 124.2 216.2 124.6 216.5 125.4C216.7 126.2 216.3 127 215.5 127.3C212.7 128.1 209.6 128.6 206.4 128.6Z" fill="#FFB422"/>
<path d="M11.7998 110.1C8.3998 110.1 4.7998 109.5 1.09979 108.4C0.299795 108.2 -0.100205 107.3 0.0997949 106.5C0.299795 105.7 1.1998 105.3 1.99979 105.5C11.7998 108.5 20.6998 107.1 27.5998 101.6C37.1998 93.8 40.7998 80 39.9998 70.5C38.5998 54.3 27.9998 31.9 11.7998 31.9C10.9998 31.9 10.2998 31.2 10.2998 30.4C10.2998 29.6 10.9998 28.9 11.7998 28.9C28.7998 28.9 41.1998 50.4 42.8998 70.3C43.7998 80.6 39.8998 95.5 29.2998 104C24.2998 108.1 18.3998 110.1 11.7998 110.1Z" fill="#FFB422"/>
<path d="M107.2 128C103.8 128 100.8 126.7 98.5 124.1C95.6 120.9 94 116.1 94.3 111.7C95 103.7 100.1 95 107.1 95C114.1 95 119.3 103.7 119.9 111.7C120.3 116.1 118.6 121 115.7 124.1C113.6 126.7 110.6 128 107.2 128ZM97.4 112C97.1 114.9 98.1 119.2 100.8 122.1C102.6 124 104.7 125 107.3 125C109.9 125 112 124 113.8 122.1C116.5 119.2 117.4 114.9 117.2 112C116.6 105.3 112.5 98.1 107.4 98.1C102.1 98.1 98 105.3 97.4 112Z" fill="#FFB422"/>
</g>
<defs>
<clipPath id="clip0">
<rect width="216.7" height="136.6" fill="white"/>
</clipPath>
</defs>
</svg>
