<svg width="109" height="117" viewBox="0 0 109 117" fill="none" xmlns="http://www.w3.org/2000/svg">
<g clip-path="url(#clip0)">
<path d="M78.8 91.4002C78 91.4002 77.4 90.8002 77.3 90.0002C76.9 85.3002 74 80.1002 70.4 80.1002C66.9 80.1002 63.9 85.3002 63.5 90.0002C63.4 90.8002 62.7 91.4002 61.9 91.4002C61.1 91.3002 60.5 90.6002 60.5 89.8002C61 83.7002 64.9 77.2002 70.3 77.2002C75.7 77.2002 79.6 83.8002 80.1 89.8002C80.2 90.6002 79.6 91.4002 78.7 91.4002C78.9 91.4002 78.9 91.4002 78.8 91.4002Z" fill="#FFB422"/>
<path d="M58.2996 94.0002C57.7996 94.0002 57.2996 93.7002 56.9996 93.3002C56.1996 92.0002 54.4996 89.8002 52.1996 89.8002C49.8996 89.8002 48.1996 92.0002 47.3996 93.2002C46.9996 93.9002 45.9996 94.1002 45.2996 93.7002C44.5996 93.3002 44.3996 92.3002 44.7996 91.6002C46.6996 88.5002 49.2996 86.7002 52.0996 86.7002C54.8996 86.7002 57.5996 88.5002 59.4996 91.7002C59.8996 92.4002 59.6996 93.3002 58.9996 93.8002C58.7996 93.9002 58.4996 94.0002 58.2996 94.0002Z" fill="#FFB422"/>
<path d="M33.7 53.7999C30.6 53.7999 27.4 53.4999 24.4 52.7999C15.8 50.9999 7.8 46.5999 1.7 40.3999C1.1 39.7999 1.1 38.8999 1.7 38.2999C2.3 37.6999 3.2 37.6999 3.8 38.2999C9.5 44.0999 17 48.1999 25 49.8999C32.9 51.5999 41.5 50.8999 49 47.9999C61.8 42.9999 71.6 31.5999 74.7 18.2999C74.9 17.4999 75.7 16.9999 76.5 17.1999C77.3 17.3999 77.8 18.1999 77.6 18.9999C74.3 33.2999 63.7 45.4999 50.1 50.7999C44.9 52.7999 39.3 53.7999 33.7 53.7999Z" fill="#9BC045"/>
<path d="M97.0996 24C96.3996 24 95.7996 23.5 95.5996 22.8C95.1996 20.9 94.6996 18.7 93.4996 17C92.3996 15.4 90.6996 14.3 88.7996 13.9C86.8996 13.5 84.8996 13.9 83.2996 15C82.5996 15.5 81.6996 15.3 81.1996 14.6C80.6996 13.9 80.8996 13 81.5996 12.5C83.8996 11 86.6996 10.5 89.2996 11C91.9996 11.5 94.3996 13.1 95.8996 15.3C97.3996 17.5 97.9996 20 98.4996 22.3C98.6996 23.1 98.0996 23.9 97.2996 24.1C97.2996 24 97.1996 24 97.0996 24Z" fill="#9BC045"/>
<path d="M92.6 81.2002C92.3 81.2002 91.9 81.1002 91.7 80.9002C91.1 80.4002 90.9 79.4002 91.5 78.8002C98 70.7002 100 59.9002 96.8 50.0002C96.5 49.2002 97 48.4002 97.8 48.1002C98.6 47.8002 99.4 48.3002 99.7 49.1002C103.2 60.0002 101 71.8002 93.9 80.7002C93.4 81.0002 93 81.2002 92.6 81.2002Z" fill="#9BC045"/>
<path d="M37.0003 88.7001C33.9003 88.7001 30.9003 88.4002 27.9003 87.8002C17.7003 85.6002 9.50025 80.0002 5.30025 72.4002C4.90025 71.7002 5.20025 70.8002 5.90025 70.4002C6.70025 70.0002 7.60025 70.2001 8.00025 71.0001C11.7003 77.9002 19.2003 82.9002 28.5003 84.9002C41.1003 87.5002 55.1003 84.1001 65.9003 75.6001C71.9003 70.9001 76.6003 64.7001 79.4003 57.6001C79.7003 56.8001 80.6003 56.5001 81.3003 56.8001C82.1003 57.1001 82.4003 58.0002 82.1003 58.7002C79.1003 66.3001 74.1003 72.9001 67.7003 78.0001C58.8003 84.9001 47.8003 88.7001 37.0003 88.7001Z" fill="#9BC045"/>
<path d="M16.4998 71.3002H16.3998C12.2998 71.0002 8.39979 69.3002 5.49979 66.5002C2.29979 63.6002 0.299788 59.3002 -0.000212307 55.0002C-0.100212 54.2002 0.599788 53.5002 1.39979 53.4002C2.19979 53.3002 2.89979 54.0002 2.99979 54.8002C3.19979 58.4002 4.89979 61.9002 7.49979 64.4002C9.89979 66.7002 13.1998 68.1002 16.5998 68.4002C17.3998 68.5002 18.0998 69.2002 17.9998 70.0002C17.8998 70.7002 17.2998 71.3002 16.4998 71.3002Z" fill="#9BC045"/>
<path d="M12.7004 58.9001C12.5004 58.9001 12.4004 58.9001 12.2004 58.8001C8.30041 57.5001 5.00041 54.8001 2.90041 51.4001C0.600409 47.7001 -0.199591 43.1001 0.600409 38.8001C0.800409 38.0001 1.60041 37.5001 2.40041 37.6001C3.20041 37.8001 3.70041 38.5001 3.60041 39.4001C2.90041 43.0001 3.60041 46.8001 5.50041 49.9001C7.20041 52.7001 10.0004 55.0001 13.2004 56.0001C14.0004 56.3001 14.4004 57.1001 14.1004 57.9001C13.9004 58.6001 13.3004 58.9001 12.7004 58.9001Z" fill="#9BC045"/>
<path d="M98.3005 32.0998C97.5005 32.0998 96.9005 31.4998 96.8005 30.7998C96.7005 29.9998 96.6005 29.1998 96.5005 28.3998C96.3005 26.9998 97.2005 25.5998 98.5005 25.0998L102.5 23.6998L98.7005 22.1998C97.9005 21.8998 97.6005 20.9998 97.9005 20.1998C98.2005 19.3998 99.1005 19.0998 99.9005 19.3998L107.4 22.3998C108 22.5998 108.4 23.1998 108.3 23.7998C108.3 24.3998 107.9 24.9998 107.3 25.1998L99.5005 27.8998C99.6005 28.7998 99.7005 29.5998 99.8005 30.4998C99.9005 31.2998 99.3005 32.0998 98.5005 32.0998C98.4005 32.0998 98.4005 32.0998 98.3005 32.0998Z" fill="#9BC045"/>
<path d="M74.0999 18.6999C73.7999 18.6999 73.4999 18.5999 73.2999 18.2999C72.1999 16.8999 70.9999 15.3999 69.6999 14.0999L69.5999 13.9999C69.1999 13.5999 68.7999 13.0999 68.3999 12.5999C67.9999 11.8999 67.8999 10.9999 67.9999 10.2999C68.1999 9.4999 68.5999 8.7999 69.2999 8.3999C69.8999 7.9999 70.4999 7.7999 71.2999 7.7999C71.7999 7.7999 72.2999 7.7999 72.9999 7.8999C73.1999 7.8999 73.4999 7.9999 73.6999 7.9999C73.9999 7.8999 74.2999 7.9999 74.5999 7.9999C75.0999 8.0999 75.5999 8.0999 75.8999 7.9999C76.1999 7.8999 76.4999 7.7999 76.7999 7.5999C77.1999 7.2999 77.3999 6.7999 77.3999 6.3999C77.4999 5.8999 77.5999 5.3999 77.5999 4.7999V4.5999C77.6999 3.9999 77.7999 3.1999 77.9999 2.4999C78.2999 1.5999 78.8999 0.899902 79.5999 0.399902C80.3999 -0.100098 81.4999 -0.200098 82.4999 0.0999023C83.2999 0.299902 83.9999 0.799902 84.6999 1.3999C85.0999 1.7999 85.4999 2.1999 85.7999 2.5999L86.1999 2.9999C86.5999 3.3999 87.0999 3.8999 87.5999 4.1999C87.8999 4.3999 88.3999 4.5999 88.8999 4.5999C89.2999 4.5999 89.6999 4.3999 89.9999 4.1999C90.3999 3.8999 90.7999 3.5999 91.1999 3.1999L91.3999 2.9999C91.7999 2.5999 92.1999 2.2999 92.5999 1.8999C93.1999 1.3999 93.8999 1.0999 94.4999 0.899902C95.2999 0.699902 96.0999 0.799902 96.6999 1.0999C97.4999 1.5999 97.9999 2.1999 98.3999 2.9999C98.6999 3.6999 98.7999 4.3999 98.8999 4.9999C99.1999 7.6999 98.6999 10.4999 97.3999 12.9999C97.0999 13.4999 96.4999 13.6999 96.0999 13.3999C95.5999 13.0999 95.3999 12.4999 95.6999 12.0999C96.7999 9.9999 97.1999 7.5999 96.8999 5.2999C96.8999 4.8999 96.7999 4.3999 96.5999 3.8999C96.3999 3.4999 96.1999 3.2999 95.8999 3.0999C95.6999 2.8999 95.2999 2.8999 94.9999 2.9999C94.5999 3.0999 94.1999 3.2999 93.7999 3.5999C93.4999 3.8999 93.0999 4.1999 92.7999 4.4999L92.5999 4.6999C92.1999 5.0999 91.6999 5.5999 91.0999 5.9999C90.3999 6.4999 89.6999 6.6999 88.9999 6.6999C88.1999 6.6999 87.2999 6.4999 86.4999 6.0999C85.6999 5.6999 85.0999 5.0999 84.6999 4.4999L84.2999 3.9999C83.9999 3.5999 83.5999 3.2999 83.2999 2.9999C82.7999 2.4999 82.2999 2.2999 81.8999 2.0999C81.3999 1.8999 80.9999 1.9999 80.5999 2.1999C80.2999 2.3999 79.9999 2.6999 79.8999 3.1999C79.6999 3.6999 79.6999 4.2999 79.5999 4.8999V5.0999C79.5999 5.6999 79.4999 6.3999 79.2999 6.9999C79.0999 7.8999 78.5999 8.6999 77.9999 9.1999C77.5999 9.5999 76.9999 9.7999 76.2999 9.9999C75.6999 10.0999 75.0999 10.0999 74.3999 9.9999C74.0999 9.9999 73.6999 9.8999 73.3999 9.8999C73.1999 9.8999 72.9999 9.7999 72.7999 9.7999C72.2999 9.6999 71.8999 9.6999 71.5999 9.6999C71.1999 9.6999 70.7999 9.7999 70.4999 9.9999C70.1999 10.1999 70.0999 10.3999 69.9999 10.6999C69.8999 10.9999 69.9999 11.2999 70.1999 11.6999C70.3999 12.0999 70.6999 12.3999 71.0999 12.7999L71.1999 12.8999C72.4999 14.2999 73.7999 15.6999 74.8999 17.1999C75.1999 17.5999 75.1999 18.2999 74.6999 18.5999C74.4999 18.6999 74.2999 18.6999 74.0999 18.6999Z" fill="#FFB422"/>
<path d="M21.8004 36.9003C20.0004 36.9003 18.1004 36.7003 16.4004 36.3003C11.4004 35.2003 6.70039 32.7003 3.20039 29.1003C2.80039 28.7003 2.80039 28.1003 3.20039 27.7003C3.60039 27.3003 4.20039 27.3003 4.60039 27.7003C7.90039 31.0003 12.2004 33.4003 16.8004 34.4003C21.4004 35.4003 26.3004 35.0003 30.7004 33.3003C38.1004 30.4003 43.8004 23.8003 45.6004 16.1003C45.7004 15.6003 46.3004 15.2003 46.8004 15.4003C47.3004 15.5003 47.7004 16.1003 47.6004 16.6003C45.7004 25.0003 39.5004 32.1003 31.5004 35.2003C28.3004 36.3003 25.1004 36.9003 21.8004 36.9003Z" fill="#9BC045"/>
<path d="M58.6 19.6C58.1 19.6 57.7 19.3 57.6 18.8C57.4 17.7 57.1 16.4 56.4 15.5C55.8 14.6 54.8 14 53.7 13.8C52.6 13.6 51.5 13.8 50.6 14.4C50.1 14.7 49.5 14.6 49.2 14.1C48.9 13.6 49 13 49.5 12.7C50.8 11.8 52.5 11.5 54.1 11.8C55.7 12.1 57.1 13 58 14.3C58.9 15.6 59.2 17.1 59.5 18.4C59.6 18.9 59.3 19.5 58.7 19.6C58.8 19.6 58.7 19.6 58.6 19.6Z" fill="#9BC045"/>
<path d="M59.4003 26.9003C58.9003 26.9003 58.5003 26.5003 58.4003 26.0003C58.3003 25.4003 58.3003 24.8003 58.2003 24.2003C58.1003 23.2003 58.7003 22.2003 59.6003 21.9003L62.8003 20.8003L59.8003 19.6003C59.3003 19.4003 59.0003 18.8003 59.2003 18.3003C59.4003 17.8003 60.0003 17.5003 60.5003 17.7003L66.0003 19.9003C66.4003 20.1003 66.6003 20.4003 66.6003 20.9003C66.6003 21.3003 66.3003 21.7003 65.9003 21.8003L60.2003 23.8003C60.1003 23.8003 60.1003 23.9003 60.1003 24.0003C60.2003 24.6003 60.3003 25.2003 60.3003 25.8003C60.4003 26.3003 60.0003 26.8003 59.4003 26.9003C59.4003 26.9003 59.5003 26.9003 59.4003 26.9003Z" fill="#9BC045"/>
<path d="M45.3008 16.8002C45.0008 16.8002 44.7008 16.7002 44.5008 16.4002C43.9008 15.6002 43.2008 14.8002 42.5008 14.0002C42.2008 13.7002 41.9008 13.4002 41.7008 13.0002C41.4008 12.5002 41.3008 11.9002 41.4008 11.3002C41.5008 10.8002 41.9008 10.3002 42.4008 9.90024C42.8008 9.60024 43.2008 9.50024 43.8008 9.50024C44.2008 9.50024 44.6008 9.50024 44.9008 9.50024L45.3008 9.60024C45.5008 9.60024 45.6008 9.70024 45.8008 9.70024C46.1008 9.70024 46.3008 9.70024 46.4008 9.70024C46.5008 9.70024 46.6008 9.60024 46.7008 9.60024C46.8008 9.50024 46.9008 9.40024 46.9008 9.10024C47.0008 8.90024 47.0008 8.60024 47.0008 8.30024V8.20024C47.0008 7.80024 47.1008 7.30024 47.2008 6.80024C47.4008 6.20024 47.8008 5.70024 48.3008 5.40024C48.9008 5.10024 49.6008 5.00024 50.3008 5.20024C50.8008 5.40024 51.3008 5.60024 51.7008 6.10024C51.9008 6.30024 52.2008 6.60024 52.4008 6.80024L52.6008 7.00024C52.8008 7.20024 53.1008 7.50024 53.3008 7.60024C53.5008 7.70024 53.7008 7.80024 53.8008 7.80024C53.9008 7.80024 54.1008 7.70024 54.3008 7.60024C54.5008 7.50024 54.7008 7.30024 54.9008 7.10024L55.0008 7.00024C55.2008 6.80024 55.5008 6.50024 55.8008 6.30024C56.2008 6.00024 56.7008 5.80024 57.1008 5.70024C57.7008 5.60024 58.2008 5.60024 58.7008 5.90024C59.2008 6.10024 59.6008 6.60024 59.8008 7.10024C60.0008 7.50024 60.1008 8.00024 60.1008 8.30024C60.3008 10.0002 60.0008 11.7002 59.2008 13.2002C58.9008 13.7002 58.3008 13.9002 57.9008 13.6002C57.4008 13.3002 57.2008 12.7002 57.5008 12.3002C58.1008 11.2002 58.3008 9.80024 58.2008 8.60024C58.2008 8.40024 58.1008 8.10024 58.0008 7.90024C57.9008 7.80024 57.9008 7.70024 57.8008 7.70024C57.8008 7.70024 57.7008 7.70024 57.5008 7.70024C57.3008 7.70024 57.2008 7.80024 57.0008 8.00024C56.8008 8.20024 56.6008 8.30024 56.4008 8.50024L56.3008 8.60024C56.0008 8.90024 55.7008 9.10024 55.4008 9.40024C54.9008 9.70024 54.5008 9.90024 54.0008 9.90024C53.4008 9.90024 52.9008 9.80024 52.3008 9.50024C51.8008 9.20024 51.4008 8.80024 51.1008 8.50024L50.9008 8.20024C50.7008 8.00024 50.5008 7.80024 50.4008 7.60024C50.2008 7.40024 49.9008 7.20024 49.7008 7.20024C49.5008 7.20024 49.4008 7.20024 49.3008 7.20024C49.2008 7.30024 49.1008 7.40024 49.1008 7.60024C49.0008 7.80024 49.0008 8.10024 49.0008 8.50024V8.60024C49.0008 9.00024 48.9008 9.40024 48.8008 9.80024C48.6008 10.4002 48.3008 10.9002 47.9008 11.3002C47.6008 11.6002 47.1008 11.8002 46.7008 11.9002C46.3008 12.0002 45.9008 12.0002 45.5008 11.9002C45.3008 11.9002 45.1008 11.8002 44.9008 11.8002L44.5008 11.7002C44.2008 11.7002 44.0008 11.7002 43.9008 11.7002C43.7008 11.7002 43.6008 11.8002 43.5008 11.8002C43.4008 11.8002 43.4008 11.9002 43.4008 11.9002C43.4008 11.9002 43.4008 12.0002 43.5008 12.2002C43.6008 12.4002 43.8008 12.6002 44.0008 12.8002C44.8008 13.7002 45.5008 14.5002 46.2008 15.4002C46.5008 15.8002 46.5008 16.5002 46.0008 16.8002C45.7008 16.8002 45.5008 16.8002 45.3008 16.8002Z" fill="#FFB422"/>
<path d="M12.6001 31.3999C12.4001 31.3999 12.1001 31.2999 12.0001 31.1999C11.6001 30.7999 11.5001 30.1999 11.9001 29.7999C13.7001 27.5999 15.0001 25.0999 15.6001 22.3999C15.7001 21.8999 16.3001 21.4999 16.8001 21.5999C17.3001 21.6999 17.7001 22.2999 17.6001 22.7999C16.9001 25.7999 15.5001 28.5999 13.5001 30.9999C13.2001 31.2999 12.9001 31.3999 12.6001 31.3999Z" fill="#9BC045"/>
<path d="M26.0006 25.8C25.6006 25.8 25.2006 25.5 25.0006 25.1C24.7006 23.9 24.3006 22.9 23.8006 22.1C23.4006 21.5 22.7006 21 21.9006 20.9C21.2006 20.8 20.4006 20.9 19.7006 21.3C19.2006 21.6 18.6006 21.5 18.3006 21C18.0006 20.5 18.1006 19.9 18.6006 19.6C19.7006 18.9 21.0006 18.6 22.2006 18.9C23.4006 19.1 24.6006 19.9 25.3006 20.9C26.1006 22 26.5006 23.3 26.8006 24.5C26.9006 25 26.6006 25.6 26.1006 25.7C26.2006 25.8 26.1006 25.8 26.0006 25.8Z" fill="#9BC045"/>
<path d="M26.9 31.2001C26.4 31.2001 26 30.8001 25.9 30.3001L25.7 28.7001C25.6 28.3001 25.9 27.8001 26.3 27.7001L28.9 26.7001L26.8 26.0001C26.3 25.8001 26 25.3001 26.1 24.7001C26.3 24.2001 26.8 23.9001 27.4 24.0001L32.1 25.5001C32.5 25.6001 32.8 26.0001 32.8 26.4001C32.8 26.8001 32.6 27.2001 32.2 27.4001L27.8 29.2001L27.9 30.0001C28 30.5001 27.6 31.0001 27 31.1001C27 31.2001 26.9 31.2001 26.9 31.2001Z" fill="#9BC045"/>
<path d="M15.7004 23.2C15.4004 23.2 15.1004 23.0999 14.9004 22.7999C14.4004 22.1999 13.9004 21.6 13.4004 21C13.2004 20.8 13.0004 20.5 12.8004 20.2C12.5004 19.7 12.4004 19.1999 12.5004 18.7999C12.6004 18.2999 12.9004 17.9 13.3004 17.6C13.6004 17.4 14.0004 17.3 14.4004 17.2C14.7004 17.2 15.1004 17.2 15.3004 17.2H15.6004C15.7004 17.2 15.8004 17.1999 16.0004 17.2999C16.2004 17.2999 16.3004 17.2999 16.4004 17.2999C16.5004 17.2999 16.5004 17.2999 16.5004 17.2999C16.5004 17.2999 16.6004 17.2 16.6004 17.1C16.6004 16.9 16.7004 16.7 16.7004 16.5C16.7004 16.1 16.8004 15.7 16.9004 15.3C17.1004 14.8 17.4004 14.4 17.8004 14.1C18.3004 13.8 18.9004 13.7 19.5004 13.9C19.9004 14 20.3004 14.3 20.7004 14.6C20.9004 14.8 21.1004 15 21.2004 15.1L21.4004 15.3C21.5004 15.4 21.7004 15.6 21.9004 15.7C22.0004 15.8 22.1004 15.8 22.1004 15.8C22.1004 15.8 22.2004 15.8 22.3004 15.7C22.4004 15.6 22.6004 15.5 22.7004 15.3C22.9004 15.1 23.1004 14.9 23.3004 14.7C23.6004 14.4 24.0004 14.3 24.4004 14.2C24.9004 14.1 25.3004 14.1 25.7004 14.3C26.1004 14.5 26.5004 14.9 26.7004 15.3C26.9004 15.7 26.9004 15.9999 27.0004 16.2999C27.1004 17.5999 26.9004 18.9 26.3004 20.1C26.0004 20.6 25.4004 20.8 25.0004 20.5C24.5004 20.2 24.3004 19.6 24.6004 19.2C25.0004 18.4 25.2004 17.5 25.1004 16.6C25.1004 16.5 25.1004 16.3 25.0004 16.2C24.9004 16.2 24.8004 16.1999 24.7004 16.2999C24.6004 16.3999 24.4004 16.5 24.3004 16.7C24.0004 17 23.8004 17.1999 23.5004 17.4C23.1004 17.6999 22.7004 17.7999 22.3004 17.7999C21.8004 17.7999 21.4004 17.6999 20.9004 17.4C20.5004 17.1999 20.2004 16.9 20.0004 16.6L19.8004 16.4C19.7004 16.3 19.5004 16.1 19.4004 16C19.2004 15.9 19.1004 15.8 19.0004 15.7C18.9004 15.7 18.9004 15.7 18.9004 15.7C18.9004 15.7 18.9004 15.7 18.8004 15.8C18.7004 16 18.7004 16.1999 18.7004 16.4C18.7004 16.8 18.7004 17.1 18.6004 17.4C18.5004 17.9 18.2004 18.3 17.9004 18.6C17.6004 18.8 17.3004 19 16.9004 19.1C16.6004 19.2 16.3004 19.2 15.9004 19.1C15.7004 19.1 15.6004 19.1 15.4004 19H15.1004C14.9004 19 14.8004 19 14.7004 19H14.6004C14.7004 19.1 14.8004 19.2 14.9004 19.4C15.5004 20.0999 16.1004 20.7 16.6004 21.4C16.9004 21.7999 16.9004 22.4999 16.4004 22.7999C16.1004 23.1999 15.9004 23.2 15.7004 23.2Z" fill="#FFB422"/>
<path d="M96.8004 47.3C95.6004 47.3 94.4004 46.9 93.4004 46.3C92.7004 45.8 92.5004 44.9 93.0004 44.2C93.5004 43.5 94.4004 43.3 95.1004 43.8C95.8004 44.3 96.7004 44.4 97.6004 44.2C98.4004 44 99.0004 43.5 99.3004 42.8C99.9004 41.5 99.3004 39.8 98.7004 38.1C98.4004 37.3 98.2004 36.6 97.9004 35.8C97.6004 35 98.1004 34.2 98.9004 33.9C99.7004 33.6 100.5 34.1 100.8 34.9C101 35.6 101.3 36.4 101.5 37.1C102.2 39.1 103.1 41.7 102 44.1C101.3 45.6 100 46.7 98.4004 47.1C97.8004 47.2 97.3004 47.3 96.8004 47.3Z" fill="#9BC045"/>
<path d="M50.6996 99.4998C27.5996 99.4998 15.0996 93.4998 15.0996 87.7998C15.0996 87.1998 15.4996 86.7998 16.0996 86.7998C16.6996 86.7998 17.0996 87.1998 17.0996 87.7998C17.0996 92.3998 30.8996 97.4998 50.6996 97.4998C70.4996 97.4998 84.2996 92.3998 84.2996 87.7998C84.2996 87.1998 84.6996 86.7998 85.2996 86.7998C85.8996 86.7998 86.2996 87.1998 86.2996 87.7998C86.2996 93.4998 73.8996 99.4998 50.6996 99.4998Z" fill="#FFB422"/>
<path d="M57.1999 106.2C56.6999 106.2 56.2999 105.8 56.1999 105.3C56.0999 104.8 56.4999 104.2 57.0999 104.2C74.7999 101.8 84.2999 96.5999 84.2999 92.8999C84.2999 92.2999 84.6999 91.8999 85.2999 91.8999C85.8999 91.8999 86.2999 92.2999 86.2999 92.8999C86.2999 99.2999 71.7999 104.2 57.2999 106.1C57.2999 106.2 57.2999 106.2 57.1999 106.2Z" fill="#FFB422"/>
<path d="M40.2004 107.4C26.0004 107.4 12.7004 104.9 10.8004 99.3C9.90036 96.8 11.4004 94.3 15.1004 91.7C15.6004 91.4 16.2004 91.5 16.5004 92C16.8004 92.5 16.7004 93.1 16.2004 93.4C14.2004 94.7 12.0004 96.8 12.6004 98.7C14.0004 102.9 28.1004 106.5 48.3004 105.2C51.3004 105 54.2004 104.7 57.0004 104.3C57.5004 104.2 58.1004 104.6 58.1004 105.2C58.1004 105.8 57.8004 106.3 57.2004 106.3C54.3004 106.7 51.4004 107 48.4004 107.2C45.8004 107.3 43.0004 107.4 40.2004 107.4Z" fill="#FFB422"/>
<path d="M76.2002 106.4C75.0002 106.4 73.9002 106.4 72.7002 106.3C72.1002 106.3 71.7002 105.8 71.7002 105.3C71.7002 104.8 72.2002 104.3 72.7002 104.3C84.0002 104.8 92.3002 102.9 93.5002 99.3998C94.2002 97.3998 92.3002 94.6998 88.1002 91.5998C87.7002 91.2998 87.5002 90.6998 87.9002 90.1998C88.2002 89.7998 88.8002 89.5998 89.3002 89.9998C94.4002 93.6998 96.5002 97.0998 95.4002 99.9998C93.9002 104.8 85.0002 106.4 76.2002 106.4Z" fill="#FFB422"/>
<path d="M50.6 103.2C50.5 103.2 50.5 103.2 50.4 103.2C39.2 100.8 31.1 97.0001 28.6 93.0001C27.8 91.7001 27.6 90.5001 27.9 89.2001C28 88.7001 28.6 88.4001 29.1 88.5001C29.6 88.6001 29.9 89.2001 29.8 89.7001C29.6 90.4001 29.8 91.1001 30.2 91.9001C32.3 95.4001 40.2 99.0001 50.7 101.2C51.2 101.3 51.6 101.8 51.5 102.4C51.5 102.8 51.1 103.2 50.6 103.2Z" fill="#FFB422"/>
<path d="M67.9004 115.6C67.4004 115.6 66.9004 115.2 66.9004 114.6C66.9004 114 67.3004 113.6 67.8004 113.6C77.3004 113.1 83.4004 110.8 83.4004 107.8C83.4004 107.2 83.8004 106.8 84.4004 106.8C85.0004 106.8 85.4004 107.2 85.4004 107.8C85.4004 112.2 79.0004 115 67.9004 115.6Z" fill="#FFB422"/>
<path d="M59.8003 114.4C59.7003 114.4 59.7003 114.4 59.8003 114.4C37.8003 112.9 18.0003 105.3 16.6003 97.9999C16.3003 96.1999 16.8003 93.5999 21.4003 91.3999C21.9003 91.1999 22.5003 91.3999 22.7003 91.8999C22.9003 92.3999 22.7003 92.9999 22.2003 93.1999C19.5003 94.4999 18.2003 95.9999 18.5003 97.5999C19.6003 103.2 37.8003 110.9 59.8003 112.4C60.4003 112.4 60.8003 112.9 60.7003 113.5C60.7003 114 60.3003 114.4 59.8003 114.4Z" fill="#FFB422"/>
<path d="M43.6998 116.4C34.5998 116.4 27.2998 114.9 24.1998 112.2C22.9998 111.1 22.2998 109.9 22.2998 108.5C22.2998 107.9 22.6998 107.5 23.2998 107.5C23.8998 107.5 24.2998 107.9 24.2998 108.5C24.2998 109.3 24.6998 110 25.4998 110.7C29.6998 114.3 42.8998 115.5 57.5998 113.4C64.7998 112.4 71.6998 110.7 77.5998 108.6C78.0998 108.4 78.6998 108.7 78.8998 109.2C79.0998 109.7 78.7998 110.3 78.2998 110.5C72.2998 112.7 65.2998 114.4 57.8998 115.4C52.8998 116.1 48.0998 116.4 43.6998 116.4Z" fill="#FFB422"/>
</g>
<defs>
<clipPath id="clip0">
<rect width="108.3" height="116.4" fill="white"/>
</clipPath>
</defs>
</svg>
