<svg width="120" height="144" viewBox="0 0 120 144" fill="none" xmlns="http://www.w3.org/2000/svg">
<g clip-path="url(#clip0)">
<path d="M56.4004 81.3002C55.4004 81.3002 54.3004 81.0002 53.3004 80.5002C50.7004 79.2002 49.5004 76.8002 50.4004 74.8002L51.9004 71.5002C46.7004 64.3002 47.0004 56.7002 47.2004 51.2002C47.4004 45.5002 47.4004 42.8002 43.9004 41.8002C43.3004 41.6002 42.9004 41.2002 42.8004 40.6002C42.7004 40.0002 43.0004 39.4002 43.5004 39.1002C45.7004 37.7002 48.6004 37.9002 51.6004 39.6002C55.9004 42.0002 60.2004 47.8002 60.0004 55.0002C60.0004 55.8002 59.3004 56.5002 58.5004 56.5002C57.7004 56.5002 57.0004 55.8002 57.0004 55.0002C57.2004 49.0002 53.6004 44.2002 50.1004 42.2002C49.6004 41.9002 49.2004 41.7002 48.8004 41.6002C50.5004 44.1002 50.4004 47.6002 50.2004 51.4002C50.0004 57.0002 49.7004 63.9002 54.8004 70.5002C55.1004 70.9002 55.2004 71.5002 55.0004 72.0002L53.1004 76.2001C52.9004 76.6002 53.5004 77.4002 54.6004 78.0002C55.5004 78.5002 57.0004 78.8002 57.5004 77.9002C57.9004 77.2002 58.8004 76.9002 59.5004 77.3002C60.2004 77.7002 60.5004 78.6002 60.1004 79.3002C59.4004 80.6002 58.0004 81.3002 56.4004 81.3002ZM61.9004 76.5002C60.3004 76.5002 58.7004 76.3001 56.8004 75.7001C56.0004 75.5001 55.6004 74.6002 55.8004 73.8002C56.0004 73.0002 56.9004 72.6002 57.7004 72.8002C66.9004 75.5002 71.1004 69.4002 75.6004 63.0002C79.0004 58.1002 82.8004 52.7002 89.0004 53.0002C87.0004 51.2002 84.8004 50.1002 82.3004 49.9002C72.5004 49.0002 60.8004 60.3002 56.3004 65.1002C55.7004 65.7002 54.8004 65.7002 54.2004 65.2002C53.6004 64.6002 53.6004 63.7002 54.1004 63.1002C60.1004 56.6002 71.8004 45.9002 82.6004 46.9002C87.3004 47.3002 91.3004 50.0002 94.3004 54.7002C94.7004 55.3002 94.6004 56.0002 94.2004 56.5002C93.8004 57.0002 93.1004 57.2002 92.5004 56.9002C85.8004 54.0002 82.6004 58.0002 78.0004 64.7002C74.3004 70.0002 69.9004 76.5002 61.9004 76.5002Z" fill="#9BC045"/>
<path d="M31.5 112.3C21.1 111.8 18.6 108.6 16.8 100.1C16.7 99.6 17 99 17.6 98.9C18.1 98.8 18.7 99.1 18.8 99.7C20.6 108.4 23.5 109.7 30.3 110.2C29 103.8 25 100.4 16.1 98C15.6 97.9 15.3 97.3 15.4 96.8C15.5 96.3 16.1 96 16.6 96.1C25.2 98.4 31.1 101.9 32.5 111.2C32.5 111.5 32.4 111.8 32.2 112C32.1 112.2 31.8 112.3 31.5 112.3ZM31.3 103.5C31 103.5 30.7 103.4 30.5 103.2C30.3 103 30.2 102.6 30.3 102.3C32.5 93.4 36.4 88.3 44.2 84.2C44.5 84 44.9 84.1 45.2 84.2C45.5 84.4 45.7 84.7 45.7 85.1C45.7 95.4 44.7 102.3 31.3 103.5C31.4 103.5 31.4 103.5 31.3 103.5ZM43.7 86.8C37.8 90.2001 34.6 94.4 32.7 101.4C42 100.1 43.5 95.8 43.7 86.8ZM27.9 98.2C27.8 98.2 27.8 98.2 27.7 98.2C16.1 95.9 14.7 91.4 13.2 81.4C13.2 81.2001 13.1 81.1 13.1 80.9C13 80.4 13.4 79.8 13.9 79.8C14.4 79.7001 14.9 80.1 15 80.6C24 83.5 27.9 88.3 28.9 97C28.9 97.3 28.8 97.6001 28.6 97.8C28.4 98.1001 28.1 98.2 27.9 98.2ZM15.4 82.6C16.7 90.6 18.3 93.9 26.7 95.8C25.6 89.1001 22.4 85.3 15.4 82.6ZM30.8 89.2C30.6 89.2 30.3 89.1 30.1 88.9C29.9 88.7001 29.7 88.4 29.8 88.1C30.4 79.3 33.4 74.6001 41.6 69.5V69.4001C41.6 68.8001 42 68.4001 42.5 68.3001C43 68.2001 43.5 68.7 43.6 69.2C43.6 69.4 43.6 69.6001 43.6 69.9001C43.6 69.9001 43.6 69.9001 43.6 70C44.1 80.5 43.3 87 31 89.2C30.9 89.2 30.9 89.2 30.8 89.2ZM41.7 71.8001C35.2 76.1001 32.6 80 31.9 87C40.7 85.1 42 80.8 41.7 71.8001ZM27.3 82C17.2 81.4 14.4 77.7001 12.3 70.4001C12.1 69.9001 12.5 69.3 13 69.2C13.5 69 14.1 69.4001 14.2 69.9001C16 76.2001 18.1 79.2 26 80C24.1 73 20.3 69.8 11.5 67.5C11 67.4001 10.6 66.8001 10.8 66.3001C11 65.8001 11.5 65.4 12 65.6C22.1 68 26.4 72 28.3 80.8C28.4 81.1001 28.3 81.4 28.1 81.7C27.9 81.9 27.6 82 27.3 82ZM29 73.9C28.8 73.9 28.5 73.8 28.4 73.7C28.2 73.5 28 73.2001 28 72.9001C28.2 68.1001 29.2 64.5 31.3 61.1C31.2 61 31.2 60.8 31.1 60.7001C28.8 48.7001 26.6 35.9 25.9 23.2C25.9 22.6 26.3 22.2 26.8 22.1C27.4 22.1 27.8 22.5 27.9 23C28.6 35.1 30.7 47.4001 32.9 58.9001C34.1 57.5 35.5 56.2001 37.1 54.8C37.5 54.4 38.2 54.5 38.5 54.9001L38.6 55C38.5 54.6 38.5 54.1 38.4 53.6C38.3 53.1 38.7 52.5 39.2 52.5C39.7 52.4001 40.3 52.8 40.3 53.3C42 63.7001 42.1 70.8 29.1 73.7C29.1 73.9 29.1 73.9 29 73.9ZM38.7 55.9001C38.7 56.1001 38.5 56.3001 38.4 56.4001C32.9 61 30.6 65.1 30.1 71.6C39.1 69.2 40 64.7001 38.7 55.9001ZM25.6 67.2C13.6 67.1 11.1 62.4 8.5 52C8.4 51.5 8.7 50.9 9.2 50.8C9.7 50.7001 10.3 51 10.4 51.5C10.5 51.9001 10.6 52.4 10.7 52.8C10.7 52.7001 10.7 52.7 10.7 52.6C10.9 52.1 11.4 51.8001 11.9 51.9001C17.7 53.6001 21.5 56.1 24 60.3C21.1 44.4 17.6 29.5 11.3 11.2C11.1 10.7 11.4 10.1 11.9 9.90005C12.4 9.70005 13 10 13.2 10.5C20.2 30.9 23.8 47.1 27 65.2C27.1 65.6 26.9 66 26.6 66.2C26.6 66.4 26.5 66.6001 26.4 66.8001C26.2 67.1001 25.9 67.2 25.6 67.2ZM10.9 53.5C13.1 61.6001 15.3 64.8 24.2 65.2C22 59.1 18.4 55.9001 11.5 53.9001C11.2 53.8001 11.1 53.6 10.9 53.5ZM17.3 52.4001C16.9 52.4001 16.5 52.1001 16.3 51.7001C14 42.9001 10.2 34.9 4 25.7C3.7 25.2 3.8 24.6 4.3 24.3C4.8 24 5.4 24.1 5.7 24.6C12 34 15.9 42.2001 18.3 51.2001C18.4 51.7001 18.1 52.3001 17.6 52.4001C17.5 52.4001 17.4 52.4001 17.3 52.4001ZM38.4 50.5C38 50.5 37.6 50.2001 37.4 49.8C36.3 46.2001 34.8 39.3001 37.6 33.7001C37.8 33.2001 38.4 33 38.9 33.3C39.4 33.5 39.6 34.1 39.3 34.6C37.5 38.2 37.5 43.5 39.3 49.2001C39.5 49.7001 39.2 50.3 38.6 50.5C38.6 50.5 38.5 50.5 38.4 50.5ZM8.1 49.4001C7.7 49.4001 7.4 49.2001 7.2 48.8C5.4 44.7001 3.1 41.4 0.3 38.8C-0.1 38.4 -0.1 37.8001 0.3 37.4001C0.7 37.0001 1.3 37.0001 1.7 37.4001C4.7 40.1001 7 43.6 9 48C9.2 48.5 9 49.1 8.5 49.3C8.4 49.4 8.2 49.4001 8.1 49.4001Z" fill="#FFB422"/>
<path d="M86.0004 143.6C85.7004 143.6 85.3004 143.4 85.1004 143.1C79.2004 133.4 78.7004 126.2 83.4004 121.1C83.6004 120.9 83.8004 120.8 84.1004 120.8C84.4004 120.8 84.6004 120.9 84.8004 121.1C90.6004 126.8 91.5004 135.9 86.9004 142.9L86.8004 143C86.7004 143.2 86.6004 143.3 86.4004 143.4C86.4004 143.5 86.2004 143.6 86.0004 143.6ZM84.3004 123.3C81.2004 127.4 81.8004 133 86.1004 140.6C89.1004 135 88.4004 128 84.3004 123.3ZM68.0004 141.8C67.9004 141.8 67.7004 141.8 67.6004 141.7C67.4004 141.6 67.2004 141.4 67.1004 141.1C64.8004 135 67.5004 129 75.3004 122.7C75.7004 122.4 76.3004 122.4 76.7004 122.8C76.7004 122.8 76.7004 122.8 76.7004 122.7C76.6004 122.2 76.9004 121.6 77.5004 121.5C78.0004 121.4 78.6004 121.7 78.7004 122.3C80.3004 130.4 76.0004 138.6 68.5004 141.6C68.2004 141.8 68.1004 141.8 68.0004 141.8ZM76.8004 124C76.7004 124.1 76.6004 124.3 76.5004 124.4C69.9004 129.7 67.3004 134.6 68.6004 139.5C74.2004 136.7 77.6004 130.5 76.8004 124ZM103.3 135.1C103.2 135.1 103.1 135.1 103 135.1C102.9 135.1 102.9 135.1 102.8 135.1C94.6004 133.8 88.4004 127 88.1004 118.9C88.1004 118.6 88.2004 118.4 88.4004 118.2C88.6004 118 88.8004 117.9 89.1004 117.9C96.0004 117.8 101 123 104.2 133.9C104.4 134.4 104.1 135 103.5 135.1C103.4 135.1 103.4 135.1 103.3 135.1ZM90.2004 119.9C90.9004 126.1 95.6004 131.3 101.8 132.8C99.1004 124.6 95.2004 120.4 90.2004 119.9ZM56.7004 134.8C56.5004 134.8 56.2004 134.7 56.0004 134.5C55.8004 134.3 55.7004 134.1 55.7004 133.8C55.4004 127.8 59.2004 123.2 67.1004 119.8C67.6004 119.6 68.2004 119.8 68.4004 120.3C68.6004 120.8 68.4004 121.4 67.9004 121.6C61.3004 124.4 58.0004 128.1 57.7004 132.6C64.3004 131.7 69.6004 126.2 70.5004 119.3C70.6004 118.8 71.1004 118.4 71.6004 118.4C72.1004 118.5 72.5004 119 72.5004 119.5C71.4004 127.9 64.8004 134.2 56.7004 134.8ZM112.1 126.7C104.1 126.7 97.1004 120.9 95.4004 112.8C95.3004 112.3 95.6004 111.7 96.2004 111.6C96.7004 111.5 97.3004 111.8 97.4004 112.4C98.8004 119.2 104.5 124.2 111.2 124.7C110.6 120.2 107 116.8 100.2 114.5C99.7004 114.3 99.4004 113.8 99.6004 113.2C99.8004 112.6 100.3 112.4 100.9 112.6C109 115.4 113.1 119.7 113.3 125.7C113.3 126 113.2 126.2 113 126.4C112.8 126.6 112.6 126.7 112.3 126.7C112.2 126.7 112.2 126.7 112.1 126.7ZM51.6004 123.6C49.7004 123.6 47.9004 123.1 46.1004 122.2C45.9004 122.1 45.7004 121.9 45.6004 121.6C45.5004 121.3 45.6004 121.1 45.7004 120.8C49.6004 113.8 58.1004 110.6 65.9004 113C66.3004 112.6 66.9004 112.6 67.3004 113C67.7004 113.4 67.7004 114 67.3004 114.4C61.5004 120.6 56.3004 123.6 51.6004 123.6ZM48.0004 120.9C52.8004 122.9 58.0004 120.9 64.3004 114.7C58.0004 113.2 51.5004 115.7 48.0004 120.9ZM112.2 117.6C111.6 117.6 111.2 117.2 111.2 116.6C111.2 116 111.6 115.6 112.2 115.6C114.1 115.6 115.7 115.1 117.3 114.2C114.3 111 110.1 109.3 105.6 109.6C102.9 110 99.7004 110 96.1004 109.4C95.6004 109.3 95.2004 108.9 95.3004 108.3C95.3004 108.3 95.3004 108.3 95.3004 108.4C95.0004 108.8 94.3004 108.9 93.9004 108.6C93.5004 108.3 93.4004 107.6 93.7004 107.2C98.6004 100.5 107.5 98.2001 114.8 101.6C115 101.7 115.2 101.9 115.3 102.2C115.4 102.5 115.4 102.7 115.2 103C114.1 105.2 112.5 106.9 110.4 108C114 108.8 117.2 110.8 119.6 113.8C119.8 114 119.8 114.3 119.8 114.5C119.8 114.7 119.6 115 119.4 115.2C117.3 116.8 114.9 117.6 112.2 117.6ZM96.2004 107.4C96.2004 107.4 96.3004 107.4 96.4004 107.4C99.1004 107.8 101.6 107.9 103.7 107.8C103.8 107.8 103.8 107.8 103.9 107.8C104.4 107.7 104.9 107.7 105.4 107.6C108.9 107 111.4 105.5 113 103C107.1 100.7 100.3 102.5 96.1004 107.5C96.0004 107.4 96.1004 107.4 96.2004 107.4ZM57.7004 110.6C55.0004 110.6 51.9004 109.9 48.4004 108.4C47.9004 108.2 47.7004 107.6 47.9004 107.1C48.1004 106.6 48.7004 106.4 49.2004 106.6C55.8004 109.4 60.7004 109.4 64.2004 106.4C59.0004 102.2 51.4004 102.1 45.7004 106.2C45.3004 106.5 44.6004 106.4 44.3004 106C44.0004 105.6 44.1004 104.9 44.5004 104.6C51.2004 99.7001 60.4004 100.1 66.3004 105.6C66.5004 105.8 66.6004 106 66.6004 106.3C66.6004 106.6 66.5004 106.8 66.3004 107C64.0004 109.4 61.1004 110.6 57.7004 110.6ZM69.1004 101.9C69.1004 101.9 69.0004 101.9 69.1004 101.9C60.7004 101.3 54.0004 95.1001 53.0004 87.0001C53.0004 86.7001 53.0004 86.5001 53.2004 86.3001C53.4004 86.1001 53.6004 86.0001 53.9004 85.9001C60.4004 85.2001 65.5004 89.4001 69.5004 98.6001C69.7004 99.1001 69.5004 99.6001 69.0004 99.9001C69.0004 99.9001 69.0004 99.9001 69.1004 99.9001C69.7004 99.9001 70.1004 100.4 70.0004 101C70.1004 101.5 69.6004 101.9 69.1004 101.9ZM55.2004 87.8001C56.4004 94.0001 61.6004 98.8001 68.0004 99.7001C67.9004 99.6001 67.8004 99.5001 67.7004 99.3001C64.3004 91.7001 60.2004 87.9001 55.2004 87.8001ZM92.7004 101.6C92.2004 101.6 91.6004 101.6 91.1004 101.5C90.8004 101.5 90.6004 101.3 90.4004 101.1C90.2004 100.9 90.2004 100.6 90.2004 100.4C91.1004 93.5001 97.7004 89.2001 103.8 88.4001C104.3 88.3001 104.8 88.7001 104.9 89.3001C105 89.8001 104.6 90.3001 104 90.4001C99.0004 91.0001 93.5004 94.3001 92.3004 99.6001C92.4004 99.6001 92.5004 99.6001 92.6004 99.6001C99.2004 99.6001 105.1 95.2001 107.1 88.6001C107.3 88.1001 107.8 87.8001 108.3 87.9001C108.8 88.1001 109.1 88.6001 109 89.1001C106.9 96.6001 100.2 101.6 92.7004 101.6ZM83.8004 99.2001C83.4004 99.2001 83.1004 99.0001 82.9004 98.7001C79.0004 91.4001 80.8004 82.3001 87.1004 77.2001C87.3004 77.0001 87.6004 77.0001 87.8004 77.0001C88.1004 77.0001 88.3004 77.2001 88.5004 77.4001C90.0004 79.3001 90.8004 81.4001 90.9004 83.6001C93.5004 80.2001 97.3004 78.0001 101.6 77.3001C101.9 77.3001 102.1 77.3001 102.4 77.5001C102.6 77.7001 102.8 77.9001 102.8 78.2001C103.3 81.7001 102.2 85.0001 99.8004 87.8001C99.4004 88.2001 98.8004 88.3001 98.4004 87.9001C98.0004 87.5001 97.9004 86.9001 98.3004 86.5001C100.2 84.3001 101 82.0001 101 79.5001C96.3004 80.6001 92.4004 83.9001 90.5004 88.6001C89.8004 91.3001 88.3004 94.2001 86.1004 97.4001C85.8004 97.8001 85.2004 98.0001 84.8004 97.7001C84.8004 97.7001 84.8004 97.7001 84.8004 97.8001C85.1004 98.3001 84.9004 98.9001 84.4004 99.2001C84.1004 99.2001 84.0004 99.2001 83.8004 99.2001ZM87.5004 79.5001C82.9004 83.8001 81.5004 90.7001 84.1004 96.7001C84.1004 96.6001 84.2004 96.4001 84.3004 96.3001C89.1004 89.3001 90.2004 83.8001 87.5004 79.5001ZM76.2004 98.9001C76.0004 98.9001 75.9004 98.9001 75.7004 98.8001C68.6004 94.8001 65.4004 86.2001 68.0004 78.3001C68.0004 78.2001 68.0004 78.2001 68.1004 78.1001C68.1004 77.9001 68.2004 77.7001 68.4004 77.6001C68.8004 77.2001 69.4004 77.2001 69.8004 77.6001C71.2004 79.0001 72.4004 80.3001 73.5004 81.6001C73.1004 77.6001 74.2004 73.6001 76.6004 70.3001C76.8004 70.1001 77.0004 69.9001 77.3004 69.9001C77.6004 69.9001 77.8004 69.9001 78.1004 70.1001C80.9004 72.3001 82.5004 75.3001 82.8004 79.1001C82.8004 79.7001 82.4004 80.1001 81.9004 80.2001C81.3004 80.2001 80.9004 79.8001 80.8004 79.3001C80.6004 76.5001 79.6004 74.2001 77.7004 72.5001C75.1004 76.7001 74.8004 81.8001 76.8004 86.4001C76.8004 86.5001 76.9004 86.6001 76.9004 86.7001C79.1004 91.0001 79.1004 94.9001 77.2004 98.6001C77.1004 98.8001 76.9004 99.0001 76.6004 99.1001C76.4004 98.9001 76.3004 98.9001 76.2004 98.9001ZM69.5004 80.2001C68.0004 86.5001 70.5004 93.0001 75.7004 96.5001C77.7004 91.8001 75.6004 86.4001 69.5004 80.2001ZM62.1004 51.8001C62.0004 51.8001 61.8004 51.8001 61.7004 51.7001C61.2004 51.5001 61.0004 50.9001 61.2004 50.4001C61.3004 50.1001 61.5004 49.7001 61.8004 49.0001C63.6004 44.7001 65.3004 40.6001 67.0004 36.9001C63.8004 36.2001 61.2004 36.2001 60.2004 37.1001C59.7004 38.3001 59.2004 39.4001 58.9004 40.2001C58.7004 40.7001 58.1004 40.9001 57.6004 40.7001C57.1004 40.5001 56.9004 39.9001 57.1004 39.4001C61.2004 29.5001 72.1004 5.90013 83.7004 0.600126C85.7004 -0.299874 88.0004 -0.399874 90.1004 0.500126C92.2004 1.40013 93.8004 3.10013 94.5004 5.20013C98.0004 16.1001 90.7004 36.7001 86.0004 48.0001C85.8004 48.5001 85.2004 48.8001 84.7004 48.5001C84.2004 48.3001 83.9004 47.7001 84.2004 47.2001C87.9004 38.3001 96.0004 16.5001 92.4004 6.00013C91.9004 4.50013 90.7004 3.20013 89.1004 2.50013C89.0004 2.50013 88.9004 2.40013 88.8004 2.40013C88.7004 2.50013 88.6004 2.60013 88.5004 2.60013C87.5004 3.10013 85.4004 4.90013 81.4004 11.9001C83.5004 12.5001 85.7004 13.4001 87.7004 14.5001C88.5004 11.6001 89.1004 9.10013 89.4004 7.10013C89.5004 6.60013 90.0004 6.20013 90.5004 6.30013C91.0004 6.40013 91.4004 6.90013 91.3004 7.40013C91.0004 9.60013 90.3004 12.4001 89.4004 15.6001C90.0004 16.0001 90.6004 16.4001 91.2004 16.8001C91.6004 17.1001 91.7004 17.8001 91.4004 18.2001C91.1004 18.6001 90.4004 18.7001 90.0004 18.4001C89.4004 17.9001 88.7004 17.4001 87.9004 17.0001C87.8004 17.0001 87.7004 16.9001 87.7004 16.9001C85.4004 15.5001 82.8004 14.5001 80.4004 13.8001C79.4004 15.6001 78.3004 17.6001 77.2004 19.9001C80.3004 20.8001 83.4004 22.2001 86.0004 23.8001C86.0004 23.8001 86.1004 23.8001 86.1004 23.9001C86.6004 24.2001 87.1004 24.6001 87.6004 24.9001C88.0004 25.2001 88.2004 25.8001 87.8004 26.3001C87.5004 26.7001 86.9004 26.9001 86.4004 26.5001C86.3004 26.4001 86.1004 26.3001 86.0004 26.2001C85.2004 28.3001 84.5004 30.4001 83.7004 32.5001C84.8004 33.2001 85.9004 34.0001 86.7004 34.8001C87.1004 35.2001 87.1004 35.8001 86.7004 36.2001C86.3004 36.6001 85.7004 36.6001 85.3004 36.2001C84.6004 35.6001 83.8004 34.9001 83.0004 34.4001C82.1004 36.6001 81.3004 38.7001 80.5004 40.6001C81.1004 41.0001 81.7004 41.4001 82.2004 41.8001C82.6004 42.1001 82.7004 42.8001 82.4004 43.2001C82.1004 43.6001 81.4004 43.7001 81.0004 43.4001C80.6004 43.1001 80.2004 42.8001 79.8004 42.5001C79.4004 43.4001 79.1004 44.2001 78.8004 45.0001C78.6004 45.5001 78.0004 45.7001 77.5004 45.5001C77.0004 45.3001 76.8004 44.7001 77.0004 44.2001C77.4004 43.4001 77.7004 42.4001 78.1004 41.4001C75.3004 39.8001 72.0004 38.4001 69.0004 37.5001C67.4004 41.2001 65.6004 45.3001 63.7004 49.9001C63.4004 50.6001 63.2004 51.0001 63.1004 51.3001C62.8004 51.6001 62.4004 51.8001 62.1004 51.8001ZM69.7004 35.6001C72.8004 36.5001 76.0004 37.9001 78.7004 39.5001C79.5004 37.6001 80.3004 35.5001 81.2004 33.3001C78.5004 31.7001 75.4004 30.4001 72.5004 29.6001C71.6004 31.4001 70.7004 33.5001 69.7004 35.6001ZM63.0004 34.5001C64.4004 34.5001 66.0004 34.7001 67.7004 35.1001C68.6004 33.0001 69.6004 31.0001 70.5004 29.0001C67.5004 28.3001 64.9004 28.3001 63.9004 29.3001L63.8004 29.4001C62.9004 31.2001 62.1004 33.0001 61.3004 34.6001C61.9004 34.5001 62.4004 34.5001 63.0004 34.5001ZM73.3004 27.7001C76.2004 28.6001 79.3004 29.9001 81.9004 31.4001C82.7004 29.3001 83.5004 27.2001 84.2004 25.1001C81.7004 23.6001 78.8004 22.4001 76.2004 21.7001C75.3004 23.5001 74.4004 25.5001 73.3004 27.7001ZM66.9004 26.6001C68.3004 26.6001 69.8004 26.8001 71.4004 27.2001C72.4004 25.1001 73.4004 23.1001 74.3004 21.2001C71.5004 20.6001 69.1004 20.6001 68.1004 21.5001C67.1004 23.3001 66.1004 25.0001 65.2004 26.7001C65.7004 26.6001 66.3004 26.6001 66.9004 26.6001ZM70.9004 18.8001C72.2004 18.8001 73.6004 19.0001 75.1004 19.3001C76.2004 17.1001 77.3004 15.1001 78.3004 13.2001C75.9004 12.9001 73.9004 13.0001 73.0004 14.0001C72.9004 14.1001 72.7004 14.2001 72.5004 14.3001C71.5004 15.8001 70.5004 17.3001 69.5004 18.9001C70.0004 18.8001 70.5004 18.8001 70.9004 18.8001ZM76.2004 11.1001C77.2004 11.1001 78.3004 11.2001 79.4004 11.4001C82.0004 6.90013 84.2004 3.80013 85.9004 2.10013C85.4004 2.20013 84.9004 2.30013 84.4004 2.60013C81.2004 4.10013 77.9004 7.30013 74.9004 11.2001C75.3004 11.1001 75.7004 11.1001 76.2004 11.1001Z" fill="#FFB422"/>
<path d="M80.7997 125.1C76.8997 125.1 73.0997 123.7 70.0997 121.1C63.2997 115.2 62.6997 104.9 68.5997 98.1002C71.9997 94.2002 77.1997 92.1002 82.3997 92.6002C83.1997 92.7002 83.7997 93.4002 83.6997 94.2002C83.5997 95.0002 82.8997 95.6002 82.0997 95.5002C77.7997 95.1002 73.5997 96.8002 70.7997 100C68.4997 102.7 67.2997 106.1 67.4997 109.6C67.6997 113.1 69.2997 116.4 71.9997 118.7C76.0997 122.3 81.9997 123 86.7997 120.5C87.4997 120.1 88.3997 120.4 88.7997 121.1C89.1997 121.8 88.8997 122.7 88.1997 123.1C85.8997 124.5 83.2997 125.1 80.7997 125.1ZM90.8997 121.1C90.4997 121.1 90.0997 120.9 89.7997 120.6C89.1997 120 89.2997 119 89.8997 118.5C93.1997 115.4 94.6997 110.8 93.8997 106.3C93.0997 101.8 89.9997 98.1002 85.7997 96.4002C84.9997 96.1002 84.6997 95.2002 84.9997 94.4002C85.2997 93.6002 86.1997 93.3002 86.9997 93.6002C92.1997 95.7002 95.8997 100.2 96.8997 105.7C97.8997 111.2 96.0997 116.8 91.9997 120.6C91.6997 120.9 91.2997 121.1 90.8997 121.1Z" fill="#9BC045"/>
</g>
<defs>
<clipPath id="clip0">
<rect width="119.8" height="143.6" fill="white"/>
</clipPath>
</defs>
</svg>
