<svg width="81" height="132" viewBox="0 0 81 132" fill="none" xmlns="http://www.w3.org/2000/svg">
<g clip-path="url(#clip0)">
<path d="M9.90019 50.5C9.40019 50.5 9.00019 50.2 8.90019 49.7C8.80019 49.2 9.20019 48.6 9.70019 48.5L47.2002 41.9L56.2002 25.9C56.5002 25.4 57.1002 25.2 57.6002 25.5C58.1002 25.8 58.3002 26.4 58.0002 26.9L48.7002 43.3C48.6002 43.6 48.3002 43.7 48.0002 43.8L10.1002 50.5C10.0002 50.5 9.90019 50.5 9.90019 50.5Z" fill="#FFB422"/>
<path d="M55.1 21.9C54.9 21.9 54.7 21.9 54.6 21.8C54.2 21.6 54 21.1 54.2 20.7L56.1 13.5C56.2 13 56.8 12.6 57.3 12.8C57.8 12.9 58.2 13.5 58 14L56.8 18.4C60.7 16 63.1 16.8 63.3 16.9C63.8 17.1 64.1 17.7 63.9 18.2C63.7 18.7 63.2 19 62.6 18.8C62.5 18.8 59.9 18.1 55.8 21.7C55.6 21.8 55.4 21.9 55.1 21.9Z" fill="#FFB422"/>
<path d="M58.7001 12.3C58.5001 12.3 58.3001 12.2 58.1001 12.1C57.5001 11.6 56.8001 11.1 56.1001 10.7C54.3001 9.49998 52.6001 8.39998 52.3001 6.79998C52.2001 6.29998 52.2001 5.59998 52.8001 4.79998C53.3001 4.09998 53.8001 4.29998 56.5001 5.39998C56.9001 5.59998 57.3001 5.79998 57.8001 5.99998C57.3001 4.99998 56.8001 3.49998 57.5001 1.79998C57.9001 0.799981 58.6001 0.699981 58.9001 0.699981C60.2001 0.599981 61.0001 2.19998 62.3001 4.69998C62.4001 4.79998 62.5001 4.99998 62.5001 5.19998C62.6001 4.69998 62.7001 4.09998 62.8001 3.69998C63.0001 2.19998 63.3001 -0.100019 65.4001 -1.92728e-05C65.8001 -1.92728e-05 66.1001 0.199981 66.3001 0.599981C66.4001 0.799981 68.1001 4.69998 67.8001 7.49998C67.8001 7.99998 67.3001 8.49998 66.7001 8.39998C66.1001 8.39998 65.7001 7.89998 65.8001 7.29998C66.0001 5.99998 65.5001 4.09998 65.1001 2.79998C65.0001 3.19998 65.0001 3.59998 64.9001 3.99998C64.7001 5.49998 64.4001 7.69998 62.4001 7.69998C61.6001 7.69998 61.4001 7.09998 60.6001 5.59998C60.3001 4.99998 59.8001 3.89998 59.3001 3.19998C59.2001 3.99998 59.5001 4.69998 59.8001 5.49998C60.1001 6.29998 60.5001 7.09998 60.2001 7.89998C60.1001 8.19998 59.9001 8.39998 59.6001 8.49998C59.0001 8.69998 58.5001 8.59998 55.7001 7.29998C55.3001 7.09998 54.8001 6.89998 54.3001 6.69998C54.7001 7.39998 56.0001 8.29998 57.1001 8.99998C57.8001 9.49998 58.6001 9.99998 59.3001 10.5C59.7001 10.8 59.8001 11.5 59.4001 11.9C59.3001 12.2 59.0001 12.3 58.7001 12.3Z" fill="#FFB422"/>
<path d="M64.5999 14.6C63.0999 14.6 61.8999 13.4 61.8999 11.9C61.8999 11.3 62.2999 10.9 62.8999 10.9C63.4999 10.9 63.8999 11.3 63.8999 11.9C63.8999 12.3 64.1999 12.6 64.5999 12.6C64.9999 12.6 65.2999 12.3 65.2999 11.9C65.2999 11.3 65.6999 10.9 66.2999 10.9C66.8999 10.9 67.2999 11.3 67.2999 11.9C67.2999 13.4 66.0999 14.6 64.5999 14.6Z" fill="#C93E7F"/>
<path d="M20.8998 103.9C20.4998 103.9 20.1998 103.7 19.9998 103.4C19.6998 102.9 19.8998 102.3 20.3998 102L66.9998 76.3C76.3998 71.1 80.1998 63.4 78.3998 52.8L71.8998 14.2C71.3998 11 69.6998 9.1 66.5998 8C66.0998 7.8 65.7998 7.2 65.9998 6.7C66.1998 6.2 66.7998 5.9 67.2998 6.1C71.0998 7.4 73.2998 10 73.8998 13.8L80.3998 52.4C82.2998 64 78.2998 72.4 67.9998 78.1L21.3998 103.8C21.2998 103.9 21.0998 103.9 20.8998 103.9Z" fill="#FFB422"/>
<path d="M18.4 101.3C18.1 101.3 17.8 101.2 17.7 101L8.6 90.7C3.1 84.4 0 76.4 0 68V43.1C0 42.5 0.4 42.1 1 42.1C1.6 42.1 2 42.5 2 43.1V68C2 75.9 4.9 83.5 10.1 89.4L19.2 99.7C19.6 100.1 19.5 100.7 19.1 101.1C18.9 101.2 18.7 101.3 18.4 101.3Z" fill="#FFB422"/>
<path d="M4.90021 42C4.50021 42 4.10021 41.7 3.90021 41.3L1.60021 32.7C1.50021 32.2 1.80021 31.6 2.30021 31.5C2.80021 31.4 3.40021 31.7 3.50021 32.2L5.80022 40.8C6.00022 41.3 5.60021 41.9 5.10021 42C5.00021 42 4.90021 42 4.90021 42Z" fill="#FFB422"/>
<path d="M6.50022 33.5C6.10021 33.5 5.60021 33.2 5.50021 32.7L3.60021 25.2C3.50021 24.7 3.80022 24.1 4.30022 24C4.80022 23.9 5.40021 24.2 5.50021 24.7L7.40022 32.2C7.50022 32.7 7.20021 33.3 6.70021 33.4C6.60021 33.5 6.50022 33.5 6.50022 33.5Z" fill="#FFB422"/>
<path d="M9.69998 26.8C9.19998 26.8 8.79998 26.4 8.69998 25.9L7.79998 18.7C7.69998 18.2 8.09998 17.7 8.69998 17.6C9.19998 17.5 9.69998 17.9 9.79998 18.5L10.7 25.7C10.8 26.2 10.4 26.7 9.79998 26.8H9.69998Z" fill="#FFB422"/>
<path d="M13.8999 21.9C13.7999 21.9 13.6999 21.9 13.6999 21.9C13.1999 21.8 12.7999 21.2 12.9999 20.7L14.4999 14.3C14.5999 13.8 15.1999 13.4 15.6999 13.6C16.1999 13.7 16.5999 14.3 16.3999 14.8L14.8999 21.2C14.6999 21.6 14.2999 21.9 13.8999 21.9Z" fill="#FFB422"/>
<path d="M23.5998 44.1C23.0998 44.1 22.6998 43.7 22.5998 43.2L18.3998 13.6L15.8998 15.3C15.3998 15.6 14.7998 15.5 14.4998 15C14.1998 14.5 14.2998 13.9 14.7998 13.6L18.5998 11.1C18.8998 10.9 19.1998 10.9 19.5998 11C19.8998 11.1 20.0998 11.4 20.1998 11.8L24.5998 43C24.6998 43.5 24.2998 44.1 23.6998 44.1C23.5998 44.1 23.5998 44.1 23.5998 44.1Z" fill="#FFB422"/>
<path d="M41.8998 103.9C41.6998 103.9 41.3998 103.8 41.1998 103.7L33.0998 96.6C32.6998 96.2 32.5998 95.6 32.9998 95.2C33.3998 94.8 33.9998 94.7 34.3998 95.1L41.7998 101.6L56.3998 86.9C56.7998 86.5 57.3998 86.5 57.7998 86.9C58.1998 87.3 58.1998 87.9 57.7998 88.3L42.4998 103.7C42.4998 103.8 42.1998 103.9 41.8998 103.9Z" fill="#FFB422"/>
<path d="M61.5002 131.4C61.3002 131.4 61.1002 131.3 60.9002 131.2L46.2002 121C46.0002 120.9 45.9002 120.7 45.8002 120.5L41.5002 106.3C41.3002 105.8 41.6002 105.2 42.2002 105.1C42.7002 104.9 43.3002 105.2 43.4002 105.8L47.6002 119.6L62.1002 129.6C62.6002 129.9 62.7002 130.5 62.4002 131C62.1002 131.2 61.8002 131.4 61.5002 131.4Z" fill="#FFB422"/>
<path d="M37.4001 129.7C37.3001 129.7 37.1001 129.7 37.0001 129.6L20.4001 121.6C20.1001 121.4 19.8001 121.1 19.8001 120.7L19.6001 103.5C19.6001 102.9 20.0001 102.5 20.6001 102.5C21.1001 102.5 21.6001 102.9 21.6001 103.5L21.8001 120.1L37.8001 127.8C38.3001 128 38.5001 128.6 38.3001 129.1C38.2001 129.5 37.8001 129.7 37.4001 129.7Z" fill="#FFB422"/>
<path d="M47.3999 129.7H47.2999C46.7999 129.6 46.3999 129.1 46.3999 128.6L47.0999 123.6C47.1999 123.1 47.6999 122.7 48.1999 122.7C48.6999 122.8 49.0999 123.3 49.0999 123.8L48.3999 128.8C48.2999 129.4 47.7999 129.7 47.3999 129.7Z" fill="#FFB422"/>
<path d="M20 129.7H19.9C19.4 129.6 19 129.1 19 128.6L19.7 123.6C19.8 123.1 20.3 122.7 20.8 122.7C21.3 122.8 21.7 123.3 21.7 123.8L21 128.8C20.9 129.4 20.5 129.7 20 129.7Z" fill="#FFB422"/>
<path d="M52.6001 122.4C52.1001 122.4 51.6001 122 51.6001 121.5C51.6001 120.9 52.0001 120.5 52.5001 120.4L58.4001 120C59.0001 120 59.4001 120.4 59.5001 120.9C59.5001 121.5 59.1001 121.9 58.6001 122L52.6001 122.4Z" fill="#FFB422"/>
<path d="M25.2002 121.8C24.7002 121.8 24.2002 121.4 24.2002 120.9C24.2002 120.3 24.6002 119.9 25.1002 119.8L31.0002 119.4C31.6002 119.4 32.0002 119.8 32.1002 120.3C32.1002 120.9 31.7002 121.3 31.2002 121.4L25.2002 121.8C25.3002 121.8 25.3002 121.8 25.2002 121.8Z" fill="#FFB422"/>
<path d="M37.3999 123.5C37.0999 123.5 36.7999 123.3 36.5999 123.1C36.2999 122.6 36.3999 122 36.8999 121.7L42.5999 117.9C43.0999 117.6 43.6999 117.7 43.9999 118.2C44.2999 118.7 44.1999 119.3 43.6999 119.6L37.9999 123.4C37.7999 123.5 37.5999 123.5 37.3999 123.5Z" fill="#FFB422"/>
<path d="M12.5 122C12.2 122 11.9 121.8 11.7 121.6C11.4 121.1 11.5 120.5 12 120.2L17.7 116.4C18.2 116.1 18.8 116.2 19.1 116.7C19.4 117.2 19.3 117.8 18.8 118.1L13.1 121.9C12.9 122 12.7 122 12.5 122Z" fill="#FFB422"/>
<path d="M33.2002 67.1C28.8002 67.1 24.5002 66.3 21.2002 64.1C17.6002 61.7 15.7002 58 15.7002 53.1C15.7002 52.5 16.1002 52.1 16.7002 52.1C17.3002 52.1 17.7002 52.5 17.7002 53.1C17.7002 57.3 19.2002 60.4 22.3002 62.5C28.9002 66.9 40.7002 65.1 47.0002 62.5C47.5002 62.3 48.1002 62.5 48.3002 63C48.5002 63.5 48.3002 64.1 47.8002 64.3C44.1002 65.8 38.6002 67.1 33.2002 67.1Z" fill="#FFB422"/>
<path d="M64.2999 25.5C63.9999 25.5 63.5999 25.4 63.3999 25.3C62.1999 24.8 61.1999 23.2 61.8999 20.8C61.9999 20.3 62.5999 19.9 63.0999 20.1C63.5999 20.2 63.9999 20.8 63.7999 21.3C63.4999 22.5 63.7999 23.3 64.1999 23.5C64.5999 23.7 65.2999 23.3 65.8999 22.2C66.1999 21.7 66.7999 21.6 67.2999 21.9C67.7999 22.2 67.8999 22.8 67.5999 23.3C66.4999 24.9 65.2999 25.5 64.2999 25.5Z" fill="#C93E7F"/>
<path d="M59.3001 25.7C58.6001 25.7 58.1001 25.4 57.7001 24.9C57.1001 24 57.2001 22.5 57.9001 21.1C58.2001 20.6 58.8001 20.4 59.2001 20.7C59.7001 21 59.9001 21.6 59.6001 22C59.1001 22.9 59.2001 23.7 59.3001 23.8C59.9001 23.8 60.3001 24.1 60.4001 24.7C60.4001 25.3 60.0001 25.7 59.5001 25.8C59.5001 25.7 59.4001 25.7 59.3001 25.7Z" fill="#C93E7F"/>
</g>
<defs>
<clipPath id="clip0">
<rect width="80.9" height="131.4" fill="white"/>
</clipPath>
</defs>
</svg>
