<svg width="140" height="115" viewBox="0 0 140 115" fill="none" xmlns="http://www.w3.org/2000/svg">
<g clip-path="url(#clip0)">
<path d="M117.2 37.2C124.9 37.2 130.1 47.2999 130.9 55.5999C131.5 62.6999 127 73.1999 117.2 73.1999C107.4 73.1999 103 62.7999 103.6 55.5999C104.3 47.3999 109.5 37.2 117.2 37.2Z" stroke="#FFB422" stroke-width="2" stroke-miterlimit="10" stroke-linecap="round" stroke-linejoin="round"/>
<path d="M17.5 79.3C17 84.8 20.5 92.8 28 92.8C35.5 92.8 39 84.7 38.5 79.3C38 72.9 33.9 65.2 28 65.2C22.1 65.2 18 72.9 17.5 79.3Z" stroke="#FFB422" stroke-width="2" stroke-miterlimit="10" stroke-linecap="round" stroke-linejoin="round"/>
<path d="M62.2 6.40002C52.4 6.40002 45.7 19.3 44.8 29.8C44 39 49.8 52.3 62.2 52.3C63.2 52.3 64.1 52.2 65 52.1" stroke="#FFB422" stroke-width="3" stroke-miterlimit="10" stroke-linecap="round" stroke-linejoin="round"/>
<path d="M59.9 27.5C59 37.6 65.4 52.4 79.1 52.4C92.8 52.4 99.2 37.6 98.3 27.5C97.3 15.8 89.9 1.5 79.1 1.5C68.3 1.5 60.9 15.8 59.9 27.5Z" stroke="#FFB422" stroke-width="3" stroke-miterlimit="10" stroke-linecap="round" stroke-linejoin="round"/>
<path d="M136.7 113.4C136.6 92.4 143 79.6 129.2 80.4C121.7 80.9 110 81 102.8 80.5C99.7 80.3 97.3 77.7 97.4 74.7C97.5 72.2 97.5 69.6 97.6 67.2C97.7 63.4 94.5 60.3 90.6 60.4C79.4 60.5 68.3 60.5 56.6 60.2C53.1 60.1 50.3 62.9 50.5 66.2C50.9 76.6 50.9 84.3 50.9 92C50.9 96.6 47 100.4 42.2 100.5C29.6 100.7 10.1 98.7 4.39996 100.2C-0.300044 101.5 2.29996 113.4 2.29996 113.4" stroke="#3180CA" stroke-width="3" stroke-miterlimit="10" stroke-linecap="round" stroke-linejoin="round"/>
</g>
<defs>
<clipPath id="clip0">
<rect width="139.6" height="114.9" fill="white"/>
</clipPath>
</defs>
</svg>
