<svg width="138" height="94" viewBox="0 0 138 94" fill="none" xmlns="http://www.w3.org/2000/svg">
<g clip-path="url(#clip0)">
<path d="M106.3 89.1484V16.8484C106.3 5.9484 136.8 5.9484 136.8 16.8484V92.5484H47.7004H22.9004V38.3484C22.9004 30.2484 36.7004 28.1484 43.7004 32.1484" stroke="#9BC045" stroke-width="2" stroke-miterlimit="10" stroke-linecap="round" stroke-linejoin="round"/>
<path d="M76.5 89.1484V24.6484C76.5 15.9484 94.5 14.1484 101.9 19.2484" stroke="#9BC045" stroke-width="2" stroke-miterlimit="10" stroke-linecap="round" stroke-linejoin="round"/>
<path d="M48.5 87.9484V31.7484C48.5 23.2484 64.5 21.3484 71.7 26.0484" stroke="#9BC045" stroke-width="2" stroke-miterlimit="10" stroke-linecap="round" stroke-linejoin="round"/>
<path d="M14.4004 87.9484C14.4004 86.4484 14.4004 84.9484 14.4004 83.3484V12.2484L32.2004 18.1484V25.1484" stroke="#FFB422" stroke-width="2" stroke-miterlimit="10" stroke-linecap="round" stroke-linejoin="round"/>
<path d="M9.8 14.2484L1 18.1484V92.6484H14.4C16.1 92.6484 17.8 92.6484 19.5 92.6484" stroke="#FFB422" stroke-width="2" stroke-miterlimit="10" stroke-linecap="round" stroke-linejoin="round"/>
<path d="M7.2002 27.4484V32.1484" stroke="#FFB422" stroke-width="2" stroke-miterlimit="10" stroke-linecap="round" stroke-linejoin="round"/>
<path d="M7.2002 40.3484V45.0484" stroke="#FFB422" stroke-width="2" stroke-miterlimit="10" stroke-linecap="round" stroke-linejoin="round"/>
<path d="M7.2002 53.2484V57.9484" stroke="#FFB422" stroke-width="2" stroke-miterlimit="10" stroke-linecap="round" stroke-linejoin="round"/>
<path d="M7.2002 66.1484V70.8484" stroke="#FFB422" stroke-width="2" stroke-miterlimit="10" stroke-linecap="round" stroke-linejoin="round"/>
<path d="M28 26.9484C30.1 26.4484 32.1 25.8484 34.2 25.3484L122.7 1.84839" stroke="#9BC045" stroke-width="2" stroke-miterlimit="10" stroke-linecap="round" stroke-linejoin="round"/>
</g>
<defs>
<clipPath id="clip0">
<rect y="0.848389" width="137.8" height="92.7" fill="white"/>
</clipPath>
</defs>
</svg>
