<svg width="171" height="148" viewBox="0 0 171 148" fill="none" xmlns="http://www.w3.org/2000/svg">
<g clip-path="url(#clip0)">
<path d="M81.3 147.1C71 147.1 60.7 146.3 52.7 144.6C52.2 144.5 51.8 144 51.9 143.4C52 142.9 52.5 142.5 53.1 142.6C71.8 146.5 103.5 145.6 115.9 140.8L139.7 130.3C140.2 130.1 140.8 130.3 141 130.8C141.2 131.3 141 131.9 140.5 132.1L116.7 142.6C109.3 145.6 95.4 147.1 81.3 147.1ZM64.2 130.5H64.1C31.6 127.1 12.7 120.4 12.1 112.3C11.7 107 19.3 102.2 34.1 98.4C34.6 98.3 35.2 98.6 35.3 99.1C35.4 99.6 35.1 100.2 34.6 100.3C21.3 103.7 13.8 108 14.1 112.1C14.5 117.2 27.8 124.5 64.3 128.4C64.8 128.5 65.2 129 65.2 129.5C65.1 130.1 64.7 130.5 64.2 130.5ZM123.9 126.6C123.6 126.6 123.3 126.5 123.1 126.3C119.2 121.7 119.3 115.8 123.4 108.3C123.7 107.8 124.3 107.6 124.8 107.9C125.3 108.2 125.5 108.8 125.2 109.3C121.8 115.6 121.4 120.5 124 124.2C128.6 119.4 129.5 111.8 125.9 105.8C125.6 105.3 125.8 104.7 126.2 104.4C126.7 104.1 127.3 104.3 127.6 104.7C131.9 111.8 130.6 120.9 124.6 126.3C124.4 126.5 124.2 126.6 123.9 126.6ZM137.2 125.1C137 125.1 136.8 125.1 136.7 125C131.1 121.6 129.5 115.2 131.8 105.5C131.9 105 132.4 104.7 132.9 104.7C132.9 104.7 132.9 104.7 132.8 104.7C132.4 104.3 132.3 103.7 132.7 103.3C133.1 102.9 133.7 102.8 134.1 103.2C140.4 108.6 142 117.7 138 124.7C137.9 124.9 137.6 125.1 137.4 125.2C137.3 125.1 137.2 125.1 137.2 125.1ZM133.7 105.4C133.7 105.5 133.7 105.7 133.7 105.9C131.8 114.1 132.8 119.6 136.8 122.7C139.5 117 138.3 110 133.7 105.4ZM108.3 123C108.1 123 107.9 122.9 107.7 122.8C107.5 122.6 107.3 122.4 107.3 122.1C106.1 114.2 110.7 106.4 118.4 103.5C118.5 103 118.9 102.6 119.5 102.6C120 102.7 120.5 103.1 120.4 103.7C119.3 115.4 115.4 121.7 108.5 122.9C108.4 123 108.3 123 108.3 123ZM118.1 105.9C112.2 108.6 108.6 114.6 109.1 120.8C114.1 119.4 117 114.6 118.1 105.9ZM152.4 115.3C152.3 115.3 152.2 115.3 152 115.2C141.4 111.2 136.5 105.9 137.1 99C137.1 98.7 137.3 98.5 137.5 98.3C137.7 98.1001 138 98.1 138.2 98.1C146.3 99 152.6 105.6 153.3 113.9C153.3 114 153.3 114 153.3 114.1C153.3 114.3 153.3 114.5 153.3 114.7C153.2 115.1 152.8 115.3 152.4 115.3ZM139.2 100.3C139.3 105.4 143.3 109.5 151.3 112.8C150.2 106.5 145.3 101.4 139.2 100.3ZM97.2 111.3C97.1 111.3 97 111.3 96.9 111.3C96.4 111.2 96.1 110.6 96.2 110.1C98.4 102.1 105.9 96.8 114 97.4C114.3 97.4 114.5 97.6001 114.7 97.8C114.9 98 115 98.3 114.9 98.5C114.3 104.5 109.9 108.5 101.6 110.7C101.1 110.8 100.5 110.5 100.4 110C100.3 109.5 100.6 108.9 101.1 108.8C108 107 111.8 103.9 112.8 99.4H112.7C106 99.4 100 104 98.2 110.7C98.1 111.1 97.7 111.3 97.2 111.3ZM152.4 100.4C147.5 100.4 142.7 98.4 139.5 94.5C139.3 94.3 139.2 94 139.3 93.8C139.3 93.5 139.5 93.3 139.7 93.1C145.1 88.7 152.2 89.8 161.5 96.3C162 96.6001 162.1 97.2 161.7 97.7C161.6 97.9 161.4 98 161.2 98.1L161.1 98.2C158.3 99.6 155.3 100.4 152.4 100.4ZM141.7 93.9C146.1 98.4 153 99.6 158.8 96.9C151.6 92.2001 146 91.2001 141.7 93.9ZM104.1 95.9C99.7 95.9 95.4 94.3 92.2 91C92 90.8 91.9 90.6001 91.9 90.3C91.9 90 92 89.8 92.2 89.6C96.9 85.1 103.5 85.2001 112.3 89.9C112.8 90.2001 113 90.7 112.7 91.2C112.7 91.2 112.7 91.2 112.8 91.2C113.3 90.9 113.9 91 114.2 91.5C114.5 92 114.4 92.6 113.9 92.9C110.9 94.9 107.5 95.9 104.1 95.9ZM94.4 90.3C99.2 94.4 106.2 95 111.8 91.8C111.7 91.8 111.5 91.8 111.4 91.7C103.9 87.7 98.3 87.2001 94.4 90.3ZM152.8 89.3C148.8 89.3 144.7 87.9 141.5 85.1C141.1 84.7 141 84.1 141.4 83.7C141.8 83.3 142.4 83.2 142.8 83.6C148.1 88.1 155.7 88.5 161.2 84.7C157.9 81.5 153 81.1 146.3 83.4C145.8 83.6 145.2 83.3 145 82.8C144.8 82.3 145.1 81.7 145.6 81.5C153.7 78.7 159.6 79.5 163.5 84.1C163.7 84.3 163.8 84.6001 163.7 84.8C163.7 85.1001 163.5 85.3 163.3 85.5C160.2 88.1 156.5 89.3 152.8 89.3ZM114.8 86.5C107.7 86.5 101.2 81.9 98.6 74.9C98.6 74.8 98.6 74.8 98.6 74.7C98.5 74.5 98.5 74.3 98.5 74.1C98.6 73.6 99 73.2 99.6 73.2C101.5 73.4 103.3 73.7 105 74C102.2 71.1 100.6 67.3 100.5 63.1C100.5 62.8 100.6 62.6001 100.8 62.4001C101 62.2001 101.2 62.1 101.5 62.1C105 62 108.2 63.5 110.7 66.3C111.1 66.7001 111 67.3 110.6 67.7C110.2 68.1 109.6 68 109.2 67.6C107.3 65.5 105.1 64.3 102.6 64.1C103.1 69 106 73.2 110.5 75.6C110.6 75.6 110.7 75.7001 110.7 75.8C115 77.8 117.5 80.9 118.2 85C118.2 85.3 118.2 85.5 118 85.8C117.8 86 117.6 86.2 117.3 86.2C116.4 86.4 115.6 86.5 114.8 86.5ZM101 75.5C103.7 81.4 109.7 85 115.9 84.5C114.5 79.5 109.6 76.6 101 75.5ZM137.5 82.8C137 82.8 136.5 82.4 136.5 81.8C136.2 73.5 141.8 66.2001 149.7 64.4C150 64.3 150.2 64.4 150.5 64.5C150.7 64.6 150.9 64.9 150.9 65.1C151.4 67.5 151.2 69.8 150.2 72C153.5 70.4 157.3 70 161 70.9C161.3 71 161.5 71.1 161.6 71.4C161.7 71.7001 161.8 71.9 161.7 72.2C161 74.8 159.7 76.9 157.6 78.6C157.2 78.9 156.5 78.9 156.2 78.4C155.9 78 155.9 77.3 156.4 77C157.9 75.9 158.9 74.5 159.5 72.7C155.2 72 150.8 73.3 147.4 76.3C145.6 78.3 143 80.2 139.8 82.1C139.3 82.4 138.8 82.2001 138.5 81.8C138.5 81.8 138.5 81.8 138.5 81.9C138.5 82.3 138.1 82.8 137.5 82.8ZM149 66.6C143 68.5 138.7 74.1 138.4 80.6C138.5 80.5 138.6 80.4 138.7 80.3C141.1 78.9 143.1 77.5 144.7 76.1L144.8 76C145.1 75.6 145.5 75.3 145.8 75C148.3 72.3 149.3 69.6 149 66.6ZM123.3 81.8C123.2 81.8 123 81.8 122.9 81.7C115.3 78.3 111.1 70.2001 112.9 62.3C113 62 113.1 61.8 113.4 61.7001C113.7 61.6001 113.9 61.5 114.2 61.6C116.5 62.2 118.4 63.3 120 65C120 60.7 121.5 56.6 124.5 53.5C124.7 53.3 124.9 53.2001 125.2 53.2001C125.5 53.2001 125.7 53.3 125.9 53.5C128.4 56 129.6 59.2001 129.5 63C129.5 63.6 129 64 128.5 64C127.9 64 127.5 63.5 127.5 63C127.6 60.2001 126.9 57.8001 125.3 55.9001C122.3 59.7001 121.3 64.7 122.7 69.5C123.8 72.1 124.4 75.3 124.7 79.1C124.7 79.6 124.4 80.1 123.8 80.2C123.8 80.2 123.8 80.2 123.9 80.2C124.4 80.4 124.6 81 124.4 81.5C124.1 81.6 123.7 81.8 123.3 81.8ZM114.7 63.8C113.7 70 117 76.3 122.7 79.4C122.6 79.3 122.6 79.1 122.6 79C122 70.5 119.4 65.6001 114.7 63.8ZM130.5 79.1C130.4 79.1 130.3 79.1 130.3 79.1C130 79 129.8 78.9 129.7 78.6C126.1 72.7 128.7 65.1001 133 60.8C133.4 60.4 134 60.4 134.4 60.8C134.8 61.2001 134.8 61.8 134.4 62.2001C130.8 65.8 128.6 71.7 130.9 76.7C136.3 72.7 138.3 65.4001 135.8 58.9001C135.6 58.4001 135.9 57.8 136.4 57.6C136.9 57.4 137.5 57.7001 137.7 58.2001C140.7 65.9 138 74.7 131.1 79C130.9 79 130.7 79.1 130.5 79.1ZM76.9 58C76.5 58 76.1 57.7001 75.9 57.3C75.8 57 75.7 56.6001 75.5 55.9001C74.3 51.4001 73.1 47.1001 72.1 43.2001C69.2 44.6001 67.1 46.2 66.9 47.6C67.2 48.9 67.5 50 67.8 50.9001C67.9 51.4001 67.6 52 67.1 52.1C66.6 52.2 66 51.9001 65.9 51.4001C63.1 41.1001 57.1 15.8 62.8 4.40005C63.8 2.40005 65.6 1.00005 67.8 0.400048C70 -0.199952 72.3 0.200048 74.1 1.40005C83.6 7.60005 90.6 28.3 94 40.1C94.1 40.6 93.8 41.2001 93.3 41.3C92.8 41.5 92.2 41.1 92.1 40.6C89.5 31.3 82.4 9.10005 73.1 3.00005C71.7 2.00005 70 1.80005 68.4 2.20005C68.3 2.20005 68.2 2.30005 68.1 2.30005C68.1 2.40005 68.1 2.60005 68 2.70005C67.5 3.70005 67 6.40005 68.2 14.4C70.3 13.6 72.5 12.9 74.7 12.6C73.5 9.80005 72.5 7.50005 71.5 5.70005C71.2 5.20005 71.4 4.60005 71.9 4.30005C72.4 4.00005 73 4.20005 73.3 4.70005C74.4 6.70005 75.6 9.20005 76.9 12.3C77.6 12.2 78.4 12.2 79.1 12.2C79.7 12.2 80.1 12.7 80.1 13.2C80.1 13.8 79.7 14.2 79.1 14.2H79C78.2 14.2 77.4 14.3 76.6 14.3C76.5 14.3 76.4 14.3 76.3 14.3C73.7 14.6 71 15.4 68.7 16.4C69 18.4 69.4 20.7 69.9 23.2C72.9 22 76.2 21.2 79.2 20.9H79.3C79.9 20.8 80.5 20.8 81.1 20.8C81.7 20.8 82.1 21.2 82.1 21.8C82.1 22.4 81.7 22.8 81.1 22.8C80.9 22.8 80.8 22.8 80.6 22.8C81.3 24.9 82 27.1 82.6 29.2C84 29.1 85.2 29.1 86.3 29.2C86.9 29.2 87.3 29.7 87.2 30.3C87.2 30.9 86.7 31.3 86.1 31.2C85.2 31.1 84.2 31.1 83.1 31.2C83.8 33.5 84.4 35.6 85 37.6C85.7 37.5 86.4 37.5 87.1 37.5C87.6 37.5 88.1 37.9001 88.1 38.5C88.1 39.1 87.7 39.5 87.1 39.5C86.6 39.5 86.1 39.5 85.6 39.6C85.9 40.5 86.1 41.4001 86.3 42.2001C86.4 42.7001 86.1 43.3001 85.6 43.4001C85.1 43.5 84.5 43.2001 84.4 42.7001C84.2 41.8 83.9 40.9 83.6 39.8C80.4 40.3 77 41.2001 74.1 42.4001C75.1 46.3001 76.2 50.7001 77.5 55.4001C77.7 56.1001 77.8 56.6 77.9 56.8C78 57.3 77.7 57.9001 77.2 58C77.1 57.9001 77 58 76.9 58ZM65.1 39.1C65.5 41.1 65.9 43 66.3 44.7001C67.5 43.4001 69.4 42.2 71.6 41.1C71 38.8 70.5 36.7 70 34.6C67.2 36 65.2 37.5 65 38.9001C65.1 39 65.1 39 65.1 39.1ZM72 33.8C72.5 35.8 73 38 73.6 40.3C76.6 39.1 80 38.2001 83.1 37.8C82.5 35.8 81.9 33.6 81.2 31.4C78.1 31.7 74.8 32.7001 72 33.8ZM63.5 30.2C63.8 32.2001 64.1 34.2 64.5 36.1C65.7 34.8 67.5 33.7001 69.6 32.7001C69.1 30.4001 68.6 28.2 68.2 26.2C65.6 27.4 63.8 28.9 63.5 30.2ZM70.1 25.3C70.5 27.3 71 29.5 71.5 31.8C74.3 30.7 77.6 29.8 80.5 29.4C79.8 27.3 79.2 25.1 78.4 23C75.6 23.4 72.6 24.2 70.1 25.3ZM62.6 21.7C62.7 23.5 62.9 25.3 63.1 27.1C64.2 26 65.9 24.9 67.8 24C67.3 21.6 66.9 19.3 66.6 17.3C64.4 18.5 63 19.9 62.9 21.1C62.8 21.4 62.7 21.6 62.6 21.7ZM65.6 3.90005C65.2 4.30005 64.9 4.70005 64.7 5.20005C63.1 8.40005 62.5 12.9 62.5 17.9C63.4 16.9 64.7 16.1 66.2 15.3C65.5 10.1 65.3 6.30005 65.6 3.90005Z" fill="url(#paint0_linear)"/>
<path d="M86.9 85.8999C84.7 85.8999 83 84.7999 82.6 83.0999L81.7 79.4999C73.1 76.9999 68.7 70.8999 65.5 66.3999C62.2 61.7999 60.4 59.6999 57.1 60.9999C56.6 61.1999 55.9 61.0999 55.5 60.6999C55.1 60.2999 54.9 59.6999 55.1 59.0999C56 56.6999 58.4 54.9999 61.8 54.4999C66.7 53.7999 73.6 55.5999 78 61.4999C78.5 62.1999 78.4 63.0999 77.7 63.5999C77 64.0999 76 63.9999 75.5 63.2999C71.9 58.4999 66.2 56.8999 62.2 57.4999C61.7 57.5999 61.2 57.6999 60.8 57.7999C63.7 58.6999 65.8 61.5999 67.9 64.5999C71.2 69.0999 75.2 74.6999 83.3 76.7999C83.8 76.8999 84.3 77.3999 84.4 77.8999L85.5 82.3999C85.6 82.7999 86.6 83.0999 87.8 82.7999C88.8 82.5999 90.2 81.9999 90.1 80.9999C90 80.1999 90.5 79.3999 91.4 79.2999C92.2 79.1999 93 79.6999 93.1 80.5999C93.5 83.0999 91.5 85.1999 88.4 85.7999C87.8 85.8999 87.4 85.8999 86.9 85.8999ZM87.6 79.8999C87 79.8999 86.4 79.4999 86.2 78.9999C85.9 78.1999 86.3 77.3999 87 77.0999C95.9 73.4999 95.5 66.1999 95 58.2999C94.6 52.2999 94.2 45.6999 99.3 42.1999C96.6 41.9999 94.2 42.4999 92.1 43.8999C83.8 49.2999 81.6 65.2999 81 71.8999C80.9 72.6999 80.2 73.2999 79.4 73.2999C78.6 73.1999 78 72.4999 78 71.6999C78.8 62.8999 81.4 47.2999 90.4 41.3999C94.4 38.7999 99.1 38.4999 104.5 40.2999C105.1 40.4999 105.5 41.0999 105.5 41.7999C105.5 42.4999 105 42.9999 104.4 43.1999C97.5 44.9999 97.5 49.9999 98 58.0999C98.5 65.7999 99.1 75.4999 88.1 79.7999C88 79.7999 87.8 79.8999 87.6 79.8999Z" fill="#9BC045"/>
<path d="M85.2 139.1C43.3 139.1 0 129 0 112.2C0 105.2 7.6 98.9 22.1 93.9C22.9 93.6 23.7 94 24 94.8C24.3 95.6 23.9 96.4 23.1 96.7C10.4 101.1 3.1 106.7 3.1 112.1C3.1 123.6 36.1 136 85.3 136C126 136 161.8 126.7 166.9 114.8C168.2 111.8 167.3 108.7 164.2 105.5C163.6 104.9 163.6 104 164.2 103.4C164.8 102.8 165.7 102.8 166.3 103.4C171.2 108.5 170.8 113.1 169.6 116C163.9 129.4 128.4 139.1 85.2 139.1Z" fill="#9BC045"/>
<path d="M81.2 128.3C78.1 128.3 75.4 126.6 71.8 123.7C71.4 123.3 71.3 122.7 71.7 122.3C72.1 121.9 72.7 121.8 73.1 122.2C78.6 126.8 81.5 128.1 88.7 123.4C83.7 119.1 78.5 118.9 70 122.6C69.5 122.8 68.9 122.6 68.7 122.1C68.5 121.6 68.7 121 69.2 120.8C77.4 117.3 84.2 116.4 91 122.9C91.2 123.1 91.3 123.4 91.3 123.7C91.3 124 91.1 124.3 90.9 124.4C86.9 127 83.9 128.3 81.2 128.3ZM69.8 118.2C65.2 118.2 61.8 115.3 56.9 110.7C56.5 110.3 56.5 109.7 56.9 109.3C57.3 108.9 57.9 108.9 58.3 109.2C67.3 106.2 73.3 107.5 79.5 113.8C79.7 114 79.8 114.3 79.8 114.7C79.7 115 79.6 115.3 79.3 115.4C75.3 117.4 72.3 118.2 69.8 118.2ZM59.9 110.8C65.9 116.3 69.1 117.9 77 114.2C71.9 109.6 67.1 108.6 59.9 110.8ZM84.7 117.6C84.6 117.6 84.6 117.6 84.5 117.6C84.2 117.5 83.9 117.3 83.8 117C80 108.6 79.9 102.2 83.6 94.2C83.7 93.9 84 93.7 84.4 93.6C84.7 93.6 85.1 93.7 85.3 94C91.6 102.1 95.1 108.2 85.4 117.3C85.2 117.5 84.9 117.6 84.7 117.6ZM84.7 96.6C82.2 103 82.2 108.2 85 114.9C91.6 108.1 90.1 103.8 84.7 96.6ZM59 106.8C55.9 106.8 53.1 105.4 49.9 103C49.5 102.7 49.4 102 49.7 101.6C50 101.2 50.7 101.1 51.1 101.4C56.4 105.3 59.9 106.3 66.6 102C60.8 97.6 55.8 97.5 47.4 101.1C46.9 101.3 46.3 101.1 46.1 100.6C45.9 100.1 46.1 99.5 46.6 99.3C56.2 95.1 62 95.6 68.9 101.3C69.1 101.5 69.3 101.8 69.3 102.1C69.3 102.4 69.1 102.7 68.9 102.9C64.8 105.7 61.8 106.8 59 106.8ZM75.4 106.6C75 106.6 74.7 106.4 74.6 106.2C69.6 99 69.1 93.4 72.4 84.3C72.4 84.3 72.4 84.3 72.3 84.2C71.9 83.8 72 83.2 72.4 82.8C72.8 82.4 73.4 82.5 73.8 82.9C73.9 83.1 74.1 83.2 74.2 83.4C81.1 91.3 84.5 96.9 76.1 106.3C76 106.5 75.7 106.6 75.4 106.6ZM73.9 86C71.4 93.4 71.8 98.1 75.6 104C81.3 97.1 79.7 92.9 73.9 86ZM47.8 97C43.9 97 40.3 94.7 35.5 91C35.1 90.7 35 90 35.3 89.6C35.6 89.2 36.3 89.1 36.7 89.4C37.1 89.7 37.4 89.9 37.7 90.2L37.6 90.1C37.4 89.6 37.6 89 38.2 88.8C43.8 86.6 48.3 86.2 52.9 87.9C40.8 77.1 28.8 67.5 12.5 57C12 56.7 11.9 56.1 12.2 55.6C12.5 55.1 13.1 55 13.6 55.3C31.7 67 44.6 77.6 58.2 89.8C58.5 90.1 58.6 90.5 58.5 90.9C58.6 91.1 58.7 91.3 58.7 91.5C58.7 91.8 58.6 92.1 58.3 92.3C54.2 95.6 50.9 97 47.8 97ZM38.4 90.6C45.1 95.6 48.8 96.8 56 91.6C50.5 88.1 45.6 87.9 39 90.5C38.8 90.6 38.6 90.6 38.4 90.6ZM64.5 95.7C64.2 95.7 63.9 95.5 63.7 95.3C60.9 91.4 59.4 87.9 59.1 84C59 84 58.8 83.9 58.7 83.8C49.5 75.7 39.8 67 31.4 57.5C31 57.1 31.1 56.5 31.5 56.1C31.9 55.7 32.5 55.8 32.9 56.2C40.9 65.3 50.1 73.6 59 81.4C59.1 79.6 59.3 77.6 59.8 75.5C59.9 75 60.5 74.6 61 74.7C61.1 74.7 61.1 74.7 61.2 74.8C60.9 74.5 60.5 74.2 60.2 73.9C59.8 73.5 59.8 72.9 60.1 72.5C60.5 72.1 61.1 72.1 61.5 72.4C69.3 79.5 73.7 85 65.3 95.3C65.1 95.6 64.8 95.7 64.5 95.7ZM61.7 75.3C61.8 75.5 61.8 75.7 61.8 75.9C60.2 83 61 87.6 64.6 93C70.2 85.6 68.2 81.5 61.7 75.3ZM33 89.4C32.8 89.4 32.7 89.4 32.5 89.3C28.5 87.2 24.7 86 20.9 85.7C20.4 85.7 19.9 85.2 20 84.6C20 84.1 20.5 83.7 21.1 83.7C25.2 84.1 29.2 85.3 33.4 87.6C33.9 87.9 34.1 88.5 33.8 89C33.7 89.2 33.3 89.4 33 89.4ZM42.1 86C41.9 86 41.7 85.9 41.5 85.8C34.3 80.3 26.3 76.4 15.8 73C15.3 72.8 15 72.3 15.2 71.7C15.4 71.2 15.9 70.9 16.5 71.1C27.2 74.6 35.4 78.6 42.8 84.2C43.2 84.5 43.3 85.2 43 85.6C42.7 85.8 42.4 86 42.1 86ZM57.6 71.5C57.4 71.5 57.2 71.4 57 71.3C53.9 69.2 48.5 64.7 47.2 58.5C47.1 58 47.4 57.4 48 57.3C48.5 57.2 49.1 57.5 49.2 58.1C50 62.1 53.3 66.3 58.2 69.6C58.7 69.9 58.8 70.5 58.5 71C58.2 71.4 57.9 71.5 57.6 71.5Z" fill="url(#paint1_linear)"/>
<path d="M127.5 107.3C127.2 107.3 126.9 107.3 126.6 107.3C122.3 107.1 118.3 105.2 115.4 101.9C112.5 98.7 111 94.5 111.3 90.1C111.6 84.9 114.4 80.1 118.8 77.2C119.5 76.8 120.4 77 120.9 77.7C121.3 78.4 121.1 79.3 120.4 79.8C116.8 82.1 114.5 86 114.3 90.3C114.1 93.8 115.3 97.3 117.7 99.9C120.1 102.5 123.3 104.1 126.9 104.3C132.4 104.6 137.4 101.6 139.7 96.6C140 95.8 140.9 95.5 141.7 95.9C142.5 96.2 142.8 97.1 142.4 97.9C139.6 103.6 133.9 107.3 127.5 107.3ZM142.1 94.7C142 94.7 141.9 94.7 141.9 94.7C141.1 94.6 140.5 93.8 140.6 93C141.3 88.5 139.7 84 136.2 81C132.8 78 128.1 76.9 123.7 78.2C122.9 78.4 122.1 78 121.8 77.2C121.6 76.4 122 75.6 122.8 75.3C128.2 73.7 133.9 75 138.1 78.7C142.3 82.4 144.3 87.9 143.5 93.4C143.5 94.2 142.8 94.7 142.1 94.7Z" fill="#9BC045"/>
</g>
<defs>
<linearGradient id="paint0_linear" x1="12.085" y1="73.6123" x2="163.739" y2="73.6123" gradientUnits="userSpaceOnUse">
<stop stop-color="#FFA722"/>
<stop offset="1" stop-color="#FFB422"/>
</linearGradient>
<linearGradient id="paint1_linear" x1="12.0312" y1="91.7156" x2="91.4242" y2="91.7156" gradientUnits="userSpaceOnUse">
<stop stop-color="#FFA722"/>
<stop offset="1" stop-color="#FFB422"/>
</linearGradient>
<clipPath id="clip0">
<rect width="170.3" height="147.1" fill="white"/>
</clipPath>
</defs>
</svg>
