<svg width="101" height="147" viewBox="0 0 101 147" fill="none" xmlns="http://www.w3.org/2000/svg">
<g clip-path="url(#clip0)">
<path d="M19.5 144.2C18.9 144.2 18.4 144.1 17.8 143.9C17.3 143.7 17 143.2 17.2 142.6C17.4 142 17.9 141.8 18.5 142C20.5 142.7 22.5 141.2 23.4 140.3C26 137.7 28 132.7 26.6 128.6C26.4 128.1 26.7 127.5 27.2 127.3C27.7 127.1 28.3 127.4 28.5 127.9C30.1 132.8 27.8 138.7 24.8 141.7C23.1 143.4 21.3 144.2 19.5 144.2ZM99.4 142C99.3 142 99.1 142 99 141.9C79.8 133.3 78.4 109.3 77.3 88C71 100.1 47.3 111.5 34 113.2C34.2 114.7 34.4 116.3 34.3 117.8C34.3 118.4 33.8 118.8 33.3 118.8C32.7 118.8 32.3 118.3 32.3 117.8C32.3 116.1 32.1 114.3 31.8 112.6C31.5 110.7 31 108.9 30.5 107C30.1 105.3 29.7 103.7 29.3 102.1C28.8 103.5 28.2 104.9 27.6 106.3C27.6 106.4 27.6 106.4 27.5 106.5C27.1 107.4 27.5 110 27.8 112.2C28.2 114.5 28.5 117 28.3 118.8L34.1 120.6C36.1 118.3 40 117.2 44.8 115.8C53.5 113.3 65.3 109.8 74 97.9C74.3 97.5 74.9 97.3999 75.4 97.6999C75.8 97.9999 75.9 98.5999 75.6 99.0999C66.5 111.6 54.3 115.2 45.4 117.8C40.5 119.2 36.6 120.4 35.3 122.4C35.1 122.8 34.6 122.9 34.2 122.8L26.9 120.5C26.4 120.3 26.1 119.8 26.2 119.3C26.7 117.8 26.2 115 25.9 112.6C25.8 111.9 25.7 111.2 25.6 110.5C22.3 116.6 18.2 122 14.7 126.3C8 134.3 1.8 139.6 1.7 139.7C1.3 140.1 0.599997 140 0.299997 139.6C-0.100003 139.2 -3.48687e-06 138.5 0.399997 138.2C0.599997 138 24.9 117.1 29 95.9C29.1 95.4 29.6 95 30.2 95.0999C30.7 95.1999 31.1 95.6999 31 96.1999C30.5 99.1999 31.4 102.8 32.4 106.6C32.8 108.2 33.2 109.8 33.6 111.4C48.3 109.6 77.6 94.3 76.8 81.8C76.8 81.7 76.8 81.5 76.8 81.4C76.1 70.4 75 60.3 71.1 53.4C65.5 43.7 54.5 40.8 46.1 42.2C36.9 43.7 30.5 49.6999 28.8 58.0999C28.7 58.5999 28.2 59 27.6 58.9C27.1 58.8 26.7 58.3 26.8 57.7C28.6 48.5 35.9 41.8 45.7 40.2C54.8 38.7 66.7 41.9 72.7 52.4C77.6 60.9 78.3 73.8999 79.1 87.5C80.3 109.3 81.5 131.9 99.7 140.1C100.2 140.3 100.4 140.9 100.2 141.4C100.1 141.8 99.7 142 99.4 142ZM26.8 92.9C25.7 92.9 24.5 92.7 23.3 92C19.8 93 17.7 92.0999 16.5 91.1999C15.2 90.1999 14.4 88.7 14.4 87C14.4 84.2 15.8 81.9 17 79.8C18.2 77.7 19 76.2999 18.6 75.0999C16.9 75 15.1 75.1 13.5 75.4C13 75.5 12.4 75.0999 12.3 74.5999C12.2 74.0999 12.6 73.5 13.1 73.4C15 73.1 17 73 18.9 73.0999C19.1 73.0999 19.2 73.0999 19.4 73.0999C22.8 73.2999 25.7 73.9 25.9 74C26.4 74.0999 26.8 74.5999 26.7 75.1999C26.6 75.6999 26.1 76.0999 25.5 76C25.5 76 23.4 75.6 20.7 75.3C21 77.2 19.8 79.1 18.8 80.9C17.7 82.8 16.5 84.7999 16.5 87.0999C16.5 88.0999 17 89.0999 17.8 89.6999C18.7 90.3999 20 90.6 21.6 90.4C20.8 89.3 20.2 87.7999 19.9 85.6999C19.8 85.1999 20.2 84.5999 20.7 84.5999C21.2 84.5 21.8 84.9 21.8 85.4C22.5 90.4 25.1 90.9 26.9 90.9C28.4 90.8 29.4 90.1999 30.1 89.1999C32 86.0999 29.8 79.4999 28.8 77.1999C28.6 76.6999 28.8 76.1 29.3 75.9C29.8 75.7 30.4 75.9 30.6 76.4C30.8 76.8 34.6 85.7 31.8 90.3C30.8 91.9 29.2 92.7999 27 93C27 92.9 26.9 92.9 26.8 92.9ZM56.1 71.0999C54.6 71.0999 52.8 70.1 52.4 67.9C52.3 67.4 52.7 66.7999 53.2 66.6999C53.7 66.5999 54.3 67 54.4 67.5C54.6 68.6 55.4 69 56.1 69C56.8 69 57.6 68.6 57.8 67.5C58 66.2999 57.4 65.2999 56.7 64.1999C56.1 63.1999 55.4 62.0999 55.4 60.7999C55.4 60.1999 55.8 59.7999 56.4 59.7999C57 59.7999 57.4 60.1999 57.4 60.7999C57.4 61.5999 57.9 62.3 58.4 63.2C59.2 64.4 60.1 66 59.7 67.9C59.4 70.1 57.7 71.0999 56.1 71.0999ZM50 61.7999C49.5 61.7999 49 61.4 49 60.7999C49 59.7999 48.9 58.8999 48.7 58.0999C48.2 58.6999 47.6 59.1 47 59.5C47.4 59.7999 47.5 60.3 47.3 60.7C47 61.2 46.4 61.3999 46 61.0999C44.5 60.2999 40.9 59.4999 37.1 61.0999C36.8 61.1999 36.4 61.2 36.2 61C35.9 60.7999 35.7 60.5 35.7 60.2C35.5 55.7 37.1 53.3 38.4 52C39.9 50.5 41.9 49.8 44 49.9C44.7 49.9 45.9 49.9999 46.9 50.5999C47.4 50.8999 47.6 51.5 47.3 52C47 52.5 46.4 52.7 45.9 52.4C45.3 52.1 44.5 52 43.9 52C43.8 52.1 43.7 52.0999 43.7 52.0999C42.5 52.5999 41.8 53.7 41.8 54.9C41.8 56.6 43.2 58 44.9 58C46.4 58 47.7 56.9 47.9 55.4C48 55 48.3 54.5999 48.7 54.5999C49.1 54.4999 49.6 54.6999 49.8 55.0999C50.6 56.7999 51.1 58.7 51.1 60.9C51 61.4 50.6 61.7999 50 61.7999ZM40 53.0999C39.9 53.1999 39.8 53.3 39.6 53.4C38.4 54.6 37.7 56.4 37.5 58.7C38.6 58.4 39.8 58.1999 40.9 58.0999C40.1 57.1999 39.6 56 39.6 54.7999C39.7 54.2999 39.8 53.6999 40 53.0999Z" fill="#9BC045"/>
<path d="M24.5 146.8C23.8 146.8 23.2 146.7 22.6 146.5L19.3 145.3C16.6 144.4 14.8 141.7 14.5 138C14.1 133.2 16.2 127.7 19.7 124.6C21.8 122.7 24.3 121.9 26.5 122.4C26.9 122.5 27 122.5 27.9 122.8L29.8 123.4C32.5 124.3 34.3 127 34.6 130.7C35.1 136 32.8 142 29 144.9C27.6 146.2 26.1 146.8 24.5 146.8ZM25.2 125.3C23.8 125.3 22.6 126.1 21.7 126.9C18.9 129.4 17.1 134 17.5 137.8C17.7 140.2 18.8 142 20.3 142.5L23.6 143.7C25 144.2 26.4 143.5 27.2 142.8C30.1 140.5 32 135.5 31.6 131.2C31.4 128.7 30.3 127 28.8 126.5L26.9 125.8C26.1 125.5 26 125.5 25.8 125.5C25.6 125.3 25.4 125.3 25.2 125.3Z" fill="#9BC045"/>
<path d="M8.1 75.7001C7.9 75.7001 7.8 75.7001 7.7 75.6001C7.3 75.4001 7.1 74.9001 7.2 74.5001L7.3 74.0001C9.6 65.3001 26 60.4001 26.7 60.2001C27.2 60.0001 27.8 60.4001 27.9 60.9001C28.1 61.4001 27.8 62.0001 27.2 62.1001C27.1 62.1001 15.8 65.5001 11 71.0001C13.9 69.7001 17.3 69.5001 20.5 69.4001C24.3 69.2001 28 69.1001 29.8 66.9001C30.1 66.5001 30.8 66.4001 31.2 66.8001C31.6 67.1001 31.7 67.8001 31.3 68.2001C28.9 71.1001 24.9 71.2001 20.6 71.4001C16.3 71.6001 11.8 71.7001 9.2 74.8001L8.8 75.2001C8.6 75.5001 8.4 75.7001 8.1 75.7001Z" fill="#9BC045"/>
<path d="M55.6 81.7C54.5 81.7 53.4 81.4 52.4 80.7C50.9 79.6 50.1 77.9 50.2 76.1C50.3 74.3 51.3 72.6 52.8 71.7C53.5 71.3 54.4 71.5 54.9 72.2C55.3 72.9 55.1 73.8 54.4 74.3C53.7 74.7 53.3 75.4 53.2 76.3C53.2 77.1 53.5 77.9 54.2 78.4C55.3 79.2 56.8 78.9 57.6 77.9C58.4 76.8 58.1 75.3 57.1 74.5C56.4 74 56.3 73.1 56.8 72.4C57.3 71.7 58.2 71.6 58.9 72.1C61.3 73.9 61.9 77.3 60.1 79.7C58.9 80.9 57.3 81.7 55.6 81.7Z" fill="#9BC045"/>
<path d="M27.3 51.5C27.2 51.5 27.1 51.5 27 51.5C26.2 51.3 25.7 50.5 25.8 49.7C26.5 46.2 24 43.6 21.1 40.6C19.1 38.5 17.1 36.4 15.9 33.8C15.3 34 14.7 34.1 14.1 34.1C10.8 34.1 8.1 31.4 8.1 28.1C8.1 24.8 10.8 22.1 14.1 22.1C17.4 22.1 20.1 24.8 20.1 28.1C20.1 29.7 19.5 31.1 18.5 32.2C19.4 34.5 21.4 36.5 23.3 38.5C26.5 41.8 29.9 45.3 28.8 50.3C28.6 51 27.9 51.5 27.3 51.5ZM14 25.1C12.3 25.1 11 26.4 11 28.1C11 29.8 12.3 31.1 14 31.1C14.6 31.1 15.2 30.9 15.7 30.6L15.8 30.5C16.5 30 16.9 29.1 16.9 28.1C17 26.4 15.7 25.1 14 25.1ZM68.6 45C67.9 45 67.2 44.4 67.1 43.7C66.6 39.8 69.4 34.5 72.2 29.3C73.7 26.4 76.9 20.3 75.9 19.5C74.8 19.7 73.7 19.6 72.6 19.2C70.6 18.3 69.2 16.4 69.2 14.1C69.2 11.1 71.7 8.60003 74.7 8.60003C77.7 8.60003 80.2 11.1 80.2 14.1C80.2 15.6 79.6 17 78.5 18C80 20.6 77.5 25.3 74.7 30.7C72.3 35.3 69.6 40.4 70 43.3C70.1 44.1 69.5 44.9 68.7 45C68.7 45 68.7 45 68.6 45ZM74.8 11.6C73.4 11.6 72.3 12.7 72.3 14.1C72.3 15.1 72.9 16 73.8 16.4C74.6 16.7 75.4 16.6 76.1 16.2C76.8 15.7 77.2 15 77.2 14.1C77.3 12.7 76.1 11.6 74.8 11.6ZM25.7 30.6C24.5 30.6 23.2 30.4 21.7 30C20.9 29.8 20.4 29 20.6 28.2C20.8 27.4 21.6 26.9 22.4 27.1C25.6 28 28.5 27.6 30.6 25.9C32.5 24.4 33.8 22 33.7 19.6C33.7 18.8 34.4 18.1 35.2 18.1C36 18.1 36.7 18.8 36.7 19.6C36.7 22.9 35.1 26.2 32.4 28.3C31.1 29.4 28.8 30.6 25.7 30.6ZM45.8 20.8C43.8 20.8 42.1 19.4 40.8 18.2C39 16.6 38.5 16.3 37.9 16.7C36.9 17.5 35.7 18 34.3 18C31.1 18 28.5 15.4 28.5 12.2C28.5 9.00003 31.1 6.40003 34.3 6.40003C37.5 6.40003 40 9.00003 40 12.2C40 12.8 39.9 13.3 39.8 13.8C40.9 14.3 41.9 15.2 42.8 15.9C44 16.9 45.1 17.9 46 17.8C46.7 17.7 47.9 16.9 49.6 14C50.4 12.7 51.1 11.6 51.8 10.8C51 10.3 50.2 9.60003 49.7 8.70003C48.9 7.40003 48.7 5.80003 49.1 4.30003C49.5 2.80003 50.5 1.60003 51.8 0.800028C53.9 -0.399972 56.3 -0.199972 58.2 1.20003C60.1 2.70003 60.9 5.00003 60.3 7.30003C60.1 8.10003 59.3 8.60003 58.5 8.30003C57.7 8.10003 57.2 7.30003 57.5 6.50003C57.9 5.20003 57.2 4.20003 56.5 3.60003C55.6 2.90003 54.5 2.80003 53.4 3.40003C52.8 3.80003 52.3 4.40003 52.1 5.10003C51.9 5.80003 52 6.60003 52.4 7.20003C53 8.20003 54 8.70003 55.1 8.60003C55.2 8.60003 55.2 8.60003 55.3 8.60003H55.4C58.7 8.30003 60.1 11.2 61.1 13.6C61.9 15.3 62.7 17 63.9 17.4C64.8 17.7 66 17.5 67.6 16.8C68.3 16.4 69.2 16.8 69.6 17.5C70 18.2 69.6 19.1 68.9 19.5C66.6 20.6 64.6 20.9 62.9 20.2C60.5 19.3 59.3 16.9 58.4 14.8C57.3 12.5 56.7 11.5 55.6 11.5C55.3 11.5 54.2 11.9 52.1 15.5C50.2 18.8 48.4 20.5 46.3 20.8C46.2 20.8 46 20.8 45.8 20.8ZM34.2 9.50003C32.7 9.50003 31.4 10.7 31.4 12.3C31.4 13.9 32.6 15.1 34.2 15.1C35.8 15.1 37 13.9 37 12.3C37 10.7 35.7 9.50003 34.2 9.50003Z" fill="url(#paint0_linear)"/>
</g>
<defs>
<linearGradient id="paint0_linear" x1="8.1" y1="25.7561" x2="80.2" y2="25.7561" gradientUnits="userSpaceOnUse">
<stop stop-color="#FFA722"/>
<stop offset="1" stop-color="#FFB422"/>
</linearGradient>
<clipPath id="clip0">
<rect width="100.4" height="146.8" fill="white"/>
</clipPath>
</defs>
</svg>
