<svg width="181" height="74" viewBox="0 0 181 74" fill="none" xmlns="http://www.w3.org/2000/svg">
<g clip-path="url(#clip0)">
<path d="M166.3 73.9C165.7 73.9 165.3 73.5 165.3 72.9C165.3 72.3 165.7 71.9 166.3 71.9C172.9 71.9 178.2 66.5 178.2 60C178.2 53.4 172.8 48.1 166.3 48.1H13.9C7.4 48 2 53.4 2 60C2 66.6 7.4 71.9 13.9 71.9C14.5 71.9 14.9 72.3 14.9 72.9C14.9 73.5 14.5 73.9 13.9 73.9C6.3 73.9 0 67.7 0 60C0 52.3 6.3 46 13.9 46H166.2C173.9 46 180.1 52.3 180.1 59.9C180.1 67.5 173.9 73.9 166.3 73.9Z" fill="#FFB422"/>
<path d="M13.2004 66.8002C9.50039 66.8002 6.40039 63.8002 6.40039 60.0002C6.40039 56.2002 9.40039 53.2002 13.2004 53.2002C17.0004 53.2002 20.0004 56.2002 20.0004 60.0002C20.0004 63.8002 16.9004 66.8002 13.2004 66.8002ZM13.2004 56.2002C11.1004 56.2002 9.40039 57.9002 9.40039 60.0002C9.40039 62.1002 11.1004 63.8002 13.2004 63.8002C15.3004 63.8002 17.0004 62.1002 17.0004 60.0002C17.0004 57.9002 15.3004 56.2002 13.2004 56.2002Z" fill="#FFB422"/>
<path d="M51.5002 66.8002C47.8002 66.8002 44.7002 63.8002 44.7002 60.0002C44.7002 56.2002 47.7002 53.2002 51.5002 53.2002C55.3002 53.2002 58.3002 56.2002 58.3002 60.0002C58.3002 63.8002 55.2002 66.8002 51.5002 66.8002ZM51.5002 56.2002C49.4002 56.2002 47.7002 57.9002 47.7002 60.0002C47.7002 62.1002 49.4002 63.8002 51.5002 63.8002C53.6002 63.8002 55.3002 62.1002 55.3002 60.0002C55.3002 57.9002 53.6002 56.2002 51.5002 56.2002Z" fill="#FFB422"/>
<path d="M89.8 66.8002C86.1 66.8002 83 63.8002 83 60.0002C83 56.2002 86 53.2002 89.8 53.2002C93.6 53.2002 96.6 56.2002 96.6 60.0002C96.6 63.8002 93.6 66.8002 89.8 66.8002ZM89.8 56.2002C87.7 56.2002 86 57.9002 86 60.0002C86 62.1002 87.7 63.8002 89.8 63.8002C91.9 63.8002 93.6 62.1002 93.6 60.0002C93.6 57.9002 91.9 56.2002 89.8 56.2002Z" fill="#FFB422"/>
<path d="M128.2 66.8002C124.5 66.8002 121.4 63.8002 121.4 60.0002C121.4 56.2002 124.4 53.2002 128.2 53.2002C132 53.2002 135 56.2002 135 60.0002C135 63.8002 131.9 66.8002 128.2 66.8002ZM128.2 56.2002C126.1 56.2002 124.4 57.9002 124.4 60.0002C124.4 62.1002 126.1 63.8002 128.2 63.8002C130.3 63.8002 132 62.1002 132 60.0002C132 57.9002 130.2 56.2002 128.2 56.2002Z" fill="#FFB422"/>
<path d="M166.5 66.8002C162.8 66.8002 159.7 63.8002 159.7 60.0002C159.7 56.2002 162.7 53.2002 166.5 53.2002C170.3 53.2002 173.3 56.2002 173.3 60.0002C173.3 63.8002 170.2 66.8002 166.5 66.8002ZM166.5 56.2002C164.4 56.2002 162.7 57.9002 162.7 60.0002C162.7 62.1002 164.4 63.8002 166.5 63.8002C168.6 63.8002 170.3 62.1002 170.3 60.0002C170.3 57.9002 168.6 56.2002 166.5 56.2002Z" fill="#FFB422"/>
<path d="M13.2004 66.8002C9.50039 66.8002 6.40039 63.8002 6.40039 60.0002C6.40039 56.2002 9.40039 53.2002 13.2004 53.2002C17.0004 53.2002 20.0004 56.2002 20.0004 60.0002C20.0004 63.8002 16.9004 66.8002 13.2004 66.8002ZM13.2004 56.2002C11.1004 56.2002 9.40039 57.9002 9.40039 60.0002C9.40039 62.1002 11.1004 63.8002 13.2004 63.8002C15.3004 63.8002 17.0004 62.1002 17.0004 60.0002C17.0004 57.9002 15.3004 56.2002 13.2004 56.2002Z" fill="#9BC045"/>
<path d="M51.5002 66.8002C47.8002 66.8002 44.7002 63.8002 44.7002 60.0002C44.7002 56.2002 47.7002 53.2002 51.5002 53.2002C55.3002 53.2002 58.3002 56.2002 58.3002 60.0002C58.3002 63.8002 55.2002 66.8002 51.5002 66.8002ZM51.5002 56.2002C49.4002 56.2002 47.7002 57.9002 47.7002 60.0002C47.7002 62.1002 49.4002 63.8002 51.5002 63.8002C53.6002 63.8002 55.3002 62.1002 55.3002 60.0002C55.3002 57.9002 53.6002 56.2002 51.5002 56.2002Z" fill="#9BC045"/>
<path d="M89.8 66.8002C86.1 66.8002 83 63.8002 83 60.0002C83 56.2002 86 53.2002 89.8 53.2002C93.6 53.2002 96.6 56.2002 96.6 60.0002C96.6 63.8002 93.6 66.8002 89.8 66.8002ZM89.8 56.2002C87.7 56.2002 86 57.9002 86 60.0002C86 62.1002 87.7 63.8002 89.8 63.8002C91.9 63.8002 93.6 62.1002 93.6 60.0002C93.6 57.9002 91.9 56.2002 89.8 56.2002Z" fill="#9BC045"/>
<path d="M128.2 66.8002C124.5 66.8002 121.4 63.8002 121.4 60.0002C121.4 56.2002 124.4 53.2002 128.2 53.2002C132 53.2002 135 56.2002 135 60.0002C135 63.8002 131.9 66.8002 128.2 66.8002ZM128.2 56.2002C126.1 56.2002 124.4 57.9002 124.4 60.0002C124.4 62.1002 126.1 63.8002 128.2 63.8002C130.3 63.8002 132 62.1002 132 60.0002C132 57.9002 130.2 56.2002 128.2 56.2002Z" fill="#9BC045"/>
<path d="M166.5 66.8002C162.8 66.8002 159.7 63.8002 159.7 60.0002C159.7 56.2002 162.7 53.2002 166.5 53.2002C170.3 53.2002 173.3 56.2002 173.3 60.0002C173.3 63.8002 170.2 66.8002 166.5 66.8002ZM166.5 56.2002C164.4 56.2002 162.7 57.9002 162.7 60.0002C162.7 62.1002 164.4 63.8002 166.5 63.8002C168.6 63.8002 170.3 62.1002 170.3 60.0002C170.3 57.9002 168.6 56.2002 166.5 56.2002Z" fill="#9BC045"/>
<path d="M16.0003 38.2998C12.6003 38.2998 9.50033 36.8998 7.20033 34.3998C4.30033 31.1998 2.60033 26.1998 3.00033 21.7998C3.70033 13.5998 8.90033 4.7998 16.0003 4.7998C23.2003 4.7998 28.3003 13.5998 29.0003 21.6998C29.4003 26.1998 27.7003 31.0998 24.8003 34.2998C22.5003 36.9998 19.5003 38.2998 16.0003 38.2998ZM16.0003 7.7998C10.8003 7.7998 6.60033 15.1998 6.00033 21.9998C5.70033 24.9998 6.70033 29.3998 9.40033 32.2998C11.2003 34.2998 13.4003 35.1998 16.0003 35.1998C18.6003 35.1998 20.8003 34.1998 22.6003 32.2998C25.3003 29.2998 26.3003 24.9998 26.0003 21.9998C25.5003 15.1998 21.3003 7.7998 16.0003 7.7998Z" fill="#FFB422"/>
<path d="M46.4004 36.6C43.6004 36.6 41.1004 35.5 39.2004 33.4C36.8004 30.8 35.5004 26.8 35.8004 23.2C36.4004 16.6 40.6004 9.5 46.5004 9.5C52.4004 9.5 56.6004 16.6 57.2004 23.2C57.5004 26.8 56.2004 30.8 53.8004 33.4C51.7004 35.5 49.2004 36.6 46.4004 36.6ZM46.4004 12.5C42.4004 12.5 39.2004 18.3 38.7004 23.5C38.5004 25.8 39.2004 29.2 41.4004 31.5C42.8004 33 44.4004 33.7 46.4004 33.7C48.4004 33.7 50.0004 32.9 51.4004 31.5C53.5004 29.2 54.2004 25.8 54.1004 23.5C53.6004 18.3 50.4004 12.5 46.4004 12.5Z" fill="#FFB422"/>
<path d="M166.5 36.6C163.7 36.6 161.2 35.5 159.3 33.4C156.9 30.8 155.6 26.8 155.9 23.2C156.5 16.6 160.7 9.5 166.6 9.5C172.5 9.5 176.7 16.6 177.3 23.2C177.6 26.8 176.3 30.8 173.9 33.4C171.8 35.5 169.3 36.6 166.5 36.6ZM166.5 12.5C162.5 12.5 159.3 18.3 158.8 23.5C158.6 25.8 159.3 29.2 161.5 31.5C162.9 33 164.5 33.7 166.5 33.7C168.5 33.7 170.1 32.9 171.5 31.5C173.6 29.2 174.3 25.8 174.2 23.5C173.7 18.3 170.5 12.5 166.5 12.5Z" fill="#FFB422"/>
<path d="M75.5999 38.2999C72.1999 38.2999 69.0999 36.8999 66.7999 34.3999C63.8999 31.1999 62.1999 26.1999 62.5999 21.7999C63.2999 13.6999 68.4999 4.8999 75.5999 4.8999C82.7999 4.8999 87.8999 13.6999 88.5999 21.7999C88.9999 26.2999 87.2999 31.1999 84.3999 34.3999C82.0999 36.9999 78.9999 38.2999 75.5999 38.2999ZM75.5999 7.7999C70.2999 7.7999 66.0999 15.0999 65.4999 21.9999C65.1999 24.9999 66.1999 29.3999 68.8999 32.2999C70.6999 34.2999 72.8999 35.1999 75.4999 35.1999C78.0999 35.1999 80.2999 34.1999 82.0999 32.2999C84.7999 29.2999 85.7999 24.9999 85.4999 21.9999C85.0999 15.1999 80.8999 7.7999 75.5999 7.7999Z" fill="#FFB422"/>
<path d="M136.2 38.3C132.3 38.3 128.8 36.8 126.2 33.8C122.8 30.1 120.9 24.5 121.4 19.4C122.2 10.1 128.1 0 136.3 0C144.5 0 150.4 10.1 151.2 19.4C151.6 24.5 149.7 30.2 146.4 33.8C143.6 36.8 140.1 38.3 136.2 38.3ZM136.2 3C129.4 3 124.9 12.7 124.3 19.7C124 23.2 125.1 28.3 128.4 31.9C130.5 34.2 133.2 35.4 136.2 35.4C139.3 35.4 141.9 34.2 144 31.9C147.2 28.4 148.4 23.3 148.1 19.7C147.5 12.7 143.1 3 136.2 3Z" fill="#FFB422"/>
<path d="M106 36.6C103.2 36.6 100.7 35.5 98.8 33.4C96.4 30.8 95.1 26.8 95.4 23.2C96 16.6 100.2 9.5 106.1 9.5C112 9.5 116.2 16.6 116.8 23.2C117.1 26.8 115.8 30.8 113.4 33.4C111.3 35.5 108.8 36.6 106 36.6ZM106 12.5C102 12.5 98.8 18.3 98.3 23.5C98.1 25.8 98.8 29.2 101 31.5C102.4 33 104 33.7 106 33.7C108 33.7 109.6 32.9 111 31.5C113.1 29.2 113.8 25.8 113.7 23.5C113.2 18.3 110 12.5 106 12.5Z" fill="#FFB422"/>
</g>
<defs>
<clipPath id="clip0">
<rect width="180.2" height="73.9" fill="white"/>
</clipPath>
</defs>
</svg>
