<svg width="157" height="164" viewBox="0 0 157 164" fill="none" xmlns="http://www.w3.org/2000/svg">
<g clip-path="url(#clip0)">
<path d="M79.6 163.7C79 163.7 78.6 163.3 78.6 162.7C78.6 160 79.4 157.9 80.1 155.9C80.8 154.1 81.4 152.4 81.4 150.4C81.4 148.4 80.6 146.7 79.7 144.8C78.8 142.8 77.8 140.7 77.8 138.2C77.8 135.9 78.5 134.3 79.1 132.7C79.9 130.9 80.6 129 80.5 125.9C80.5 125.3 80.9 124.9 81.5 124.9C82 124.9 82.5 125.3 82.5 125.9C82.6 129.4 81.7 131.6 80.9 133.5C80.3 135 79.7 136.3 79.7 138.2C79.7 140.2 80.5 142 81.4 143.9C82.3 145.9 83.2 147.9 83.2 150.3C83.2 152.7 82.5 154.6 81.8 156.5C81.1 158.4 80.4 160.2 80.4 162.6C80.6 163.3 80.1 163.7 79.6 163.7ZM31.3 148.9C31.1 148.9 31 148.9 30.8 148.8C30.3 148.5 30.1 147.9 30.4 147.4C31.9 144.6 34.2 143.3 36.2 142C37.7 141.1 39 140.3 40 139C41.1 137.6 41.4 135.7 41.8 133.8C42.3 131.5 42.7 129.1 44.3 127.2C45.5 125.8 46.8 124.9 48.2 124.1C50 123 51.9 121.8 53.8 119.1C54.1 118.6 54.7 118.5 55.2 118.8C55.7 119.1 55.8 119.7 55.5 120.2C53.4 123.3 51.2 124.6 49.3 125.8C48 126.6 46.9 127.3 45.9 128.5C44.6 130 44.2 132.1 43.8 134.2C43.4 136.3 42.9 138.5 41.6 140.3C40.4 141.9 38.8 142.8 37.3 143.8C35.3 145 33.5 146.1 32.2 148.4C32 148.7 31.7 148.9 31.3 148.9ZM127.2 147C126.9 147 126.6 146.9 126.4 146.6C124.1 143.7 123.4 141 122.8 138.8C122.4 137.3 122.1 136 121.3 135C120.1 133.3 118.3 132.3 116.4 131.2C114.6 130.2 112.8 129.1 111.3 127.4C109.8 125.6 109.2 123.6 108.7 121.6C108.2 119.7 107.7 117.7 106.2 115.8C105.9 115.4 106 114.7 106.4 114.4C106.8 114.1 107.5 114.2 107.8 114.6C109.5 116.9 110.1 119.1 110.6 121.1C111.1 123 111.5 124.7 112.8 126.1C114 127.5 115.7 128.5 117.4 129.5C119.4 130.7 121.5 131.9 122.9 133.9C123.9 135.3 124.3 136.8 124.7 138.4C125.2 140.5 125.9 142.8 127.9 145.4C128.2 145.8 128.2 146.5 127.7 146.8C127.6 147 127.4 147 127.2 147ZM61.5 141.6C61.4 141.6 61.3 141.6 61.2 141.6C60.7 141.4 60.4 140.9 60.5 140.3C61 138.7 60.9 137.5 60.8 136.3C60.7 134.9 60.6 133.4 61.4 131.3C62 129.6 62.8 128.6 63.6 127.6C64.3 126.7 65 125.8 65.5 124.4C65.7 123.9 66.3 123.6 66.8 123.8C67.3 124 67.6 124.6 67.4 125.1C66.8 126.8 66 127.8 65.2 128.8C64.5 129.7 63.8 130.6 63.3 132C62.7 133.7 62.7 134.9 62.8 136.2C62.9 137.5 63 139 62.4 141C62.3 141.3 61.9 141.6 61.5 141.6ZM97.6 139.7C97.2 139.7 96.8 139.4 96.7 139C96.2 137.4 96.2 136 96.2 134.6C96.2 133.3 96.3 132.1 95.8 130.8C95.5 130 94.9 129.2 94.2 128.4C93.2 127.2 92 125.9 91.5 123.8C91.4 123.3 91.7 122.7 92.2 122.6C92.7 122.5 93.3 122.8 93.4 123.3C93.8 125 94.8 126 95.7 127.1C96.5 128 97.3 129 97.7 130.2C98.2 131.9 98.2 133.3 98.2 134.7C98.2 135.9 98.1 137.1 98.6 138.4C98.8 138.9 98.5 139.5 98 139.7C97.8 139.7 97.7 139.7 97.6 139.7ZM30.7 119.6C30.4 119.6 30.1 119.5 29.9 119.2C29.6 118.8 29.6 118.1 30.1 117.8C31.1 117 31.7 116.1 32.4 115C33.2 113.8 34 112.5 35.4 111.6C36.6 110.8 37.8 110.5 39 110.1C40.3 109.7 41.6 109.4 42.7 108.5C43.1 108.2 43.8 108.2 44.1 108.7C44.4 109.1 44.4 109.8 43.9 110.1C42.4 111.3 40.8 111.7 39.5 112.1C38.4 112.4 37.4 112.7 36.5 113.3C35.5 114 34.8 115 34.1 116.1C33.4 117.2 32.6 118.4 31.4 119.4C31.2 119.5 31 119.6 30.7 119.6ZM127.6 117.3C127.4 117.3 127.2 117.2 127.1 117.1C125.3 115.9 124.3 114.6 123.5 113.3C122.9 112.4 122.3 111.6 121.4 110.9C120.4 110.1 119.3 109.9 118.1 109.6C116.8 109.3 115.3 109 113.8 107.9C113.4 107.6 113.2 107 113.6 106.5C113.9 106.1 114.5 105.9 115 106.3C116.2 107.1 117.4 107.4 118.6 107.7C120 108 121.4 108.3 122.7 109.4C123.8 110.3 124.5 111.3 125.1 112.2C125.9 113.4 126.7 114.5 128.2 115.4C128.7 115.7 128.8 116.3 128.5 116.8C128.2 117.1 127.9 117.3 127.6 117.3ZM1.19999 108.4C0.79999 108.4 0.49999 108.2 0.29999 107.8C0.0999899 107.3 0.29999 106.7 0.79999 106.5C3.39999 105.3 5.99999 105.5 8.29999 105.7C10.1 105.9 11.9 106 13.5 105.4C15.2 104.8 16.7 103.5 18.3 102.2C20 100.8 21.8 99.3 24 98.4C26.1 97.6 27.9 97.8 29.7 98C31.7 98.2 33.7 98.4 36.6 97.4C37.1 97.2 37.7 97.5 37.9 98C38.1 98.5 37.8 99.1 37.3 99.3C34 100.4 31.6 100.2 29.6 100C27.9 99.8 26.5 99.7 24.8 100.3C22.9 101 21.2 102.4 19.7 103.7C18.1 105.1 16.4 106.5 14.3 107.2C12.3 107.9 10.3 107.7 8.29999 107.6C6.09999 107.4 3.99999 107.2 1.79999 108.2C1.49999 108.4 1.39999 108.4 1.19999 108.4ZM155.6 105.4C155.5 105.4 155.5 105.4 155.4 105.4C152.4 104.7 150.5 103.1 148.7 101.7C147.3 100.6 146 99.5 144.4 99.1C142.7 98.6 140.9 98.9 139 99.1C136.7 99.4 134.3 99.8 131.7 98.8C129.6 98 128.1 96.8 126.7 95.7C125.1 94.4 123.5 93.1 120.9 92.5C120.4 92.4 120 91.8 120.1 91.3C120.2 90.8 120.8 90.4 121.3 90.5C124.3 91.2 126.1 92.6 127.9 94.1C129.3 95.2 130.5 96.2 132.4 96.9C134.5 97.7 136.6 97.4 138.7 97.1C140.7 96.8 142.8 96.5 144.9 97.1C146.9 97.7 148.4 98.9 149.9 100.1C151.5 101.4 153.3 102.8 155.8 103.4C156.3 103.5 156.7 104.1 156.6 104.6C156.5 105.1 156.1 105.4 155.6 105.4ZM33.5 84.2C31.9 84.2 30.7 83.7 29.5 83.2C28.4 82.7 27.4 82.3 26 82.3C24.8 82.3 23.7 82.7 22.6 83.1C21.4 83.6 19.9 84.1 18.2 84.1C17.6 84.1 17.2 83.7 17.2 83.1C17.2 82.5 17.6 82.1 18.2 82.1C19.6 82.1 20.7 81.7 21.9 81.2C23.1 80.7 24.4 80.2 26 80.2C27.8 80.2 29.1 80.8 30.3 81.2C31.4 81.7 32.4 82.1 33.7 82C34.3 82 34.7 82.4 34.7 83C34.7 83.6 34.3 84 33.7 84C33.7 84.2 33.6 84.2 33.5 84.2ZM122.1 81.8C121.5 81.8 121.1 81.4 121.1 80.8C121.1 80.2 121.5 79.8 122.1 79.8C123.5 79.8 124.7 79.3 126 78.8C127.3 78.3 128.7 77.7 130.2 77.7C131.8 77.7 133.3 78.1 134.7 78.6C136 79 137.2 79.3 138.4 79.3C139 79.3 139.4 79.7 139.4 80.3C139.4 80.9 139 81.3 138.4 81.3C136.9 81.3 135.5 80.9 134.2 80.5C132.8 80.1 131.6 79.7 130.2 79.7C129.1 79.7 128 80.2 126.8 80.6C125.4 81.2 123.9 81.8 122.1 81.8ZM35 71.9C34.9 71.9 34.8 71.9 34.7 71.9C31.8 71.1 29.8 69.4 28 67.9C26.7 66.8 25.4 65.7 23.9 65.2C22.3 64.6 20.4 64.8 18.4 65C16.1 65.2 13.7 65.4 11.3 64.6C9.29999 63.9 7.79999 62.7 6.29999 61.4C4.79999 60 3.09999 58.5 0.79999 58C0.29999 57.9 -0.10001 57.3 0.0999899 56.8C0.19999 56.3 0.79999 55.9 1.29999 56.1C4.09999 56.8 6.09999 58.5 7.79999 59.9C9.19999 61.1 10.5 62.2 12.1 62.7C14.1 63.4 16.3 63.2 18.4 63C20.5 62.8 22.7 62.6 24.7 63.3C26.5 63.9 27.9 65.1 29.4 66.4C31.1 67.8 32.8 69.3 35.3 70C35.8 70.1 36.2 70.7 36 71.2C35.9 71.6 35.5 71.9 35 71.9ZM118.5 65C118.1 65 117.7 64.8 117.6 64.4C117.4 63.9 117.6 63.3 118.1 63.1C121.2 61.7 123.8 61.9 126.1 61.9C127.7 62 129.2 62 130.8 61.6C132.7 61.1 134.2 59.6 135.8 58.1C137.3 56.6 138.9 55 141 54.4C143.1 53.7 145.1 53.8 147 53.9C149.2 54 151.3 54.1 153.4 53.1C153.9 52.8 154.5 53 154.7 53.5C155 54 154.8 54.6 154.3 54.8C151.7 56.1 149.3 56 146.9 55.9C145.1 55.8 143.3 55.7 141.6 56.3C140 56.8 138.6 58.2 137.2 59.6C135.5 61.3 133.7 63 131.3 63.7C129.4 64.2 127.7 64.1 126 64C123.7 63.9 121.5 63.8 118.9 65C118.8 65 118.6 65 118.5 65ZM40.2 59.9C40 59.9 39.8 59.8 39.7 59.7C37.7 58.4 36.8 57.1 36 56C35.4 55.2 34.9 54.5 34.1 53.9C33.3 53.3 32.4 53.2 31.4 53C30.1 52.8 28.5 52.5 26.6 51.3C26.1 51 26 50.4 26.3 49.9C26.6 49.4 27.2 49.3 27.7 49.6C29.3 50.6 30.6 50.8 31.8 51.1C33 51.3 34.1 51.5 35.4 52.4C36.5 53.2 37.2 54.1 37.8 55C38.5 56 39.3 57.1 41 58.2C41.5 58.5 41.6 59.1 41.3 59.6C40.8 59.7 40.5 59.9 40.2 59.9ZM113.1 56C112.8 56 112.5 55.9 112.3 55.6C112 55.2 112.1 54.5 112.5 54.2C113.9 53.1 114.7 51.9 115.4 50.7C116 49.7 116.7 48.6 117.8 47.7C119 46.7 120.2 46.4 121.3 46C122.5 45.7 123.8 45.3 125.3 44.1C125.7 43.8 126.4 43.8 126.7 44.3C127 44.7 127 45.4 126.5 45.7C124.6 47.2 123.1 47.6 121.8 48C120.7 48.3 119.9 48.5 119 49.3C118.2 50 117.7 50.8 117.1 51.8C116.3 53.1 115.5 54.5 113.7 55.8C113.5 56 113.3 56 113.1 56ZM49.9 48.6C49.6 48.6 49.4 48.5 49.2 48.3C47.1 46.2 46.5 43.4 45.9 41C45.5 39.3 45.2 37.7 44.4 36.5C43.5 35.1 42 34.2 40.3 33.2C38.4 32.1 36.3 30.8 34.7 28.6C33.3 26.7 32.8 24.6 32.2 22.6C31.7 20.7 31.2 18.7 29.9 16.8C29.6 16.3 29.7 15.7 30.2 15.4C30.7 15.1 31.3 15.2 31.6 15.7C33 17.8 33.6 20 34.1 22.1C34.6 24 35.1 25.8 36.2 27.4C37.6 29.2 39.4 30.4 41.2 31.4C43.1 32.5 44.8 33.6 46 35.4C47 36.9 47.4 38.8 47.8 40.6C48.3 42.9 48.9 45.3 50.5 46.9C50.9 47.3 50.9 47.9 50.5 48.3C50.4 48.5 50.1 48.6 49.9 48.6ZM100 44.4C99.8 44.4 99.6 44.4 99.5 44.3C99 44 98.9 43.4 99.2 42.9C100.9 40.2 102.9 38.7 104.8 37.5C106.2 36.6 107.5 35.7 108.5 34.3C109.9 32.4 110.4 29.9 110.8 27.5C111.2 25.6 111.5 23.7 112.4 22.4C113.6 20.5 115.3 19.4 116.9 18.3C118.7 17.1 120.4 16 121.6 13.9C121.9 13.4 122.5 13.3 123 13.5C123.5 13.8 123.6 14.4 123.4 14.9C121.9 17.4 119.9 18.8 118 20C116.5 21 115 22 114.1 23.5C113.5 24.5 113.1 26.2 112.8 27.9C112.3 30.4 111.8 33.2 110.1 35.5C108.9 37.2 107.4 38.2 105.9 39.2C104.1 40.4 102.3 41.6 100.9 44C100.7 44.3 100.4 44.4 100 44.4ZM61.2 41.9C60.8 41.9 60.5 41.7 60.3 41.4C59.5 39.8 59.5 38.2 59.6 36.8C59.7 35.6 59.7 34.4 59.2 33.2C58.8 32.3 58.1 31.5 57.3 30.7C56.2 29.5 54.9 28.1 54.6 26.2C54.5 25.7 54.9 25.1 55.4 25C55.9 24.9 56.5 25.3 56.6 25.8C56.9 27.2 57.8 28.2 58.8 29.3C59.6 30.2 60.5 31.1 61 32.3C61.7 33.9 61.7 35.5 61.6 36.8C61.5 38.1 61.5 39.2 62.1 40.3C62.4 40.8 62.2 41.4 61.7 41.7C61.6 41.9 61.4 41.9 61.2 41.9ZM90.5 40.5C90.4 40.5 90.3 40.5 90.2 40.4C89.7 40.2 89.4 39.6 89.6 39.1C90.1 37.8 89.9 36.5 89.8 35.2C89.6 33.8 89.5 32.4 90 30.9C90.3 29.8 91 28.9 91.7 28.1C92.6 27 93.6 25.8 93.9 23.8C94 23.3 94.5 22.9 95 23C95.5 23.1 95.9 23.6 95.8 24.1C95.4 26.7 94.2 28.2 93.2 29.4C92.6 30.1 92.1 30.8 91.9 31.5C91.6 32.6 91.7 33.8 91.8 35C92 36.4 92.1 38.1 91.5 39.8C91.3 40.2 90.9 40.5 90.5 40.5ZM75.7 38.6C75.1 38.6 74.7 38.2 74.7 37.6C74.7 34.8 75.6 32.5 76.5 30.5C77.2 28.8 77.9 27.2 77.9 25.4C77.9 23.5 77.2 21.9 76.5 20.2C75.7 18.3 74.7 16.1 74.7 13.1C74.7 10.9 75.4 9.3 76.2 7.7C77 6 77.8 4.1 77.8 1C77.8 0.4 78.2 0 78.8 0C79.4 0 79.8 0.4 79.8 1C79.8 4.5 78.8 6.7 77.9 8.6C77.2 10.1 76.6 11.4 76.6 13.2C76.6 15.7 77.4 17.6 78.2 19.5C79 21.3 79.8 23.2 79.8 25.4C79.8 27.5 79 29.4 78.3 31.2C77.5 33.1 76.7 35.1 76.7 37.6C76.7 38.2 76.2 38.6 75.7 38.6Z" fill="url(#paint0_linear)"/>
<path d="M77.9 120.9C56.4 120.9 38.8 103.4 38.8 81.8C38.8 60.2 56.3 42.7 77.9 42.7C85.5 42.7 92.9 44.9 99.2 49C99.9 49.5 100.1 50.4 99.6 51.1C99.1 51.8 98.2 52 97.5 51.5C91.6 47.7 84.8 45.7 77.8 45.7C57.9 45.7 41.7 61.9 41.7 81.8C41.7 101.7 57.9 117.9 77.8 117.9C97.7 117.9 114 101.8 114 81.9C114 73.6 111.1 65.4 105.8 59C105.3 58.4 105.4 57.4 106 56.9C106.6 56.4 107.6 56.5 108.1 57.1C113.8 64.1 117 72.9 117 81.9C117 103.4 99.5 120.9 77.9 120.9ZM103.8 56.1C103.4 56.1 103.1 56 102.8 55.7C102.2 55.1 101.5 54.5 100.8 54C100.2 53.5 100.1 52.5 100.6 51.9C101.1 51.3 102.1 51.2 102.7 51.7C103.4 52.3 104.1 52.9 104.8 53.6C105.4 54.2 105.4 55.1 104.9 55.7C104.6 56 104.2 56.1 103.8 56.1Z" fill="#9BC045"/>
</g>
<defs>
<linearGradient id="paint0_linear" x1="0.0473938" y1="81.85" x2="156.615" y2="81.85" gradientUnits="userSpaceOnUse">
<stop stop-color="#FFA722"/>
<stop offset="1" stop-color="#FFB422"/>
</linearGradient>
<clipPath id="clip0">
<rect width="156.6" height="163.7" fill="white"/>
</clipPath>
</defs>
</svg>
