<svg width="146" height="123" viewBox="0 0 146 123" fill="none" xmlns="http://www.w3.org/2000/svg">
<path d="M10.6 122C15.9019 122 20.2 117.702 20.2 112.4C20.2 107.098 15.9019 102.8 10.6 102.8C5.29807 102.8 1 107.098 1 112.4C1 117.702 5.29807 122 10.6 122Z" stroke="#FFB422" stroke-width="2" stroke-miterlimit="10" stroke-linecap="round" stroke-linejoin="round"/>
<path d="M83.7004 122C90.4935 122 96.0004 116.493 96.0004 109.7C96.0004 102.907 90.4935 97.4 83.7004 97.4C76.9073 97.4 71.4004 102.907 71.4004 109.7C71.4004 116.493 76.9073 122 83.7004 122Z" stroke="#FFB422" stroke-width="2" stroke-miterlimit="10" stroke-linecap="round" stroke-linejoin="round"/>
<path d="M88.9996 73.6C90.6012 73.6 91.8996 72.3016 91.8996 70.7C91.8996 69.0984 90.6012 67.8 88.9996 67.8C87.398 67.8 86.0996 69.0984 86.0996 70.7C86.0996 72.3016 87.398 73.6 88.9996 73.6Z" stroke="#9BC045" stroke-width="2" stroke-miterlimit="10" stroke-linecap="round" stroke-linejoin="round"/>
<path d="M20.5996 67.8L25.0996 44.2H52.1996C57.9996 44.2 62.9996 48.3 64.0996 54L70.1996 86.3" stroke="#9BC045" stroke-width="2" stroke-miterlimit="10" stroke-linecap="round" stroke-linejoin="round"/>
<path d="M66.3996 114.7H26.5996L26.1996 111.2C25.2996 103.3 18.6996 97.4 10.7996 97.4H3.29961L2.09961 82.3H30.5996" stroke="#9BC045" stroke-width="2" stroke-miterlimit="10" stroke-linecap="round" stroke-linejoin="round"/>
<path d="M16.5996 73.5H37.2996L46.1996 99.6H47.6996C52.7996 99.6 56.9996 95.4 56.9996 90.3V86.5H83.6996" stroke="#9BC045" stroke-width="2" stroke-miterlimit="10" stroke-linecap="round" stroke-linejoin="round"/>
<path d="M89.4004 90.5V73.5" stroke="#9BC045" stroke-width="2" stroke-miterlimit="10" stroke-linecap="round" stroke-linejoin="round"/>
<path d="M89.4004 67.8V7.20001" stroke="#9BC045" stroke-width="2" stroke-miterlimit="10" stroke-linecap="round" stroke-linejoin="round"/>
<path d="M97.0996 47.4V97.4L139.6 95H102.2" stroke="#9BC045" stroke-width="2" stroke-miterlimit="10" stroke-linecap="round" stroke-linejoin="round"/>
<path d="M79.0996 82.3L87.5996 73.1" stroke="#9BC045" stroke-width="2" stroke-miterlimit="10" stroke-linecap="round" stroke-linejoin="round"/>
<path d="M145 70.7H108.9V88.4H145V70.7Z" stroke="#FFB422" stroke-width="2" stroke-miterlimit="10" stroke-linecap="round" stroke-linejoin="round"/>
<path d="M145 47.4H108.9V65.1H145V47.4Z" stroke="#FFB422" stroke-width="2" stroke-miterlimit="10" stroke-linecap="round" stroke-linejoin="round"/>
<path d="M145 24.2H108.9V41.9H145V24.2Z" stroke="#FFB422" stroke-width="2" stroke-miterlimit="10" stroke-linecap="round" stroke-linejoin="round"/>
<path d="M145 18.7H108.9V1" stroke="#FFB422" stroke-width="2" stroke-miterlimit="10" stroke-linecap="round" stroke-linejoin="round"/>
<path d="M108.9 1V18.7H145V9.8" stroke="#FFB422" stroke-width="2" stroke-miterlimit="10" stroke-linecap="round" stroke-linejoin="round"/>
</svg>
