<svg xmlns="http://www.w3.org/2000/svg" width="185" height="185" viewBox="0 0 185 185"><g><g><g/><g><g><path fill="#f7f3e8" d="M92.5 184.5c50.81 0 92-41.19 92-92s-41.19-92-92-92-92 41.19-92 92 41.19 92 92 92z"/></g><g opacity=".18"/></g><g><path fill="#fcf9f0" d="M53.9 160.602c1.7-1.2 1.3-3.9-.7-4.3-4-.9-8.2-2.8-12.5-3.8-13.6-8.8-4.8-14.2-10.7-20.3-1.5-1.4-3.9-2.3-5.5-3.6-4.6-3.6-5.4-9.4-3.6-14.9 2.3-7.1 6.6-13.8 7.7-20.6 2.1-13.2-1.1-25.7 3.8-39.6 4.6-13 20.4-17.2 25.2-22.9 1.7-2 4.3-4.6 10.2-5.6 5.6-.6 11.6-.7 17.2-3.3 9.6-4.3 11.5-1.5 13.7-.5 6 2.1 11.3 2.6 17.1 2.9 2.8.1 6 .6 8.8 2.4 3.2 2 6.2 4.1 9.4 6 4.2 2.4 8 5.3 12.3 6.9 13.5 5 15.1 19 23 34.3 7.3 14.3-.2 34-3 48.2-.5 2.5-1.2 4.9-2.8 7-2.9 3.8-4.7 6.6-6.8 10.7-2.1 4-5.1 9-7.6 12.1-3.1 3.9-7.8 6.9-11 8.5-13.3 6.3-28.1 9.3-43 9-15.2-.3-28.2 7.5-41.5-5.1-1.1-.8-1-2.6.3-3.5z"/></g><g><path fill="#f9b348" d="M92.6 153.7c32.806 0 59.4-26.594 59.4-59.4s-26.594-59.4-59.4-59.4-59.4 26.594-59.4 59.4 26.594 59.4 59.4 59.4z"/></g><g><path fill="#ffc64a" d="M56.096 46.2c.7 3.1 1.7 7.1 2.6 11.1-.7-.8-1.4-1.5-2-2.3-1.9 3.1-3.8 6.2-5.7 9.4-1.5 2.4-.4 6.3-4.6 7.1-1 .2-1.1 2-.6 3.1 3.1 7 1.6 15 4.6 22 .9 2 .6 4.2-.7 6.2-4.1 6.6-1.6 12.3-5.4 13.7-4.1 1.6-3.7 4.4-2.7 7.6.3 2.1 1.5 3.7 3.1 5 4.7 1.5 6.5-3.7 10.1-4.3-1.8 3.4-8.1 3.4-7.5 9.099 3.2 6.2 8 10.3 14.9 11.7 6.9-2.8 13.7-5.7 21.3-8.8-.3 1.9-.5 2.9-.6 3.9.7 1.3.8 3.1 3.4 3.6 1.9-10.1 11.4-6.3 18.1-10.1-1.1 3.1-4.4 5.6-2.3 7.8 2 2.1 4.7 4.5 8.3 4 6.4-3.3 10.3-11.3 16.9-7.2 2.7.8 4.3-.8 5.7-2.6.6-.5 1.2-1 1.9-1.5 6.2-3.3 8.8-7.6 7.2-14.3-1.6-6.9-2.5-13.9 1.3-20.5 1.4-2.5 1.3-5.6-.4-7.9-2.9-3.9-4.4-7.6-2.9-13 1.5-5.5-2.9-3.1-5.4-2.5-1.1.7-1.4 1.8-1.1 3.6-2.4-2.7-2.1-5.5-2.1-8.2 0-6.9 1-13.7.8-20.6-1.1-1.6-2.7-2.5-4.4-3-4.1-.9-6.4.5-6.3 5 .1 5.4-5.5 10.8-.7 14.1.5.1 1 .2 1.4-.4.1.3-.1.5-.5.7-3.1 1.3-6.2 2-9.5 2.5-4.1.7-6.7 4.8-9.5 7.7-4.8 4.9-2.7 7.9.7 9.6 1.5.8.6 3.1-1 2.7-10.1-2.5-3.8-15.3 9.5-21 1.7-.7 3.3-1.5 4-3.2 1-2.5.5-4.4-2.7-4.2-2.3.1-4.6.9-7.3-.4 4.2.1 5.7-2.9 6-5.7.7-6.3 4.3-9.6 10-11.2 1.2-1.1 2.9-2 3-4-2.3-3.3-6.5-3-9.3-5.2-2.1-1.7-4.9-.1-7.1-2.3-6.1-2.1-12.2-1.5-18.2 0-1.9.4-3.6 1.4-5.6 1.3-3.4-.1-4.7 2.3-5.6 5-1.2 3.2.2 4.4 3.4 3.8 1.3-.2 2.4-1.4 4.1-.8.6 3.1-1.5 8.7 5.5 6.9 4.7-3 5.9-2.2 6.5 4.8l-.4.2v-.5c-1.3-2.7.7-8.1-5.3-5.5-6.8 1.1-13.2 3.3-19.5 6.4-1.5-3.9-1.3-6.6 1.5-9.4 3.1-3.1 1.7-6.2-2.8-6.6-2.8-.3-5.8-.4-8.4 1.2-.2-.2.3-.5-7.7 6.4z"/></g><g><path fill="#ffb957" d="M128.3 49.2c1.2.8 2.3 1.6 3.5 2.4 1.1 6.4 6.1 11.5 5.9 18.6-3.6 1.2-6.7 2.7-3.4 7.1 1.7-.2 3.3-.4 5.8-.6-5 6.6-2.7 11.7 2.1 16.6.9.9 1.4 3.8.7 4.7-5 6.6-4.8 13.9-2.7 21 1.8 6 .1 10.4-3.7 14.7 3-2.5 6.7-4.5 8.8-7.6 3.1-4.5 5.1-9.8 7.5-14.8 3.3-20 2.9-39.3-9.7-56.6-2.4-3.3-3.9-7.2-3.6-11.5.7-7.4-7-1.8-12.4-5.6-3.9-.8-7.7-1.7-11.6-2.5 2.6 1.9 5.2 3.9 7.8 5.8-.4.5-1.2 1.5-2.1 2.5.7.9 1.7 1 2.7 1 3.1-.1 2.1 2.9 4.4 4.8z"/></g><g><path fill="#f9b348" d="M40.5 124c.7 0 1.5.1 2.2.1l-.6-5.1c.5.3 1 .5 1.5.8 1.6-2.3 3.4-4.5 4.6-6.9 1.6-3.4 3.2-7 3.6-10.7.4-4.1-.7-8.2-1.2-12.4-.7-5.7-2-10.6-3.6-17.8 1.2-.1 2.9-.2 5.1-.3-.4-2.5-.8-4.9-1.1-7.4-14.3 5.5-10 4.1-15.2 4.7h-2.3v2.3c2 1.1 4 2.2 6.9 3.7-4.1 5.9-8.2 12-11.6 16.9 3.9 10.9 7.8 21.5 11.7 32.1z"/></g><g><path fill="#f9a72a" d="M72.102 76.2h1.1c1.2-1.5 2.5-3 4.3-5.3-8.1-.4-10.5 11.1-18.9 6.4 1.7 6.6-7.4 11.9-1.2 18.5 2.5-2.7 4.2-4.5 4.1-4.4.7-3.3.5-8 5.8-3.5.8-2 1.6-3.9 2.4-5.9 1-1.8.8-4.2 2.4-5.8z"/></g></g></g></svg>