<svg xmlns="http://www.w3.org/2000/svg" width="185" height="185" viewBox="0 0 185 185"><g><g><g/><g><g><path fill="#f7f3e8" d="M92.5 184.5c50.81 0 92-41.19 92-92s-41.19-92-92-92-92 41.19-92 92 41.19 92 92 92z"/></g><g opacity=".18"/></g><g><path fill="#fcf9f0" d="M53.7 158.002c.1 0 .1 0 0 0 1.7-1.2 1.3-3.9-.7-4.3-4-.9-8.2-2.8-12.5-3.8-13.6-8.8-4.8-14.2-10.7-20.3-1.5-1.4-3.9-2.3-5.5-3.6-4.6-3.6-5.4-9.4-3.6-14.9 2.3-7.1 6.6-13.8 7.7-20.6 2.1-13.2-1.1-25.7 3.8-39.6 4.6-13 20.4-17.2 25.2-22.9 1.7-2 4.3-4.6 10.2-5.6 5.6-.6 11.6-.7 17.2-3.3 9.6-4.3 11.5-1.5 13.7-.5 6 2.1 11.3 2.6 17.1 2.9 2.8.1 6 .6 8.8 2.4 3.2 2 6.2 4.1 9.4 6 4.2 2.4 8 5.3 12.3 6.9 13.5 5 15.1 19 23 34.3 7.3 14.3-.2 34-3 48.2-.5 2.5-1.2 4.9-2.8 7-2.9 3.8-4.7 6.6-6.8 10.7-2.1 4-5.1 9-7.6 12.1-3.1 3.9-7.8 6.9-11 8.5-13.3 6.3-28.1 9.3-43 9-15.2-.3-28.2 7.5-41.5-5.1-1.1-.8-.9-2.6.3-3.5z"/></g><g><path fill="#f9d47b" d="M31.7 74.5c3.3-9.8 6.7-19.6 15.5-25.8.7-.5 1-1.7 1.5-2.5 9.9-8.5 21.5-14.1 33.4-17.2 7.6-2 17.7 1.1 29.6 1.3 3.3.1 7 2.1 10.6 3.9-5.7 1.4-7.9 7.1-13.7 7.8-2.3-2.7-6.9 0-10.1-2.9-2.2 1.3-3.6 1.2-5.1.7-1.9-1.6-4.8-2.7-7.1-3.6-11.6-4.3-21.4 4.6-29.6 13-1.6 1.7-1.6 3.9-1.5 6 0 5.2-2 9.1-6.3 11.6-2.6 1.5-4.4 3.7-6.1 6.1-.4.4-.9.7-1.5.9-3.4-2.5-6.3 1.4-9.6.7z"/></g><g><path fill="#ffd042" d="M31.696 74.504c1.8-1.5 3.6-3.1 5.6-4.8 1.3 1.1 2.7 2.3 4.1 3.5 2.3-2.7 4.8-5.3 7-8 1.8-2.3 5.2-5.2 4.8-7.3-1.5-8.5 4-12.8 8.9-16.3 3.7-2.7 9.2-6.8 15-8.7 5.8-1.9 28.7-7.8 28.1.8-.3 4.5 7.2 13.3 20.2 26.8-.2 1.4-3.6 4.5-12.1 7.2-13.6 4.4-22-11.7-22.9-7.9-.7 2.6-4.3 2.8-7.6 1.6-5.1-2-8.7-2.8-9.7-.5-1.3 3.2-3.5 5.5-7 4.4-3.8-1.2-5.1-4.4-4.8-8.5.2-1.9.7-3.7.1-5.7-4.2.8-4 3.7-3.5 7.1 1.4 9.3 1.4 9.4-7 13.9 2.8 5 1.4 9.6 3.1 13.6 1.8 4.3 4.4 7.9 7.1 12.8 1.6 3 3.5 7.6 6.3 9.7 1.6 1.2 2.1 4 2.3 5.5.1.9-1.5 3.1.2 2.3 1.8-1.1 3-2.6 4.6-1.7.4.3 1 .5 1.2.8 1.8 2.2 9.9.9 11 3 1 3.1-.3 6.2 2.3 5.7 6.9-2.1 12.8-5.2 14.7-4.5.8.7 1.8 1.2 2.6 2.4 5.1 7.5 11.2-1.1 16.8-3.9 4.1-2 6-6.3 4.6-9.6-.9-1.9-3.8-3.7-3.9-4.8-.8-1.3-2.9-3.9-1-9.4 2.1-5.9-7-1.8-9.2-6.8-.7-1.6-.3-4.3-.5-6.9-.3-3.8 4.3-6.8 9.2-11.1 4-3.1 7.2-6.1 9.9-6.2 5.8-.3 9.3.3 11.1 5.5 1.2 3.4 2.7 4.8 6.2 4.1 1.6-.3 3.1.6 4.2 1.9.4.6.6 1.2.8 1.9.6 6 .7 12 .1 17.9-.4 4.6-.5 9.6-5.5 12-1.5.7-1.5 2.4-1.7 3.9-.4 2.7-1.4 5.2-3.8 6.2-4.5 2-4.5 5.9-4.6 10.1-.1 3.7 2.1 7.6-.4 11.2-.2 0-1.1 1.1-1.3 1.2-2 1.8-4 2.8-4.9 5.1-3.9.2-7.9.4-9.6 5.2-1.2.9-2.7 1.3-3.7 2.6-6.8 1.6-13.5 3.9-20.4 4.7-10.7 1.2-21.2.7-31.7-3.1-13.4-5-22-15.4-29.6-27-1.9-3-2.5-6.9-3.8-10.4-3.3-12.2-5.6-24.5-1.7-37.1.3-1.1-1-1.8-.6-2.9.4-.7.4-1.1.4-1.5z"/></g><g><path fill="#f9a72a" d="M70.6 125.9h-7.4c-1.6-1.8-1.6-3.8-.6-5.9 3.3-6.6.6-12.2-3.2-17.1-2.4-3.1-4.6-5.8-4.6-10 0-2.7-2.1-4-3.7-5.6-1.3-2.7-.9 1.5-1.5-17.1 1.7-.7 4.9-2.1 8.1-3.5-.7-5.3-1.3-10.1-1.9-14.4 2.6-1.9 4.7-3.4 7.2-5.2 0 3.3-.4 6.6.1 9.8.5 2.5 2.1 4.8 3.3 7.2 1.8-1.2 4.9-2.2 5.2-3.8 1.7-8.1 9.1-6 13.6-9 1.3-.2 2.6-.4 3.9-.5 3.2 2.3 11.6.8 15.9 9.1 3 5.7 9.8 6 13.2 1.3.3-.5.7-1 1.2-1.3 1.3-.4 2.3 0 3 1.2.8 1.9 1.4 3.9 2.1 5.9-.9 4.3-3.3 8.3-2.5 13.5 5.8.7 8.6 4.4 8.7 10.6 0 .8.9 1.3 1.6 1.8.5.4.8.8 1.2 1.3.5 1.1 1 2.2.3 3.4-3.1 10.6-3.8 16.6-11.7 22.7-6.5 5-12.8 5.7-19.9 5.7-8.3 1.3-17 5.2-23.1-4.9-1.3-2.1-3.1-1.7-4.6.1-1.2 1.5-2 3.6-3.9 4.7z"/></g><g><path fill="#ffc64a" d="M124.201 66.7c-.7-1.7-1.5-3.4-2.2-5 .6-1.6.9-3.2-.2-4.8-1.7.5-1.7 2.2-2.4 3.4 0 .4-.1.9-.1 1.3-3.4 2.7-6.2 1.3-9.1-1.3-3.8-3.5-3.3-7.4-1.7-11.5-3-5.8-.7-9 4.6-11 3-1.1 5.8-2.9 8.6-4.3 3.3 4.9-3.3-.8 26.5 23.3 3.2 6.3 2 3.5 5 10.2 1.2 2.6 2.4 5.2-.2 7.8-6.4.9-11.2-.5-12.4-8.5-.1-.8-5.2-1.1-8-1-2.1.1-4.1 1.1-6.2 1.7-.6.4-1.4.5-2.2-.3z"/></g><g><path fill="#f9d47b" d="M138.799 137.505c-.4-5.5-1-11-1.2-16.5-.1-1.5.7-4.4 1.3-4.5 7.5-1.1 7.6-6.9 7.1-13.5 1.9.4 3.2.7 6.2 1.3.3-9.7.6-19.1 1-28.5 3.3-.6 3.4 2.1 3.7 4.3.3 2.5-.5 5.1 1.1 7.3.5 11.5.8 22.9-4.7 33.6-1.1 2.1-1.1 4.9-1.5 7.3-8.4 6.2-4.7 3.7-13 9.2z"/></g><g><path fill="#f99c2a" d="M78.703 74.3h1.2c1.3-1.6 2.6-3.2 4.5-5.6-8.5-.4-11 11.7-19.9 6.7 1.7 6.9-7.8 12.5-1.3 19.5 2.6-2.8 4.4-4.7 4.3-4.6.7-3.5.5-8.4 6.2-3.7.8-2.1 1.7-4.1 2.5-6.2 1-1.9.8-4.4 2.5-6.1z"/></g></g></g></svg>