<svg xmlns="http://www.w3.org/2000/svg" width="185" height="185" viewBox="0 0 185 185"><g><g><g><g><path fill="#f7f3e8" d="M92.5 184.5c50.81 0 92-41.19 92-92s-41.19-92-92-92-92 41.19-92 92 41.19 92 92 92z"/></g><g opacity=".18"/></g><g><path fill="#fcf9f0" d="M53.7 157.802c.1 0 .1-.1 0 0 1.7-1.2 1.3-3.9-.7-4.3-4-.9-8.2-2.8-12.5-3.8-13.6-8.8-4.8-14.2-10.7-20.3-1.5-1.4-3.9-2.3-5.5-3.6-4.6-3.6-5.4-9.4-3.6-14.9 2.3-7.1 6.6-13.8 7.7-20.6 2.1-13.2-1.1-25.7 3.8-39.6 4.6-13 20.4-17.2 25.2-22.9 1.7-2 4.3-4.6 10.2-5.6 5.6-.6 11.6-.7 17.2-3.3 9.6-4.3 11.5-1.5 13.7-.5 6 2.1 11.3 2.6 17.1 2.9 2.8.1 6 .6 8.8 2.4 3.2 2 6.2 4.1 9.4 6 4.2 2.4 8 5.3 12.3 6.9 13.5 5 15.1 19 23 34.3 7.3 14.3-.2 34-3 48.2-.5 2.5-1.2 4.9-2.8 7-2.9 3.8-4.7 6.6-6.8 10.7-2.1 4-5.1 9-7.6 12.1-3.1 3.9-7.8 6.9-11 8.5-13.3 6.3-28.1 9.3-43 9-15.2-.3-28.2 7.5-41.5-5.1-1.1-.9-.9-2.7.3-3.5z"/></g><g><path fill="#f99805" d="M155.904 88.599c.1 11-4.4 17.5-6 24.6-1.3 5.9-8.1 11.4-14.1 19.4-5.7 7.6-11.6 12-18.7 15.2-7 3.2-14.5 5.6-22.5 6-34 1.8-68.1-26-65.1-61.3 1.4-17 5.8-37.9 18.5-43.1 7.5-3.1 12.1-10 19.9-13.7 3.7-1.8 7.7-4.4 12.1-3.2 6.9 1.8 12.2.6 15.4.8 8.7.6 16.3-5.8 25.6 2.2 4.9 5.1 7.1 8.4 16 10.3 14.5 3.9 18.8 28.3 18.9 42.8z"/></g><g><path fill="#ed7b02" d="M93.399 38.097c9.4 3.2 18.8-.3 19 4.6.1 1.9 1 2.2 2 2 1.5-.6 1.7-1.3 2.4-1.5 3.6-.1 19.9-1.7 28.3 17.7 2 4.8 2.5 10.1 1.5 15.1-1.1 5.4-1.7 12.7-1.5 14.6.4 6-1.2 22.5-6.7 19.8-3.2-4.7 8.5-15.6-4.5-36.9-.3-.5-.2.2-.2-.4-.8-7.6-6.8-8.9-13-11-8.3-2.8-12.3-8.4-16-13.3-1.1-1.3-3.7-.8-7-.6-8.5.5-12.3 4.9-14.6 7.2-2.5 3.1-10.6-1.1-16.9.7-.7.7-1.2 1.9-2.1 2.7-4.3 3.7-5.8 6.1-4.9 11.5.4 3.7-3.2 4.1-6.6 4.4-1.4.3-2.7.7-4.2.8-2.7.2-4.5 1.9-8.1-1.2-.9-2-.1-2.8 1-3.5 14.2-9.3 6.4-19 26.3-26.1 6.4-2.4 15.3-7.1 25.8-6.6z"/></g><g><path fill="#ed7b02" d="M61.696 111.7c.7-.2 1.6-.3 2.2-.8 9.2-6.9 17-6.9 23-7.5-.5 1.7-.3 1.5-.5 1.7-1.3.8-2.6 1.5-3.5 2.8.1.5.2 1 .4 1.5-.3.8-1.2.7-1.7 1.3-2.1 2.7-2.9 5.6.9 7.8.3.2 1.3 1.2 2.7 1.8 17.7 8 16.3 14.8 17.4 19.4-.7 1.2-5.1 1.2-6.2-3.8-6.8-18.9-33.1 4-31.9-1.1 1.8-4.3 2.2-9.5 0-12.4-1.5-2.1-3.7-3.6-4.2-5.9-1.2-1-.6-2.9 1.4-4.8z"/></g><g><path fill="#ed7b02" d="M141.199 113.101c1.5 2.3-2.6 4.6-7.8 13.8-6 3.5-3.7 3.4-6.6 4.4-6.5 4.6-10.1-3.2-14.8-1-1.8.9-32.1-3.9-31.3-13.4 1.1-12.5-12.3-13.2-14.4-15-.7-1.2-.1-1.9.7-2.6 9.6-2.4 18.9 4.1 19.8 13.8.2 2.8 1.4 4.4 4 5.3 4.2 1.5 8.3 3.4 12.2 5.7 1.8 1 3.7 1 5.6 1 4 0 7.9 0 11.8 1.4 3.7 1.3 9.5-2.8 11.3-7.9 2.6-7.5 18-25.4 5.9-43.7-1.1-1.7-1.8-3.6-1.7-5.7-.3-4.7-5.8-4.8-9.2-6.5-3.9-1.9-7.4-4.2-10.4-7.4-1.2-1.3-2.7-1.6-4.2-1.9-2.8-1.1-5.3-2.8-7.7-4.5-5.2-3.7-18.9-6.5-31-3.3-.9.2-1.9.3-2.8-.2-.2-.2-.4-.4-.6-.5 7.2-11.7 38.3-.9 39.7.6 5.8 6.3 13.7 8.7 21.2 12.1 1.1.5 2.8-.5 4.6-.9 3.5 3.4 7.8 6.9 9.5 12.1.4 1.1 1.1 2.3 1.3 3.4 3.6 19.5.5 28.2-1.1 32.6-1.6 4.2-3.9 4.7-4 8.3z"/></g><g><path fill="#ff8300" d="M57.5 63.8c1.6-2 2.7-7.3 3.5-10.7.6-2.3 2.5-4.4 4.2-6.1 1.2-1.2 3.2-1.6 4.8-2.3l.2.2c2.8 3.3 4.7 7.3 9.3 9.2 2.3.9 1.8 3.7.5 5.7-.3.3-.7.6-1.1.8-2.5 1-4.5-.3-6.3-2.1-3.1 2.8-6.6 4.3-10.3 5.5-1.6.6-3.2 1.2-4.8-.2z"/></g><g><path fill="#ed7b02" d="M56.703 62.7c6.1-.7 11.4-2.9 14.3-6.6 3.1 1.2 5.2 2 7.3 2.8.9.6 1.2 1.5 1.4 2.4.3 1.8 1.5 4-.5 5.2-1.9 1.1-3.9-.1-5.1-1.5-2.2-2.6-4.3-1.7-6.8-.9-4.4 1.4-8.5 4.1-13.5 2.6-.5-.7-.6-1.4 0-2 1-.7 1.9-1.4 2.9-2z"/></g><g><path fill="#db6a06" d="M53.9 133c-1.4-2.4-2.7-4.8-4.2-7.1-2.2-3.3-5.5-5-5.9-10.7-.5-6.5-4.499-2.8-9.199-4.7-3.9-1.6-6.1-9.4-4.4-14.6 1.6-4.9 3-9.8 4.8-14.6 1.6-4.1 3.6-7.9 5.5-11.9 1.9 0 3.7-.1 5.6-.1-4 6.2-3.5 5.5-3.8 6.3-5.3 6.6-5.2 7.4.6 14.4 2.6 3.1.9 7.9-3.3 8.8-1.6.4-3.1 0-4.7-.2-1.1 9.9 7 5.2 10.3 10.3 1.8 6.1 7.5 10.4 9.5 16.6 1 3.1 6.9 5.8 8.1 4.4 2.4-2.7.7-5.5-.6-8.2-.4-.7-.9-1.4-1.5-2-1.7-1.9-2.3-2.1-3.7-3.3-4.8-4.1-.2-6 1.4-9.4.3-.9.6-1.7 1.1-2.4 2.2-1.4 4.5-2.4 6.4-4.3.2-.1.4-.1.7-.2 10.3 2.3 15.2 5.6 15.5 16.3.1 4.5 2.6 7.3 8.9 7.6 5.6.2 9.7 3.2 14.5 5.1 1.4.5 3.6 1.2 4.4.6 3.2-2.6 6.4-1.7 9 .5 3.6 3.1 6.3-.4 9.5-.2.5.6.6 1.2.1 1.9-.6.3-1.2.7-1.9 1-2 2.1-3 5-5.6 6.5-.1 0 .2-.1-3.7 1.9-1.4 1.3-3.2 1.9-4.8 2.9-2.4 1.6-4.8 1.1-7.5-.4-4.6-2.7-7.6-5.7-6.1-11.3.5-1.7-.5-2.7-2.1-3.1-2.9-.7-5.7-2-8.8-2-7.8-.1-11.3-4.2-10.1-11.5.5-3.2-.1-4.7-3.1-4.9-.9 0-1.7-.4-2.4-1.2-1.1-1.3-1.9-2.2-3.5-.7-1.5 1.5-3.7 3-2.5 4.6 3.1 4.2 1.8 9.7 7.2 13.1.6 1.5.7 3 .2 4.5-.2.5-.4.9-.8 1.3-2.6 2.2-5.8 3.1-8.9 3.9-4.1 1.2-7.7.1-10.2-3.5z"/></g><g><path fill="#ed6c02" d="M41.498 74.804c5.8.5 8.3-4.1 10.9-8.2 4.7-2.5 9.8-4.4 15-5.8 2.2-.6 5.3 2.1 8 3.7 0-2.5.1-4.2.1-6.3h.1c2.6-2.5 5.9-4.3 9.2-5.7-.2-1.6-1.4-1.6-2.5-1.8-1.7-.3-3.8-.4-3.2-2.6.6-2.1 1.8-4.2 4.9-4.4 3.9-.3 7.9 0 11.8.8 7.2-.1 11.2 4.6 16.5 7.9 3.6 2.5 6.9 5.1 8.6 8.7 2 4.1 1 8.3-2.4 11.8 3.3 2 5.5 1.5 7.5-1.3 3.1-4.4 4.9-4.6 10-1.8 1.7 4.3 4 8.6 4.8 13.1 1 5 1.1 10.3.7 15.4-.6 6.8-4.3 12.4-7.2 18.5-1.9 3.9-4.1 7.3-7.1 9.7-1.9 1.5-5.3 1.2-8 1.5-.8.1-1.8-1.3-2.5-1.1-10.6 2.3-19-4.3-28.1-7.7-1.1-.4-2.6-2.1-2.6-3 .3-5.1-1.1-9.1-5.5-12.6s-8.5-4.1-13.1-3.5c-2.1 1.6-4.8 2-7.4 2-4.2.1-4.7 6.4-11 8.2-13.1-1.8-16.2-8.8-14-12.2 4.4-5.5 6.2-6.5 3.5-11.3-2.4-5.1.1-8.1 3-12-.1 0-.1 0 0 0z"/></g><g><path fill="#d15706" d="M45.297 105.6c.5-.1 1.1.1 1.4-.2 5.9-4.9 13.4-4.6 20.5-5.5-.3.6-.5 1.2-.8 1.8h-.1c-1.9 1.1-3.9 2.2-5.5 3.8 0 .6-.1 1.2-.1 1.8-.6 1-1.9 1-2.7 1.8-2.9 2.7-2.6 5.3 1.1 7.7.2.1.9 1 2 1.9 3.8 2.9 4.5 7.1 3.8 11.3-.1.8-2.7 2.1-3.8 1.7-4.3-1.2-7.4-3.9-9.3-8.1-1.2-2.6-2.9-5-4.1-7.7-1-2.1-1.6-4.4-2.4-6.6-.8-1.2-1.1-2.5 0-3.7z"/></g><g><path fill="#ed7b02" d="M96 43.602c-2.7 0-5.3 0-8 .1-4.7 0-4.7 0-6.7 5.1 2.3 1.8 9-1.8 7 5.2-3.4 1.6-6.7 3.2-10 4.8 1.2-3.1 1.7-4.8-3-6.2-2.6-.7-4-5.8-5.9-8.8 8.1-3 16.5-2.6 24.9-1 .7.1 1.2.5 1.7.8z"/></g><g><path fill="#ff8300" d="M135.8 69.5c-4.7-1.1-8.6-1.2-10.1 4.8-.2.8-5.9 1.2-8.1 0-1.9-1-.7-3.6 1.7-5 2.2-1.2 1.4-7.4-.7-9.6-2.1-2.3-4.1-4.7-6.2-7.1 1.1.1 2.6-.1 3.2.5 5.4 6 12.8 8.7 19.2 13.1.7.4.7 2.1 1 3.3z"/></g><g><path fill="#ff8300" d="M101.196 142.299c.6.5 1.2 1 1.9 1.4.5.3.9-.4.6-1.1-1.5-4.4-3.3-5.6-7.2-9.3-2.7-2.6-5.4-5.3-8.6-6.4-9.7-3.3-21.2 3.5-20.7 8.7 0 .3.3.5.6.7 1.6.7 3.8 1.3 5.4 2.4 4.3.7 9.7-4.2 16.9 1 .3.2 1.2.4 1.9.4 2.1 0 3.8.1 5 .1 1 .1 2.1-.5 3.1.1.6.5.4 1.4 1.1 2z"/></g></g></g></svg>