<svg xmlns="http://www.w3.org/2000/svg" width="150" height="150" viewBox="0 0 150 150"><g><g><path fill="#fff" d="M87.566 46.508c-.793-1.27-.476-2.91.794-3.757 7.407-4.867 22.434-6.93 32.751-4.603 1.482.318 2.381 1.8 2.064 3.228-.318 1.481-1.799 2.38-3.228 2.063-8.995-2.01-22.328-.212-28.624 3.863-.476.317-.953.423-1.482.423a2.77 2.77 0 0 1-2.275-1.217zM43.862 86.455c-.635.53-1.27.9-2.063 1.217a5.913 5.913 0 0 1-2.328.476l-1.376 2.91c-.159.37-.317.635-.476.794a.68.68 0 0 1-.53.211.68.68 0 0 1-.528-.211c-.159-.106-.212-.318-.212-.53 0-.158.106-.423.265-.793l1.428-3.016-.793.318c-.582.211-1.164.264-1.746.264-.635 0-1.164-.159-1.535-.423-.37-.318-.582-.688-.582-1.217 0-.476.212-.9.582-1.376.318-.317.794-.793 1.429-1.375.423-.424.74-.635.794-.741.37-.423.105-.847-.9-.318-.423.212-.794.424-1.217.688l-.529.318a1.017 1.017 0 0 1-.635.211c-.106 0-.212-.053-.317-.105a.638.638 0 0 1-.265-.265c-.053-.106-.106-.212-.106-.317 0-.212.106-.424.318-.635.211-.212.582-.477 1.164-.794 1.217-.688 2.169-1.058 2.857-1.058 1.376 0 2.01 1.534 1.27 2.645-.212.318-.635.741-1.164 1.27l-.794.688c-.423.37-.582.635-.582.847 0 .105.053.211.159.317.106.053.211.106.37.106.318 0 .74-.106 1.323-.37.582-.265 1.164-.53 1.693-.9.106-.053.212-.106.265-.159l1.64-3.439c.158-.37.317-.635.476-.793a.68.68 0 0 1 .529-.212c.212 0 .423.053.53.212.158.105.21.317.21.476v.053c.953-.953 2.487-1.111 3.122.211.16.318.212.635.212 1.058 0 .635-.159 1.27-.529 1.905a4.177 4.177 0 0 1-1.429 1.852zm-.264-2.01c.37-.477.529-.953.529-1.376 0-.212-.053-.37-.159-.476-.106-.106-.264-.212-.423-.212-.212 0-.53.106-.847.265-.317.211-.687.423-.952.687l-.212.424-1.27 2.698h.054c.634-.106 1.216-.37 1.798-.74a5.063 5.063 0 0 0 1.482-1.27zm32.38.793a.481.481 0 0 1 .213.423c0 .424-.424.9-1.218 1.429-.634.423-1.11.688-1.534.847-.37.158-.793.264-1.164.264-.635 0-1.005-.264-1.111-.846-.423.317-.794.582-1.058.687a2.563 2.563 0 0 1-.953.16c-.582 0-1.005-.16-1.375-.53l-.318-.476c-.952.688-1.799 1.005-2.486 1.005-.477 0-.794-.159-1.112-.423-.264-.265-.423-.635-.423-1.111 0-.212.053-.53.212-.953.106-.317.423-.952.9-1.957.317-.582.422-.953.422-1.059 0-.158-.105-.264-.264-.264-.159 0-.476.106-.794.317-.37.212-.688.477-1.058.741l-1.693 3.65c-.212.424-.37.689-.476.795a.808.808 0 0 1-.53.211.68.68 0 0 1-.528-.211 1.156 1.156 0 0 1-.16-.265c-.581.317-1.11.476-1.586.476-.477 0-.847-.159-1.112-.423-.264-.265-.423-.635-.423-1.111 0-.212.053-.53.212-.953.106-.317.423-.952.9-1.957.317-.582.423-.953.423-1.058 0-.16-.106-.265-.265-.265-.159 0-.476.106-.794.317-.37.212-.687.477-1.058.741l-1.693 3.651c-.212.423-.37.688-.476.794a.808.808 0 0 1-.53.211.68.68 0 0 1-.528-.211.68.68 0 0 1-.212-.53c0-.052 0-.105.053-.158-.159.053-.476.106-.952.159-.318 0-.635.052-.953.105l-1.217 2.805c-.211.476-.529.952-.9 1.375a3.65 3.65 0 0 1-1.27.953c-.475.211-.951.37-1.428.37-.529 0-1.005-.159-1.375-.53-.37-.317-.53-.793-.53-1.269 0-.476.106-.952.371-1.428.264-.477.635-.953 1.058-1.43.318-.317.688-.528 1.058-.793-.529-.529-.687-1.481-.158-2.698.053-.053 1.587-3.386 1.587-3.386.212-.477.53-.688.846-.688a.68.68 0 0 1 .53.211c.158.106.211.318.211.477 0 .158-.106.423-.264.793l-1.217 2.54c-.318.688-.318 1.217-.106 1.481a.48.48 0 0 0 .37.16c.424 0 .9-.371 1.535-1.06l.053-.052 1.693-3.65c.211-.424.37-.689.476-.794.159-.106.317-.212.529-.212.212 0 .423.053.53.212.158.105.21.317.21.529 0 .158-.105.423-.264.793l-1.693 3.598h.476c.582 0 .953.159 1.058.476l2.117-4.55c.159-.37.317-.635.476-.793a.68.68 0 0 1 .53-.212c.21 0 .422.053.528.212.159.105.212.317.212.476v.053c.212-.212.476-.37.846-.53.37-.158.688-.211.953-.211.423 0 .74.106 1.005.37.265.212.37.53.37.953 0 .476-.158 1.11-.529 1.799l-.423.899-.423.794c-.159.317-.212.529-.212.635 0 .211.106.317.318.317.105 0 .211 0 .317-.106.106-.053.265-.158.476-.264.16-.106.424-.318.794-.582.106-.106.212-.16.265-.212l1.693-3.598c.158-.37.317-.635.476-.793a.679.679 0 0 1 .529-.212c.212 0 .423.053.53.212.158.105.21.317.21.476v.053c.212-.212.477-.37.847-.53a2.4 2.4 0 0 1 .953-.211c.423 0 .74.106 1.005.37.264.212.37.53.37.953 0 .476-.158 1.11-.529 1.799l-.423.899-.423.794c-.16.317-.212.529-.212.635 0 .211.106.317.317.317.106 0 .212 0 .318-.106.106-.053.264-.158.476-.264.159-.106.423-.318.794-.582.106-.106.211-.16.264-.212.106-.53.37-1.111.741-1.64a7.007 7.007 0 0 1 2.275-2.01c.318-.212.688-.371 1.111-.53.424-.159.847-.264 1.217-.37.423-.106.741-.159 1.005-.159.582 0 .9.212.9.688 0 .212-.053.37-.212.476-.158.106-.423.212-.793.265-.582.105-1.164.264-1.588.476-.476.211-.9.423-1.322.74-.53.37-.953.794-1.27 1.27-.318.477-.476.9-.476 1.27 0 .212.052.37.158.476a.48.48 0 0 0 .37.16c.212 0 .477-.107.741-.265.265-.212.53-.477.9-.9l.106-.211c.158-.424.264-.635.317-.635l.318-.635c.211-.424.37-.688.529-.847.158-.159.37-.212.582-.212.211 0 .37.053.529.16.159.105.211.264.211.475 0 .16-.105.424-.264.794l-.318.688-.158.317-.159.318c-.159.317-.265.529-.265.688 0 .211.106.37.318.37.159 0 .317-.053.53-.212.21-.105.581-.423 1.11-.793.318-.212.53-.37.635-.424.106-.052.212-.105.318-.105.105.053.264.158.423.264zm-27.407 2.804c-1.005.37-1.851.9-2.486 1.588-.477.529-.688 1.005-.688 1.375a.6.6 0 0 0 .159.424.48.48 0 0 0 .37.158c.423 0 .846-.264 1.323-.74.317-.318.529-.635.635-.953zm89.154-2.857c.106.106.212.265.212.423 0 .318-.318.741-.953 1.27a9.244 9.244 0 0 1-1.534.953c-.529.264-1.006.37-1.429.37-.317 0-.529-.053-.741-.212a1.348 1.348 0 0 1-.476-.687l-.158.053c-.53.317-.953.529-1.27.634a3.328 3.328 0 0 1-1.006.16c-.476 0-.846-.16-1.111-.424a1.15 1.15 0 0 1-.264-.423c-.265.158-.529.317-.847.423-.529.264-1.005.37-1.428.37-.318 0-.53-.053-.741-.211a1.337 1.337 0 0 1-.476-.688l-.159.053c-.529.317-.952.529-1.27.635a3.321 3.321 0 0 1-1.005.158c-.476 0-.847-.158-1.111-.423a1.152 1.152 0 0 1-.265-.423c-.794.529-1.534.793-2.222.793-.476 0-.847-.158-1.111-.423a1.475 1.475 0 0 1-.423-1.058c0-.212.052-.476.105-.74.053-.265.212-.53.318-.847h-1.746l-1.006 2.063c-.211.423-.37.688-.476.794-.106.159-.317.211-.529.211a.68.68 0 0 1-.529-.211c-.053-.053-.106-.159-.159-.212-.105.053-.264.159-.37.212-.37.159-.794.264-1.164.264-.635 0-1.005-.264-1.111-.846-.423.317-.794.582-1.058.688a2.566 2.566 0 0 1-.953.158c-.582 0-1.005-.158-1.375-.529l-.318-.476c-.952.688-1.799 1.005-2.487 1.005-.476 0-.846-.158-1.111-.423-.264-.265-.423-.635-.423-1.111 0-.212.053-.53.212-.952.105-.318.423-.953.899-1.958.318-.582.423-.952.423-1.058 0-.159-.105-.265-.264-.265-.159 0-.476.106-.794.318-.37.211-.688.476-1.058.74l-1.693 3.651c-.212.423-.371.688-.476.794a.81.81 0 0 1-.529.211.68.68 0 0 1-.53-.211c-.053-.053-.105-.159-.158-.265-.582.265-1.111.476-1.535.476-.423 0-.793-.158-1.11-.423-.16-.159-.318-.37-.371-.635-.688.582-1.693 1.058-2.17 1.058-.317 0-.582-.052-.74-.211a.868.868 0 0 1-.37-.582c-1.535 1.11-2.805 1.005-3.334.264-.529.37-1.111.582-1.64.582-.635 0-1.164-.211-1.587-.687l-.318-.477c-.106.053-.159.106-.264.159-.582.37-1.059.635-1.429.794-.37.158-.74.211-1.058.211-.37 0-.635-.105-.847-.264-.211-.159-.423-.423-.582-.794-.264-.635-.423-1.375-.529-2.222-.264.159-.529.37-.793.582l-.053.053-.794 1.64c-.212.423-.37.688-.476.794a.808.808 0 0 1-.53.211.68.68 0 0 1-.528-.211.68.68 0 0 1-.212-.53c0-.158.106-.423.264-.793l2.276-4.815c.211-.423.37-.688.476-.793a.808.808 0 0 1 .529-.212.68.68 0 0 1 .529.212c.159.105.212.317.212.529 0 .158-.106.423-.265.793l-.265.53c.424-.318 1.059-.794 1.958-1.323.794-.477 1.323-.688 1.588-.688.105 0 .211.053.317.106a.638.638 0 0 1 .265.264.765.765 0 0 1 .105.37c0 .16-.053.265-.105.37-.106.107-.265.213-.582.371l-.582.37-.847.53c-.212.106-.53.317-.952.635l-.106.053c.053.634.158 1.27.37 1.799.106.317.212.476.265.634.105.106.211.16.317.16.318 0 1.005-.371 2.064-1.06 0-.528.105-1.004.264-1.533.212-.582.476-1.112.847-1.588.37-.476.793-.846 1.27-1.11a2.88 2.88 0 0 1 1.428-.371c.423 0 .847.106 1.164.264.318.212.582.477.74.847.16.37.265.794.265 1.323 0 .846-.158 1.64-.529 2.38-.105.265-.264.477-.423.688.053.53.794.582 2.17-.687l1.798-3.863c.212-.423.37-.688.477-.793a.679.679 0 0 1 .529-.212.68.68 0 0 1 .529.212c.158.105.211.317.211.529 0 .158-.105.423-.264.793l-1.429 3.069c-.211.476-.317.74-.317.847 0 .158.106.211.211.211.318 0 .847-.317 1.694-1.005l.052-.053 1.694-3.65c.211-.424.37-.689.476-.794.106-.16.317-.212.529-.212a.68.68 0 0 1 .529.212c.159.105.212.317.212.529 0 .158-.106.423-.265.793l-1.534 3.28c-.16.318-.212.53-.212.636 0 .211.106.317.317.317.106 0 .212-.053.318-.106.106-.053.264-.158.476-.264.159-.106.423-.318.794-.582.106-.053.158-.106.264-.159l1.693-3.598c.159-.37.318-.635.477-.793a.677.677 0 0 1 .529-.212c.211 0 .423.053.529.212.159.105.211.317.211.476v.053c.212-.212.477-.37.847-.53a2.4 2.4 0 0 1 .952-.211c.424 0 .741.106 1.006.37.264.212.37.53.37.953 0 .476-.212 1.11-.529 1.799l-.423.899-.424.794c-.158.317-.211.529-.211.635 0 .211.106.317.317.317.106 0 .212 0 .318-.106.105-.053.264-.158.423-.264.159-.106.423-.318.794-.582.105-.106.211-.16.264-.212.106-.53.371-1.111.741-1.64a7.01 7.01 0 0 1 2.275-2.01c.317-.212.688-.371 1.111-.53.423-.159.794-.264 1.217-.37.423-.106.741-.159 1.005-.159.582 0 .9.212.9.688 0 .212-.053.37-.212.476-.159.106-.423.212-.793.265a6.964 6.964 0 0 0-1.588.476c-.476.211-.899.423-1.323.74-.529.37-.952.794-1.269 1.27-.318.477-.477.9-.477 1.27 0 .212.053.37.159.476a.482.482 0 0 0 .371.16c.211 0 .476-.107.74-.265.265-.212.529-.477.9-.9l.106-.211c.158-.424.264-.635.317-.635l.317-.635c.212-.424.371-.688.53-.847.158-.159.37-.212.582-.212.211 0 .37.053.529.16.158.105.211.264.211.475 0 .16-.105.424-.264.794l-.318.688-.158.317-.159.318c-.159.317-.265.529-.265.688 0 .211.106.37.371.37.158 0 .317-.053.529-.212.211-.105.582-.423 1.111-.793l1.799-3.757c.159-.37.317-.635.476-.794a.68.68 0 0 1 .529-.211c.212 0 .371.053.529.211.159.106.212.318.212.53 0 .158-.106.423-.265.793l-.688 1.429h1.747l.899-1.905c.212-.423.37-.688.476-.794.159-.105.318-.211.529-.211.212 0 .371.053.529.211.159.106.212.318.212.53 0 .158-.106.423-.265.793l-1.534 3.28c-.106.265-.212.477-.212.583 0 .211.106.317.318.317.264 0 .794-.317 1.587-.9.106-.105.212-.158.318-.264.053-.106.105-.265.158-.423l1.482-3.122c.159-.37.317-.635.476-.794a.68.68 0 0 1 .529-.211c.212 0 .423.053.529.211.159.106.212.318.212.477 0 .158-.106.423-.265.793l-1.322 2.804-.106.16c-.212.475-.318.793-.318.952 0 .211.106.317.318.317.211 0 .476-.106.741-.265.317-.158.687-.476 1.164-.846l1.693-3.598c.158-.37.317-.635.476-.794a.68.68 0 0 1 .529-.211c.212 0 .423.053.529.211.159.106.212.318.212.477 0 .158-.106.423-.265.793l-1.428 3.069-.106.265c-.159.317-.212.476-.212.582a.4.4 0 0 0 .106.211.402.402 0 0 0 .212.106c.317 0 .952-.37 1.904-1.164.053-.106.106-.265.159-.423l1.482-3.122c.158-.37.37-.635.476-.794a.678.678 0 0 1 .529-.211c.211 0 .423.053.529.211.159.106.212.318.212.477 0 .158-.106.423-.265.793l-1.323 2.804-.106.16c-.211.475-.317.793-.317.952 0 .211.106.317.317.317.212 0 .477-.106.741-.265.318-.158.688-.476 1.164-.846l1.693-3.598c.159-.37.318-.635.477-.794a.678.678 0 0 1 .529-.211c.211 0 .423.053.529.211.158.106.211.318.211.477 0 .158-.105.423-.264.793l-1.429 3.069-.106.265c-.158.317-.211.476-.211.582a.4.4 0 0 0 .106.211.4.4 0 0 0 .211.106c.318 0 .953-.37 1.852-1.164.318-.265.582-.423.794-.423.211.053.37.158.529.264zM90.529 83.28c0-.264-.053-.529-.159-.635-.105-.158-.264-.211-.476-.211a.924.924 0 0 0-.74.37c-.265.265-.477.635-.741 1.164-.318.688-.476 1.323-.476 1.8 0 .264.052.475.211.634.106.159.318.212.53.212.422 0 .899-.476 1.375-1.376.317-.688.476-1.376.476-1.958zm42.91-2.592a.644.644 0 0 1-.211-.476c0-.16.052-.424.211-.741l.265-.53c.158-.317.317-.581.423-.687.106-.106.265-.159.476-.159.212 0 .371.053.476.159.159.159.212.264.212.476 0 .106-.106.37-.265.688l-.264.53c-.159.37-.318.634-.423.74-.106.106-.265.159-.477.159a.601.601 0 0 1-.423-.16zM150 74.973c0 41.429-33.598 74.974-74.974 74.974C33.599 150 0 116.402 0 74.973 0 33.599 33.598 0 74.974 0 116.401 0 150 33.598 150 74.974zM56.825 31.535c2.17-4.55.688-5.555-5.767-3.015-6.56 2.592-13.598 8.36-18.783 15.45-4.656 6.349-10.212 16.983-10.212 31.534 0 3.28.318 6.56.9 9.735a3.127 3.127 0 0 1-2.487 3.65c-.211.054-.37.054-.582.054-1.481 0-2.804-1.058-3.069-2.54-.687-3.545-1.005-7.249-1.005-10.9 0-29.153 19.683-47.513 32.963-52.75 13.545-5.345 17.672 3.068 13.704 11.48-3.757 7.99-14.603 30.953-16.508 35.133-1.482 3.175 2.17 3.44 7.09-1.217 0-1.111.106-2.222.37-3.333.423-1.693 1.111-3.333 2.117-4.974 2.01-3.386 5.767-6.93 8.888-8.36 1.482-.687 2.963-1.058 4.445-1.058 1.799 0 3.28.53 4.338 1.535 1.112 1.005 1.64 2.434 1.64 4.18 0 1.851-.687 3.545-2.01 5.132-1.323 1.534-3.227 2.857-5.608 3.862-2.381 1.006-5.08 1.64-8.149 1.852a4.277 4.277 0 0 0-.211 1.323c0 1.058.37 1.905 1.111 2.592.74.635 1.746.953 2.963.953 1.005 0 2.116-.159 3.386-.423 1.217-.265 2.434-.688 3.598-1.164 1.534-.635 3.44-1.64 5.661-2.858l6.138-13.121c.688-1.482 1.323-2.434 1.799-2.963.476-.476 1.164-.741 1.958-.741.846 0 1.481.212 1.957.635.476.423.741 1.058.794 1.799 2.222-1.64 4.18-2.487 5.926-2.487 1.111 0 2.063.265 2.804.794.74.529 1.217 1.27 1.429 2.222 2.804-2.01 5.449-3.069 7.883-3.069 1.482 0 2.752.423 3.704 1.323.952.846 1.429 1.958 1.429 3.28 0 1.164-.212 2.328-.635 3.492-.424 1.111-1.429 3.334-3.069 6.614-1.111 2.275-1.799 3.651-1.958 4.074-.159.423-.264.847-.264 1.217 0 .318.105.582.317.847.212.264.476.37.794.37.582 0 1.27-.212 2.01-.688.794-.476 2.011-1.375 3.704-2.751.318-.265.635-.476.9-.688a20.65 20.65 0 0 1 1.111-5.608c.74-2.17 1.851-4.127 3.227-5.873 1.376-1.746 2.91-3.122 4.656-4.127 1.746-.953 3.492-1.482 5.291-1.482 1.693 0 3.122.37 4.286 1.058 1.217.688 2.116 1.746 2.751 3.07.635 1.322.953 2.962.953 4.814 0 .952-.053 1.905-.212 2.857 1.164 1.482 2.963 1.587 4.339 1.111 1.587-.529 3.28-2.063 2.698-4.603-7.143-30.423-34.603-53.122-67.355-53.122-38.306 0-69.312 31.059-69.312 69.312 0 38.307 31.059 69.313 69.313 69.313 38.306 0 69.312-31.058 69.312-69.313a71.81 71.81 0 0 0-.424-7.618c-.793.529-1.587.952-2.433 1.216a10.217 10.217 0 0 1-4.127.53c-1.27-.106-2.487-.53-3.598-1.112a2.578 2.578 0 0 0-.159.37c-1.323 2.805-3.122 5.08-5.344 6.826-2.222 1.693-4.497 2.593-6.878 2.593-2.434 0-4.392-.847-5.873-2.487a8.463 8.463 0 0 1-1.111-1.587c-.582.423-1.164.846-1.799 1.217a24.302 24.302 0 0 1-4.233 2.116c-1.429.53-2.646.794-3.598.794-1.693 0-3.069-.476-4.127-1.429-1.005-.952-1.534-2.275-1.534-3.915 0-1.111.211-2.328.634-3.598.424-1.27 1.217-3.069 2.329-5.344 1.693-3.28 2.539-5.291 2.539-6.032a.852.852 0 0 0-.264-.582c-.159-.158-.371-.211-.688-.211-1.217 0-3.069 1.005-5.556 3.068l-6.666 14.286c-.688 1.482-1.323 2.487-1.8 2.963-.476.476-1.163.74-1.957.74s-1.481-.264-1.958-.74c-.529-.476-.793-1.111-.793-1.905 0-.582.317-1.534.952-2.91l5.344-11.481c.794-1.693 1.164-2.752 1.164-3.228 0-.582-.265-.846-.847-.846-1.164 0-3.227 1.27-6.19 3.756l-.159.159-6.296 13.44c-.688 1.48-1.323 2.486-1.799 2.962s-1.164.74-1.958.74c-.793 0-1.481-.264-1.957-.74-.477-.476-.741-1.058-.794-1.799-3.757 1.588-7.143 2.381-10.159 2.381-3.439 0-6.084-1.323-7.672-3.862-10.053 7.619-18.624 2.169-14.285-7.037zm71.905 25.503c-.423-.53-1.005-.847-1.799-.847-.952 0-1.905.477-2.804 1.429-.899.952-1.799 2.381-2.646 4.339-1.111 2.592-1.693 4.867-1.693 6.72 0 1.005.212 1.745.688 2.327.476.582 1.111.847 1.905.847 1.64 0 3.333-1.693 5.026-5.027 1.323-2.645 2.011-5.079 2.011-7.301-.106-1.111-.317-1.958-.688-2.487zm-61.957 2.645c1.745-.952 2.645-1.904 2.645-2.857 0-.317-.106-.635-.37-.846-.212-.212-.53-.318-.953-.318-1.005 0-2.17.582-3.598 1.693a17.049 17.049 0 0 0-3.65 4.127c2.222-.264 4.18-.846 5.925-1.799z"/></g></g></svg>