<svg xmlns="http://www.w3.org/2000/svg" xmlns:xlink="http://www.w3.org/1999/xlink"><defs><path id="bn2ka" d="M966.66 56.05a3.61 3.61 0 1 1-7.23 0 3.61 3.61 0 0 1 7.23 0zM963.04 51a5.05 5.05 0 1 0 0 10.1 5.05 5.05 0 0 0 0-10.1z"/><path id="bn2kb" d="M968.97 62.9l-3.6-3.59 1.01-1.01 3.6 3.59z"/></defs><symbol id="adv-icon-1" viewBox="0 0 80 92"><g><g><g><path fill="#fff" d="M73.2 89c2.4-2.3 3.8-6 3.7-9.5 0-.9-.7-1.5-1.5-1.5-.9 0-1.5.7-1.5 1.5 0 2.7-1.1 5.6-2.8 7.4-1.3 1.3-2.9 2-4.7 2-3.6 0-5.5-2.6-6.3-4.2-.5-.9-1.4-1.5-2.4-1.5s-1.9.6-2.4 1.5c-.8 1.6-2.7 4.2-6.3 4.2-3.6 0-5.5-2.6-6.3-4.2-.5-.9-1.4-1.5-2.4-1.5s-1.9.6-2.4 1.5c-.8 1.6-2.7 4.2-6.3 4.2-4 0-6.3-3.3-7.1-6.4-.2-.8-1-1.3-1.8-1.1-.8.2-1.3 1-1.1 1.8 1.1 4.2 4.3 8.7 10 8.7 3.5 0 6.7-1.9 8.6-5.3 1.9 3.4 5 5.3 8.6 5.3 3.5 0 6.7-1.9 8.6-5.3 1.9 3.4 5 5.3 8.6 5.3 2.6 0 5-1 7.2-2.9zm-51.1-1.2c.5-.7.4-1.6-.3-2.1s-1.6-.4-2.1.3c-1 1.3-2.7 2.9-5.5 2.9-5.1 0-7.4-5.2-7.5-9 0-.9-.7-1.5-1.5-1.5-.9 0-1.5.7-1.5 1.5.1 5.9 4.1 12 10.5 12 3.1 0 5.9-1.4 7.9-4.1zm56.4-10.6c.8 0 1.4-.7 1.4-1.5s-.7-1.5-1.5-1.5H78l-4.7-10.3C72 61 69.1 59.2 66 59.2H14.2c-3.1 0-6 1.8-7.3 4.7L2.2 74.2h-.4c-.8 0-1.5.7-1.5 1.5s.7 1.5 1.5 1.5h8.9c.8 0 1.5-.7 1.5-1.5s-.7-1.5-1.5-1.5H5.5l4.1-9c.8-1.8 2.6-3 4.6-3H66c2 0 3.8 1.2 4.6 3l4.1 9H15.8c-.8 0-1.5.7-1.5 1.5s.7 1.5 1.5 1.5z"/></g></g><g><g><path fill="#fff" d="M22.199 53.7c-3.3 0-6.1-2.1-7.1-5.2l-8.9-28c-.2-.5.1-1.1.7-1.3.5-.2 1.1.1 1.3.7l8.9 28c.7 2.3 2.8 3.8 5.2 3.8h35.7c2.4 0 4.5-1.5 5.2-3.8l8.9-28c.2-.5.7-.8 1.3-.7.5.2.8.7.7 1.3l-8.9 28c-1.2 3.2-4 5.2-7.3 5.2zm54.8-37h-.2l-14.6-3.2c-14.5-3.2-29.8-3.2-44.2 0l-14.6 3.2c-.5.1-1.1-.2-1.2-.8-.1-.5.2-1.1.8-1.2l14.6-3.2c14.7-3.2 30.3-3.2 45.1 0l14.6 3.2c.5.1.9.7.8 1.2-.2.5-.7.8-1.1.8zM47.099 8c-.6 0-1-.4-1-1V4.9c0-1.6-1.3-3-3-3h-6.1c-1.6 0-3 1.3-3 3V7c0 .6-.4 1-1 1s-1-.4-1-1V4.9c0-2.7 2.2-5 5-5h6.2c2.7 0 5 2.2 5 5V7c-.1.5-.5 1-1.1 1z"/></g></g></g></symbol><symbol id="adv-icon-2" viewBox="0 0 80 81"><g><g><g/><g><g><path fill="#fff" d="M46.705 45.8l7.9-13.8c.2-.5.1-1.1-.4-1.4-.5-.2-1.1-.1-1.4.4l-8 13.8c-1.2 1.9-3.2 3.1-5.5 3.1s-4.4-1.1-5.5-3.1l-4.4-7.6 5.3 1.5c.5.1 1.1-.2 1.2-.7.1-.5-.2-1.1-.7-1.2l-7.6-2.1c-.2-.1-.5 0-.7.1-.2.1-.3.4-.4.6l-2 7.6c-.2.5.2 1.1.7 1.2.5.2 1.1-.2 1.2-.7l1.4-5.3 4.4 7.6c1.5 2.5 4.2 4.1 7.2 4.1s5.6-1.5 7.3-4.1zm-21.6-14.1c.5-.3.7-.9.4-1.4l-7.7-13.3c-1.1-2-1.2-4.4 0-6.3 1.2-1.9 3.2-3.1 5.5-3.1h8.8l-3.9 3.8c-.4.4-.4 1 0 1.4.4.4 1 .4 1.4 0l5.6-5.5c.2-.2.3-.4.3-.7 0-.3-.1-.5-.3-.7l-5.6-5.5c-.4-.4-1-.4-1.4 0-.4.4-.4 1 0 1.4l3.9 3.8h-8.8c-3 0-5.7 1.5-7.2 4.1-1.5 2.6-1.5 5.7 0 8.3l7.7 13.3c.2.3.6.5.9.5.2 0 .3-.1.4-.1zm31.3-3.5l7.6-2.1c.5-.1.8-.7.7-1.2-.1-.5-.7-.8-1.2-.7l-5.3 1.5 4.4-7.6c1.5-2.6 1.5-5.8 0-8.3-1.5-2.5-4.2-4.1-7.2-4.1h-16.2c-.6 0-1 .4-1 1s.4 1 1 1h16.1c2.3 0 4.4 1.1 5.5 3.1 1.1 2 1.1 4.3 0 6.3l-4.4 7.6-1.4-5.3c-.1-.5-.7-.8-1.2-.7-.5.1-.8.7-.7 1.2l2 7.6c.1.3.3.5.5.6.2.1.3.1.5.1h.3z"/></g></g><g><g><path fill="#fff" d="M65.8 80.2c-3.6 0-6.7-1.9-8.6-5.3-1.9 3.4-5 5.3-8.6 5.3-3.6 0-6.7-1.9-8.6-5.3-1.9 3.4-5 5.3-8.6 5.3-3.6 0-6.7-1.9-8.6-5.3-1.9 3.4-5.1 5.3-8.6 5.3-2.9 0-5.6-1.2-7.5-3.3-1.9-1.9-3.6-5.4-3.1-11.5H1.5c-.8 0-1.5-.7-1.5-1.5s.7-1.5 1.5-1.5h.4l4.7-10.3c1.3-2.9 4.2-4.7 7.3-4.7h12.3c.8 0 1.5.7 1.5 1.5s-.7 1.5-1.5 1.5H14c-2 0-3.8 1.2-4.6 3l-4.1 9h17.5c.8 0 1.5.7 1.5 1.5s-.7 1.5-1.5 1.5H6.6c-.4 4.2.4 7.4 2.1 9.4 1.7 2 4 2.3 5.2 2.3 3.6 0 5.5-2.6 6.3-4.2.5-.9 1.4-1.5 2.4-1.5s1.9.6 2.4 1.5c.8 1.6 2.7 4.2 6.3 4.2 3.6 0 5.5-2.6 6.3-4.2.5-.9 1.4-1.5 2.4-1.5s1.9.6 2.4 1.5c.8 1.6 2.7 4.2 6.3 4.2 3.6 0 5.5-2.6 6.3-4.2.5-.9 1.4-1.5 2.4-1.5s1.9.6 2.4 1.5c.8 1.6 2.7 4.2 6.3 4.2 5.1 0 7.5-5.3 7.5-9.1 0-.8.7-1.5 1.5-1.5s1.5.7 1.5 1.5c-.4 5.1-3.6 12.2-10.8 12.2zM32.9 65.4c-.8 0-1.5-.7-1.5-1.5s.7-1.5 1.5-1.5h41.6l-4.1-9c-.8-1.8-2.6-3-4.6-3H54.2c-.8 0-1.5-.7-1.5-1.5s.7-1.5 1.5-1.5h11.6c3.1 0 6 1.8 7.3 4.7l4.7 10.3h.4c.8 0 1.5.7 1.5 1.5s-.6 1.5-1.5 1.5zm-5.9 0c-.8 0-1.5-.7-1.5-1.5s.7-1.5 1.5-1.5h2.1c.8 0 1.5.7 1.5 1.5s-.7 1.5-1.5 1.5z"/></g></g></g></g></symbol><symbol id="adv-icon-3" viewBox="0 0 93 45"><g><g><g><path fill="#fff" d="M17.2 44.3c-3.9 0-7.4-2.2-9.2-5.8L.5 24.1c-.6-1.2-.6-2.6 0-3.9L7.9 5.8C9.8 2.2 13.3 0 17.2 0h58c3.9 0 7.4 2.2 9.2 5.8l7.5 14.5c.6 1.2.6 2.6 0 3.9l-7.5 14.5c-1.8 3.4-5.3 5.6-9.2 5.6zm0-42.3c-3.1 0-6 1.8-7.5 4.7L2.2 21.1c-.3.6-.3 1.4 0 2l7.5 14.5c1.5 2.9 4.4 4.7 7.5 4.7h58c3.1 0 6-1.8 7.5-4.7l7.5-14.5c.3-.6.3-1.4 0-2L82.7 6.7C81.2 3.8 78.3 2 75.2 2z"/></g></g><g><g><path fill="#fff" d="M72.1 38.4c-3.2 0-6.1-1.5-8-4.3-.5-.7-.3-1.6.4-2.1s1.6-.3 2.1.4c1 1.4 2.7 3.1 5.6 3.1 5.1 0 7.5-5.3 7.5-9.1 0-.8.7-1.5 1.5-1.5s1.5.7 1.5 1.5c-.1 4.9-3.4 12-10.6 12zm-17.3 0c-3.6 0-6.7-1.9-8.6-5.3-1.9 3.4-5 5.3-8.6 5.3-3.6 0-6.7-1.9-8.6-5.3-1.9 3.4-5.1 5.3-8.6 5.3-2.9 0-5.6-1.2-7.5-3.3-1.6-1.9-3.4-5.3-2.9-11.4H7.8c-.8 0-1.5-.7-1.5-1.5s.7-1.5 1.5-1.5h.4L13 10.4c1.3-2.9 4.2-4.7 7.3-4.7h51.8c3.1 0 6 1.8 7.3 4.7l.4.9c.3.8 0 1.6-.7 2-.8.3-1.6 0-2-.7l-.4-.9c-.8-1.8-2.6-3-4.6-3H20.3c-2 0-3.8 1.2-4.6 3l-4.1 9h23.8c.8 0 1.5.7 1.5 1.5s-.7 1.5-1.5 1.5H12.9c-.4 4.2.4 7.4 2.1 9.4 1.7 2 4 2.3 5.2 2.3 3.6 0 5.5-2.6 6.3-4.2.5-.9 1.4-1.5 2.4-1.5s1.9.6 2.4 1.5c.8 1.6 2.7 4.2 6.3 4.2 3.6 0 5.5-2.6 6.3-4.2.5-.9 1.4-1.5 2.4-1.5s1.9.6 2.4 1.5c.8 1.6 2.7 4.2 6.3 4.2 4.1 0 6.4-3.4 7.2-6.6.2-.8 1-1.3 1.8-1.1.8.2 1.3 1 1.1 1.8-1.2 4.1-4.4 8.9-10.3 8.9zM39.2 23.7c-.8 0-1.5-.7-1.5-1.5s.7-1.5 1.5-1.5h41.6l-2.1-4.6c-.3-.8 0-1.6.7-2 .8-.3 1.6 0 2 .7l2.7 5.8h.4c.8 0 1.5.7 1.5 1.5s-.6 1.6-1.4 1.6z"/></g></g></g></symbol><symbol id="adv-icon-4" viewBox="0 0 80 98"><g><g><g><path fill="#fff" d="M65.8 97.6c-3.2 0-6.1-1.5-8-4.3-.5-.7-.3-1.6.4-2.1s1.6-.3 2.1.4c1 1.4 2.7 3.1 5.6 3.1 5.1 0 7.5-5.3 7.5-9.1 0-.8.7-1.5 1.5-1.5s1.5.7 1.5 1.5c-.2 4.9-3.4 12-10.6 12zm-17.3 0c-3.6 0-6.7-1.9-8.6-5.3-1.9 3.4-5 5.3-8.6 5.3-3.6 0-6.7-1.9-8.6-5.3-1.9 3.4-5.1 5.3-8.6 5.3-2.9 0-5.6-1.2-7.5-3.3C5 92.4 3.2 89 3.7 82.9H1.5c-.8 0-1.5-.7-1.5-1.5s.7-1.5 1.5-1.5h.4l4.7-10.3c1.3-2.9 4.2-4.7 7.3-4.7h51.8c3.1 0 6 1.8 7.3 4.7l.4.9c.3.8 0 1.6-.7 2-.8.3-1.6 0-2-.7l-.4-.9c-.8-1.8-2.6-3-4.6-3H14c-2 0-3.8 1.2-4.6 3l-4.1 9h23.8c.8 0 1.5.7 1.5 1.5s-.7 1.5-1.5 1.5H6.6c-.4 4.1.4 7.4 2.1 9.4 1.7 2 4 2.3 5.2 2.3 3.6 0 5.5-2.6 6.3-4.2.5-.9 1.4-1.5 2.4-1.5s1.9.6 2.4 1.5c.8 1.6 2.7 4.2 6.3 4.2 3.6 0 5.5-2.6 6.3-4.2.5-.9 1.4-1.5 2.4-1.5s1.9.6 2.4 1.5c.8 1.6 2.7 4.2 6.3 4.2 4.1 0 6.4-3.4 7.2-6.6.2-.8 1-1.3 1.8-1.1.8.2 1.3 1 1.1 1.8-1.2 4.1-4.5 8.9-10.3 8.9zM32.9 82.9c-.8 0-1.5-.7-1.5-1.5s.7-1.5 1.5-1.5h41.6l-2.1-4.6c-.3-.8 0-1.6.7-2 .8-.3 1.6 0 2 .7l2.7 5.8h.4c.8 0 1.5.7 1.5 1.5s-.6 1.6-1.5 1.6z"/></g></g><g><g><g><path fill="#fff" d="M3.495 33.5h-.2c-.5-.1-.9-.6-.8-1.1C6.195 10 23.895 0 39.895 0s33.7 10 37.4 32.3c.1.5-.3 1.1-.8 1.1-.5.1-1.1-.3-1.1-.8-3.6-21.1-20.4-30.6-35.5-30.6-15.1 0-32 9.5-35.4 30.7-.1.5-.5.8-1 .8z"/></g></g><g><g><path fill="#fff" d="M3.599 33.5c-.2 0-.4 0-.5-.2-.5-.3-.6-.9-.3-1.4 2.1-3.3 5.8-5.2 9.9-5.2 4.1 0 7.8 2 9.9 5.2.3.5.2 1.1-.3 1.4-.5.3-1.1.2-1.4-.3-1.7-2.7-4.8-4.3-8.2-4.3-3.4 0-6.6 1.6-8.3 4.3-.2.3-.5.5-.8.5z"/></g></g><g><g><path fill="#fff" d="M21.699 33.5c-.2 0-.4 0-.5-.2-.5-.3-.6-.9-.3-1.4 2.1-3.3 5.8-5.2 9.9-5.2 4.1 0 7.8 2 9.9 5.2.3.5.2 1.1-.3 1.4-.5.3-1.1.2-1.4-.3-1.7-2.7-4.8-4.3-8.2-4.3-3.4 0-6.5 1.6-8.2 4.3-.2.3-.5.5-.9.5z"/></g></g><g><g><path fill="#fff" d="M39.899 33.5c-.2 0-.4 0-.5-.2-.5-.3-.6-.9-.3-1.4 2.1-3.3 5.8-5.2 9.9-5.2 4.1 0 7.8 2 9.9 5.2.3.5.2 1.1-.3 1.4-.5.3-1.1.2-1.4-.3-1.7-2.7-4.8-4.3-8.2-4.3-3.4 0-6.5 1.6-8.2 4.3-.2.3-.6.5-.9.5z"/></g></g><g><g><path fill="#fff" d="M76.299 33.5c-.3 0-.7-.2-.8-.5-1.7-2.7-4.8-4.3-8.2-4.3-3.4 0-6.5 1.6-8.2 4.3-.3.5-.9.6-1.4.3-.5-.3-.6-.9-.3-1.4 2.1-3.3 5.8-5.2 9.9-5.2 4.1 0 7.9 2 9.9 5.2.3.5.2 1.1-.3 1.4-.3.2-.5.2-.6.2z"/></g></g><g><g><path fill="#fff" d="M45.005 62.405c-.3 0-.6-.1-.8-.3-.4-.4-.3-1 .1-1.4l29.4-25.9c.4-.4 1-.3 1.4.1.4.4.3 1-.1 1.4l-29.3 25.8c-.2.2-.5.3-.7.3z"/></g></g><g><g><path fill="#fff" d="M34.705 62.405c-.2 0-.5-.1-.7-.2l-29.3-25.9c-.4-.4-.5-1-.1-1.4.4-.4 1-.5 1.4-.1l29.4 25.8c.4.4.5 1 .1 1.4-.2.3-.5.4-.8.4z"/></g></g><g><g><path fill="#fff" d="M42.401 62.401c-.2 0-.3 0-.5-.1-.5-.3-.7-.9-.4-1.4l14.1-25c.3-.5.9-.7 1.4-.4.5.3.7.9.4 1.4l-14.1 25c-.2.3-.5.5-.9.5z"/></g></g><g><g><path fill="#fff" d="M37.301 62.401c-.3 0-.7-.2-.9-.5l-14.1-25c-.3-.5-.1-1.1.4-1.4.5-.3 1.1-.1 1.4.4l14.1 25c.3.5.1 1.1-.4 1.4-.1 0-.3.1-.5.1z"/></g></g><g><g><path fill="#fff" d="M39.9 62.4c-.6 0-1-.4-1-1V36.3c0-.6.4-1 1-1s1 .4 1 1v25.1c0 .5-.5 1-1 1z"/></g></g></g></g></symbol><symbol id="arrow-down" viewBox="0 0 29 67">
<path d="M14.5 1L14.5 65.5M14.5 65.5V65.5C10.8533 60.5272 6.49286 56.1196 1.55957 52.4197L1 52M14.5 65.5V65.5C18.4877 60.5153 23.0153 55.9877 28 52V52" stroke="#FFB422" stroke-width="2" stroke-linecap="round" stroke-linejoin="round"/>
</symbol><symbol id="ellipse-1" viewBox="0 0 236 228"><g><g><path fill="currentColor" d="M236 127.641C236 53.918 210.422 0 136.938 0 63.455 0 0 39.303 0 113.026S48.887 228 122.37 228C195.854 228 236 201.364 236 127.641z"/></g></g></symbol><symbol id="ellipse-2" viewBox="0 0 236 228"><g><g><path fill="currentColor" d="M236 127.641C236 53.918 210.422 0 136.938 0 63.455 0 0 39.303 0 113.026S48.887 228 122.37 228C195.854 228 236 201.364 236 127.641z"/></g></g></symbol><symbol id="ellipse-3" viewBox="0 0 236 240"><g><g><path fill="currentColor" d="M0 139.641C0 65.918 56.017 0 129.5 0S236 51.303 236 125.026 187.113 240 113.63 240C40.146 240 0 213.364 0 139.641z"/></g></g></symbol><symbol id="ellipse-4" viewBox="0 0 250 228"><g><g><path fill="currentColor" d="M250 100.359C250 174.082 224.422 228 150.938 228 77.455 228 0 174.082 0 100.359 0 26.636 62.887 0 136.37 0 209.854 0 250 26.636 250 100.359z"/></g></g></symbol><symbol id="ellipse-5" viewBox="0 0 245 237"><g><g transform="rotate(163.84 122.5 118.5)"><path fill="currentColor" d="M250 102.359C250 176.082 224.422 230 150.938 230 77.455 230 1 211.723 1 138S62.887 2 136.37 2C209.854 2 250 28.636 250 102.359z"/></g></g></symbol><symbol id="ellipse-6" viewBox="0 0 236 228"><g><g><path fill="currentColor" d="M0 100.359C0 174.082 25.578 228 99.062 228 172.545 228 236 188.697 236 114.974S187.113 0 113.63 0C40.146 0 0 26.636 0 100.359z"/></g></g></symbol><symbol id="icon-menu" viewBox="0 0 512 512">
<g>
	<g>
		<path d="M491.318,235.318H20.682C9.26,235.318,0,244.577,0,256s9.26,20.682,20.682,20.682h470.636
			c11.423,0,20.682-9.259,20.682-20.682C512,244.578,502.741,235.318,491.318,235.318z"/>
	</g>
</g>
<g>
	<g>
		<path d="M491.318,78.439H20.682C9.26,78.439,0,87.699,0,99.121c0,11.422,9.26,20.682,20.682,20.682h470.636
			c11.423,0,20.682-9.26,20.682-20.682C512,87.699,502.741,78.439,491.318,78.439z"/>
	</g>
</g>
<g>
	<g>
		<path d="M491.318,392.197H20.682C9.26,392.197,0,401.456,0,412.879s9.26,20.682,20.682,20.682h470.636
			c11.423,0,20.682-9.259,20.682-20.682S502.741,392.197,491.318,392.197z"/>
	</g>
</g>
<g>
</g>
<g>
</g>
<g>
</g>
<g>
</g>
<g>
</g>
<g>
</g>
<g>
</g>
<g>
</g>
<g>
</g>
<g>
</g>
<g>
</g>
<g>
</g>
<g>
</g>
<g>
</g>
<g>
</g>
</symbol><symbol id="icon-search" viewBox="0 0 12 12"><g><g transform="translate(-958 -51)"><use xlink:href="#bn2ka"/></g><g transform="translate(-958 -51)"><use xlink:href="#bn2kb"/></g></g></symbol><symbol id="icon-tel" viewBox="0 0 27.4 45.7">
<style type="text/css">
	.st0{fill:#3A8244;}
	.st1{fill:#5599DB;}
	.st2{fill:#044FF3;}
</style>
<g>
	<path class="st2" d="M27.4,41.2c0,2.5-2.1,4.6-4.6,4.6H4.6c-2.5,0-4.6-2.1-4.6-4.6V4.6C0,2.1,2.1,0,4.6,0h18.3
		c2.5,0,4.6,2.1,4.6,4.6V41.2z M24,10.3c0-0.6-0.5-1.1-1.1-1.1H4.6c-0.6,0-1.1,0.5-1.1,1.1v25.1c0,0.6,0.5,1.1,1.1,1.1h18.3
		c0.6,0,1.1-0.5,1.1-1.1V10.3z M16.6,4.6h-5.7c-0.3,0-0.6,0.3-0.6,0.6s0.3,0.6,0.6,0.6h5.7c0.3,0,0.6-0.3,0.6-0.6S16.9,4.6,16.6,4.6
		z M13.7,38.3c-1.6,0-2.9,1.3-2.9,2.9s1.3,2.9,2.9,2.9s2.9-1.3,2.9-2.9S15.3,38.3,13.7,38.3z"/>
</g>
</symbol><symbol id="medium-ellipse-1" viewBox="0 0 144 145">
<path d="M68.9 0.599941C104.1 4.49994 133.7 25.9999 141.4 60.1999C148.1 89.9999 135.5 120.8 111.4 135.2C98.8 142.7 83.8 145.4 69.1 144.9C39.1 143.8 14 129.8 4.69998 101.1C1.59998 91.5999 0.699978 81.5999 0.299978 71.5999C-0.600022 53.0999 -2.19345e-05 33.6999 11.8 19.0999C17.9 11.4999 26.7 6.19994 36 3.19994C46.6 -0.100059 57.9 -0.600059 68.9 0.599941Z" fill="currentColor"/>
</symbol><symbol id="medium-ellipse-2" viewBox="0 0 143 144">
<path d="M0 83.2564C0 38.6346 40.474 0 85 0C129.526 0 143 29.7885 143 74.4103C143 119.032 113.378 144 68.8519 144C24.3259 144 0 127.878 0 83.2564Z" fill="currentColor"/>
</symbol><symbol id="medium-ellipse-3" viewBox="0 0 145.1 142.4">
<path fill="currentColor" d="M140.9,95.7C151.4,52.3,144,17,100.8,6.5C57.5-4,12.9-6.7,2.4,36.7c-10.5,43.4,14,91.4,57.3,101.8
	C103,149,130.4,139.1,140.9,95.7z"/>
</symbol><symbol id="medium-ellipse-4" viewBox="0 0 143 145">
<path d="M143 66.7436C143 111.365 118.526 145 74 145C29.474 145 0 120.212 0 75.5897C0 30.968 38.4493 0 82.9753 0C127.501 0 143 22.1218 143 66.7436Z" fill="currentColor"/>
</symbol><symbol id="nav-ellipse-1" viewBox="0 0 93 73">
<path d="M86.0121 48.0696C89.7006 30.0117 83.6906 15.0263 58.6747 9.91664C33.6588 4.80697 10.0906 10.0215 6.40216 28.0794C2.7137 46.1373 17.2924 59.6409 42.3082 64.7506C67.3241 69.8602 82.3236 66.1275 86.0121 48.0696Z" fill="currentColor"/>
</symbol><symbol id="nav-ellipse-2" viewBox="0 0 241 97">
<path d="M237 55.5C233.292 90.0651 83.0001 80.5761 45.0001 76.5C7.00006 72.4239 -5.50005 50 9.50005 30C24.5002 10 44.9999 11.5 122 15C199 18.5 240.708 20.9349 237 55.5Z" fill="currentColor"/>
</symbol><symbol id="nav-ellipse-3" viewBox="0 0 110 76">
<path d="M5.5127 47C1.82424 28.9421 26.334 14.6317 51.3499 9.52202C76.3658 4.41235 99.934 9.62692 103.622 27.6848C107.311 45.7427 92.7322 59.2463 67.7164 64.3559C42.7005 69.4656 9.20115 65.0579 5.5127 47Z" fill="currentColor"/>
</symbol><symbol id="nav-ellipse-4" viewBox="0 0 184 77">
<path d="M1.55739 38.4991C3.32616 6.13857 119.61 6.33757 149.065 7.9475C178.519 9.55744 188.875 29.6956 177.931 49.1578C166.987 68.6201 151.119 68.4016 91.5859 69.566C32.0525 70.7303 -0.211385 70.8596 1.55739 38.4991Z" fill="currentColor"/>
</symbol><symbol id="small-line-1" viewBox="0 0 116 17">
<path d="M1 10.5V10.5C39.0971 19.8628 79.4918 16.5711 115.5 1V1" stroke="#ECE6E1" stroke-linecap="round" stroke-linejoin="round"/>
</symbol><symbol id="small-line-2" viewBox="0 0 133 10">
<path d="M0.5 9.00009L46.7246 2.72267C69.7324 -0.401842 93.1086 0.503913 115.806 5.39936L132.5 9.00009" stroke="#ECE6E1" stroke-linecap="round" stroke-linejoin="round"/>
</symbol><symbol id="small-line-3" viewBox="0 0 173 20">
<path d="M1 7.5L29.1768 3.28457C52.4873 -0.202819 76.2611 1.03512 99.0832 6.92471L141.671 17.915C151.93 20.5625 162.779 19.7126 172.5 15.5V15.5" stroke="#ECE6E1" stroke-linecap="round" stroke-linejoin="round"/>
</symbol><symbol id="wave" viewBox="0 0 1440 320"><path fill="#ffffff" fill-opacity="1" d="M0,64L120,90.7C240,117,480,171,720,165.3C960,160,1200,96,1320,64L1440,32L1440,320L1320,320C1200,320,960,320,720,320C480,320,240,320,120,320L0,320Z"/></symbol><symbol id="wave2" viewBox="0 0 1440 320"><path fill="red" fill-opacity="1" d="M0,224L60,229.3C120,235,240,245,360,245.3C480,245,600,235,720,229.3C840,224,960,224,1080,234.7C1200,245,1320,267,1380,277.3L1440,288L1440,320L1380,320C1320,320,1200,320,1080,320C960,320,840,320,720,320C600,320,480,320,360,320C240,320,120,320,60,320L0,320Z"/></symbol><symbol id="yellow-ellipse-1" viewBox="0 0 478 462"><g><g><path fill="#ffb422" d="M0 258.641C0 109.255 51.807 0 200.642 0 349.477 0 478 79.64 478 229.026 478 378.412 378.983 462 230.148 462S0 408.027 0 258.641z"/></g></g></symbol><symbol id="yellow-ellipse-2" viewBox="0 0 488 453"><g><g><path fill="#ffa722" d="M0 132.661C0-16.616 124.316.605 273.239.605 422.162.605 488 72.472 488 221.75 488 371.027 407.727 453 258.804 453S0 281.94 0 132.661z"/></g></g></symbol></svg>