<svg xmlns="http://www.w3.org/2000/svg" xmlns:xlink="http://www.w3.org/1999/xlink"><defs>
<clipPath id="clip0">
<rect width="92.4" height="95.5" fill="white"/>
</clipPath>

<clipPath id="clip0">
<rect width="76.8" height="88" fill="white"/>
</clipPath>

<clipPath id="clip0">
<rect width="61.1" height="85.5" fill="white"/>
</clipPath>

<clipPath id="clip0">
<rect width="105.2" height="112.7" fill="white"/>
</clipPath>

<clipPath id="clip0">
<rect width="80.6" height="63.7" fill="white"/>
</clipPath>

<clipPath id="clip0">
<rect width="97.5" height="80.6" fill="white"/>
</clipPath>
<path id="bn2ka" d="M966.66 56.05a3.61 3.61 0 1 1-7.23 0 3.61 3.61 0 0 1 7.23 0zM963.04 51a5.05 5.05 0 1 0 0 10.1 5.05 5.05 0 0 0 0-10.1z"/><path id="bn2kb" d="M968.97 62.9l-3.6-3.59 1.01-1.01 3.6 3.59z"/>
				<style>
				.cls-1 {
						fill: #fff;
						stroke: #ffffff;
						stroke-miterlimit: 10;
				}

				</style>
		
				<style>
				.cls-1 {
						fill: #fff;
						stroke: #ffffff;
						stroke-miterlimit: 10;
				}

				</style>
		</defs><symbol id="adv-icon-1" viewBox="0 0 80 92"><g><g><g><path fill="#fff" d="M73.2 89c2.4-2.3 3.8-6 3.7-9.5 0-.9-.7-1.5-1.5-1.5-.9 0-1.5.7-1.5 1.5 0 2.7-1.1 5.6-2.8 7.4-1.3 1.3-2.9 2-4.7 2-3.6 0-5.5-2.6-6.3-4.2-.5-.9-1.4-1.5-2.4-1.5s-1.9.6-2.4 1.5c-.8 1.6-2.7 4.2-6.3 4.2-3.6 0-5.5-2.6-6.3-4.2-.5-.9-1.4-1.5-2.4-1.5s-1.9.6-2.4 1.5c-.8 1.6-2.7 4.2-6.3 4.2-4 0-6.3-3.3-7.1-6.4-.2-.8-1-1.3-1.8-1.1-.8.2-1.3 1-1.1 1.8 1.1 4.2 4.3 8.7 10 8.7 3.5 0 6.7-1.9 8.6-5.3 1.9 3.4 5 5.3 8.6 5.3 3.5 0 6.7-1.9 8.6-5.3 1.9 3.4 5 5.3 8.6 5.3 2.6 0 5-1 7.2-2.9zm-51.1-1.2c.5-.7.4-1.6-.3-2.1s-1.6-.4-2.1.3c-1 1.3-2.7 2.9-5.5 2.9-5.1 0-7.4-5.2-7.5-9 0-.9-.7-1.5-1.5-1.5-.9 0-1.5.7-1.5 1.5.1 5.9 4.1 12 10.5 12 3.1 0 5.9-1.4 7.9-4.1zm56.4-10.6c.8 0 1.4-.7 1.4-1.5s-.7-1.5-1.5-1.5H78l-4.7-10.3C72 61 69.1 59.2 66 59.2H14.2c-3.1 0-6 1.8-7.3 4.7L2.2 74.2h-.4c-.8 0-1.5.7-1.5 1.5s.7 1.5 1.5 1.5h8.9c.8 0 1.5-.7 1.5-1.5s-.7-1.5-1.5-1.5H5.5l4.1-9c.8-1.8 2.6-3 4.6-3H66c2 0 3.8 1.2 4.6 3l4.1 9H15.8c-.8 0-1.5.7-1.5 1.5s.7 1.5 1.5 1.5z"/></g></g><g><g><path fill="#fff" d="M22.199 53.7c-3.3 0-6.1-2.1-7.1-5.2l-8.9-28c-.2-.5.1-1.1.7-1.3.5-.2 1.1.1 1.3.7l8.9 28c.7 2.3 2.8 3.8 5.2 3.8h35.7c2.4 0 4.5-1.5 5.2-3.8l8.9-28c.2-.5.7-.8 1.3-.7.5.2.8.7.7 1.3l-8.9 28c-1.2 3.2-4 5.2-7.3 5.2zm54.8-37h-.2l-14.6-3.2c-14.5-3.2-29.8-3.2-44.2 0l-14.6 3.2c-.5.1-1.1-.2-1.2-.8-.1-.5.2-1.1.8-1.2l14.6-3.2c14.7-3.2 30.3-3.2 45.1 0l14.6 3.2c.5.1.9.7.8 1.2-.2.5-.7.8-1.1.8zM47.099 8c-.6 0-1-.4-1-1V4.9c0-1.6-1.3-3-3-3h-6.1c-1.6 0-3 1.3-3 3V7c0 .6-.4 1-1 1s-1-.4-1-1V4.9c0-2.7 2.2-5 5-5h6.2c2.7 0 5 2.2 5 5V7c-.1.5-.5 1-1.1 1z"/></g></g></g></symbol><symbol id="adv-icon-10" viewBox="0 0 93 96">
<g clip-path="url(#clip0)">
<path d="M44.4999 47.2C44.4999 47.2 44.2999 19.1 35.8999 1" stroke="white" stroke-width="2" stroke-miterlimit="10" stroke-linecap="round" stroke-linejoin="round"/>
<path d="M34.4999 44.3C21.5999 41 13.8999 39.5 13.8999 30.2C13.8999 24.1 18.8999 19.1 24.9999 19.1C34.9999 19.1 35.9999 27.8 39.7999 42.5C40.5999 45.7 41.3999 49 42.0999 52.2" stroke="white" stroke-width="2" stroke-miterlimit="10" stroke-linecap="round" stroke-linejoin="round"/>
<path d="M47.8999 47.2C62.0999 42.9 70.7999 41.5 70.3999 31.6C70.1999 25.5 64.9999 20.7 58.8999 21C49.4999 21.4 48.3999 29.1 45.5999 42.3C45.1999 44.3 44.7999 46.3 44.3999 48.3" stroke="white" stroke-width="2" stroke-miterlimit="10" stroke-linecap="round" stroke-linejoin="round"/>
<path d="M91.0999 74.8C91.5999 73.9 91.5999 72.8 91.0999 71.9L83.5999 57.4C81.8999 54.2 78.6999 52.2 75.2999 52.2H17.2999C13.7999 52.2 10.5999 54.2 8.9999 57.4L1.3999 71.9C0.899902 72.8 0.899902 73.9 1.3999 74.8L8.8999 89.3C10.5999 92.5 13.7999 94.5 17.1999 94.5H75.1999C78.6999 94.5 81.8999 92.5 83.4999 89.3L91.0999 74.8Z" stroke="white" stroke-width="2" stroke-miterlimit="10" stroke-linecap="round" stroke-linejoin="round"/>
</g>

</symbol><symbol id="adv-icon-2" viewBox="0 0 80 81"><g><g><g/><g><g><path fill="#fff" d="M46.705 45.8l7.9-13.8c.2-.5.1-1.1-.4-1.4-.5-.2-1.1-.1-1.4.4l-8 13.8c-1.2 1.9-3.2 3.1-5.5 3.1s-4.4-1.1-5.5-3.1l-4.4-7.6 5.3 1.5c.5.1 1.1-.2 1.2-.7.1-.5-.2-1.1-.7-1.2l-7.6-2.1c-.2-.1-.5 0-.7.1-.2.1-.3.4-.4.6l-2 7.6c-.2.5.2 1.1.7 1.2.5.2 1.1-.2 1.2-.7l1.4-5.3 4.4 7.6c1.5 2.5 4.2 4.1 7.2 4.1s5.6-1.5 7.3-4.1zm-21.6-14.1c.5-.3.7-.9.4-1.4l-7.7-13.3c-1.1-2-1.2-4.4 0-6.3 1.2-1.9 3.2-3.1 5.5-3.1h8.8l-3.9 3.8c-.4.4-.4 1 0 1.4.4.4 1 .4 1.4 0l5.6-5.5c.2-.2.3-.4.3-.7 0-.3-.1-.5-.3-.7l-5.6-5.5c-.4-.4-1-.4-1.4 0-.4.4-.4 1 0 1.4l3.9 3.8h-8.8c-3 0-5.7 1.5-7.2 4.1-1.5 2.6-1.5 5.7 0 8.3l7.7 13.3c.2.3.6.5.9.5.2 0 .3-.1.4-.1zm31.3-3.5l7.6-2.1c.5-.1.8-.7.7-1.2-.1-.5-.7-.8-1.2-.7l-5.3 1.5 4.4-7.6c1.5-2.6 1.5-5.8 0-8.3-1.5-2.5-4.2-4.1-7.2-4.1h-16.2c-.6 0-1 .4-1 1s.4 1 1 1h16.1c2.3 0 4.4 1.1 5.5 3.1 1.1 2 1.1 4.3 0 6.3l-4.4 7.6-1.4-5.3c-.1-.5-.7-.8-1.2-.7-.5.1-.8.7-.7 1.2l2 7.6c.1.3.3.5.5.6.2.1.3.1.5.1h.3z"/></g></g><g><g><path fill="#fff" d="M65.8 80.2c-3.6 0-6.7-1.9-8.6-5.3-1.9 3.4-5 5.3-8.6 5.3-3.6 0-6.7-1.9-8.6-5.3-1.9 3.4-5 5.3-8.6 5.3-3.6 0-6.7-1.9-8.6-5.3-1.9 3.4-5.1 5.3-8.6 5.3-2.9 0-5.6-1.2-7.5-3.3-1.9-1.9-3.6-5.4-3.1-11.5H1.5c-.8 0-1.5-.7-1.5-1.5s.7-1.5 1.5-1.5h.4l4.7-10.3c1.3-2.9 4.2-4.7 7.3-4.7h12.3c.8 0 1.5.7 1.5 1.5s-.7 1.5-1.5 1.5H14c-2 0-3.8 1.2-4.6 3l-4.1 9h17.5c.8 0 1.5.7 1.5 1.5s-.7 1.5-1.5 1.5H6.6c-.4 4.2.4 7.4 2.1 9.4 1.7 2 4 2.3 5.2 2.3 3.6 0 5.5-2.6 6.3-4.2.5-.9 1.4-1.5 2.4-1.5s1.9.6 2.4 1.5c.8 1.6 2.7 4.2 6.3 4.2 3.6 0 5.5-2.6 6.3-4.2.5-.9 1.4-1.5 2.4-1.5s1.9.6 2.4 1.5c.8 1.6 2.7 4.2 6.3 4.2 3.6 0 5.5-2.6 6.3-4.2.5-.9 1.4-1.5 2.4-1.5s1.9.6 2.4 1.5c.8 1.6 2.7 4.2 6.3 4.2 5.1 0 7.5-5.3 7.5-9.1 0-.8.7-1.5 1.5-1.5s1.5.7 1.5 1.5c-.4 5.1-3.6 12.2-10.8 12.2zM32.9 65.4c-.8 0-1.5-.7-1.5-1.5s.7-1.5 1.5-1.5h41.6l-4.1-9c-.8-1.8-2.6-3-4.6-3H54.2c-.8 0-1.5-.7-1.5-1.5s.7-1.5 1.5-1.5h11.6c3.1 0 6 1.8 7.3 4.7l4.7 10.3h.4c.8 0 1.5.7 1.5 1.5s-.6 1.5-1.5 1.5zm-5.9 0c-.8 0-1.5-.7-1.5-1.5s.7-1.5 1.5-1.5h2.1c.8 0 1.5.7 1.5 1.5s-.7 1.5-1.5 1.5z"/></g></g></g></g></symbol><symbol id="adv-icon-3" viewBox="0 0 93 45"><g><g><g><path fill="#fff" d="M17.2 44.3c-3.9 0-7.4-2.2-9.2-5.8L.5 24.1c-.6-1.2-.6-2.6 0-3.9L7.9 5.8C9.8 2.2 13.3 0 17.2 0h58c3.9 0 7.4 2.2 9.2 5.8l7.5 14.5c.6 1.2.6 2.6 0 3.9l-7.5 14.5c-1.8 3.4-5.3 5.6-9.2 5.6zm0-42.3c-3.1 0-6 1.8-7.5 4.7L2.2 21.1c-.3.6-.3 1.4 0 2l7.5 14.5c1.5 2.9 4.4 4.7 7.5 4.7h58c3.1 0 6-1.8 7.5-4.7l7.5-14.5c.3-.6.3-1.4 0-2L82.7 6.7C81.2 3.8 78.3 2 75.2 2z"/></g></g><g><g><path fill="#fff" d="M72.1 38.4c-3.2 0-6.1-1.5-8-4.3-.5-.7-.3-1.6.4-2.1s1.6-.3 2.1.4c1 1.4 2.7 3.1 5.6 3.1 5.1 0 7.5-5.3 7.5-9.1 0-.8.7-1.5 1.5-1.5s1.5.7 1.5 1.5c-.1 4.9-3.4 12-10.6 12zm-17.3 0c-3.6 0-6.7-1.9-8.6-5.3-1.9 3.4-5 5.3-8.6 5.3-3.6 0-6.7-1.9-8.6-5.3-1.9 3.4-5.1 5.3-8.6 5.3-2.9 0-5.6-1.2-7.5-3.3-1.6-1.9-3.4-5.3-2.9-11.4H7.8c-.8 0-1.5-.7-1.5-1.5s.7-1.5 1.5-1.5h.4L13 10.4c1.3-2.9 4.2-4.7 7.3-4.7h51.8c3.1 0 6 1.8 7.3 4.7l.4.9c.3.8 0 1.6-.7 2-.8.3-1.6 0-2-.7l-.4-.9c-.8-1.8-2.6-3-4.6-3H20.3c-2 0-3.8 1.2-4.6 3l-4.1 9h23.8c.8 0 1.5.7 1.5 1.5s-.7 1.5-1.5 1.5H12.9c-.4 4.2.4 7.4 2.1 9.4 1.7 2 4 2.3 5.2 2.3 3.6 0 5.5-2.6 6.3-4.2.5-.9 1.4-1.5 2.4-1.5s1.9.6 2.4 1.5c.8 1.6 2.7 4.2 6.3 4.2 3.6 0 5.5-2.6 6.3-4.2.5-.9 1.4-1.5 2.4-1.5s1.9.6 2.4 1.5c.8 1.6 2.7 4.2 6.3 4.2 4.1 0 6.4-3.4 7.2-6.6.2-.8 1-1.3 1.8-1.1.8.2 1.3 1 1.1 1.8-1.2 4.1-4.4 8.9-10.3 8.9zM39.2 23.7c-.8 0-1.5-.7-1.5-1.5s.7-1.5 1.5-1.5h41.6l-2.1-4.6c-.3-.8 0-1.6.7-2 .8-.3 1.6 0 2 .7l2.7 5.8h.4c.8 0 1.5.7 1.5 1.5s-.6 1.6-1.4 1.6z"/></g></g></g></symbol><symbol id="adv-icon-4" viewBox="0 0 80 98"><g><g><g><path fill="#fff" d="M65.8 97.6c-3.2 0-6.1-1.5-8-4.3-.5-.7-.3-1.6.4-2.1s1.6-.3 2.1.4c1 1.4 2.7 3.1 5.6 3.1 5.1 0 7.5-5.3 7.5-9.1 0-.8.7-1.5 1.5-1.5s1.5.7 1.5 1.5c-.2 4.9-3.4 12-10.6 12zm-17.3 0c-3.6 0-6.7-1.9-8.6-5.3-1.9 3.4-5 5.3-8.6 5.3-3.6 0-6.7-1.9-8.6-5.3-1.9 3.4-5.1 5.3-8.6 5.3-2.9 0-5.6-1.2-7.5-3.3C5 92.4 3.2 89 3.7 82.9H1.5c-.8 0-1.5-.7-1.5-1.5s.7-1.5 1.5-1.5h.4l4.7-10.3c1.3-2.9 4.2-4.7 7.3-4.7h51.8c3.1 0 6 1.8 7.3 4.7l.4.9c.3.8 0 1.6-.7 2-.8.3-1.6 0-2-.7l-.4-.9c-.8-1.8-2.6-3-4.6-3H14c-2 0-3.8 1.2-4.6 3l-4.1 9h23.8c.8 0 1.5.7 1.5 1.5s-.7 1.5-1.5 1.5H6.6c-.4 4.1.4 7.4 2.1 9.4 1.7 2 4 2.3 5.2 2.3 3.6 0 5.5-2.6 6.3-4.2.5-.9 1.4-1.5 2.4-1.5s1.9.6 2.4 1.5c.8 1.6 2.7 4.2 6.3 4.2 3.6 0 5.5-2.6 6.3-4.2.5-.9 1.4-1.5 2.4-1.5s1.9.6 2.4 1.5c.8 1.6 2.7 4.2 6.3 4.2 4.1 0 6.4-3.4 7.2-6.6.2-.8 1-1.3 1.8-1.1.8.2 1.3 1 1.1 1.8-1.2 4.1-4.5 8.9-10.3 8.9zM32.9 82.9c-.8 0-1.5-.7-1.5-1.5s.7-1.5 1.5-1.5h41.6l-2.1-4.6c-.3-.8 0-1.6.7-2 .8-.3 1.6 0 2 .7l2.7 5.8h.4c.8 0 1.5.7 1.5 1.5s-.6 1.6-1.5 1.6z"/></g></g><g><g><g><path fill="#fff" d="M3.495 33.5h-.2c-.5-.1-.9-.6-.8-1.1C6.195 10 23.895 0 39.895 0s33.7 10 37.4 32.3c.1.5-.3 1.1-.8 1.1-.5.1-1.1-.3-1.1-.8-3.6-21.1-20.4-30.6-35.5-30.6-15.1 0-32 9.5-35.4 30.7-.1.5-.5.8-1 .8z"/></g></g><g><g><path fill="#fff" d="M3.599 33.5c-.2 0-.4 0-.5-.2-.5-.3-.6-.9-.3-1.4 2.1-3.3 5.8-5.2 9.9-5.2 4.1 0 7.8 2 9.9 5.2.3.5.2 1.1-.3 1.4-.5.3-1.1.2-1.4-.3-1.7-2.7-4.8-4.3-8.2-4.3-3.4 0-6.6 1.6-8.3 4.3-.2.3-.5.5-.8.5z"/></g></g><g><g><path fill="#fff" d="M21.699 33.5c-.2 0-.4 0-.5-.2-.5-.3-.6-.9-.3-1.4 2.1-3.3 5.8-5.2 9.9-5.2 4.1 0 7.8 2 9.9 5.2.3.5.2 1.1-.3 1.4-.5.3-1.1.2-1.4-.3-1.7-2.7-4.8-4.3-8.2-4.3-3.4 0-6.5 1.6-8.2 4.3-.2.3-.5.5-.9.5z"/></g></g><g><g><path fill="#fff" d="M39.899 33.5c-.2 0-.4 0-.5-.2-.5-.3-.6-.9-.3-1.4 2.1-3.3 5.8-5.2 9.9-5.2 4.1 0 7.8 2 9.9 5.2.3.5.2 1.1-.3 1.4-.5.3-1.1.2-1.4-.3-1.7-2.7-4.8-4.3-8.2-4.3-3.4 0-6.5 1.6-8.2 4.3-.2.3-.6.5-.9.5z"/></g></g><g><g><path fill="#fff" d="M76.299 33.5c-.3 0-.7-.2-.8-.5-1.7-2.7-4.8-4.3-8.2-4.3-3.4 0-6.5 1.6-8.2 4.3-.3.5-.9.6-1.4.3-.5-.3-.6-.9-.3-1.4 2.1-3.3 5.8-5.2 9.9-5.2 4.1 0 7.9 2 9.9 5.2.3.5.2 1.1-.3 1.4-.3.2-.5.2-.6.2z"/></g></g><g><g><path fill="#fff" d="M45.005 62.405c-.3 0-.6-.1-.8-.3-.4-.4-.3-1 .1-1.4l29.4-25.9c.4-.4 1-.3 1.4.1.4.4.3 1-.1 1.4l-29.3 25.8c-.2.2-.5.3-.7.3z"/></g></g><g><g><path fill="#fff" d="M34.705 62.405c-.2 0-.5-.1-.7-.2l-29.3-25.9c-.4-.4-.5-1-.1-1.4.4-.4 1-.5 1.4-.1l29.4 25.8c.4.4.5 1 .1 1.4-.2.3-.5.4-.8.4z"/></g></g><g><g><path fill="#fff" d="M42.401 62.401c-.2 0-.3 0-.5-.1-.5-.3-.7-.9-.4-1.4l14.1-25c.3-.5.9-.7 1.4-.4.5.3.7.9.4 1.4l-14.1 25c-.2.3-.5.5-.9.5z"/></g></g><g><g><path fill="#fff" d="M37.301 62.401c-.3 0-.7-.2-.9-.5l-14.1-25c-.3-.5-.1-1.1.4-1.4.5-.3 1.1-.1 1.4.4l14.1 25c.3.5.1 1.1-.4 1.4-.1 0-.3.1-.5.1z"/></g></g><g><g><path fill="#fff" d="M39.9 62.4c-.6 0-1-.4-1-1V36.3c0-.6.4-1 1-1s1 .4 1 1v25.1c0 .5-.5 1-1 1z"/></g></g></g></g></symbol><symbol id="adv-icon-5" viewBox="0 0 77 88">
<g clip-path="url(#clip0)">
<path d="M37.9 86.3001C38.4 65.2001 32.3 43.5 19.5 26.3" stroke="white" stroke-width="3" stroke-miterlimit="10" stroke-linecap="round" stroke-linejoin="round"/>
<path d="M6.40033 1.5L5.50033 4.6C-0.399668 24.4 -0.699668 52 10.7003 68.8C16.9003 78 27.0003 84.5 37.9003 86.3" stroke="white" stroke-width="3" stroke-miterlimit="10" stroke-linecap="round" stroke-linejoin="round"/>
<path d="M45.4998 29.7C36.2998 18.2 23.5998 9.6 8.7998 5.5" stroke="white" stroke-width="3" stroke-miterlimit="10" stroke-linecap="round" stroke-linejoin="round"/>
<path d="M44.6995 81.9C37.9995 60.1 44.6995 35.4 63.5995 20.2C83.7995 40 78.5995 75.4 50.0995 87C57.4995 74.4 60.8995 59.6999 59.5995 45.0999" stroke="white" stroke-width="2" stroke-miterlimit="10" stroke-linecap="round" stroke-linejoin="round"/>
</g>

</symbol><symbol id="adv-icon-6" viewBox="0 0 62 86">
<g clip-path="url(#clip0)">
<path d="M21.1 4.1001C16.3 4.9001 10.1 6.4001 1 6.4001V61.8001C1 73.5001 18.4 71.8001 30.5 84.5001C42.6 71.7001 60 73.5001 60 61.8001V6.4001C50.5 6.4001 44.6 5.5001 40.1 4.7001" stroke="white" stroke-width="2" stroke-miterlimit="10" stroke-linecap="round" stroke-linejoin="round"/>
<path d="M10.7002 28.3C9.80019 38.7 16.3002 53.9 30.5002 53.9C44.7002 53.9 51.2002 38.7 50.3002 28.3C49.3002 16.3 41.7002 1.5 30.5002 1.5C19.3002 1.5 11.7002 16.2 10.7002 28.3Z" stroke="white" stroke-width="3" stroke-miterlimit="10" stroke-linecap="round" stroke-linejoin="round"/>
</g>

</symbol><symbol id="adv-icon-7" viewBox="0 0 106 113">
<g clip-path="url(#clip0)">
<path d="M33.4998 49.2999C32.6998 58.4 38.2998 71.9 50.2998 71.9C62.2998 71.9 67.6998 58.4999 66.9998 49.2999C66.0998 38.6999 59.6998 25.7 50.1998 25.7C40.6998 25.7 34.2998 38.6999 33.4998 49.2999Z" stroke="white" stroke-width="3" stroke-miterlimit="10" stroke-linecap="round" stroke-linejoin="round"/>
<path d="M95.8996 54.6999C95.6996 56.9999 97.0996 60.2999 99.9996 60.2999C103 60.2999 104.3 56.9999 104.1 54.6999C103.9 52.0999 102.3 48.8999 99.9996 48.8999C97.6996 48.7999 96.1996 52.0999 95.8996 54.6999Z" stroke="white" stroke-width="2" stroke-miterlimit="10" stroke-linecap="round" stroke-linejoin="round"/>
<path d="M76.8004 12.1C76.4004 16.4 79.1004 22.7 85.0004 22.7C90.9004 22.7 93.6004 16.4 93.2004 12.1C92.8004 7.1 89.7004 1 85.0004 1C80.3004 1 77.3004 7.1 76.8004 12.1Z" stroke="white" stroke-width="2" stroke-miterlimit="10" stroke-linecap="round" stroke-linejoin="round"/>
<path d="M0.99962 22.9C0.59962 27.2 3.29962 33.5 9.19962 33.5C15.0996 33.5 17.7996 27.2 17.3996 22.9C16.9996 17.9 13.7996 11.8 9.19962 11.8C4.59962 11.8 1.49962 17.9 0.99962 22.9Z" stroke="white" stroke-width="2" stroke-miterlimit="10" stroke-linecap="round" stroke-linejoin="round"/>
<path d="M61.9 101.1C61.5 105.4 64.2 111.7 70.1 111.7C76 111.7 78.7 105.4 78.3 101.1C77.9 96.1 74.7 90 70.1 90C65.5 90 62.4 96.1 61.9 101.1Z" stroke="white" stroke-width="2" stroke-miterlimit="10" stroke-linecap="round" stroke-linejoin="round"/>
<path d="M1.0003 70.5C0.6003 75.9 4.0003 83.9 11.4003 83.9C18.8003 83.9 22.2003 75.9 21.8003 70.5C21.3003 64.2 17.3003 56.5 11.4003 56.5C5.5003 56.5 1.6003 64.2 1.0003 70.5Z" stroke="white" stroke-width="2" stroke-miterlimit="10" stroke-linecap="round" stroke-linejoin="round"/>
<path d="M70.0996 53.1001L93.2996 54.7001" stroke="white" stroke-width="2" stroke-miterlimit="10" stroke-linecap="round" stroke-linejoin="round"/>
<path d="M65.4004 31.4L76.8004 21.8" stroke="white" stroke-width="2" stroke-miterlimit="10" stroke-linecap="round" stroke-linejoin="round"/>
<path d="M33.4004 36.2999L18.9004 30.3999" stroke="white" stroke-width="2" stroke-miterlimit="10" stroke-linecap="round" stroke-linejoin="round"/>
<path d="M32.1998 61L23.7998 63.6" stroke="white" stroke-width="2" stroke-miterlimit="10" stroke-linecap="round" stroke-linejoin="round"/>
<path d="M57.7002 73.5L63.9002 88.7" stroke="white" stroke-width="2" stroke-miterlimit="10" stroke-linecap="round" stroke-linejoin="round"/>
</g>

</symbol><symbol id="adv-icon-8" viewBox="0 0 81 64">
<g clip-path="url(#clip0)">
<path d="M53.3 63.7C49.2 63.7 45.7 61.5 43.6 57.6C41.5 61.5 38 63.7 33.9 63.7C29.8 63.7 26.3 61.5 24.2 57.6C22.1 61.5 18.6 63.7 14.5 63.7C11.4 63.7 8.5 62.5 6.5 60.3C4.6 58.3 2.5 54.5 3.1 47.5V47.4H1.5C0.7 47.4 0 46.7 0 45.9C0 45.1 0.7 44.4 1.5 44.4L5.6 26.5C6.5 22.5 10.1 19.6 14.2 19.6H52.7C56.8 19.6 60.4 22.4 61.3 26.5L61.8 28.7C62 29.5 61.5 30.3 60.7 30.5C59.9 30.7 59.1 30.2 58.9 29.4L58.4 27.2C57.8 24.5 55.4 22.7 52.7 22.7H14.2C11.5 22.7 9.1 24.6 8.5 27.2L4.5 44.4H24.4C25.2 44.4 25.9 45.1 25.9 45.9C25.9 46.7 25.2 47.4 24.4 47.4H6C6 47.5 6 47.6 6 47.7C5.6 52.4 6.6 56 8.6 58.3C10.1 59.9 12.1 60.8 14.4 60.8C18.5 60.8 20.7 57.8 21.6 56C22.1 55.1 23 54.5 24.1 54.5C25.2 54.5 26.1 55.1 26.6 56C27.5 57.8 29.7 60.8 33.8 60.8C37.9 60.8 40.1 57.8 41 56C41.5 55.1 42.4 54.5 43.5 54.5C44.6 54.5 45.5 55.1 46 56C46.9 57.8 49.1 60.8 53.2 60.8C57.9 60.8 60.5 56.9 61.4 53.2C61.6 52.4 62.4 51.9 63.2 52.1C64 52.3 64.5 53.1 64.3 53.9C63.3 58.4 59.7 63.7 53.3 63.7ZM65.5 47.4H27.7C26.9 47.4 26.2 46.7 26.2 45.9C26.2 45.1 26.9 44.4 27.7 44.4H62.4L60.3 35.3C60.1 34.5 60.6 33.7 61.4 33.5C62.2 33.3 63 33.8 63.2 34.6L65.5 44.4C66.3 44.4 67 45.1 67 45.9C67 46.7 66.3 47.4 65.5 47.4Z" fill="white"/>
<path d="M79.6001 63.6H72.6001C72.0001 63.6 71.6001 63.2 71.6001 62.6C71.6001 62 72.0001 61.6 72.6001 61.6H79.6001C80.2001 61.6 80.6001 62 80.6001 62.6C80.6001 63.2 80.1001 63.6 79.6001 63.6Z" fill="white"/>
<path d="M79.6 53.4H77.8C77.2 53.4 76.8 53 76.8 52.4C76.8 51.8 77.2 51.4 77.8 51.4H79.6C80.2 51.4 80.6 51.8 80.6 52.4C80.6 53 80.1 53.4 79.6 53.4Z" fill="white"/>
<path d="M79.6 43.1H77.8C77.2 43.1 76.8 42.7 76.8 42.1C76.8 41.5 77.2 41.1 77.8 41.1H79.6C80.2 41.1 80.6 41.5 80.6 42.1C80.6 42.7 80.1 43.1 79.6 43.1Z" fill="white"/>
<path d="M79.6001 43.1H72.6001C72.0001 43.1 71.6001 42.7 71.6001 42.1C71.6001 41.5 72.0001 41.1 72.6001 41.1H79.6001C80.2001 41.1 80.6001 41.5 80.6001 42.1C80.6001 42.7 80.1001 43.1 79.6001 43.1Z" fill="white"/>
<path d="M79.6 32.8H77.8C77.2 32.8 76.8 32.4 76.8 31.8C76.8 31.2 77.2 30.8 77.8 30.8H79.6C80.2 30.8 80.6 31.2 80.6 31.8C80.6 32.4 80.1 32.8 79.6 32.8Z" fill="white"/>
<path d="M79.6001 22.5H72.6001C72.0001 22.5 71.6001 22.1 71.6001 21.5C71.6001 20.9 72.0001 20.5 72.6001 20.5H79.6001C80.2001 20.5 80.6001 20.9 80.6001 21.5C80.6001 22.1 80.1001 22.5 79.6001 22.5Z" fill="white"/>
<path d="M79.6 12.3H77.8C77.2 12.3 76.8 11.9 76.8 11.3C76.8 10.7 77.2 10.3 77.8 10.3H79.6C80.2 10.3 80.6 10.7 80.6 11.3C80.6 11.9 80.1 12.3 79.6 12.3Z" fill="white"/>
<path d="M79.6001 43.1H72.6001C72.0001 43.1 71.6001 42.7 71.6001 42.1C71.6001 41.5 72.0001 41.1 72.6001 41.1H79.6001C80.2001 41.1 80.6001 41.5 80.6001 42.1C80.6001 42.7 80.1001 43.1 79.6001 43.1Z" fill="white"/>
<path d="M79.6001 22.5H72.6001C72.0001 22.5 71.6001 22.1 71.6001 21.5C71.6001 20.9 72.0001 20.5 72.6001 20.5H79.6001C80.2001 20.5 80.6001 20.9 80.6001 21.5C80.6001 22.1 80.1001 22.5 79.6001 22.5Z" fill="white"/>
<path d="M79.6001 2H72.6001C72.0001 2 71.6001 1.6 71.6001 1C71.6001 0.4 72.0001 0 72.6001 0H79.6001C80.2001 0 80.6001 0.4 80.6001 1C80.6001 1.6 80.1001 2 79.6001 2Z" fill="white"/>
<path d="M79.6 2H77.8C77.2 2 76.8 1.6 76.8 1C76.8 0.4 77.2 0 77.8 0H79.6C80.2 0 80.6 0.4 80.6 1C80.6 1.6 80.1 2 79.6 2Z" fill="white"/>
<path d="M79.6 22.5H77.8C77.2 22.5 76.8 22.1 76.8 21.5C76.8 20.9 77.2 20.5 77.8 20.5H79.6C80.2 20.5 80.6 20.9 80.6 21.5C80.6 22.1 80.1 22.5 79.6 22.5Z" fill="white"/>
<path d="M28.4 15.8C25 15.8 22.8 13.4 22.8 9.39995C22.8 5.39995 25.1 2.69995 28.5 2.69995C30 2.69995 31.4 3.29995 32 3.89995C32.4 4.29995 32.4 4.89995 32 5.29995C31.6 5.69995 31 5.69995 30.6 5.29995C30.4001 5.09995 29.5 4.69995 28.5 4.69995C25 4.69995 24.8 8.29995 24.8 9.39995C24.8 11 25.3 13.8 28.4 13.8C29.6 13.8 30.5001 13.3 30.7001 13.1C31.1 12.7 31.7 12.7 32.1 13.1C32.5 13.5 32.5 14.1 32.1 14.5C31.5 15.2 30.1 15.8 28.4 15.8ZM40.6 15.5H35.9001C35.3001 15.5 34.9001 15.1 34.9001 14.5V3.99995C34.9001 3.39995 35.3001 2.99995 35.9001 2.99995H40.2001C41.5 2.99995 42.3001 3.59995 42.7001 3.99995C43.2001 4.59995 43.5 5.39995 43.5 6.19995C43.5 6.99995 43.2 7.79995 42.8 8.39995C43.9 9.19995 44.6 10.6 44.6 11.8C44.6 12.8 44.2 13.7 43.6 14.3C43 14.9 42.1 15.5 40.6 15.5ZM36.8 13.5H40.5C42.2001 13.5 42.5 12.5 42.5 11.9C42.5 10.9 41.7001 9.79995 40.5 9.79995H40.4001C40.3001 9.79995 40.2001 9.79995 40.2001 9.79995H39C38.4 9.79995 38 9.39995 38 8.79995C38 8.19995 38.4 7.79995 39 7.79995H40.2001C41.2001 7.79995 41.5 6.89995 41.5 6.29995C41.5 5.89995 41.4001 5.59995 41.2001 5.39995C41 5.09995 40.6 4.99995 40.2001 4.99995H36.9001V13.5H36.8Z" fill="white"/>
</g>

</symbol><symbol id="adv-icon-9" viewBox="0 0 98 81">
<g clip-path="url(#clip0)">
<path d="M74.7 80.6C71.5 80.6 68.6 79.1 66.7 76.3C66.2 75.6 66.4 74.7 67.1 74.2C67.8 73.7 68.7 73.9 69.2 74.6C70.2 76 71.9 77.7 74.8 77.7C79.9 77.7 82.3 72.4 82.3 68.6C82.3 67.8 83 67.1 83.8 67.1C84.6 67.1 85.3 67.8 85.3 68.6C85.1 73.5 81.9 80.6 74.7 80.6ZM57.4 80.6C53.8 80.6 50.7 78.7 48.8 75.3C46.9 78.7 43.8 80.6 40.2 80.6C36.6 80.6 33.5 78.7 31.6 75.3C29.7 78.7 26.5 80.6 23 80.6C20.1 80.6 17.4 79.4 15.5 77.3C13.9 75.4 12.1 72 12.6 65.9H10.5C9.7 65.9 9 65.2 9 64.4C9 63.6 9.7 62.9 10.5 62.9H10.9L15.6 52.6C16.9 49.7 19.8 47.9 22.9 47.9H74.7C77.8 47.9 80.7 49.7 82 52.6L82.4 53.5C82.7 54.3 82.4 55.1 81.7 55.5C80.9 55.8 80.1 55.5 79.7 54.8L79.3 53.9C78.5 52.1 76.7 50.9 74.7 50.9H22.9C20.9 50.9 19.1 52.1 18.3 53.9L14.2 62.9H38C38.8 62.9 39.5 63.6 39.5 64.4C39.5 65.2 38.8 65.9 38 65.9H15.5C15.1 70.1 15.9 73.3 17.6 75.3C19.3 77.3 21.6 77.6 22.8 77.6C26.4 77.6 28.3 75 29.1 73.4C29.6 72.5 30.5 71.9 31.5 71.9C32.5 71.9 33.4 72.5 33.9 73.4C34.7 75 36.6 77.6 40.2 77.6C43.8 77.6 45.7 75 46.5 73.4C47 72.5 47.9 71.9 48.9 71.9C49.9 71.9 50.8 72.5 51.3 73.4C52.1 75 54 77.6 57.6 77.6C61.7 77.6 64 74.2 64.8 71C65 70.2 65.8 69.7 66.6 69.9C67.4 70.1 67.9 70.9 67.7 71.7C66.5 75.8 63.2 80.6 57.4 80.6ZM87.1 65.8H41.8C41 65.8 40.3 65.1 40.3 64.3C40.3 63.5 41 62.8 41.8 62.8H83.4L81.3 58.2C81 57.4 81.3 56.6 82 56.2C82.8 55.9 83.6 56.2 84 56.9L86.7 62.7H87.1C87.9 62.7 88.6 63.4 88.6 64.2C88.6 65 88 65.8 87.1 65.8Z" fill="white"/>
<path d="M96.5 80.1C95.9 80.1 95.5 79.7 95.5 79.1C95.5 48.1 78 29.6 48.8 29.6C19.5 29.6 2 48.1 2 79.1C2 79.7 1.6 80.1 1 80.1C0.4 80.1 0 79.7 0 79.1C0 46.9 18.2 27.6 48.7 27.6C79.2 27.6 97.4 46.8 97.4 79.1C97.5 79.6 97 80.1 96.5 80.1Z" fill="white"/>
<path d="M28.4 26.4C26.6 26.4 25 25.2 24.5 23.4L20.7 9.40002C20.4 8.40002 20.6 7.30002 21.1 6.40002C21.6 5.50002 22.5 4.80002 23.5 4.50002L30.7 2.60002C31.7 2.30002 32.8 2.50002 33.7 3.00002C34.6 3.50002 35.3 4.40002 35.6 5.40002L39.4 19.4C40 21.5 38.7 23.7 36.6 24.3L29.4 26.2C29.1 26.4 28.7 26.4 28.4 26.4ZM31.8 4.50002C31.6 4.50002 31.5 4.50002 31.3 4.60002L24.1 6.50002C23.6 6.60002 23.2 7.00002 22.9 7.40002C22.6 7.90002 22.6 8.40002 22.7 8.90002L26.5 22.9C26.8 24 27.9 24.6 28.9 24.3L36.1 22.4C37.2 22.1 37.8 21 37.5 20L33.7 6.00002C33.6 5.50002 33.2 5.10002 32.8 4.80002C32.5 4.60002 32.2 4.50002 31.8 4.50002ZM41.7 15.6C41.3 15.6 40.9 15.3 40.7 14.9C40.6 14.4 40.9 13.8 41.4 13.7L69.3 6.20002C69.4 6.20002 69.5 6.10002 69.5 6.00002C69.5 6.00002 69.6 5.90002 69.5 5.70002L68.6 2.20002C68.6 2.10002 68.5 2.00002 68.4 2.00002C68.4 2.00002 68.3 1.90002 68.1 2.00002L40.3 9.50002C39.8 9.60002 39.2 9.30002 39.1 8.80002C39 8.30002 39.3 7.70002 39.8 7.60002L67.7 0.100024C68.3 -0.0999765 68.9 2.3514e-05 69.5 0.300024C70 0.600024 70.4 1.10002 70.6 1.70002L71.5 5.20002C71.7 5.80002 71.6 6.40002 71.3 7.00002C71 7.50002 70.5 7.90002 69.9 8.10002L42 15.6C41.8 15.6 41.7 15.6 41.7 15.6Z" fill="white"/>
<path d="M19.3001 32.2C19.2001 32.2 19.1001 32.2 19.1001 32.2L2.90006 28.3C2.40006 28.2 2.00006 27.6 2.20006 27.1C2.30006 26.6 2.90006 26.2 3.40006 26.4L19.5001 30.3C20.0001 30.4 20.4001 31 20.2001 31.5C20.1001 31.9 19.7001 32.2 19.3001 32.2Z" fill="white"/>
<path d="M22.5 28.6999C22.3 28.6999 22.1 28.5999 21.9 28.4999L16.6 24.2999C16.2 23.9999 16.1 23.2999 16.4 22.8999C16.7 22.4999 17.4 22.3999 17.8 22.6999L23.1 26.8999C23.5 27.1999 23.6 27.8999 23.3 28.2999C23.1 28.5999 22.8 28.6999 22.5 28.6999Z" fill="white"/>
<path d="M43.5001 23.5C43.2001 23.5 42.9001 23.4 42.7001 23.1C42.4001 22.7 42.5001 22 42.9001 21.7L45.9001 19.4C46.3001 19.1 47.0001 19.2 47.3001 19.6C47.6001 20 47.5001 20.7 47.1001 21L44.1001 23.3C43.9001 23.5 43.7001 23.5 43.5001 23.5Z" fill="white"/>
</g>

</symbol><symbol id="adv-vector-bg-blue" viewBox="0 0 1054 833">
<path d="M14 226V226C14 135.358 71.5528 54.7162 157.272 25.2504L163.471 23.1193C181.087 17.0639 199.396 13.2552 217.965 11.7833L354 1M981.5 692.5V692.5C947.991 776.724 866.51 832 775.865 832H669.5M241 832L154.132 812.765C119.418 805.078 87.5839 787.738 62.2983 762.743V762.743C31.0801 731.884 11.6011 691.104 7.21661 647.427L1 585.5M50 474V474C50 464.826 52.3942 455.81 56.9459 447.845L60 442.5M751.5 1L833.815 13.9692C881.652 21.5063 926.433 42.2583 963.106 73.8852V73.8852C1030.04 131.612 1063.06 219.4 1050.74 306.93L1042.5 365.5" stroke="#ECE6E1" stroke-linecap="round" stroke-linejoin="round"/>
</symbol><symbol id="adv-vector-bg-pink" viewBox="0 0 1062 877">
<path d="M126 132.5V132.5C187.773 55.7609 279.079 8.67455 377.42 2.84304L408.5 1M751.5 43.5V43.5C852.446 69.8475 937.599 140.312 983.5 234V234M1061 537.5V589.207C1061 657.824 1025.67 721.605 967.5 758V758M589.5 866L535.439 872.992C467.043 881.838 397.524 872.351 334 845.5V845.5M62.5 667.5L44.8479 642.983C4.70661 587.231 -8.60893 516.535 8.5 450V450" stroke="#ECE6E1" stroke-linecap="round" stroke-linejoin="round"/>
</symbol><symbol id="ae-logo" viewBox="0 0 17 24">
<path d="M8.31014 0.5C3.71769 0.5 0 4.23457 0 8.84786C0 9.83642 0.21869 10.7151 0.437378 11.5939C0.984097 13.1316 1.85884 14.3399 3.06163 15.3284C4.15507 16.2072 4.92047 17.5252 5.13916 18.9532C5.13916 19.063 5.24851 19.1728 5.35786 19.1728C6.12326 19.3925 6.88867 19.5024 7.65408 19.6122C7.87277 19.6122 8.09145 19.6122 8.31014 19.6122C8.52883 19.6122 8.74751 19.6122 8.85686 19.6122C9.62227 19.6122 10.497 19.3925 11.2624 19.1728C11.3718 19.1728 11.4811 19.063 11.4811 18.9532C11.6998 17.5252 12.3559 16.317 13.34 15.4383C13.4493 15.3284 13.5586 15.2186 13.7773 15.1088C14.8708 14.1202 15.7455 12.9119 16.1829 11.484C16.5109 10.6053 16.6203 9.72658 16.6203 8.73802C16.6203 4.23457 12.9026 0.5 8.31014 0.5ZM11.8091 13.571C10.7157 14.5595 9.84095 15.7678 9.40358 17.1957C9.29423 17.1957 9.29424 17.1957 9.18489 17.1957C8.96621 17.1957 8.63817 17.1957 8.41948 17.1957C8.09145 17.1957 7.87277 17.1957 7.54473 17.1957C7.43539 17.1957 7.43539 17.1957 7.32604 17.1957C6.77932 15.658 5.90457 14.4497 4.70179 13.4611C3.38966 12.3627 2.62426 10.825 2.62426 8.9577C2.62426 5.77233 5.24851 3.13617 8.41948 3.13617C11.5905 3.13617 14.2147 5.77233 14.2147 8.9577C14.2147 10.7151 13.4493 12.2529 12.2465 13.3513C12.1372 13.3513 12.0278 13.4611 11.8091 13.571Z" fill="#FFA722"/>
<path d="M11.1531 7.85938C10.6063 7.85938 10.169 8.29874 10.169 8.7381V8.84794C10.169 9.8365 9.29422 10.6054 8.31012 10.6054C7.32603 10.6054 6.45128 9.8365 6.45128 8.84794C6.45128 8.29874 6.01391 7.85938 5.46719 7.85938C4.92047 7.85938 4.48309 8.29874 4.48309 8.84794C4.48309 10.9349 6.23259 12.5825 8.31012 12.5825C10.3877 12.5825 12.0278 10.9349 12.1372 8.84794C12.1372 8.29874 11.6998 7.85938 11.1531 7.85938Z" fill="#FFA722"/>
<path d="M11.3718 20.1616C10.6064 20.3813 9.84095 20.4911 8.9662 20.4911C8.74751 20.4911 8.52882 20.4911 8.31014 20.4911C8.09145 20.4911 7.87276 20.4911 7.65407 20.4911C6.88867 20.4911 6.01392 20.3813 5.35786 20.1616C5.35786 20.1616 5.2485 20.1616 5.2485 20.2715C5.35785 21.4797 6.01392 22.5781 7.10735 23.0175C7.43539 23.1273 7.87276 23.2372 8.31014 23.2372C8.74751 23.2372 9.18488 23.1273 9.51292 23.0175C10.6064 22.5781 11.3718 21.4797 11.3718 20.1616C11.4811 20.2715 11.4811 20.2715 11.3718 20.1616C11.3718 20.1616 11.4811 20.1616 11.3718 20.1616Z" fill="#FFA722"/>
</symbol><symbol id="arrow-down" viewBox="0 0 29 67">
<path d="M14.5 1L14.5 65.5M14.5 65.5V65.5C10.8533 60.5272 6.49286 56.1196 1.55957 52.4197L1 52M14.5 65.5V65.5C18.4877 60.5153 23.0153 55.9877 28 52V52" stroke="#FFB422" stroke-width="2" stroke-linecap="round" stroke-linejoin="round"/>
</symbol><symbol id="arrow-left" viewBox="0 0 59 29">
<path d="M58 14.5H1M1 14.5V14.5C5.97279 10.8533 10.3804 6.49286 14.0803 1.55957L14.5 1M1 14.5V14.5C5.98466 18.4877 10.5123 23.0153 14.5 28V28" stroke="#FFB422" stroke-width="2" stroke-linecap="round" stroke-linejoin="round"/>
</symbol><symbol id="arrow-right" viewBox="0 0 60 29">
<path d="M1.5 14.5H58.5M58.5 14.5V14.5C53.5272 10.8533 49.1196 6.49286 45.4197 1.55957L45 1M58.5 14.5V14.5C53.5153 18.4877 48.9877 23.0153 45 28V28" stroke="#FFB422" stroke-width="2" stroke-linecap="round" stroke-linejoin="round"/>
</symbol><symbol id="arrow-up" viewBox="0 0 18 10">
<path d="M1 9L1.3316 8.7513C4.25503 6.55873 6.83899 3.94684 9 1V1V1C11.3631 3.95387 14.0461 6.6369 17 9V9" stroke="#5B6356" stroke-width="2" stroke-linecap="round" stroke-linejoin="round"/>
</symbol><symbol id="big-arrow-left" viewBox="0 0 154 29">
<path d="M153 14.5H1M1 14.5V14.5C5.97279 10.8533 10.3804 6.49286 14.0803 1.55957L14.5 1M1 14.5V14.5C5.98466 18.4877 10.5123 23.0153 14.5 28V28" stroke="#FFB422" stroke-width="2" stroke-linecap="round" stroke-linejoin="round"/>
</symbol><symbol id="big-arrow-right" viewBox="0 0 155 29">
<path d="M1.5 14.5H153.5M153.5 14.5V14.5C148.527 10.8533 144.12 6.49286 140.42 1.55957L140 1M153.5 14.5V14.5C148.515 18.4877 143.988 23.0153 140 28V28" stroke="#FFB422" stroke-width="2" stroke-linecap="round" stroke-linejoin="round"/>
</symbol><symbol id="ellipse-1" viewBox="0 0 236 228"><g><g><path fill="currentColor" d="M236 127.641C236 53.918 210.422 0 136.938 0 63.455 0 0 39.303 0 113.026S48.887 228 122.37 228C195.854 228 236 201.364 236 127.641z"/></g></g></symbol><symbol id="ellipse-11" viewBox="0 0 245 238">
<path d="M9.71839 163.911C-10.8043 93.1024 -1.24647 34.1952 69.3323 13.7392C139.911 -6.71675 218.432 -10.4453 238.954 60.3636C259.477 131.172 217.373 208.216 146.794 228.672C76.2152 249.128 30.241 234.72 9.71839 163.911Z" fill="#FAF4EF"/>
</symbol><symbol id="ellipse-12" viewBox="0 0 245 238">
<path d="M9.71839 163.911C-10.8043 93.1024 -1.24647 34.1952 69.3323 13.7392C139.911 -6.71675 218.432 -10.4453 238.954 60.3636C259.477 131.172 217.373 208.216 146.794 228.672C76.2152 249.128 30.241 234.72 9.71839 163.911Z" fill="#FAF4EF"/>
</symbol><symbol id="ellipse-2" viewBox="0 0 236 228"><g><g><path fill="currentColor" d="M236 127.641C236 53.918 210.422 0 136.938 0 63.455 0 0 39.303 0 113.026S48.887 228 122.37 228C195.854 228 236 201.364 236 127.641z"/></g></g></symbol><symbol id="ellipse-3" viewBox="0 0 236 240"><g><g><path fill="currentColor" d="M0 139.641C0 65.918 56.017 0 129.5 0S236 51.303 236 125.026 187.113 240 113.63 240C40.146 240 0 213.364 0 139.641z"/></g></g></symbol><symbol id="ellipse-4" viewBox="0 0 250 228"><g><g><path fill="currentColor" d="M250 100.359C250 174.082 224.422 228 150.938 228 77.455 228 0 174.082 0 100.359 0 26.636 62.887 0 136.37 0 209.854 0 250 26.636 250 100.359z"/></g></g></symbol><symbol id="ellipse-5" viewBox="0 0 245 245"><g><g transform="rotate(163.84 122.5 118.5)"><path fill="currentColor" d="M250 102.359C250 176.082 224.422 230 150.938 230 77.455 230 1 211.723 1 138S62.887 2 136.37 2C209.854 2 250 28.636 250 102.359z"/></g></g></symbol><symbol id="ellipse-6" viewBox="0 0 236 228"><g><g><path fill="currentColor" d="M0 100.359C0 174.082 25.578 228 99.062 228 172.545 228 236 188.697 236 114.974S187.113 0 113.63 0C40.146 0 0 26.636 0 100.359z"/></g></g></symbol><symbol id="ellipse-7" viewBox="0 0 244 236.4">
<path fill="currentColor" d="M9.5,163.1C-11,92.3-1.4,33.4,69.1,12.9c70.6-20.5,149.1-24.2,169.6,46.6c20.5,70.8-21.6,147.9-92.2,168.3
	C76,248.3,30,233.9,9.5,163.1z"/>
</symbol><symbol id="ellipse-8" viewBox="0 0 236 228">
<path d="M0 127.641C0 53.9181 25.5783 0 99.0617 0C172.545 0 236 39.3027 236 113.026C236 186.749 187.113 228 113.63 228C40.1462 228 0 201.364 0 127.641Z" fill="currentColor"/>
</symbol><symbol id="ellipse-9" viewBox="0 0 236 240">
<path d="M0 139.641C0 65.9181 56.0166 0 129.5 0C202.983 0 236 51.3027 236 125.026C236 198.749 187.113 240 113.63 240C40.1462 240 0 213.364 0 139.641Z" fill="currentColor"/>
</symbol><symbol id="icon-menu" viewBox="0 0 512 512">
<g>
	<g>
		<path d="M491.318,235.318H20.682C9.26,235.318,0,244.577,0,256s9.26,20.682,20.682,20.682h470.636
			c11.423,0,20.682-9.259,20.682-20.682C512,244.578,502.741,235.318,491.318,235.318z"/>
	</g>
</g>
<g>
	<g>
		<path d="M491.318,78.439H20.682C9.26,78.439,0,87.699,0,99.121c0,11.422,9.26,20.682,20.682,20.682h470.636
			c11.423,0,20.682-9.26,20.682-20.682C512,87.699,502.741,78.439,491.318,78.439z"/>
	</g>
</g>
<g>
	<g>
		<path d="M491.318,392.197H20.682C9.26,392.197,0,401.456,0,412.879s9.26,20.682,20.682,20.682h470.636
			c11.423,0,20.682-9.259,20.682-20.682S502.741,392.197,491.318,392.197z"/>
	</g>
</g>
<g>
</g>
<g>
</g>
<g>
</g>
<g>
</g>
<g>
</g>
<g>
</g>
<g>
</g>
<g>
</g>
<g>
</g>
<g>
</g>
<g>
</g>
<g>
</g>
<g>
</g>
<g>
</g>
<g>
</g>
</symbol><symbol id="icon-search" viewBox="0 0 12 12"><g><g transform="translate(-958 -51)"><use xlink:href="#bn2ka"/></g><g transform="translate(-958 -51)"><use xlink:href="#bn2kb"/></g></g></symbol><symbol id="icon-tel" viewBox="0 0 27.4 45.7">
<style type="text/css">
	.st0{fill:#3A8244;}
	.st1{fill:#5599DB;}
	.st2{fill:#044FF3;}
</style>
<g>
	<path class="st2" d="M27.4,41.2c0,2.5-2.1,4.6-4.6,4.6H4.6c-2.5,0-4.6-2.1-4.6-4.6V4.6C0,2.1,2.1,0,4.6,0h18.3
		c2.5,0,4.6,2.1,4.6,4.6V41.2z M24,10.3c0-0.6-0.5-1.1-1.1-1.1H4.6c-0.6,0-1.1,0.5-1.1,1.1v25.1c0,0.6,0.5,1.1,1.1,1.1h18.3
		c0.6,0,1.1-0.5,1.1-1.1V10.3z M16.6,4.6h-5.7c-0.3,0-0.6,0.3-0.6,0.6s0.3,0.6,0.6,0.6h5.7c0.3,0,0.6-0.3,0.6-0.6S16.9,4.6,16.6,4.6
		z M13.7,38.3c-1.6,0-2.9,1.3-2.9,2.9s1.3,2.9,2.9,2.9s2.9-1.3,2.9-2.9S15.3,38.3,13.7,38.3z"/>
</g>
</symbol><symbol id="large-ellipse-1" viewBox="0 0 916 788">
<path d="M29.8751 555.739C-38.2069 324.886 4.7034 129.644 271.028 53.7853C537.352 -22.0735 831.324 -43.7677 899.406 187.085C967.488 417.939 800.705 676.838 534.38 752.697C268.056 828.556 97.9572 786.593 29.8751 555.739Z" stroke="#ECE6E1" stroke-linecap="round" stroke-linejoin="round"/>
</symbol><symbol id="large-ellipse-2" viewBox="0 0 916 788">
<path d="M886.126 232.26C954.208 463.113 911.298 658.355 644.973 734.214C378.649 810.073 84.677 831.767 16.5949 600.914C-51.4871 370.061 115.296 111.161 381.621 35.3026C647.945 -40.5562 818.044 1.40692 886.126 232.26Z" stroke="#ECE6E1" stroke-linecap="round" stroke-linejoin="round"/>
</symbol><symbol id="large-ellipse-3" viewBox="0 0 655 590">
<path d="M1.68787 211.201C-6.96013 405.681 54.0909 556.44 247.654 580.928C441.216 605.416 644.75 582.68 653.398 388.2C662.046 193.72 571.859 32.335 378.296 7.84694C184.733 -16.6411 10.3359 16.7209 1.68787 211.201Z" stroke="#ECE6E1" stroke-linecap="round" stroke-linejoin="round"/>
</symbol><symbol id="large-ellipse-4" viewBox="0 0 655 612">
<path d="M652.752 378.255C661.662 183.792 600.79 33.1617 407.192 9.00983C213.594 -15.1421 9.9591 7.9399 1.0494 202.403C-7.8603 396.867 147.659 581.479 341.257 605.631C534.855 629.783 643.842 572.719 652.752 378.255Z" stroke="#ECE6E1" stroke-linecap="round" stroke-linejoin="round"/>
</symbol><symbol id="long-line-1" viewBox="0 0 195 19">
<path d="M1 1L74.4311 14.7501C108.555 21.1398 143.755 18.5368 176.568 7.197L194.5 1" stroke="#ECE6E1" stroke-linecap="round" stroke-linejoin="round"/>
</symbol><symbol id="long-line-2" viewBox="0 0 181 13">
<path d="M0.5 8.00011L46.7246 1.72269C69.7324 -1.40183 140.803 3.10465 163.5 8.00009L180.194 11.6008" stroke="#ECE6E1" stroke-linecap="round" stroke-linejoin="round"/>
</symbol><symbol id="mask2" viewBox="0 0 1301 80.29">
		
		<g>
				<g>
						<path class="cls-1" d="M650,70.79C346.43,70.79,89.15,41.6.5,1.25V79.79h1300V.78C1212.81,41.38,954.73,70.79,650,70.79Z"/>
				</g>
		</g>
</symbol><symbol id="mask3" viewBox="0 0 1301 197.29">
		
		<g>
				<g>
						<path class="cls-1" d="M650,70.79C346.43,70.79,89.15,41.6.5,1.25V196.79h1300V.78C1212.81,41.38,954.73,70.79,650,70.79Z"/>
				</g>
		</g>
</symbol><symbol id="medium-ellipse-1" viewBox="0 0 144 145">
<path d="M68.9 0.599941C104.1 4.49994 133.7 25.9999 141.4 60.1999C148.1 89.9999 135.5 120.8 111.4 135.2C98.8 142.7 83.8 145.4 69.1 144.9C39.1 143.8 14 129.8 4.69998 101.1C1.59998 91.5999 0.699978 81.5999 0.299978 71.5999C-0.600022 53.0999 -2.19345e-05 33.6999 11.8 19.0999C17.9 11.4999 26.7 6.19994 36 3.19994C46.6 -0.100059 57.9 -0.600059 68.9 0.599941Z" fill="currentColor"/>
</symbol><symbol id="medium-ellipse-2" viewBox="0 0 143 144">
<path d="M0 83.2564C0 38.6346 40.474 0 85 0C129.526 0 143 29.7885 143 74.4103C143 119.032 113.378 144 68.8519 144C24.3259 144 0 127.878 0 83.2564Z" fill="currentColor"/>
</symbol><symbol id="medium-ellipse-3" viewBox="0 0 145.1 142.4">
<path fill="currentColor" d="M140.9,95.7C151.4,52.3,144,17,100.8,6.5C57.5-4,12.9-6.7,2.4,36.7c-10.5,43.4,14,91.4,57.3,101.8
	C103,149,130.4,139.1,140.9,95.7z"/>
</symbol><symbol id="medium-ellipse-4" viewBox="0 0 143 145">
<path d="M143 66.7436C143 111.365 118.526 145 74 145C29.474 145 0 120.212 0 75.5897C0 30.968 38.4493 0 82.9753 0C127.501 0 143 22.1218 143 66.7436Z" fill="currentColor"/>
</symbol><symbol id="menu" viewBox="0 0 32 10">
<line x1="1" y1="1" x2="31" y2="1" stroke="#5B6356" stroke-width="2" stroke-linecap="round" stroke-linejoin="round"/>
<line x1="1" y1="9" x2="31" y2="9" stroke="#5B6356" stroke-width="2" stroke-linecap="round" stroke-linejoin="round"/>
</symbol><symbol id="nav-ellipse-1" viewBox="0 0 81.2 58.8">
<path fill="currentColor" d="M80.2,40C83.9,22,77.9,7,52.8,1.9C27.8-3.2,4.3,2,0.6,20c-3.7,18.1,10.9,31.6,35.9,36.7C61.5,61.8,76.5,58.1,80.2,40z"/>
</symbol><symbol id="nav-ellipse-2" viewBox="0 0 233.9 68.1">
<path fill="currentColor" d="M233.6,42.7c-3.7,34.6-154,25.1-192,21C3.6,59.6-8.9,37.2,6.1,17.2c15-20,35.5-18.5,112.5-15
	C195.6,5.7,237.4,8.2,233.6,42.7z"/>
</symbol><symbol id="nav-ellipse-3" viewBox="0 0 99 58.7">
<path fill="currentColor" d="M0.4,39.3C-3.3,21.3,21.2,7,46.2,1.9C71.2-3.2,94.8,2,98.5,20c3.7,18.1-10.9,31.6-35.9,36.7C37.6,61.8,4.1,57.4,0.4,39.3z"/>
</symbol><symbol id="nav-ellipse-4" viewBox="0 0 180.7 62.5">
<path fill="currentColor" d="M0.1,31.1C1.8-1.3,118.1-1.1,147.6,0.6c29.5,1.6,39.8,21.7,28.9,41.2C165.5,61.2,149.6,61,90.1,62.2
	C30.6,63.3-1.7,63.5,0.1,31.1z"/>
</symbol><symbol id="small-line-1" viewBox="0 0 116 17">
<path d="M1 10.5V10.5C39.0971 19.8628 79.4918 16.5711 115.5 1V1" stroke="#ECE6E1" stroke-linecap="round" stroke-linejoin="round"/>
</symbol><symbol id="small-line-2" viewBox="0 0 133 10">
<path d="M0.5 9.00009L46.7246 2.72267C69.7324 -0.401842 93.1086 0.503913 115.806 5.39936L132.5 9.00009" stroke="#ECE6E1" stroke-linecap="round" stroke-linejoin="round"/>
</symbol><symbol id="small-line-3" viewBox="0 0 173 20">
<path d="M1 7.5L29.1768 3.28457C52.4873 -0.202819 76.2611 1.03512 99.0832 6.92471L141.671 17.915C151.93 20.5625 162.779 19.7126 172.5 15.5V15.5" stroke="#ECE6E1" stroke-linecap="round" stroke-linejoin="round"/>
</symbol><symbol id="step-line" viewBox="0 0 674 524">
<path d="M26.5 34.5L31.6017 30.9235C59.8472 11.1226 93.5052 0.5 128 0.5V0.5M419 28V28C456.95 55.8948 502.901 71 550 71V71M0.5 338V338C0.5 303.02 20.1157 270.995 51.2763 255.101L61.3214 249.977C70.3976 245.348 80.0657 241.984 90.0555 239.981L170.813 223.788C231.647 211.59 294.285 233.601 334.116 281.172V281.172C360.473 312.65 397.358 333.493 437.921 339.831L458.022 342.972C543.32 356.3 628.226 316.816 673 243V243M124.5 479L163.437 506.503C178.324 517.018 197.694 518.779 214.232 511.119V511.119C227.441 505.001 242.637 504.827 255.983 510.641L285.5 523.5" stroke="#ECE6E1" stroke-linecap="round" stroke-linejoin="round"/>
</symbol><symbol id="triangle-down" viewBox="0 0 16 8">
<path d="M0.5 0H15.5L13.773 1.09902C11.3041 2.6701 9.3087 4.88261 8 7.5C6.6913 4.88261 4.69586 2.67009 2.22703 1.09902L0.5 0Z" fill="#9BC045"/>
</symbol><symbol id="wave" viewBox="0 0 1440 320"><path fill="#ffffff" fill-opacity="1" d="M0,64L120,90.7C240,117,480,171,720,165.3C960,160,1200,96,1320,64L1440,32L1440,320L1320,320C1200,320,960,320,720,320C480,320,240,320,120,320L0,320Z"/></symbol><symbol id="wave2" viewBox="0 0 1440 320"><path fill="red" fill-opacity="1" d="M0,224L60,229.3C120,235,240,245,360,245.3C480,245,600,235,720,229.3C840,224,960,224,1080,234.7C1200,245,1320,267,1380,277.3L1440,288L1440,320L1380,320C1320,320,1200,320,1080,320C960,320,840,320,720,320C600,320,480,320,360,320C240,320,120,320,60,320L0,320Z"/></symbol><symbol id="yellow-ellipse-1" viewBox="0 0 478 462"><g><g><path fill="#ffb422" d="M0 258.641C0 109.255 51.807 0 200.642 0 349.477 0 478 79.64 478 229.026 478 378.412 378.983 462 230.148 462S0 408.027 0 258.641z"/></g></g></symbol><symbol id="yellow-ellipse-2" viewBox="0 0 488 453"><g><g><path fill="#ffa722" d="M0 132.661C0-16.616 124.316.605 273.239.605 422.162.605 488 72.472 488 221.75 488 371.027 407.727 453 258.804 453S0 281.94 0 132.661z"/></g></g></symbol><symbol id="yellow-ellipse-3" viewBox="0 0 478 451">
<path d="M0 247.641C0 98.2551 66.6649 0.5 215.5 0.5C364.335 0.5 478 68.6397 478 218.026C478 367.412 378.983 451 230.148 451C81.3131 451 0 397.027 0 247.641Z" fill="#FFB422"/>
</symbol><symbol id="yellow-ellipse-4" viewBox="0 0 462 450">
<path d="M0.5 204.5C0.5 55.2225 83.8807 0.5 232.804 0.5C381.727 0.5 462 69.472 462 218.749C462 368.027 381.727 450 232.804 450C83.8807 450 0.5 353.777 0.5 204.5Z" fill="#FFA722"/>
</symbol></svg>